<svg xmlns="http://www.w3.org/2000/svg" viewBox="0 0 284.81 175.66" fill="#4e76cd"><title>Fichier 18</title><g id="Calque_2" data-name="Calque 2"><g id="Calque_1-2" data-name="Calque 1"><path d="M256.33,149.24a1.86,1.86,0,0,1-1.13-1.19,1.9,1.9,0,0,1,.24-1.62,131.71,131.71,0,0,0,10.36-17.49c-9.22,6.86-21.5,10.8-34.39,10.8q-1.92,0-3.81-.12v2.95a1.5,1.5,0,0,1,0,.37s0,.07,0,.11l-.09.26,0,.1a1.67,1.67,0,0,1-.18.28v0a2.13,2.13,0,0,1-.26.26l0,0-28.39,23.2c8.78,5.53,19.75,8.45,31.9,8.45,19.94,0,40.82-7.82,54.38-20.17A121.23,121.23,0,0,1,256.33,149.24Z"/><path d="M218.46,146.12q-8,1.73-16,3.07l-3.69,13Z"/><path d="M54.38,0C34.44,0,13.56,7.83,0,20.17a120.71,120.71,0,0,1,28.48,6.26,1.84,1.84,0,0,1,1.13,1.18,1.86,1.86,0,0,1-.25,1.62A133.45,133.45,0,0,0,19,46.73C28.23,39.86,40.5,35.92,53.4,35.92c1.08,0,2.15,0,3.22.09v-9.6a1.68,1.68,0,0,1,.06-.45.58.58,0,0,1,0-.14,1.36,1.36,0,0,1,.11-.28l.09-.15.17-.22.13-.13.09-.09.13-.08s0-.05.09-.06L85.89,8.2C77.17,2.83,66.35,0,54.38,0Z"/><path d="M81.53,29.23l4.83-17L63.45,25.65Q72.44,27.68,81.53,29.23Z"/><path d="M142.11,87.37q-16.83,0-33.6-1.58a307.28,307.28,0,0,1-39.07,8.07,359.11,359.11,0,0,0,72.67,7.45,359.37,359.37,0,0,0,44.35-2.77q15.35-8.66,30.48-19a362.5,362.5,0,0,1-74.82,7.83Z"/><path d="M125.5,125.34a2.57,2.57,0,0,0-1.4-.46,2.73,2.73,0,0,0-2.24,1,4.48,4.48,0,0,0-1.13,2.62c2.39.13,3.59.19,6,.28,0-.22,0-.33,0-.54a3.9,3.9,0,0,0-.3-1.71A2.73,2.73,0,0,0,125.5,125.34Z"/><path d="M119.3,128a13.2,13.2,0,0,1,1.76-2.67,7.7,7.7,0,0,0-3.57,6.16,6,6,0,0,0,1.66,4.78,6.36,6.36,0,0,0,4.42,2,8.36,8.36,0,0,0,3-.44,6.44,6.44,0,0,0,2.59-1.6,11.61,11.61,0,0,1-2.21,1,7.89,7.89,0,0,1-2.68.3,5.83,5.83,0,0,1-5.74-6.46A8.26,8.26,0,0,1,119.3,128Z"/><path d="M105.88,124.65h-.77a2.67,2.67,0,0,1,1.55,2.79l-.7,7.43a1.54,1.54,0,0,1-.27.81,3.13,3.13,0,0,1-.62.52,2.36,2.36,0,0,0,1.49-.36,2,2,0,0,0,.56-1.4c.26-2.76.38-4.14.63-6.9a3.27,3.27,0,0,0-.32-2.09A2,2,0,0,0,105.88,124.65Z"/><path d="M113.59,125.6a2.14,2.14,0,0,0-1-.59,2.4,2.4,0,0,0-1.24.51,1.6,1.6,0,0,1,.9.37,3.17,3.17,0,0,0,1.71.93c.59,0,1-.29,1.37-1a1.92,1.92,0,0,1-.72.18A1.85,1.85,0,0,1,113.59,125.6Z"/><path d="M136.26,125.11a8.22,8.22,0,0,0-1.87,1.16,1.78,1.78,0,0,0-.67,1.32.81.81,0,0,0,.34.62,1.23,1.23,0,0,0,.83.3,1.79,1.79,0,0,0,1.3-.44,1.29,1.29,0,0,1-.93-.24.84.84,0,0,1-.32-.66,1.53,1.53,0,0,1,.3-.91A13.44,13.44,0,0,1,136.26,125.11Z"/><path d="M125.36,124.83a3.4,3.4,0,0,1,1.51,1.3,4.54,4.54,0,0,1,.4,2.34v.33l1.19,0a4.34,4.34,0,0,0-.69-2.74A4,4,0,0,0,125.36,124.83Z"/><path d="M82.08,118.94a11.16,11.16,0,0,1,2-2.91,14.14,14.14,0,0,1,2.69-2.16,30.36,30.36,0,0,1,3-1.53A15.77,15.77,0,0,0,85.32,114a11.14,11.14,0,0,0-1.95,1.48,12.15,12.15,0,0,0-1.58,1.86,11.91,11.91,0,0,0-1.19,2.24,12.06,12.06,0,0,0-.37,8,10.46,10.46,0,0,0,3.14,4.72,13.48,13.48,0,0,0,5.8,2.92,15.34,15.34,0,0,1-4-2.29,12,12,0,0,1-2.8-3.15A10.7,10.7,0,0,1,81,126.11a11.18,11.18,0,0,1,0-3.87A11.44,11.44,0,0,1,82.08,118.94Z"/><path d="M195.73,133.49a5.83,5.83,0,0,1-6.91-5.2,8.25,8.25,0,0,1,.13-3.16,13.28,13.28,0,0,1,1.2-3,7.69,7.69,0,0,0-2.29,6.75,6,6,0,0,0,2.56,4.36,6.42,6.42,0,0,0,4.75,1.13,8.37,8.37,0,0,0,2.89-1,6.46,6.46,0,0,0,2.23-2.08,11.34,11.34,0,0,1-2,1.39A7.62,7.62,0,0,1,195.73,133.49Z"/><path d="M163.18,119.43a4.69,4.69,0,0,1-.84-.79,1.68,1.68,0,0,1-.31-.92,2.07,2.07,0,0,1,.91-1.82,2.2,2.2,0,0,0-1.47.56,1.53,1.53,0,0,0-.45,1.29,1.71,1.71,0,0,0,.59,1.24A2.26,2.26,0,0,0,163.18,119.43Z"/><path d="M223.89,100.74V95.66A361.87,361.87,0,0,1,142.11,105a361.87,361.87,0,0,1-81.78-9.36V141.1a358.45,358.45,0,0,0,81.78,9.46h0a358.43,358.43,0,0,0,81.77-9.46Zm-63.18,15.92a2.19,2.19,0,0,1,.79-.89,2.38,2.38,0,0,1,1.13-.38,2.46,2.46,0,0,1,1.19.23,2.34,2.34,0,0,1,.92.76,2.37,2.37,0,0,1,.4,1.12,2.19,2.19,0,0,1-.24,1.18,2.24,2.24,0,0,1-.8.9,2.34,2.34,0,0,1-1.17.4,2.33,2.33,0,0,1-2.46-2.16A2.33,2.33,0,0,1,160.71,116.66ZM123,116.48c2,.1,2.93.14,4.88.21-2.4,2-3.62,2.94-6.09,4.87l-.94,0C121.71,119.5,122.14,118.5,123,116.48Zm-38.4,11.81a9.06,9.06,0,0,0,2.6,4.35,8.15,8.15,0,0,0,4.49,2.05,9.65,9.65,0,0,0,6.26-1.26,12.76,12.76,0,0,0,2.84-2.25l1,.65a12.52,12.52,0,0,1-5.17,3.47,14.05,14.05,0,0,1-6.54.52,13.77,13.77,0,0,1-5-1.66A11.85,11.85,0,0,1,81.36,131a11,11,0,0,1-2-4.21,11.79,11.79,0,0,1-.1-4.7,12.31,12.31,0,0,1,1.79-4.64A12.06,12.06,0,0,1,84.34,114a12.23,12.23,0,0,1,4.22-1.87,13.14,13.14,0,0,1,4.73-.2,11.39,11.39,0,0,1,1.69.37c.52.17,1.13.39,1.84.68l1.43.57a4,4,0,0,0,.89.2,2.86,2.86,0,0,0,2.26-.66l1.34.15c-.32,2.89-.47,4.33-.79,7.22l-1-.11a18.74,18.74,0,0,0-1.37-3,11.15,11.15,0,0,0-1.67-2.25,7.47,7.47,0,0,0-2-1.47,7,7,0,0,0-2.31-.71,6.51,6.51,0,0,0-3.21.31,7.23,7.23,0,0,0-2.71,1.8,11.32,11.32,0,0,0-2.08,3.17,16.25,16.25,0,0,0-1.25,4.21A13.54,13.54,0,0,0,84.59,128.29Zm30.7-1.41a1.69,1.69,0,0,1-1.37.52,2.76,2.76,0,0,1-.78-.19,2.28,2.28,0,0,1-.69-.4l-.33-.31a2.6,2.6,0,0,0-.32-.25.55.55,0,0,0-.31-.11,1,1,0,0,0-.65.18,6.54,6.54,0,0,0-.78.61c-.27,3.15-.4,4.73-.67,7.89a2.14,2.14,0,0,0,.15,1.23,1.14,1.14,0,0,0,.75.52,12.6,12.6,0,0,0,1.86.24c0,.36,0,.54-.07.9-3.77-.29-5.66-.46-9.43-.85l.1-.9.47,0c1.35.14,2.08-.3,2.17-1.3l.7-7.33c.12-1.26-.6-2.19-2.17-2.82L104,124c2.24-.45,3.36-.68,5.59-1.17l.83.08c-.09,1-.13,1.51-.21,2.51a20,20,0,0,1,2.15-1.8,2.64,2.64,0,0,1,1.72-.42,1.92,1.92,0,0,1,1.38.68,2,2,0,0,1,.49,1.5A2.32,2.32,0,0,1,115.29,126.88Zm5.74,5.58a5.12,5.12,0,0,0,1.33,2,5.35,5.35,0,0,0,1.82,1.11,6.13,6.13,0,0,0,1.89.39,6,6,0,0,0,4.06-1.37l.69.52a7.62,7.62,0,0,1-1.94,2.21,7.32,7.32,0,0,1-2.44,1.24,8.68,8.68,0,0,1-2.75.31,7.54,7.54,0,0,1-3.56-1,6.32,6.32,0,0,1-2.47-2.65,7.21,7.21,0,0,1-.72-3.78,8.36,8.36,0,0,1,.77-3,8.09,8.09,0,0,1,1.74-2.44,7.57,7.57,0,0,1,2.43-1.59,6.92,6.92,0,0,1,2.86-.48,7.34,7.34,0,0,1,2.88.73,5.52,5.52,0,0,1,2.14,1.77,5.37,5.37,0,0,1,.82,1.64,12.4,12.4,0,0,1,.37,2c-4.15-.1-6.23-.19-10.38-.41A7.47,7.47,0,0,0,121,132.46Zm24.43,6.33a3.49,3.49,0,0,1-1.73.43,3,3,0,0,1-1.82-.47,2.58,2.58,0,0,1-.92-1.5,7.51,7.51,0,0,1-4.81,1.94,4,4,0,0,1-2.67-.86,2.58,2.58,0,0,1-.95-2.1,3.07,3.07,0,0,1,.64-1.91,5.75,5.75,0,0,1,1.6-1.39c.66-.4,1.62-.91,2.89-1.53s2.31-1.16,3.12-1.61v-2.48a2.45,2.45,0,0,0-.54-1.69,2,2,0,0,0-1.57-.57,2.8,2.8,0,0,0-1.44.31c-.34.21-.52.44-.52.69a1.8,1.8,0,0,0,.22.48,1.72,1.72,0,0,1,.21.77,1.63,1.63,0,0,1-.62,1.25,2.15,2.15,0,0,1-1.52.54,2.07,2.07,0,0,1-1.38-.46,1.3,1.3,0,0,1-.49-1,2.37,2.37,0,0,1,.89-1.66,6.49,6.49,0,0,1,2.37-1.3,10.26,10.26,0,0,1,3.31-.5,6.84,6.84,0,0,1,2.46.43,4.12,4.12,0,0,1,1.84,1.33,3.53,3.53,0,0,1,.71,2.17c0,3.34.07,5,.12,8.34,0,.66.21,1,.62,1a1.46,1.46,0,0,0,.89-.56c.26.28.39.42.66.69A8.29,8.29,0,0,1,145.46,138.79Zm11-.58a4.91,4.91,0,0,1-2.5.72,3.38,3.38,0,0,1-2.13-.48,2.8,2.8,0,0,1-1.1-1.48,8.33,8.33,0,0,1-.36-2.33c-.1-3.73-.16-5.6-.27-9.33l-1.81,0,0-.84c1-.74,1.7-1.32,2.18-1.72a13.32,13.32,0,0,0,1.36-1.35,9.21,9.21,0,0,0,1.08-1.55l.88,0c.07,1.72.1,2.57.17,4.28,1.68-.07,2.52-.1,4.2-.19l.05,1c-1.68.09-2.52.13-4.21.19l.4,9.81a3.48,3.48,0,0,0,.35,1.6,1,1,0,0,0,1,.49,2.11,2.11,0,0,0,1.15-.38,8.52,8.52,0,0,0,1.26-1.08l.68.61A11.77,11.77,0,0,1,156.42,138.21Zm3.9,0,0-.9a2.5,2.5,0,0,0,1.5-.5,1.74,1.74,0,0,0,.34-1.37c-.19-3-.28-4.51-.46-7.52a2.09,2.09,0,0,0-.58-1.28,3,3,0,0,0-1.45-.82l0-.52c2-.79,3-1.19,4.95-2l.7,0c.34,4.73.51,7.1.86,11.83a3,3,0,0,0,.25,1.12,1,1,0,0,0,.67.49,5.86,5.86,0,0,0,1.44.07c0,.36,0,.54.07.9C165.25,137.89,163.61,138,160.32,138.19Zm23-14.25a9.23,9.23,0,0,0-1.09,2.49c-1.35,4.28-2.06,6.42-3.51,10.69l-1.41.15c-2.56-4.35-3.81-6.53-6.23-10.92a6,6,0,0,0-1.28-1.72,2.07,2.07,0,0,0-1.47-.4c0-.39-.05-.58-.08-1,3.39-.28,5.08-.44,8.46-.8l.1.9-.63.06a1.72,1.72,0,0,0-1,.46,1.06,1.06,0,0,0-.35.85,7,7,0,0,0,.73,1.6c1.44,2.53,2.18,3.8,3.66,6.32.59-1.73.88-2.59,1.45-4.32a7.52,7.52,0,0,0,.5-2.93,2.63,2.63,0,0,0-.63-1.51,2.36,2.36,0,0,0-1.42-.72l-.11-1c2.31-.26,3.47-.4,5.78-.7.05.38.08.57.13,1A4.84,4.84,0,0,0,183.33,123.94Zm16.88,8.46a7.53,7.53,0,0,1-2.16,1.69,8.75,8.75,0,0,1-2.65.85,7.59,7.59,0,0,1-3.7-.33,6.36,6.36,0,0,1-2.95-2.12,7.27,7.27,0,0,1-1.45-3.56,8.39,8.39,0,0,1,.16-3.13,8.2,8.2,0,0,1,1.23-2.74,7.44,7.44,0,0,1,2.08-2,6.82,6.82,0,0,1,2.72-1,7.44,7.44,0,0,1,3,.15,5.58,5.58,0,0,1,2.45,1.31A5.24,5.24,0,0,1,200,122.9a11.74,11.74,0,0,1,.76,1.89c-4.11.72-6.17,1-10.29,1.64a7.7,7.7,0,0,0,1,2.77,5.3,5.3,0,0,0,1.7,1.67,5.4,5.4,0,0,0,2,.74,6.65,6.65,0,0,0,1.94,0,6.12,6.12,0,0,0,3.72-2.15l.78.38A8,8,0,0,1,200.21,132.4Z"/><path d="M123.14,117.39c-.53,1.31-.8,2-1.35,3.27,1.3-1.27,1.95-1.9,3.23-3.18Z"/><path d="M100.28,117.16c.09-1.11.13-1.67.22-2.78a3.92,3.92,0,0,1-1.67.15,4.25,4.25,0,0,1-.76-.16,12.53,12.53,0,0,1,1.25,1.4C99.65,116.21,100,116.67,100.28,117.16Z"/><path d="M134.26,136a3,3,0,0,1,.48-1.57,9.46,9.46,0,0,1,1.4-1.65,9.53,9.53,0,0,0-2.2,1.54,2.72,2.72,0,0,0-.81,1.89,2,2,0,0,0,.91,1.68,3.35,3.35,0,0,0,2,.69,5.25,5.25,0,0,0,1.66-.18,4.71,4.71,0,0,1-2.55-.63A1.93,1.93,0,0,1,134.26,136Z"/><path d="M196.39,124.46c0-.21,0-.32-.08-.53a3.82,3.82,0,0,0-.63-1.62,2.76,2.76,0,0,0-1.15-1,2.57,2.57,0,0,0-1.46-.18,2.78,2.78,0,0,0-2,1.43,4.54,4.54,0,0,0-.6,2.79C192.84,125,194,124.85,196.39,124.46Z"/><path d="M177.65,134.46c-2-3.38-3-5.08-4.85-8.5a5.85,5.85,0,0,0-1.14-1.55,1.78,1.78,0,0,0-1.38-.41l-.37,0a2.51,2.51,0,0,1,.89.81,10.32,10.32,0,0,1,.71,1.14c2.38,4.28,3.6,6.41,6.1,10.65l.26-.06.28-.67a.78.78,0,0,0,0-.45A3,3,0,0,0,177.65,134.46Z"/><path d="M163.31,127.63a2.34,2.34,0,0,0-.63-1.58,1.81,1.81,0,0,0-1.42-.47,3,3,0,0,0-.62.07,2.45,2.45,0,0,1,1.57,2.27l.5,7.77a1.64,1.64,0,0,1-.63,1.49,2,2,0,0,0,1.38-.5,1.75,1.75,0,0,0,.36-1.37C163.62,132.24,163.51,130.7,163.31,127.63Z"/><path d="M196.88,124.05c0,.13,0,.2.06.33l1.18-.2a4.36,4.36,0,0,0-1.22-2.55,4,4,0,0,0-2.61-.77,3.42,3.42,0,0,1,1.75,1A4.45,4.45,0,0,1,196.88,124.05Z"/><path d="M153,137.45a3.16,3.16,0,0,1-.91-2.45c-.18-5-.26-7.52-.43-12.53l-1.08.94c.13,4.35.2,6.53.33,10.89a6.42,6.42,0,0,0,.7,3.15,2.31,2.31,0,0,0,2.21.91,5.53,5.53,0,0,0,1.64-.31A3.34,3.34,0,0,1,153,137.45Z"/><path d="M143,137.73a3.57,3.57,0,0,1-.45-2c0-3,0-4.52-.06-7.53a4,4,0,0,0-.52-2.35,2.43,2.43,0,0,0-1.72-.78,1.7,1.7,0,0,1,.88,1,8,8,0,0,1,.23,2.35c0,2.59,0,3.89,0,6.48a7.3,7.3,0,0,0,.45,2.86,1.71,1.71,0,0,0,1.73.93,2.85,2.85,0,0,0,.93-.14A2,2,0,0,1,143,137.73Z"/><path d="M181.63,125.09a5.75,5.75,0,0,1,1.48-2.45c-1.1.14-1.66.21-2.76.33A2.54,2.54,0,0,1,181.63,125.09Z"/><path d="M137.73,133a3.3,3.3,0,0,0-.9,2.29,1.82,1.82,0,0,0,.52,1.4,1.7,1.7,0,0,0,1.22.5,3.41,3.41,0,0,0,2.26-1.05c0-2.1,0-3.16,0-5.26A12.33,12.33,0,0,0,137.73,133Z"/><path d="M134.6,60.16a2.73,2.73,0,0,1,1.09.92,3.25,3.25,0,0,1,.26,1.55c0,5.25-.08,7.88-.14,13.14a2.14,2.14,0,0,1-.15.88,1.33,1.33,0,0,1-.53.59,1.73,1.73,0,0,0,1.36-.53,2.88,2.88,0,0,0,.32-1.56l.1-12.6a2.73,2.73,0,0,0-.53-1.88A2.05,2.05,0,0,0,134.6,60.16Z"/><path d="M116.32,58.55a7.21,7.21,0,0,0-1.66.86,1.51,1.51,0,0,0-.65,1.08.67.67,0,0,0,.25.55,1,1,0,0,0,.68.3,1.47,1.47,0,0,0,1.14-.29,1.06,1.06,0,0,1-.78-.26.73.73,0,0,1-.23-.58,1.27,1.27,0,0,1,.32-.75A10.28,10.28,0,0,1,116.32,58.55Z"/><path d="M120.43,59.64a6.87,6.87,0,0,1,0,2c-.15,2.2-.22,3.3-.38,5.5a6.13,6.13,0,0,0,.21,2.45,1.48,1.48,0,0,0,1.43.9,2.12,2.12,0,0,0,.8-.07,1.78,1.78,0,0,1-1.24-.74A3.13,3.13,0,0,1,121,68c.16-2.55.25-3.83.41-6.38a3.45,3.45,0,0,0-.3-2,2,2,0,0,0-1.42-.76A1.4,1.4,0,0,1,120.43,59.64Z"/><path d="M115.33,70a4.76,4.76,0,0,0,1.42,0,4,4,0,0,1-2.14-.7,1.66,1.66,0,0,1-.68-1.56,2.48,2.48,0,0,1,.51-1.3,8.35,8.35,0,0,1,1.3-1.31,8.18,8.18,0,0,0-2,1.17,2.23,2.23,0,0,0-.82,1.55,1.68,1.68,0,0,0,.67,1.48A2.94,2.94,0,0,0,115.33,70Z"/><path d="M117.54,69a2.94,2.94,0,0,0,2-.74l.31-4.47a10.71,10.71,0,0,0-2.77,1.61,2.84,2.84,0,0,0-.91,1.89,1.58,1.58,0,0,0,.35,1.22A1.5,1.5,0,0,0,117.54,69Z"/><path d="M183.16,57.93c-.16-.62-.24-.94-.39-1.56q-1-.21-1.56-.27a6.33,6.33,0,0,0-1.57.11,6,6,0,0,1,1.84.56A9.87,9.87,0,0,1,183.16,57.93Z"/><path d="M177.28,61.67a11.89,11.89,0,0,0,3.21,1.21,27.15,27.15,0,0,1,3,.92,1.67,1.67,0,0,1,1.12,1.32,2.54,2.54,0,0,1,0,.85,3.41,3.41,0,0,0,.49-.72,1.47,1.47,0,0,0,.06-.8c-.17-1-1.07-1.62-2.68-2a29.43,29.43,0,0,1-3.46-.91,5.16,5.16,0,0,1-1.89-1,2.56,2.56,0,0,1-.75-1.56,3,3,0,0,1,.16-1.38,4.78,4.78,0,0,0-.48,1,2.44,2.44,0,0,0-.08,1.1A2.65,2.65,0,0,0,177.28,61.67Z"/><path d="M97.08,48.8l-.41-.07a2.12,2.12,0,0,1,.66.85,3.27,3.27,0,0,1,0,1.44c-.9,5.64-1.35,8.46-2.26,14.1a1.82,1.82,0,0,1-.43,1,2.06,2.06,0,0,1-.9.52l.25.07.25.07c1,.16,1.61-.43,1.82-1.77.83-5.29,1.25-7.94,2.08-13.23a7.28,7.28,0,0,0,.1-2.1C98.15,49.2,97.77,48.91,97.08,48.8Z"/><path d="M177.08,65.34c.09.69.14,1,.24,1.72a18.39,18.39,0,0,0,2.58.38,8.31,8.31,0,0,1-1.53-.86A13.6,13.6,0,0,1,177.08,65.34Z"/><path d="M143.42,70a4,4,0,0,0,1.34-1.8,7.38,7.38,0,0,0,.45-2.93,7.47,7.47,0,0,0-.55-2.84,4,4,0,0,0-1.35-1.73,3.22,3.22,0,0,0-1.88-.56,4.48,4.48,0,0,0-2.61,1v8.23a4.18,4.18,0,0,0,2.71,1.21A3.18,3.18,0,0,0,143.42,70Z"/><path d="M152,53.59a5.73,5.73,0,0,1,.35,1.85c.27,5.22.4,7.82.67,13a1.9,1.9,0,0,1-.54,1.52q1-.09,1.29-.6a3.06,3.06,0,0,0,.19-1.46c-.27-5-.41-7.53-.68-12.55a11.64,11.64,0,0,0-.18-1.57,1.58,1.58,0,0,0-.58-1,2,2,0,0,0-1.39-.33,5.94,5.94,0,0,0-.74.06C151.22,52.79,151.76,53.12,152,53.59Z"/><path d="M160.26,59.84a3.92,3.92,0,0,1,.28,1.28c.17,2.06.25,3.09.42,5.15a4.05,4.05,0,0,0,1.18,2.79,3.3,3.3,0,0,0,2.7.8,6.56,6.56,0,0,0,.92-.14,4,4,0,0,1-2.68-.73A3.08,3.08,0,0,1,162,66.73l-.53-6.26q-.15-1.74-1.56-1.62l-.24,0-.26,0A2.06,2.06,0,0,1,160.26,59.84Z"/><path d="M171.07,68.42a1.7,1.7,0,0,0,.11-1c-.35-3-.52-4.47-.87-7.44a3.69,3.69,0,0,0-.46-1.52,1.19,1.19,0,0,0-1.26-.44l-.21.06-.23.05a1.84,1.84,0,0,1,.88.78,3.75,3.75,0,0,1,.35,1.3l1,8.79A1.36,1.36,0,0,0,171.07,68.42Z"/><path d="M144.47,61.17a6.73,6.73,0,0,1,1.22,4.12,7.11,7.11,0,0,1-.48,3.2,5.49,5.49,0,0,1-1.54,1.91,4.14,4.14,0,0,0,2.71-2.86,7.32,7.32,0,0,0,.29-2.35,8.37,8.37,0,0,0-.48-2.72,5.28,5.28,0,0,0-1.06-1.81,4.23,4.23,0,0,0-1.32-.95,3.14,3.14,0,0,0-1.31-.3,3.53,3.53,0,0,0-1.36.34h.35A3.57,3.57,0,0,1,144.47,61.17Z"/><path d="M107.24,67.38a9.8,9.8,0,0,1-2.34.87l2.74.32c.64-1,1-1.55,1.59-2.59A9.6,9.6,0,0,1,107.24,67.38Z"/><path d="M60.33,69.55v4.64a358.45,358.45,0,0,0,81.78,9.46h0a358.43,358.43,0,0,0,81.77-9.46V28.76a362.44,362.44,0,0,1-81.78,9.36,362.44,362.44,0,0,1-81.78-9.36ZM176.41,57.08a5.18,5.18,0,0,1,3.17-1.53,9.25,9.25,0,0,1,2-.1c.63,0,1.34.14,2.13.28l.7,3.23-.71.12A11.25,11.25,0,0,0,181,57a3.89,3.89,0,0,0-2.37-.5,1.6,1.6,0,0,0-1.08.61,1.31,1.31,0,0,0-.31,1,1.24,1.24,0,0,0,.72,1,14.78,14.78,0,0,0,2.55.81c1.29.33,2.43.65,3.43,1a3.58,3.58,0,0,1,1.57,1,3.11,3.11,0,0,1,.81,1.59,3.26,3.26,0,0,1-.32,2.07,4.48,4.48,0,0,1-1.59,1.72,6.34,6.34,0,0,1-2.56,1,13.11,13.11,0,0,1-5-.34l-.5-3.62.8-.11a9.71,9.71,0,0,0,2.76,2.46,4,4,0,0,0,2.56.58,2.15,2.15,0,0,0,1.28-.68,1.31,1.31,0,0,0,.43-1.13,1.16,1.16,0,0,0-.62-1,17.83,17.83,0,0,0-3.45-1.08c-2.83-.53-4.36-1.7-4.59-3.44A3.26,3.26,0,0,1,176.41,57.08Zm-13.27.72.75,8.21a6.24,6.24,0,0,0,.36,1.69,1.77,1.77,0,0,0,.76.92,2.13,2.13,0,0,0,1.27.21,5.63,5.63,0,0,0,3.37-1.9l-.75-6.64c-.15-1.4-.86-2.07-2.1-2,0-.32-.06-.49-.09-.81,2.06-.22,3.09-.34,5.14-.59.47,3.77.71,5.65,1.17,9.42a1.45,1.45,0,0,0,.32.82,1,1,0,0,0,.66.28,4.71,4.71,0,0,0,1.08,0l.13,0c0,.32.07.47.11.79-2.14.67-3.21,1-5.36,1.63-.09-.76-.13-1.14-.21-1.91A7.85,7.85,0,0,1,165,70.25a4.31,4.31,0,0,1-3.16-.78,3.85,3.85,0,0,1-1.37-2.9l-.38-4.84a10.45,10.45,0,0,0-.2-1.54,1.26,1.26,0,0,0-.55-.75,3.15,3.15,0,0,0-1.43-.39l-.05-.82C160,58.08,161,58,163.14,57.8Zm-8.88-7.3.55,0c.43,7,.64,10.45,1.07,17.41a3,3,0,0,0,.35,1.49q.3.41,1.38.33l.4,0,.05.77c-3,.21-4.5.29-7.5.41,0-.3,0-.45,0-.76l.36,0a1.89,1.89,0,0,0,1.26-.4,1.37,1.37,0,0,0,.34-1.08l-.65-13.21a3.54,3.54,0,0,0-.42-1.64,3,3,0,0,0-1.62-1c0-.21,0-.32,0-.54C151.58,51.55,152.48,51.2,154.26,50.5ZM133.33,77.07A7.54,7.54,0,0,0,134.5,77a.88.88,0,0,0,.59-.32,1.27,1.27,0,0,0,.21-.8c.07-5.27.1-7.91.17-13.19a2.54,2.54,0,0,0-.42-1.63,3,3,0,0,0-1.48-.91l0-.57c1.87-.35,2.81-.53,4.67-.9h.56v1.52a11.17,11.17,0,0,1,2-1.13,5.65,5.65,0,0,1,4.3,0,6.06,6.06,0,0,1,1.9,1.26,6.39,6.39,0,0,1,1.36,2,6.59,6.59,0,0,1,.59,2.49,6.07,6.07,0,0,1-.81,3.35,6.17,6.17,0,0,1-2.49,2.39,7.69,7.69,0,0,1-3.64.89,8.22,8.22,0,0,1-3.16-.61v4.83a2.6,2.6,0,0,0,.12.87.83.83,0,0,0,.53.48,3.28,3.28,0,0,0,1.12.15h.79v.77c-3.22,0-4.84,0-8.07,0Zm-20.2-10.91a5,5,0,0,1,1.46-1.07c.58-.3,1.44-.67,2.56-1.12s2-.83,2.77-1.17c0-.84.08-1.26.14-2.1a2,2,0,0,0-.35-1.46,1.74,1.74,0,0,0-1.3-.59,2.29,2.29,0,0,0-1.24.18c-.31.15-.48.34-.49.55a1.25,1.25,0,0,0,.15.42,1.29,1.29,0,0,1-.47,1.69,1.83,1.83,0,0,1-1.33.35,1.76,1.76,0,0,1-1.15-.47,1.06,1.06,0,0,1-.35-.9,2,2,0,0,1,.86-1.35,5.68,5.68,0,0,1,2.1-.95,9.13,9.13,0,0,1,2.85-.22,6.06,6.06,0,0,1,2.07.52,3.49,3.49,0,0,1,1.48,1.24,3,3,0,0,1,.48,1.89c-.17,2.83-.25,4.24-.41,7.07,0,.57.13.86.48.88a1.24,1.24,0,0,0,.79-.42l.52.63a7.1,7.1,0,0,1-1.42,1,2.9,2.9,0,0,1-1.5.26,2.53,2.53,0,0,1-1.53-.51,2.21,2.21,0,0,1-.69-1.33,6.45,6.45,0,0,1-4.23,1.34,3.51,3.51,0,0,1-2.24-.89,2.21,2.21,0,0,1-.68-1.85A2.65,2.65,0,0,1,113.13,66.16Zm-22.1,0,.19,0a6.48,6.48,0,0,0,2,.11,1.41,1.41,0,0,0,1-.57,3.42,3.42,0,0,0,.46-1.34c.84-5.21,1.27-7.81,2.11-13a4.94,4.94,0,0,0,.06-1.59,1.35,1.35,0,0,0-.72-.91,6.44,6.44,0,0,0-2-.59c0-.31.07-.46.13-.76,3.85.67,5.79,1,9.66,1.5l-.1.76-.44-.06a5.78,5.78,0,0,0-1.69,0,1.33,1.33,0,0,0-.93.59,3.59,3.59,0,0,0-.45,1.43c-.8,5.41-1.2,8.11-2,13.51a2.21,2.21,0,0,0,.11,1.27,1.75,1.75,0,0,0,1,.79,8.63,8.63,0,0,0,2.12.51,11.1,11.1,0,0,0,2.19.1,7.5,7.5,0,0,0,2-.39,9.29,9.29,0,0,0,2.14-1.07,14.37,14.37,0,0,0,2.29-1.88l1.36.14c-1,1.92-1.49,2.87-2.5,4.79-7.28-.79-10.91-1.3-18.14-2.56C91,66.64,91,66.49,91,66.18Z"/></g></g></svg>