<svg xmlns="http://www.w3.org/2000/svg" viewBox="0 0 335.42 134.83" fill="#4e76cd"><title>Fichier 16</title><g id="Calque_2" data-name="Calque 2"><g id="Calque_1-2" data-name="Calque 1"><path d="M59.1,39.47a1.92,1.92,0,0,1,.38-.25l.12,0,.29-.1L60,39a1.88,1.88,0,0,1,.41,0h.06a1.61,1.61,0,0,1,.38.08h.06L77.6,45.06A144.07,144.07,0,0,1,40.55,0L30.92,23.06a1.85,1.85,0,0,1-2,1.12L0,19.37a189.35,189.35,0,0,0,31.34,44Z"/><path d="M274.53,39.11a1.89,1.89,0,0,1,.4-.08h0a2,2,0,0,1,.42,0l.13,0a1.86,1.86,0,0,1,.31.1l.11,0a2.26,2.26,0,0,1,.38.25l27.76,23.9a189.14,189.14,0,0,0,31.34-44l-28.9,4.81a1.86,1.86,0,0,1-2-1.12L294.87,0a144.34,144.34,0,0,1-37.05,45.06l16.66-5.94Z"/><path d="M268.68,45.13,249.52,52l4.2,6.27A125.29,125.29,0,0,0,268.68,45.13Z"/><path d="M81.51,58.51,85.9,52,66.67,45.11A136.35,136.35,0,0,0,81.51,58.51Z"/><path d="M127.18,114.55a7.93,7.93,0,0,0,1.53-3.32,8.44,8.44,0,0,0,.14-3.57,5.05,5.05,0,0,0-1.28-2.51,4.93,4.93,0,0,0-2.32-1.34,6.78,6.78,0,0,0-3.84.24l-2.8,9.69a6.46,6.46,0,0,0,3.34,2.49,5.25,5.25,0,0,0,2.81,0A5,5,0,0,0,127.18,114.55Z"/><path d="M130,105.69a5.79,5.79,0,0,0-1.47-1.59,4.81,4.81,0,0,0-1.66-.81,5.6,5.6,0,0,0-1.91-.1l.46.13a5.28,5.28,0,0,1,3.54,2.75,7.68,7.68,0,0,1,.38,5.31,7.78,7.78,0,0,1-1.66,3.62,6.74,6.74,0,0,1-2.73,1.72,6.54,6.54,0,0,0,2.73-.68,5.29,5.29,0,0,0,1.92-1.76,8,8,0,0,0,1.1-2.7,9.25,9.25,0,0,0,.17-3.39A6.51,6.51,0,0,0,130,105.69Z"/><path d="M157.62,108.06a4.86,4.86,0,0,0-2.64.57,5.07,5.07,0,0,0-2.08,2.08,9,9,0,0,0-1,3.64,7.42,7.42,0,0,0,.36,3.3,4.56,4.56,0,0,0,1.66,2.23,5.05,5.05,0,0,0,2.68.9,6.93,6.93,0,0,0,4.11-1c.15-4,.22-6,.37-10a4.92,4.92,0,0,0-1.57-1.18A5,5,0,0,0,157.62,108.06Z"/><path d="M155.84,121.85a8.45,8.45,0,0,1-2.77-.67,7.76,7.76,0,0,1-2.38-1.57,6.36,6.36,0,0,1-1.55-2.31,5.74,5.74,0,0,1-.34-2.77c.33-3,2.41-5.23,6.08-6.79a9.06,9.06,0,0,0-2.87.72,7.3,7.3,0,0,0-3,2.35,7,7,0,0,0-1.48,3.54,6.77,6.77,0,0,0,.55,3.58,6.68,6.68,0,0,0,2.46,2.83,8.06,8.06,0,0,0,3.89,1.28,8.71,8.71,0,0,0,2.71-.19C156.43,121.86,156,121.86,155.84,121.85Z"/><path d="M181.52,111.87l-.05-.56a3.74,3.74,0,0,0-.57-1.73,3.11,3.11,0,0,0-1.24-1.1,3.53,3.53,0,0,0-4.19,1,4.43,4.43,0,0,0-1,2.84C177.27,112.2,178.69,112.11,181.52,111.87Z"/><path d="M160.6,100.3l-.64,0a3.37,3.37,0,0,1,1.7,1.29,4,4,0,0,1,.27,1.77c-.25,7.52-.38,11.29-.63,18.82a2.68,2.68,0,0,0,1.06-.54,1.36,1.36,0,0,0,.36-1c.17-6.9.26-10.35.44-17.25a4.08,4.08,0,0,0-.45-2.29A2.5,2.5,0,0,0,160.6,100.3Z"/><path d="M182.13,111.47c0,.14,0,.21,0,.34l1.42-.13a4.19,4.19,0,0,0-1.19-2.73,5.07,5.07,0,0,0-3-1,4,4,0,0,1,1.93,1.14A4.18,4.18,0,0,1,182.13,111.47Z"/><path d="M74.66,72.26l1.63-2.42A5.09,5.09,0,0,1,74.51,69a6.17,6.17,0,0,1-.7-.62,13.52,13.52,0,0,1,.57,2.05C74.49,71,74.58,71.62,74.66,72.26Z"/><path d="M83.66,94a11.18,11.18,0,0,0,1.73-5.4A3.71,3.71,0,0,0,80.3,85,7.57,7.57,0,0,0,77,88.15a10.3,10.3,0,0,0-1.91,5.56,4,4,0,0,0,2,3.63,3.31,3.31,0,0,0,2.13.43,4.58,4.58,0,0,0,2.35-1.08A9.14,9.14,0,0,0,83.66,94Z"/><path d="M75.94,85a7.36,7.36,0,0,1,2.62-.9,23,23,0,0,1,3.21-.21,10.82,10.82,0,0,0-3.86-.41,7.38,7.38,0,0,0-3.15,1,7,7,0,0,0-2.24,2.13,5.76,5.76,0,0,0-.9,2.16,6.07,6.07,0,0,0,0,2.44,8.59,8.59,0,0,0,1,2.55,11.91,11.91,0,0,0,2,2.54,10.92,10.92,0,0,1-1.93-5,6.41,6.41,0,0,1,1-4.17A6.3,6.3,0,0,1,75.94,85Z"/><path d="M52.18,63.78a10.31,10.31,0,0,1,3-2.09,11.3,11.3,0,0,1,3.69-1.08,16.43,16.43,0,0,1,3.89,0c1.15.15,2.44.38,3.85.69a21.71,21.71,0,0,0-5.4-1.62,12.28,12.28,0,0,0-2.77-.08,12.83,12.83,0,0,0-2.64.5,11.63,11.63,0,0,0-2.46,1.09,10.37,10.37,0,0,0-2.1,1.62A10.24,10.24,0,0,0,48.43,68a11.82,11.82,0,0,0,.65,6.57,19.17,19.17,0,0,0,4.61,6.86,21.56,21.56,0,0,1-3-5,14.68,14.68,0,0,1-1.22-4.91A10.64,10.64,0,0,1,50,67.22,9.45,9.45,0,0,1,52.18,63.78Z"/><path d="M179.76,121.22a7.66,7.66,0,0,1-5.4-1.48,5.7,5.7,0,0,1-2.25-4.56,7.82,7.82,0,0,1,.58-3.27,13.84,13.84,0,0,1,1.78-3,7.92,7.92,0,0,0-3.58,6.76,5.84,5.84,0,0,0,2.48,4.8,8.27,8.27,0,0,0,5.61,1.6,11.32,11.32,0,0,0,3.61-.86,7.9,7.9,0,0,0,2.91-2,15,15,0,0,1-2.54,1.33A10.47,10.47,0,0,1,179.76,121.22Z"/><path d="M103.7,109.81a1.92,1.92,0,0,0,.74-1l3.3-8.57a4.1,4.1,0,0,0,.32-1.92c-.06-.53-.5-1-1.3-1.27l-.29-.08-.31-.09a2.34,2.34,0,0,1,.62,1.4,4.13,4.13,0,0,1-.34,1.62l-4,10.09A2,2,0,0,0,103.7,109.81Z"/><path d="M116.17,101.12a3.73,3.73,0,0,1,1.1,1.54,3.42,3.42,0,0,1-.19,1.92L112.23,120a2.44,2.44,0,0,1-.52,1,1.8,1.8,0,0,1-1,.46,2.78,2.78,0,0,0,2.11,0,3.1,3.1,0,0,0,1-1.7l4.53-14.76a3.13,3.13,0,0,0,0-2.43A3.26,3.26,0,0,0,116.17,101.12Z"/><path d="M93.16,105a3.47,3.47,0,0,1,0-3.15l3.3-6.95a1.85,1.85,0,0,0-.87-2.8L95.31,92,95,91.85a2.61,2.61,0,0,1,.47,1.54A4.61,4.61,0,0,1,95,94.93c-1.11,2.28-1.66,3.42-2.76,5.7a4.51,4.51,0,0,0-.29,3.78,5.29,5.29,0,0,0,2.91,2.75c.43.19.86.35,1.28.49A6.33,6.33,0,0,1,93.16,105Z"/><path d="M85.91,90.11a14.41,14.41,0,0,1-1.73,4.41,8.78,8.78,0,0,1-2,2.48,6.92,6.92,0,0,1-2.42,1.27,4.94,4.94,0,0,0,3.28-.7,7.33,7.33,0,0,0,2.56-2.85c1.74-3.18,1.68-5.89-.08-8.19A6.94,6.94,0,0,1,85.91,90.11Z"/><path d="M247.35,92l-.27-.49a3.66,3.66,0,0,0-1.23-1.35,3.06,3.06,0,0,0-1.61-.49,3.53,3.53,0,0,0-1.7.42,3.57,3.57,0,0,0-1.82,2.23,4.44,4.44,0,0,0,.18,3C243.5,94.09,244.79,93.41,247.35,92Z"/><path d="M260.55,91.12c-1.66-2.59-2.49-3.89-4.16-6.48a1.86,1.86,0,0,0-2.86-.72l-.27.22-.3.22a2.69,2.69,0,0,1,1.57.41A4.53,4.53,0,0,1,255.59,86L259,91.34A4.52,4.52,0,0,0,262,93.57,5.41,5.41,0,0,0,266,92.51q.58-.41,1.11-.84a6.58,6.58,0,0,1-3.87,1.15A3.41,3.41,0,0,1,260.55,91.12Z"/><path d="M249.46,101.31a8,8,0,0,1-5.65.88,5.64,5.64,0,0,1-3.93-3.25,7.61,7.61,0,0,1-.78-3.23,14.31,14.31,0,0,1,.47-3.45,7.92,7.92,0,0,0-.63,7.67,5.78,5.78,0,0,0,4.25,3.37,8.52,8.52,0,0,0,5.89-.85,11.51,11.51,0,0,0,3-2.3A8,8,0,0,0,254,97.07a15.77,15.77,0,0,1-1.84,2.29A11,11,0,0,1,249.46,101.31Z"/><path d="M246.09,89.55a4.19,4.19,0,0,1,1.68,1.84l.16.3,1.28-.72A4.16,4.16,0,0,0,247,89a5.22,5.22,0,0,0-3.17.34A4.05,4.05,0,0,1,246.09,89.55Z"/><path d="M282.46,64.43a1.69,1.69,0,0,0,.37-2,2.65,2.65,0,0,1-.46.79,2.8,2.8,0,0,1-1.17.66,2.76,2.76,0,0,0-1.34.55A3.35,3.35,0,0,0,279.2,66a2.64,2.64,0,0,1,1.06-.57A4.35,4.35,0,0,0,282.46,64.43Z"/><path d="M276.63,71.52l5.11,5.87a1.32,1.32,0,0,1,.38.82,4.31,4.31,0,0,1-.16.93A3.46,3.46,0,0,0,283,77.52a1.79,1.79,0,0,0-.58-1.51l-4.78-5.4a3,3,0,0,0-1.9-1.18,2.72,2.72,0,0,0-2,.82l-.34.33c-.16.17-.28.29-.34.34A2.87,2.87,0,0,1,276.63,71.52Z"/><path d="M267.1,77.73a4,4,0,0,0-1.47-1.28,1.82,1.82,0,0,0-1.81.47l-.23.21c-.13.13-.22.2-.25.23a2.32,2.32,0,0,1,1.54.19,3.94,3.94,0,0,1,1.21,1.13c2.59,3.48,3.89,5.22,6.47,8.71a2.1,2.1,0,0,0,.54-1.17,1.77,1.77,0,0,0-.46-1.16Z"/><path d="M226.58,97.29a7,7,0,0,1,3,2,14.07,14.07,0,0,1,2.36,4.1,8.57,8.57,0,0,1,.74,3.07,6.83,6.83,0,0,1-.49,2.68,5,5,0,0,0,1.46-3,7.37,7.37,0,0,0-.64-3.76C231.58,99,229.43,97.36,226.58,97.29Z"/><path d="M165.66,89.92c-42.23,0-78.68-16-105.53-46.43l-34,29.3c35.18,40,84.66,62,139.56,62,56.66,0,108.91-22.59,143.66-62.05l-34-29.3C249.07,73,209.23,89.92,165.66,89.92ZM52.94,77.64a11.72,11.72,0,0,0,3.73,5,14.15,14.15,0,0,0,3.5,2.1,13,13,0,0,0,3.91,1,14.15,14.15,0,0,0,4.18-.26c.29.49.43.73.73,1.21a14.58,14.58,0,0,1-7.33-.13,19.86,19.86,0,0,1-7.36-4,20.27,20.27,0,0,1-4.49-5.14,15.36,15.36,0,0,1-2.11-5.57,11.55,11.55,0,0,1,.35-5.23,10.14,10.14,0,0,1,2.56-4.22,11.29,11.29,0,0,1,4.45-2.76A13.41,13.41,0,0,1,60.21,59a16,16,0,0,1,5.22,1.25,18.8,18.8,0,0,1,4.82,2.93,15.86,15.86,0,0,1,1.5,1.41c.43.47.93,1.06,1.49,1.76s1,1.17,1.16,1.41a5.29,5.29,0,0,0,.8.72,3.49,3.49,0,0,0,2.62.75l1.3.93-4.39,6.18-1-.74A20.84,20.84,0,0,0,73.79,72a13.71,13.71,0,0,0-.56-3.08A9.94,9.94,0,0,0,72,66.37a9.65,9.65,0,0,0-2-2.11,9.28,9.28,0,0,0-3.38-1.81A8.65,8.65,0,0,0,63,62.23a11.45,11.45,0,0,0-3.85,1.37,14.82,14.82,0,0,0-3.59,2.86,11.8,11.8,0,0,0-3,5.38A9.84,9.84,0,0,0,52.94,77.64ZM88.61,95.85a6.74,6.74,0,0,1-2.14,2.42,7.53,7.53,0,0,1-3.08,1.24,10,10,0,0,1-3.57-.1A11.53,11.53,0,0,1,76.19,98a11.89,11.89,0,0,1-3.82-3.51,8.24,8.24,0,0,1-1.54-4.29A6.48,6.48,0,0,1,72,86.05a6.87,6.87,0,0,1,3.31-2.6,8.94,8.94,0,0,1,4.42-.51,11.41,11.41,0,0,1,4.57,1.61,11.28,11.28,0,0,1,3.49,3.18,8.66,8.66,0,0,1,1.57,4A7,7,0,0,1,88.61,95.85Zm6.22,11.85a6.84,6.84,0,0,1-3.52-3.06,4.33,4.33,0,0,1,.12-4c1-2.14,1.57-3.21,2.61-5.34a12,12,0,0,0,.75-1.76,1.56,1.56,0,0,0-.19-1.18,4.91,4.91,0,0,0-1.48-1.41c.18-.36.27-.54.46-.9,2.63,1.35,4,2,6.65,3.21L96,102.43a6.13,6.13,0,0,0-.6,2,2.22,2.22,0,0,0,.4,1.5,3.45,3.45,0,0,0,1.48,1.09,8.57,8.57,0,0,0,5.44.22c1.22-3,1.82-4.56,3-7.61a2.46,2.46,0,0,0-1.4-3.52c.16-.38.24-.56.39-.93,2.66,1.1,4,1.62,6.68,2.61l-4,10.94a1.53,1.53,0,0,0-.07,1.08,1.51,1.51,0,0,0,.68.72,7.9,7.9,0,0,0,1.43.61l.18.07-.32.92c-3.15-.59-4.73-.92-7.89-1.66l.88-2.19A12.1,12.1,0,0,1,94.83,107.7Zm39.1,4.16a6.71,6.71,0,0,1-2.09,3.73,8.38,8.38,0,0,1-4.18,2,12.27,12.27,0,0,1-5.35-.27,12.87,12.87,0,0,1-4.17-1.94l-1.65,5.68a2.74,2.74,0,0,0-.12,1.08,1.16,1.16,0,0,0,.57.78,5.36,5.36,0,0,0,1.54.62l1.12.3c-.1.37-.15.55-.24.91-4.59-1.22-6.87-1.91-11.39-3.43l.31-.92c.74.22,1.3.36,1.68.43a1.22,1.22,0,0,0,1.52-1c2-6.16,3-9.24,4.94-15.41a2.94,2.94,0,0,0,0-2.09,4.62,4.62,0,0,0-1.63-1.68L115,100c2.6.39,3.9.55,6.5.83l.74.22c-.21.71-.31,1.07-.52,1.79a16.63,16.63,0,0,1,3-.6,8.56,8.56,0,0,1,2.93.26,8.39,8.39,0,0,1,2.79,1.27,8.75,8.75,0,0,1,2.16,2.13,8.17,8.17,0,0,1,1.25,2.8A7.27,7.27,0,0,1,133.93,111.86ZM160.56,123c0-.8,0-1.2.07-2a11,11,0,0,1-6.42,1.65,8.67,8.67,0,0,1-3.29-.88,7.37,7.37,0,0,1-2.48-1.94,7.14,7.14,0,0,1-1.4-2.67,7.81,7.81,0,0,1-.22-3,7.11,7.11,0,0,1,1.75-3.9,8.91,8.91,0,0,1,3.66-2.49,11.29,11.29,0,0,1,4.76-.66,15.06,15.06,0,0,1,4.13.94c.06-1.68.09-2.52.16-4.2a4.1,4.1,0,0,0-.32-2.07,3.67,3.67,0,0,0-1.86-1.28c0-.28,0-.42,0-.7,2.36-.58,3.53-.89,5.84-1.55h.76c-.08,8.54-.13,12.8-.21,21.33a1.22,1.22,0,0,0,.6,1.23,4.91,4.91,0,0,0,2.1.32c0,.36,0,.54,0,.9C165.18,122.46,163.64,122.65,160.56,123Zm24.74-2.62a9.29,9.29,0,0,1-2.79,1.64,11.76,11.76,0,0,1-3.32.7,10.2,10.2,0,0,1-4.46-.66,7.18,7.18,0,0,1-3.27-2.51,6.65,6.65,0,0,1-1.24-3.86,7.67,7.67,0,0,1,.63-3.23,8.74,8.74,0,0,1,1.8-2.7,9.21,9.21,0,0,1,2.67-1.9,9,9,0,0,1,3.26-.84,9.63,9.63,0,0,1,3.43.37,6.72,6.72,0,0,1,2.75,1.51,5.49,5.49,0,0,1,1.19,1.56,11.74,11.74,0,0,1,.74,2c-4.92.57-7.39.77-12.33,1a7,7,0,0,0,.86,3,5.59,5.59,0,0,0,1.82,1.89,6.91,6.91,0,0,0,2.34.93,8.53,8.53,0,0,0,2.33.15,7.89,7.89,0,0,0,4.7-2l.9.43A8.35,8.35,0,0,1,185.3,120.36Zm28.94-4.65a11.33,11.33,0,0,1-4.45,2.23,9.64,9.64,0,0,1-4.5,0,8.24,8.24,0,0,1-3.79-2,6.22,6.22,0,0,1-1.91-3.42,7.26,7.26,0,0,1,.11-3.21,8.57,8.57,0,0,1,1.46-3,10.42,10.42,0,0,1,2.64-2.47,12.15,12.15,0,0,1,3.68-1.58,11.42,11.42,0,0,1,3.19-.38,5.9,5.9,0,0,1,2.53.59,2.44,2.44,0,0,1,1.3,1.45,1.65,1.65,0,0,1-.31,1.54,2.75,2.75,0,0,1-1.52,1,2.16,2.16,0,0,1-1.61-.11,1.54,1.54,0,0,1-.89-1,4.58,4.58,0,0,1,0-.79,4.5,4.5,0,0,0-.06-.92.89.89,0,0,0-.75-.6,2.75,2.75,0,0,0-1.39,0,5.31,5.31,0,0,0-2.46,1.38,5.19,5.19,0,0,0-1.38,2.52,7.08,7.08,0,0,0,0,3.24,5.38,5.38,0,0,0,1.48,2.69,5.62,5.62,0,0,0,2.72,1.47,6.71,6.71,0,0,0,3.27-.06,9,9,0,0,0,2.77-1.29,7,7,0,0,0,2-2l.94.56A10.78,10.78,0,0,1,214.24,115.71Zm22-11.79a7.58,7.58,0,0,1-.93,3.18,9.68,9.68,0,0,1-2.26,2.72,12.16,12.16,0,0,1-8.37,2.69,8.12,8.12,0,0,1-4.22-1.49,6.66,6.66,0,0,1-2.45-3.49,7,7,0,0,1,0-4.19,8.8,8.8,0,0,1,2.26-3.76,11.18,11.18,0,0,1,4-2.54,10.9,10.9,0,0,1,4.6-.72,8.59,8.59,0,0,1,4.11,1.3,6.87,6.87,0,0,1,2.7,3.13A6.65,6.65,0,0,1,236.25,103.92Zm18.06-5.71a9.59,9.59,0,0,1-2,2.67,12.31,12.31,0,0,1-2.83,2,10.49,10.49,0,0,1-4.44,1.24,7.25,7.25,0,0,1-4.07-1,6.54,6.54,0,0,1-2.7-3,7.67,7.67,0,0,1-.72-3.21,8.88,8.88,0,0,1,.6-3.22,9.42,9.42,0,0,1,4.45-5A10.24,10.24,0,0,1,246,87.68a6.79,6.79,0,0,1,3.18.24,5.6,5.6,0,0,1,1.75.93,10.41,10.41,0,0,1,1.49,1.53c-4.39,2.59-6.63,3.8-11.16,6a6.79,6.79,0,0,0,2,2.36,5.35,5.35,0,0,0,2.46,1,7.09,7.09,0,0,0,2.56-.11,8.6,8.6,0,0,0,2.25-.84A8.12,8.12,0,0,0,254.13,95l1,0A8.66,8.66,0,0,1,254.31,98.21Zm18.16-9.69-1.4-1.9a12.62,12.62,0,0,1-4.64,6.17,7,7,0,0,1-4.52,1.42A4.31,4.31,0,0,1,258.53,92l-3.16-5a11.29,11.29,0,0,0-1.09-1.56,1.53,1.53,0,0,0-1.11-.45,4.88,4.88,0,0,0-2,.51l-.52-.86c2.56-1.54,3.82-2.34,6.32-4L262.58,89A6.15,6.15,0,0,0,264,90.58a2.23,2.23,0,0,0,1.5.44,3.5,3.5,0,0,0,1.74-.71,9,9,0,0,0,3.18-4.59l-4.86-6.59a2.5,2.5,0,0,0-3.79-.63l-.59-.82c2.41-1.72,3.59-2.61,5.93-4.45l7.19,9.17a1.44,1.44,0,0,0,.9.62,1.6,1.6,0,0,0,1-.22,9.25,9.25,0,0,0,1.32-.93l.15-.13.62.76C276,85,274.85,86.17,272.47,88.52ZM276.37,65l1.78,2a26.83,26.83,0,0,1,.44-3.23,3.74,3.74,0,0,1,1.12-1.86,2.72,2.72,0,0,1,1.7-.83,1.91,1.91,0,0,1,1.61.57,2.08,2.08,0,0,1,.65,1.6,2.36,2.36,0,0,1-.76,1.65,4.25,4.25,0,0,1-.82.6,3.65,3.65,0,0,1-.9.37l-.53.1a3.3,3.3,0,0,0-.47.11.84.84,0,0,0-.35.21,1.52,1.52,0,0,0-.42.73,7.85,7.85,0,0,0-.21,1.14l5.58,6.09a1.93,1.93,0,0,0,1.1.71,1.61,1.61,0,0,0,1.08-.36,18.38,18.38,0,0,0,1.84-1.61l.65.68c-3.59,3.44-5.44,5.08-9.2,8.22l-.61-.72.47-.39c1.35-1.13,1.67-2.11,1-2.91l-5-5.81c-.86-1-2.21-1-4.08-.09l-.37-.44c1.64-2.29,2.43-3.44,4-5.78Z"/><path d="M210.76,103.71a2.46,2.46,0,0,1,0,.81,2.27,2.27,0,0,0,0,.77.89.89,0,0,0,.7.66,2.17,2.17,0,0,0,1.13,0,9.13,9.13,0,0,0,.92-.41c-.85.1-1.36-.14-1.51-.7a1.75,1.75,0,0,1,0-.41,1.71,1.71,0,0,0-.07-.55q-.25-.9-1.89-1A1.54,1.54,0,0,1,210.76,103.71Z"/><path d="M219.87,106.8a6.46,6.46,0,0,1-.31-3,7.42,7.42,0,0,1,.87-2.59,23.56,23.56,0,0,1,1.78-2.63,10.34,10.34,0,0,0-2.64,2.75,7.08,7.08,0,0,0-.85,6.12,6.27,6.27,0,0,0,3,3.59,8.18,8.18,0,0,0,2.56.81,10.77,10.77,0,0,0,3.21,0,10.57,10.57,0,0,1-5-1.63A6.5,6.5,0,0,1,219.87,106.8Z"/><path d="M206.51,116.47a6.86,6.86,0,0,1-3.29-1.51,5,5,0,0,1-1.67-2.85,6.88,6.88,0,0,1,.43-4,12.28,12.28,0,0,1,2.7-4,10.64,10.64,0,0,0-2.8,2.37,7.77,7.77,0,0,0-1.5,2.87,6.48,6.48,0,0,0-.14,3,5.81,5.81,0,0,0,1.86,3.29,7.55,7.55,0,0,0,3.61,1.75,9.13,9.13,0,0,0,4.1-.06,10.11,10.11,0,0,0,5-2.91,17.52,17.52,0,0,1-4.21,1.89A9.5,9.5,0,0,1,206.51,116.47Z"/><path d="M228.06,98.72a3.49,3.49,0,0,0-3.61-.74,3.53,3.53,0,0,0-2.29,2.43,7.77,7.77,0,0,0,.46,4.58,10.4,10.4,0,0,0,3.14,5,3.93,3.93,0,0,0,4,.75,3.23,3.23,0,0,0,1.63-1.39,4.61,4.61,0,0,0,.6-2.5,9.29,9.29,0,0,0-.78-3.37A11.37,11.37,0,0,0,228.06,98.72Z"/></g></g></svg>