<svg xmlns="http://www.w3.org/2000/svg" fill="#4e76cd" viewBox="0 0 300 277.08"><title>Fichier 10</title><g id="Calque_2" data-name="Calque 2"><g id="Calque_1-2" data-name="Calque 1"><polygon points="213.45 164.17 192.92 164.17 192.92 128.6 213.45 128.6 205.54 146.38 213.45 164.17"/><polygon points="89.5 164.17 110.03 164.17 110.03 128.6 89.5 128.6 97.41 146.38 89.5 164.17"/><path d="M158.07,186.39a4.65,4.65,0,0,0,2.78,2.94,21.74,21.74,0,0,0,6.54,1v2.51c-3.47-.24-8.8-.37-16-.37q-11.43,0-18,.37V190.3a33.9,33.9,0,0,0,8.14-1,5.4,5.4,0,0,0,3.54-2.94,17.66,17.66,0,0,0,1-6.85V122.92q0-4.33-1.25-6.39a6.33,6.33,0,0,0-4.22-2.72,45,45,0,0,0-9-.67v-2.63q15.41-2.27,25.8-7.58v76.61A22.11,22.11,0,0,0,158.07,186.39Z"/><path d="M137.91,242.31a7.64,7.64,0,0,0-1.62-3,15.87,15.87,0,0,0-2.93-2.68,42.8,42.8,0,0,0-3.68-2.46c-.65-.39-1.32-.74-2-1.11s-1.32-.76-2-1.11-1.31-.68-1.94-1-1.24-.65-1.83-.95c-1.18-.62-2.27-1.14-3.19-1.56-1.82-1-3-1.5-3-1.5s.39.67,1,1.83l2.39,4.67c.46.94.94,1.95,1.42,3s.94,2.18,1.38,3.25a28.29,28.29,0,0,1,1.9,6.57,6.25,6.25,0,0,0,1.15,2.86,8.37,8.37,0,0,0,2.36,2.13,16.58,16.58,0,0,0,3.16,1.55,22.54,22.54,0,0,0,3.55.91,32.28,32.28,0,0,0,3.47.47c1.11,0,2.12.06,3,0,1.73,0,2.86-.12,2.86-.12a15,15,0,0,1-2-2.76A34,34,0,0,1,137.91,242.31Zm-11.28,2.08a9.56,9.56,0,0,1-.28,1.66l-.19.61s-.06-.23-.15-.62-.23-.94-.35-1.59-.37-1.38-.54-2.17a19.43,19.43,0,0,0-.75-2.4,20.69,20.69,0,0,0-.86-2.37c-.34-.73-.58-1.47-.89-2s-.49-1.13-.69-1.47l-.25-.58.52.37a8.57,8.57,0,0,1,1.22,1.15,11.85,11.85,0,0,1,1.42,1.91,21.94,21.94,0,0,1,1.16,2.49,20.85,20.85,0,0,1,.59,2.68A12.83,12.83,0,0,1,126.63,244.39Zm3.07-1a6.44,6.44,0,0,1-.36,1.41,4.49,4.49,0,0,1-.48.92l-.24.33-.08-.4c0-.23-.13-.58-.16-1s-.16-.84-.18-1.31a12.21,12.21,0,0,0-.18-1.45,11.27,11.27,0,0,0-.15-1.46c-.08-.46-.06-.93-.13-1.32s0-.75-.06-1,0-.4,0-.4l.31.26a5,5,0,0,1,.67.79,7,7,0,0,1,.67,1.29,6.3,6.3,0,0,1,.38,3.29Z"/><path d="M137,257.81c-.68.1-1.42.19-2.24.25s-1.7.11-2.65.12h-1.49c-.51,0-1-.08-1.58-.14a7.35,7.35,0,0,0-3.54.68,26.74,26.74,0,0,0-4,2.2c-1.38.91-2.82,2-4.27,3.17s-2.89,2.34-4.31,3.56-2.79,2.41-4.06,3.53l-3.42,3c-2,1.73-3.23,2.89-3.23,2.89s1-.21,2.7-.49c.84-.13,1.84-.31,3-.53s2.35-.42,3.65-.63,2.66-.38,4.06-.62,2.82-.41,4.23-.54l2.1-.17c.69-.06,1.38-.11,2.06-.14a25.88,25.88,0,0,1,3.88.13,8.48,8.48,0,0,0,6.51-2.36,19.45,19.45,0,0,0,4.43-6.2,41.69,41.69,0,0,0,3.14-9.27,15.07,15.07,0,0,1-3.15,1.14C138.23,257.54,137.63,257.68,137,257.81Zm-3.48,9a7.57,7.57,0,0,1-.41.68,8,8,0,0,1-2.06,2,12.11,12.11,0,0,1-3.73,1.67,27.49,27.49,0,0,1-4.57.65c-1.55,0-3.06,0-4.46.11a28.58,28.58,0,0,0-3.79.36,15.52,15.52,0,0,0-2.63.68,10.08,10.08,0,0,0-1,.39,10.44,10.44,0,0,1,.83-.69,10.64,10.64,0,0,1,2.52-1.31,18,18,0,0,1,3.93-.91c1.45-.16,3-.23,4.49-.34a26.88,26.88,0,0,0,4.33-.4,15,15,0,0,0,3.58-1.05,10.89,10.89,0,0,0,2.3-1.38,7.63,7.63,0,0,0,.79-.7Zm.71-4.2A12.85,12.85,0,0,1,132.9,264a16.28,16.28,0,0,1-2.1,1.72,30.51,30.51,0,0,1-2.71,1.56,29,29,0,0,1-3,1,16.85,16.85,0,0,1-2.67.48,13.38,13.38,0,0,1-1.93.05l-.72-.06.67-.27c.44-.14,1-.41,1.76-.66s1.54-.63,2.42-.95,1.8-.74,2.7-1.19a27.3,27.3,0,0,0,2.66-1.28c.82-.46,1.65-.81,2.3-1.22s1.25-.66,1.64-.9l.65-.34Z"/><path d="M92.87,239.51a9.16,9.16,0,0,0,1.7,2.65,13.38,13.38,0,0,0,2.62,2.32,30,30,0,0,0,3.15,1.87,23.9,23.9,0,0,0,3.22,1.39c1,.37,2,.69,2.84.93a17,17,0,0,0,2,.5l.77.15a14,14,0,0,1-1.15-3,31.61,31.61,0,0,1-.92-9.33,6.9,6.9,0,0,0-.78-3.18,16.21,16.21,0,0,0-2.09-3.33c-.44-.55-.91-1.1-1.4-1.63s-1-1.13-1.51-1.68-1.06-1.09-1.61-1.61-1.09-1-1.63-1.58-1.07-1-1.6-1.5-1.06-.91-1.54-1.39c-1-.93-1.88-1.74-2.66-2.41s-1.39-1.28-1.84-1.67l-.7-.61s.2.75.49,2c.15.62.3,1.41.5,2.23s.4,1.76.6,2.76.41,2.09.59,3.2.36,2.23.49,3.37a26.33,26.33,0,0,1,.09,6.62A5.65,5.65,0,0,0,92.87,239.51Zm4.74-11.21a6.86,6.86,0,0,1,.73,1.11,9.11,9.11,0,0,1,.72,1.74,19.39,19.39,0,0,1,.42,2.12,19,19,0,0,1-.08,2.16,9.27,9.27,0,0,1-.44,1.83,6.44,6.44,0,0,1-.55,1.21l-.27.44s0-.19,0-.51-.08-.77-.08-1.28-.1-1.12-.1-1.75a16.64,16.64,0,0,0-.15-2,17.47,17.47,0,0,0-.16-2c-.1-.62-.09-1.24-.18-1.74s-.07-1-.12-1.28l0-.51Zm-3.2-5.65a15,15,0,0,1,.74,1.71,19.44,19.44,0,0,1,.73,2.53c.18.94.33,2,.44,3s0,2.06,0,3a17.8,17.8,0,0,1-.37,2.61,11.87,11.87,0,0,1-.49,1.8l-.25.67-.08-.71c0-.44-.12-1.08-.14-1.83s-.15-1.62-.16-2.54-.11-1.91-.21-2.89-.11-2-.2-2.89-.11-1.8-.2-2.55-.08-1.39-.12-1.83,0-.71,0-.71Z"/><path d="M106,253l.12,0a98.53,98.53,0,0,0,16.79,3.28c2.35.29,4.48.39,6.31.46.92,0,1.77.08,2.54.1l2.11,0c1.26,0,2.23-.06,2.88-.08l1,0-1-.17c-.65-.11-1.6-.29-2.84-.49l-2.08-.33c-.77-.13-1.59-.31-2.48-.48-1.77-.37-3.81-.68-6.07-1.26l-3.58-.81-3.88-1c-.67-.2-1.36-.34-2.06-.55l-2.12-.65c-1.43-.45-2.94-.85-4.44-1.42a130.49,130.49,0,0,1-19.87-8.35,127.76,127.76,0,0,1-21.24-14L63.43,225l-2.59-2.31c-1.76-1.51-3.38-3.22-5.09-4.87-.86-.83-1.64-1.73-2.47-2.61s-1.67-1.74-2.43-2.68c-1.56-1.86-3.19-3.7-4.67-5.68a126.57,126.57,0,0,1-8.53-12.42c-1.24-2.23-2.59-4.41-3.71-6.74-.58-1.15-1.19-2.29-1.74-3.46l-1.59-3.56c-.56-1.18-1-2.4-1.49-3.62s-1-2.43-1.4-3.67c-.82-2.49-1.72-5-2.39-7.52A121,121,0,0,1,22,150.34c-.32-2.63-.71-5.25-.85-7.9-.09-1.32-.23-2.64-.27-4l-.1-4c0-.65,0-1.34,0-2l0-2c0-1.33,0-2.67.13-4l.24-3.91.39-3.9a127.61,127.61,0,0,1,2.74-15.25A128.83,128.83,0,0,1,28.8,89.12a123.12,123.12,0,0,1,13.28-25.3L44,61q1-1.35,2-2.67c.65-.9,1.33-1.75,2-2.6s1.35-1.69,2-2.51c1.41-1.6,2.77-3.22,4.21-4.7.72-.75,1.4-1.51,2.12-2.22s1.44-1.42,2.15-2.12A128.29,128.29,0,0,1,75.43,30.56,146.25,146.25,0,0,1,89.8,21.9c4.14-2.14,7.46-3.71,9.76-4.71,1.16-.48,2-.87,2.64-1.13l.9-.4-.94.28c-.63.18-1.55.45-2.75.83a108.72,108.72,0,0,0-10.22,3.87c-1.85.83-3.86,1.79-6,2.9l.06-.05a44.64,44.64,0,0,1,4.9-2.88,12.93,12.93,0,0,0,2.79-2,29.8,29.8,0,0,0,2.58-2.91c.84-1.06,1.64-2.21,2.42-3.4s1.54-2.35,2.25-3.52,1.36-2.29,2-3.35l1.62-2.78C102.72,1,103.28,0,103.28,0l-2,1.31-2.2,1.45c-.84.54-1.75,1.18-2.73,1.82s-2,1.3-3.09,2S91.1,8,90,8.71s-2.2,1.41-3.3,2c-.55.32-1.1.62-1.64.9s-1.06.59-1.59.85a11.21,11.21,0,0,0-2.7,1.86A10.94,10.94,0,0,0,79,16.73,13,13,0,0,0,77.36,22a19.76,19.76,0,0,0,.13,4.78c-1.07.64-2.16,1.31-3.26,2A118.1,118.1,0,0,0,57.35,42c.43-.44.87-.89,1.37-1.34a10.75,10.75,0,0,0,2.06-2.8,22.07,22.07,0,0,0,1.59-3.6c.44-1.33.88-2.68,1.26-4.09s.7-2.85,1-4.21c.66-2.72,1.14-5.35,1.54-7.21s.58-3.08.58-3.08l-1.52,1.88c-1,1.15-2.25,2.84-3.78,4.64l-2.35,2.9-1.26,1.49-1.26,1.52c-.85,1-1.74,2-2.6,2.91s-1.73,1.83-2.6,2.62a10.16,10.16,0,0,0-3.08,5.45,14.42,14.42,0,0,0,.16,5.69A20.88,20.88,0,0,0,50,49.16l.11.22c-.65.73-1.3,1.47-2,2.21a119,119,0,0,0-8.25,10.73c-1.64,2.4-3.21,4.91-4.72,7.5.28-.53.57-1.07.89-1.63a11.39,11.39,0,0,0,1.17-3.27,27.53,27.53,0,0,0,.39-4c.05-1.41,0-2.89-.09-4.4s-.19-3-.33-4.45-.29-2.85-.43-4.16-.29-2.46-.41-3.46l-.43-3.26-.24.61c-.16.39-.38,1-.65,1.69s-.63,1.56-1,2.51-.79,2-1.24,3.12l-1.43,3.5c-.48,1.21-1,2.44-1.53,3.65s-1.06,2.44-1.64,3.58S27,62.1,26.44,63.12a10.05,10.05,0,0,0-1.22,3.1,10.17,10.17,0,0,0-.08,3.11,14,14,0,0,0,2,5.56A23.43,23.43,0,0,0,30.29,79c-1.41,3-2.73,6-3.93,9.15a132.29,132.29,0,0,0-4.6,14.74c-.15.65-.29,1.31-.44,2a33.65,33.65,0,0,1,.76-3.87,10.11,10.11,0,0,0,.12-3.5,21,21,0,0,0-.87-4c-.44-1.4-.9-2.82-1.48-4.26s-1.2-2.89-1.78-4.27-1.2-2.73-1.77-4l-1.53-3.3c-.87-1.89-1.47-3.09-1.47-3.09s-.07,1-.18,2.49-.23,3.73-.46,6.14c-.1,1.22-.2,2.51-.3,3.82s-.27,2.66-.4,4-.31,2.66-.54,3.93a32.82,32.82,0,0,1-.73,3.68,8.19,8.19,0,0,0-.24,3.35,10.26,10.26,0,0,0,.86,3,15.12,15.12,0,0,0,3.79,4.85,24.59,24.59,0,0,0,4.2,3l.46.25c-.29,1.78-.55,3.57-.76,5.36-.14,1.33-.27,2.66-.41,4s-.17,2.68-.25,4-.11,2.67-.14,4l0,2c0,.72,0,1.36,0,2l.09,4c0,.85.09,1.71.16,2.57-.09-.52-.18-1.06-.27-1.64-.1-.94-.16-2-.21-3.05a9,9,0,0,0-.94-3.39A22.31,22.31,0,0,0,15,129.51c-.43-.61-.89-1.22-1.37-1.84s-.95-1.23-1.45-1.84c-1-1.23-2.07-2.45-3.14-3.62-2.06-2.34-4.08-4.51-5.6-6.1S.94,113.53.94,113.53L1.52,116c.19.77.42,1.69.67,2.72s.49,2.16.77,3.35.58,2.47.86,3.77.54,2.64.82,4,.43,2.65.64,3.94a31.37,31.37,0,0,1,.35,3.74,8.81,8.81,0,0,0,2.54,6A15.41,15.41,0,0,0,13.42,147a28.8,28.8,0,0,0,5.74,1.75c.09.64.16,1.28.24,1.92a123.76,123.76,0,0,0,3.23,15.88c.65,2.63,1.54,5.17,2.35,7.73.09.28.19.55.29.82-.45-1-.89-2.16-1.36-3.42a8,8,0,0,0-.77-1.51,9.7,9.7,0,0,0-1.1-1.47,20.64,20.64,0,0,0-3.16-2.83c-1.24-.91-2.5-1.83-3.89-2.72s-2.82-1.74-4.24-2.56l-4-2.34-3.44-1.92L0,154.58s.11.21.35.59l1,1.62c.41.69.9,1.52,1.45,2.43s1.08,1.95,1.75,3,1.31,2.21,2,3.39,1.3,2.4,2,3.59,1.26,2.42,1.79,3.62,1,2.38,1.4,3.52a8.8,8.8,0,0,0,4.27,5,16.85,16.85,0,0,0,6.34,1.86,28.4,28.4,0,0,0,5.71,0l.44,0,1,2.31c.53,1.21,1.14,2.39,1.71,3.59,1.1,2.41,2.43,4.68,3.66,7q2.34,4,4.85,7.79l0,0a9.15,9.15,0,0,0-2.67-2.32,21.72,21.72,0,0,0-4-1.73c-1.44-.53-3-1-4.66-1.43s-3.36-.79-5-1.17c-3.26-.75-6.41-1.37-8.74-1.81l-3.8-.73.52.46c.35.3.8.75,1.43,1.28,1.24,1.08,2.94,2.58,4.77,4.3.93.86,1.94,1.74,2.93,2.68s2,1.92,2.94,2.89,1.94,2,2.81,2.94,1.64,2,2.36,3a8.77,8.77,0,0,0,5.64,3.54,17.8,17.8,0,0,0,6.86-.19,30.66,30.66,0,0,0,5.69-1.8l.17-.07a124.71,124.71,0,0,0,15.78,15.95,9.37,9.37,0,0,0-2.22-.8,23,23,0,0,0-4.37-.47c-1.57-.06-3.26,0-5,.08s-3.55.27-5.25.4c-3.45.3-6.76.68-9.22,1s-4,.47-4,.47l2.4,1.1c1.53.66,3.63,1.6,5.92,2.71,1.13.57,2.4,1.1,3.63,1.72s2.48,1.25,3.69,1.91,2.45,1.31,3.58,2S54,241.23,55,242a8.74,8.74,0,0,0,6.51,1.74,18.79,18.79,0,0,0,6.72-2.35,33.22,33.22,0,0,0,5.13-3.55l.07-.06c.33.22.65.45,1,.66,1.83,1.21,3.7,2.31,5.51,3.43l5.48,3,5.4,2.61,3,1.29a8.15,8.15,0,0,0-3.06-.27,25.71,25.71,0,0,0-4.39.89c-1.55.43-3.2,1-4.88,1.65-.84.32-1.69.66-2.54,1l-2.5,1c-1.65.69-3.27,1.39-4.76,2l-4,1.79c-2.31,1-3.8,1.71-3.8,1.71s1,.11,2.68.34l2.94.36c1.11.13,2.33.3,3.61.49s2.64.37,4,.59,2.78.46,4.14.75,2.75.54,4,.9A32.69,32.69,0,0,1,89,263.25a8.82,8.82,0,0,0,6.82-.29,19.93,19.93,0,0,0,5.91-4.44,36.1,36.1,0,0,0,4-5.12ZM79.62,21.21a7.2,7.2,0,0,1,.19-.7A9.91,9.91,0,0,1,81,18.16a14.88,14.88,0,0,1,2.45-2.79,32.56,32.56,0,0,1,3.38-2.51l3.59-2c1.13-.65,2.23-1.17,3.11-1.71s1.64-1,2.13-1.33.81-.55.81-.55-.2.3-.58.79a14.06,14.06,0,0,1-1.8,1.87,28,28,0,0,1-2.9,2.21l-3.46,2.2a29.74,29.74,0,0,0-3.34,2.21,22.45,22.45,0,0,0-2.64,2.24,15.52,15.52,0,0,0-1.62,1.89c-.37.49-.56.79-.56.79ZM51.49,39.54a9.69,9.69,0,0,1,1.08-3.4,20.9,20.9,0,0,1,2.36-3.26l2.72-2.75a32.64,32.64,0,0,0,2.22-2.42,16,16,0,0,0,1.33-1.92,8.09,8.09,0,0,0,.44-.8,8.36,8.36,0,0,1-.13.92,9.15,9.15,0,0,1-.83,2.32,16.11,16.11,0,0,1-1.92,2.9L56.2,34a18.53,18.53,0,0,0-2.34,2.87,11.53,11.53,0,0,0-1.42,2.83A8.58,8.58,0,0,0,52,42a5.77,5.77,0,0,0,0,.9,5.12,5.12,0,0,1-.34-.87A6.36,6.36,0,0,1,51.49,39.54ZM34.24,60.84c0-.77,0-1.6,0-2.43s.1-1.66.11-2.44.12-1.51.13-2.14.14-1.17.16-1.54.09-.6.09-.6.09.2.24.56a12,12,0,0,1,.47,1.5,17.86,17.86,0,0,1,.4,2.18c.06.8.1,1.66.12,2.53s-.15,1.71-.26,2.51a16.43,16.43,0,0,1-.51,2.16,13.83,13.83,0,0,1-.56,1.47c-.18.35-.27.54-.27.54s0-.22-.06-.6-.08-.92-.07-1.55S34.2,61.62,34.24,60.84ZM29.56,72.08l-.36.5s0-.23.05-.62.09-.93.2-1.56.16-1.39.32-2.16.25-1.61.33-2.44.26-1.66.34-2.44.23-1.53.28-2.16.18-1.19.22-1.57l.11-.6.22.57a12.22,12.22,0,0,1,.41,1.57,14.3,14.3,0,0,1,.25,2.26c0,.83-.05,1.72-.13,2.6s-.36,1.74-.58,2.55a14.71,14.71,0,0,1-.84,2.11A10.43,10.43,0,0,1,29.56,72.08ZM17.48,102a9.21,9.21,0,0,1-.25,1.51l-.16.57-.17-.56c-.08-.36-.27-.86-.39-1.46s-.34-1.28-.46-2-.32-1.52-.52-2.29-.29-1.57-.47-2.3-.25-1.45-.39-2-.17-1.13-.25-1.49-.07-.58-.07-.58l.38.46a11.41,11.41,0,0,1,.84,1.28,13.72,13.72,0,0,1,.93,2c.25.74.5,1.55.71,2.36s.24,1.67.32,2.45A15,15,0,0,1,17.48,102Zm.94-6.14-.31-.57c-.16-.37-.46-.88-.7-1.52s-.58-1.37-.81-2.19-.49-1.69-.75-2.56-.36-1.78-.52-2.61-.21-1.65-.3-2.32-.06-1.27-.09-1.68,0-.64,0-.64l.31.57a15.9,15.9,0,0,1,.7,1.52c.23.64.58,1.37.81,2.19s.5,1.69.75,2.56l.53,2.61c.18.83.21,1.64.3,2.32s.06,1.27.09,1.67S18.42,95.89,18.42,95.89Zm-6.23,44.67c-.06.36-.09.56-.09.56l-.24-.51c-.11-.33-.35-.78-.54-1.33s-.49-1.16-.7-1.84-.51-1.38-.81-2.07S9.29,134,9,133.3s-.47-1.31-.72-1.84-.36-1-.5-1.34l-.17-.54.45.35a9.71,9.71,0,0,1,1,1,12.7,12.7,0,0,1,1.22,1.67c.37.66.74,1.38,1.07,2.12s.47,1.55.64,2.29a11.4,11.4,0,0,1,.22,2.06A7.51,7.51,0,0,1,12.19,140.56ZM14.11,134c-.23-.31-.63-.71-1-1.23s-.9-1.08-1.34-1.74-1-1.33-1.51-2-1-1.4-1.45-2-.87-1.29-1.26-1.8-.65-1-.88-1.33l-.31-.53.55.29a11.6,11.6,0,0,1,1.33.9A18.18,18.18,0,0,1,9.94,126c.56.61,1.14,1.28,1.7,2s1,1.49,1.37,2.21a16.49,16.49,0,0,1,.94,2.07,13,13,0,0,1,.46,1.54c.07.39.12.61.12.61Zm-5,29.18c-.62-.39-1.11-.77-1.49-1l-.57-.4.69.1a11.15,11.15,0,0,1,1.79.43,16.13,16.13,0,0,1,2.4,1,29.28,29.28,0,0,1,2.54,1.58c.78.66,1.54,1.34,2.2,2a15.4,15.4,0,0,1,1.6,2,10.54,10.54,0,0,1,.9,1.61c.18.41.27.64.27.64l-.54-.44c-.31-.3-.82-.68-1.36-1.17s-1.23-1-1.89-1.6-1.44-1.18-2.22-1.74-1.51-1.17-2.26-1.67S9.71,163.52,9.08,163.15Zm10,15c-.22-.29-.61-.68-1-1.18s-.89-1-1.33-1.64-1-1.25-1.52-1.86-1-1.28-1.52-1.85-.92-1.18-1.35-1.63-.72-.92-1-1.2l-.36-.48.56.22a10.15,10.15,0,0,1,1.39.73,13.89,13.89,0,0,1,1.79,1.31c.59.56,1.2,1.17,1.78,1.82s1,1.41,1.42,2.1a13.12,13.12,0,0,1,.94,2,9.87,9.87,0,0,1,.44,1.51c.07.37.1.59.1.59Zm.74,20.51h.71a14.85,14.85,0,0,1,1.87.19,25.33,25.33,0,0,1,2.57.56c.92.3,1.89.63,2.86,1s1.84.91,2.69,1.37a23,23,0,0,1,2.19,1.47,17,17,0,0,1,1.42,1.22l.5.51-.68-.23c-.41-.17-1-.35-1.72-.66s-1.54-.58-2.38-1-1.77-.77-2.7-1.13-1.81-.82-2.68-1.17-1.65-.77-2.35-1-1.26-.62-1.67-.79Zm17.94,14.47a6.27,6.27,0,0,1-2.46.11A8.9,8.9,0,0,1,32,212,18.73,18.73,0,0,1,29,209.51c-.9-1-1.72-2-2.52-2.88a32,32,0,0,0-2.18-2.39,16.54,16.54,0,0,0-1.75-1.51,8.54,8.54,0,0,0-.74-.51,7.06,7.06,0,0,1,.89.22,9.4,9.4,0,0,1,2.19,1,16.8,16.8,0,0,1,2.67,2.13c.88.87,1.76,1.82,2.67,2.7a17.39,17.39,0,0,0,2.68,2.45,11.41,11.41,0,0,0,2.72,1.5,8.14,8.14,0,0,0,2.2.5,5.5,5.5,0,0,0,.89,0A5,5,0,0,1,37.81,213.09Zm26.41,25.06a7.25,7.25,0,0,1-.61.51,6.4,6.4,0,0,1-2.68,1.06,9.65,9.65,0,0,1-4.12-.24,20.28,20.28,0,0,1-4.24-1.89c-1.32-.82-2.56-1.69-3.75-2.41a22.51,22.51,0,0,0-3.34-1.78,12.25,12.25,0,0,0-2.57-.77,8.87,8.87,0,0,0-1-.14,8.13,8.13,0,0,1,3.9,0,16.15,16.15,0,0,1,3.78,1.4c1.29.69,2.59,1.5,3.89,2.24a19.65,19.65,0,0,0,3.82,1.94,11,11,0,0,0,3.59.7,7.74,7.74,0,0,0,2.6-.39,7,7,0,0,0,.72-.29l.24-.12Zm1.63-3.2a5.74,5.74,0,0,1-1.13.71,7.9,7.9,0,0,1-1.8.61,14,14,0,0,1-2.18.15,12.74,12.74,0,0,1-2.13-.46,7.6,7.6,0,0,1-1.69-.84,5.56,5.56,0,0,1-1-.86l-.33-.39.5.1c.29.09.74.14,1.23.26s1.09.16,1.68.29a11.64,11.64,0,0,0,1.89.18,11.11,11.11,0,0,0,1.9.08c.61-.05,1.2,0,1.7-.05s1,0,1.26-.09l.51,0Zm20.8,21.53a9.92,9.92,0,0,1,1.09-.13,12.53,12.53,0,0,1,1.51,0l1.7.18,1.67.4a11.64,11.64,0,0,1,1.42.5,9.82,9.82,0,0,1,1,.49l.37.24-.43.09a7.35,7.35,0,0,1-1.09.14,15,15,0,0,1-1.51,0l-1.7-.18-1.66-.4a13.53,13.53,0,0,1-1.42-.51,9.82,9.82,0,0,1-1-.49l-.37-.23Zm12.08,2.74a5.17,5.17,0,0,1-.63.54A8.1,8.1,0,0,1,95.4,261a12,12,0,0,1-4.25.34,27.1,27.1,0,0,1-4.71-1c-1.52-.53-3-1.1-4.4-1.54a28.31,28.31,0,0,0-3.83-1.07,16.48,16.48,0,0,0-2.81-.31,9.67,9.67,0,0,0-1.1,0,8.91,8.91,0,0,1,1.06-.35,11.22,11.22,0,0,1,3-.32,19.4,19.4,0,0,1,4.15.6c1.47.39,3,.89,4.5,1.33a25.19,25.19,0,0,0,4.38,1.16,15,15,0,0,0,3.88.19,10.42,10.42,0,0,0,2.72-.61,7,7,0,0,0,.75-.32L99,259Z"/><path d="M79,219.89c-.12-.56-.26-1.18-.46-1.81a17.75,17.75,0,0,0-.71-1.9c-.27-.64-.59-1.29-.93-1.94s-.66-1.34-1-2-.74-1.34-1.13-2-.8-1.29-1.17-1.95-.77-1.28-1.16-1.89-.77-1.19-1.13-1.76c-.69-1.17-1.35-2.21-1.93-3.08-.28-.44-.57-.81-.78-1.18l-.57-.93-.51-.79s0,.76,0,2c0,.64-.05,1.4-.06,2.23s-.06,1.77-.11,2.77-.13,2.07-.24,3.17-.2,2.18-.35,3.28a24.76,24.76,0,0,1-1.57,6.18c-.8,1.82-.43,3.78.55,5.79a13.57,13.57,0,0,0,1.9,2.93,31.6,31.6,0,0,0,2.51,2.67A29.55,29.55,0,0,0,72.77,232c.89.66,1.73,1.23,2.45,1.71,1.48.9,2.5,1.41,2.5,1.41a13.68,13.68,0,0,1-.32-3.14,29.34,29.34,0,0,1,1.5-8.87A6.47,6.47,0,0,0,79,219.89ZM70.62,213c-.2,1.05-.44,2.08-.67,3s-.57,1.83-.79,2.59-.53,1.37-.69,1.81-.31.67-.31.67,0-.27,0-.74,0-1.14.07-1.93.12-1.72.28-2.69.31-2,.43-3,.36-2,.47-3,.26-1.84.29-2.62.12-1.43.12-1.89,0-.74,0-.74.1.25.29.69a10.49,10.49,0,0,1,.51,1.89,14.51,14.51,0,0,1,.24,2.77C70.84,210.83,70.75,211.9,70.62,213Zm2.67,6.89a9.17,9.17,0,0,1-.43,1.58,6.4,6.4,0,0,1-.49,1.06l-.25.38-.08-.44c0-.28-.11-.68-.13-1.13s-.11-1-.11-1.54,0-1.14-.08-1.72,0-1.18,0-1.73,0-1.09,0-1.54.07-.86.07-1.14.06-.44.06-.44l.26.36a5.47,5.47,0,0,1,.56,1,8.51,8.51,0,0,1,.52,1.55c.1.59.18,1.22.24,1.86S73.36,219.27,73.29,219.86Z"/><path d="M43.32,200.31c.18.55.41,1.1.65,1.65a27.22,27.22,0,0,0,3.67,6.15c.67.88,1.3,1.68,1.87,2.34,1.18,1.27,2,2.05,2,2.05a13.06,13.06,0,0,1,.48-3,26.92,26.92,0,0,1,3.59-7.84,6.06,6.06,0,0,0,.85-3c0-.56,0-1.18,0-1.83s-.1-1.32-.2-2-.23-1.39-.39-2.1-.32-1.46-.49-2.2-.36-1.49-.57-2.22-.44-1.46-.62-2.2c-.39-1.46-.82-2.87-1.25-4.15s-.71-2.5-1-3.51l-.45-1.35c-.11-.41-.22-.77-.3-1.06l-.27-.91s-.18.73-.53,1.93-.77,2.82-1.39,4.69c-.29.93-.63,1.92-1,2.93s-.71,2-1.13,3a22.94,22.94,0,0,1-3,5.36c-1.17,1.46-1.32,3.43-.91,5.61A15.44,15.44,0,0,0,43.32,200.31Zm8.14-4.85a5.14,5.14,0,0,1,.44-.7l.21-.26s0,.11.12.31a5,5,0,0,1,.18.81,6.48,6.48,0,0,1,.08,1.12c0,.39-.06.82-.1,1.24s-.22.82-.32,1.21a8.21,8.21,0,0,1-.44,1,5.35,5.35,0,0,1-.44.71c-.14.16-.21.26-.21.26s0-.12-.12-.32a4.54,4.54,0,0,1-.18-.81,7.51,7.51,0,0,1-.08-1.11c0-.4.06-.82.1-1.25l.32-1.2A6.64,6.64,0,0,1,51.46,195.46Zm-5.05.3a8.38,8.38,0,0,1,.89-2.7c.48-.89,1-1.76,1.39-2.65a13.79,13.79,0,0,0,1.08-2.68,21.84,21.84,0,0,0,.64-2.49c.12-.75.28-1.39.31-1.85s.1-.72.1-.72l.23.7a8.91,8.91,0,0,1,.33,1.93,11.34,11.34,0,0,1-.16,2.78,14.84,14.84,0,0,1-1,3.08c-.51,1-1.15,1.86-1.65,2.65A11.71,11.71,0,0,0,47.34,196a6,6,0,0,0-.43,1.74,3.73,3.73,0,0,0,0,.72,3.1,3.1,0,0,1-.33-.67A4.37,4.37,0,0,1,46.41,195.76Z"/><path d="M29.08,174.82c.35,1.16.73,2.29,1.12,3.33s.74,2,1.14,2.77c.77,1.56,1.33,2.54,1.33,2.54a12.88,12.88,0,0,1,1.2-2.72,25.18,25.18,0,0,1,5.27-6.36,5.81,5.81,0,0,0,1.52-2.56,15,15,0,0,0,.45-1.73q.2-.94.33-2c.18-1.39.18-2.84.26-4.38s.06-3.08,0-4.58,0-3-.05-4.37c0-.68,0-1.33,0-1.95s0-1.2,0-1.74c0-1.06-.07-1.93-.09-2.54s0-1,0-1l-1,1.7c-.58,1-1.43,2.49-2.46,4.11-.53.8-1.08,1.65-1.64,2.51s-1.17,1.71-1.81,2.53a22.16,22.16,0,0,1-4.1,4.24c-1.43,1-2.09,2.88-2.28,5.08a15.1,15.1,0,0,0,.15,3.46A35.16,35.16,0,0,0,29.08,174.82ZM39.45,163l.27-.38s0,.17.05.47a5,5,0,0,1-.07,1.22,6.85,6.85,0,0,1-.49,1.67,13.19,13.19,0,0,1-1,1.72,15.63,15.63,0,0,1-1.43,1.4,7.67,7.67,0,0,1-1.5.87,5,5,0,0,1-1.18.36l-.46.07.3-.36c.21-.19.46-.53.78-.86s.65-.78,1-1.17a13.66,13.66,0,0,0,1.09-1.37,12.47,12.47,0,0,0,1.06-1.39c.29-.47.67-.88.89-1.29S39.31,163.26,39.45,163Zm-7.74,4.39a3.59,3.59,0,0,1,.62-1.54c.41-.54.84-1.13,1.31-1.71A15.53,15.53,0,0,0,35,162.24a16.31,16.31,0,0,0,1.27-2c.36-.66.78-1.26,1-1.81s.57-1,.73-1.34l.29-.52s0,.22,0,.6a8.31,8.31,0,0,1-.13,1.57,10.32,10.32,0,0,1-.62,2.15,17.78,17.78,0,0,1-1.19,2.28,18.07,18.07,0,0,1-1.69,1.95,20.21,20.21,0,0,1-1.69,1.35,4.61,4.61,0,0,0-1,1,1.77,1.77,0,0,0-.27.51A1.87,1.87,0,0,1,31.71,167.4Z"/><path d="M33.11,141.39a12,12,0,0,0,.86-1.55c.28-.57.5-1.18.78-1.82a38.43,38.43,0,0,0,1.41-4.17c.19-.74.41-1.48.63-2.23s.41-1.5.59-2.24c.36-1.48.8-2.92,1.1-4.27s.68-2.56.92-3.61.47-1.9.63-2.5.24-.94.24-.94-.49.54-1.33,1.39-2,2-3.34,3.32l-2.16,2c-.74.67-1.51,1.33-2.31,2a21,21,0,0,1-4.81,3,4.73,4.73,0,0,0-2,1.58,8.52,8.52,0,0,0-1.38,2.67,20.55,20.55,0,0,0-.79,3.37c-.09.59-.17,1.2-.23,1.82s-.05,1.22-.05,1.83c0,1.22,0,2.41.1,3.52a25.4,25.4,0,0,0,.34,3c.27,1.72.52,2.82.52,2.82A12.54,12.54,0,0,1,24.62,148,23,23,0,0,1,31,143.42,5.7,5.7,0,0,0,33.11,141.39Zm-7.88-5.14a5.77,5.77,0,0,0-.43.54,5,5,0,0,1,.13-.7,5.44,5.44,0,0,1,.84-1.72,9.58,9.58,0,0,1,1.9-1.93c.79-.58,1.66-1.12,2.52-1.64a23.2,23.2,0,0,0,2.49-1.38,14.89,14.89,0,0,0,2-1.4,7.87,7.87,0,0,0,1.2-1.26,6.26,6.26,0,0,0,.41-.57l0,.19a2.75,2.75,0,0,1-.08.52,5.24,5.24,0,0,1-.77,1.76,9.16,9.16,0,0,1-1.85,2A27.66,27.66,0,0,1,31,132.31c-.89.44-1.75.89-2.51,1.36a17.42,17.42,0,0,0-2,1.35A8.1,8.1,0,0,0,25.23,136.25Zm4,1.16a3.89,3.89,0,0,1-.9.14H28l.2-.29c.15-.15.31-.43.56-.67s.47-.58.78-.84a12.55,12.55,0,0,0,.9-.89c.34-.26.67-.54,1-.82s.65-.48.9-.71.55-.36.72-.49l.3-.18s0,.13,0,.36a4,4,0,0,1-.22.88,5.91,5.91,0,0,1-.56,1.13c-.28.36-.59.74-.93,1.1s-.79.58-1.17.82A5.57,5.57,0,0,1,29.27,137.41Z"/><path d="M45.67,92.23c1.12-1.87,1.8-3.1,1.8-3.1s-.6.4-1.6,1c-.5.3-1.1.66-1.79,1s-1.4.84-2.19,1.29-1.64.9-2.53,1.34-1.74.89-2.63,1.28a18.78,18.78,0,0,1-5.19,1.57,4.56,4.56,0,0,0-2.26,1,9.62,9.62,0,0,0-2,2.2,21.64,21.64,0,0,0-1.65,3,26.6,26.6,0,0,0-1.26,3.44,30,30,0,0,0-.87,3.41c-.22,1.09-.39,2.09-.52,3s-.18,1.58-.23,2.08l-.06.79a12.46,12.46,0,0,1,2.23-1.69A22.73,22.73,0,0,1,32,111.19a5.69,5.69,0,0,0,2.42-1.41A16.63,16.63,0,0,0,36.8,107a40.74,40.74,0,0,0,2.42-3.66l1.22-2c.39-.67.78-1.34,1.15-2,.8-1.32,1.53-2.63,2.21-3.84S45.15,93.18,45.67,92.23ZM41.08,96a5,5,0,0,1-1,1.42,8.25,8.25,0,0,1-2,1.42,23.61,23.61,0,0,1-2.54,1c-.87.22-1.73.44-2.49.7a18.09,18.09,0,0,0-2.07.74,9.22,9.22,0,0,0-1.39.76c-.33.21-.52.36-.52.36a5,5,0,0,1,.28-.59,5.1,5.1,0,0,1,1.1-1.34,8.91,8.91,0,0,1,2.06-1.32c.81-.35,1.68-.66,2.53-1a24.47,24.47,0,0,0,2.45-.74,13.4,13.4,0,0,0,2-.83,8.28,8.28,0,0,0,1.32-.84,5,5,0,0,0,.49-.41A5,5,0,0,1,41.08,96Z"/><path d="M58.9,66.86l1.29-1.23c.79-.76,1.41-1.42,1.87-1.85l.72-.68L61,63.66c-1.09.36-2.61.83-4.36,1.28a48.93,48.93,0,0,1-5.51,1.25,16.72,16.72,0,0,1-5.16.24,4.32,4.32,0,0,0-2.38.36,10.77,10.77,0,0,0-2.46,1.61c-.41.34-.83.72-1.24,1.13s-.78.87-1.16,1.33a28.92,28.92,0,0,0-2.18,3c-.65,1-1.26,2.06-1.8,3s-1,1.91-1.31,2.7-.65,1.45-.85,1.91l-.27.74a10.76,10.76,0,0,1,2.52-1A21.09,21.09,0,0,1,42,80.39a5,5,0,0,0,2.61-.73,12.13,12.13,0,0,0,1.47-.92c.49-.36,1-.74,1.57-1.17s1.08-.89,1.63-1.39l1.67-1.52c.57-.52,1.13-1.06,1.68-1.61S53.76,72,54.3,71.42s1.1-1.08,1.62-1.61l1.56-1.52Zm-5.39,2.38a6.92,6.92,0,0,1-1.46.91,12,12,0,0,1-2.27.8l-2.6.57a15.29,15.29,0,0,0-2.48.53,12.32,12.32,0,0,0-2.06.72,7.71,7.71,0,0,0-1.38.79,5.09,5.09,0,0,0-.51.38,4.69,4.69,0,0,1,.26-.6A4.88,4.88,0,0,1,42.1,72a7.89,7.89,0,0,1,2.1-1.33,17.48,17.48,0,0,1,2.66-.81l2.65-.34c.83-.13,1.61-.14,2.26-.26s1.21-.18,1.6-.29L54,68.8A6.31,6.31,0,0,1,53.51,69.24Z"/><path d="M83.17,43.18l1-.54.88-.49s-.7.07-1.84.13l-2,.09c-.75,0-1.58.07-2.45.09s-1.8,0-2.74,0-1.85,0-2.76-.11A21.32,21.32,0,0,1,70.62,42a11.16,11.16,0,0,1-2.24-.65,4.2,4.2,0,0,0-2.29-.2,9.75,9.75,0,0,0-2.78.9,24.42,24.42,0,0,0-3,1.73c-1,.68-2,1.48-2.89,2.26a31.51,31.51,0,0,0-2.56,2.42c-.78.8-1.49,1.54-2,2.2C51.72,52,51,52.91,51,52.91a11.92,11.92,0,0,1,2.61-.37,19.53,19.53,0,0,1,6.81,1,4.86,4.86,0,0,0,2.6-.09,18,18,0,0,0,3.45-1.25c1.24-.58,2.61-1.21,4-2,.66-.38,1.37-.73,2.06-1.1s1.38-.77,2-1.16l2-1.11,1.91-1.09c1.25-.67,2.39-1.3,3.35-1.85C82.32,43.62,82.78,43.4,83.17,43.18Zm-6.44,2.38a5.15,5.15,0,0,1-1.69.51A8.36,8.36,0,0,1,72.57,46c-.88-.17-1.77-.42-2.63-.61a17.73,17.73,0,0,0-4.67-.83,14.31,14.31,0,0,0-1.61.06c-.41,0-.64.07-.64.07a6.41,6.41,0,0,1,.53-.38,6,6,0,0,1,1.59-.7,8.16,8.16,0,0,1,2.47-.3,15,15,0,0,1,2.78.42c.9.29,1.74.6,2.53.82a16,16,0,0,0,2.14.57,8.46,8.46,0,0,0,1.59.14,5.4,5.4,0,0,0,.63,0A3.64,3.64,0,0,1,76.73,45.56Z"/><path d="M97,23.53a3.88,3.88,0,0,0-2.1-.74,11.25,11.25,0,0,0-2.88.18,18.18,18.18,0,0,0-3.32.88,31,31,0,0,0-3.4,1.37c-1.1.52-2.17,1.07-3.15,1.6s-1.83,1.1-2.57,1.57-1.34.86-1.75,1.15l-.63.47a9.81,9.81,0,0,1,2.55.28,18.56,18.56,0,0,1,6,2.48,4.82,4.82,0,0,0,2.48.55,14.53,14.53,0,0,0,1.69-.1c.6-.08,1.26-.14,1.93-.26s1.38-.24,2.1-.39,1.47-.32,2.23-.49,1.52-.34,2.28-.54,1.54-.36,2.31-.55l2.24-.57c.74-.18,1.47-.33,2.16-.5l2-.49c.63-.16,1.23-.28,1.77-.42l3.6-.81-1.79-.33c-1.11-.21-2.63-.51-4.31-.9a47,47,0,0,1-5.18-1.4A14.63,14.63,0,0,1,97,23.53Zm6.37,5.3c.44.06.7.07.7.07a6.82,6.82,0,0,1-.67.26,6.52,6.52,0,0,1-1.87.34,12.1,12.1,0,0,1-2.67-.19c-1-.19-1.94-.43-2.91-.67a24,24,0,0,0-2.75-.74,16.42,16.42,0,0,0-2.42-.4,9.38,9.38,0,0,0-1.77,0,6.41,6.41,0,0,0-.7.08,6,6,0,0,1,.6-.4,5.82,5.82,0,0,1,1.81-.64,9.89,9.89,0,0,1,2.71-.12,27.08,27.08,0,0,1,3,.57c1,.31,1.9.62,2.79.87s1.68.54,2.4.67A14.37,14.37,0,0,0,103.41,28.83Z"/><path d="M162.48,254.18a32.28,32.28,0,0,0,3.47-.47,22.54,22.54,0,0,0,3.55-.91,16.58,16.58,0,0,0,3.16-1.55,8.37,8.37,0,0,0,2.36-2.13,6.25,6.25,0,0,0,1.15-2.86,28.29,28.29,0,0,1,1.9-6.57c.44-1.07.9-2.21,1.38-3.25s1-2.07,1.42-3l2.39-4.67c.6-1.16,1-1.83,1-1.83s-1.2.54-3,1.5c-.92.42-2,.94-3.19,1.56-.59.3-1.19.66-1.83.95s-1.28.64-1.94,1-1.31.72-2,1.11-1.33.72-2,1.11a42.8,42.8,0,0,0-3.68,2.46,15.87,15.87,0,0,0-2.93,2.68,7.64,7.64,0,0,0-1.62,3,34,34,0,0,1-3.5,9,15,15,0,0,1-2,2.76s1.13.1,2.86.12C160.36,254.24,161.37,254.23,162.48,254.18ZM173.41,242a20.85,20.85,0,0,1,.59-2.68,21.94,21.94,0,0,1,1.16-2.49,11.85,11.85,0,0,1,1.42-1.91,8.57,8.57,0,0,1,1.22-1.15l.52-.37-.25.58c-.2.34-.4.88-.69,1.47s-.55,1.32-.89,2a20.69,20.69,0,0,0-.86,2.37,19.43,19.43,0,0,0-.75,2.4c-.17.79-.44,1.52-.54,2.17s-.29,1.2-.35,1.59-.15.62-.15.62l-.19-.61a9.56,9.56,0,0,1-.28-1.66A12.83,12.83,0,0,1,173.41,242Zm-2.73-1.94a6.47,6.47,0,0,1,.67-1.29A5,5,0,0,1,172,238l.31-.26s0,.14,0,.4,0,.6-.06,1,0,.86-.13,1.32a11.27,11.27,0,0,0-.15,1.46,12.21,12.21,0,0,0-.18,1.45c0,.47-.16.92-.18,1.31s-.14.74-.16,1l-.08.4-.24-.33a4.49,4.49,0,0,1-.48-.92,6.44,6.44,0,0,1-.36-1.41,6.3,6.3,0,0,1,.38-3.29Z"/><path d="M191.15,271.18c-1.27-1.12-2.65-2.33-4.06-3.53s-2.86-2.37-4.31-3.56-2.89-2.26-4.27-3.17a26.74,26.74,0,0,0-4-2.2A7.35,7.35,0,0,0,171,258c-.54.06-1.07.11-1.58.14h-1.49c-1,0-1.84-.06-2.65-.12s-1.56-.15-2.24-.25-1.27-.27-1.81-.41a15.07,15.07,0,0,1-3.15-1.14,41.69,41.69,0,0,0,3.14,9.27,19.45,19.45,0,0,0,4.43,6.2,8.48,8.48,0,0,0,6.51,2.36A25.88,25.88,0,0,1,176,274c.68,0,1.37.08,2.06.14l2.1.17c1.41.13,2.83.32,4.23.54s2.76.41,4.06.62,2.53.42,3.65.63,2.12.4,3,.53c1.67.28,2.7.49,2.7.49s-1.26-1.16-3.23-2.89ZM165.38,262l.65.34c.39.24,1,.51,1.64.9s1.48.76,2.3,1.22a27.3,27.3,0,0,0,2.66,1.28c.9.45,1.82.85,2.7,1.19s1.69.72,2.42.95,1.32.52,1.76.66l.67.27-.72.06a13.38,13.38,0,0,1-1.93-.05,16.85,16.85,0,0,1-2.67-.48,29,29,0,0,1-3-1,30.51,30.51,0,0,1-2.71-1.56,16.28,16.28,0,0,1-2.1-1.72,12.85,12.85,0,0,1-1.29-1.43Zm22.79,10.93a15.52,15.52,0,0,0-2.63-.68,28.58,28.58,0,0,0-3.79-.36c-1.4-.07-2.91-.07-4.46-.11a27.49,27.49,0,0,1-4.57-.65,12.11,12.11,0,0,1-3.73-1.67,8,8,0,0,1-2.06-2,7.57,7.57,0,0,1-.41-.68l-.14-.25a7.63,7.63,0,0,0,.79.7,10.89,10.89,0,0,0,2.3,1.38,15,15,0,0,0,3.58,1.05,26.88,26.88,0,0,0,4.33.4c1.5.11,3,.18,4.49.34a18,18,0,0,1,3.93.91,10.64,10.64,0,0,1,2.52,1.31,10.44,10.44,0,0,1,.83.69A10.08,10.08,0,0,0,188.17,272.94Z"/><path d="M208.07,226.58c.18-1.11.38-2.19.59-3.2s.41-1.93.6-2.76.35-1.61.5-2.23c.29-1.26.49-2,.49-2l-.7.61c-.45.39-1.05,1-1.84,1.67s-1.69,1.48-2.66,2.41c-.48.48-1,.91-1.54,1.39s-1.07,1-1.6,1.5-1.07,1.08-1.63,1.58-1.09,1.06-1.61,1.61-1,1.11-1.51,1.68-1,1.08-1.4,1.63a16.71,16.71,0,0,0-2.1,3.33,7,7,0,0,0-.77,3.18,31.61,31.61,0,0,1-.92,9.33,14,14,0,0,1-1.15,3l.77-.15a17.52,17.52,0,0,0,2-.5c.82-.24,1.79-.56,2.83-.93a23.9,23.9,0,0,0,3.22-1.39,30,30,0,0,0,3.15-1.87,13.38,13.38,0,0,0,2.62-2.32,9.16,9.16,0,0,0,1.7-2.65,5.65,5.65,0,0,0,.36-2.94,26.33,26.33,0,0,1,.09-6.62C207.71,228.81,207.9,227.72,208.07,226.58Zm-5.37,1.85c0,.3,0,.77-.12,1.28s-.08,1.12-.18,1.74a17.47,17.47,0,0,0-.16,2,16.64,16.64,0,0,0-.15,2c0,.63-.11,1.23-.1,1.75s-.08,1-.08,1.28,0,.51,0,.51l-.27-.44a6.44,6.44,0,0,1-.55-1.21,9.27,9.27,0,0,1-.44-1.83,19,19,0,0,1-.08-2.16c.1-.73.25-1.45.41-2.12a9.8,9.8,0,0,1,.73-1.74,6.86,6.86,0,0,1,.73-1.11l.34-.38S202.72,228.1,202.7,228.43Zm3.21-5.7c0,.44,0,1.09-.12,1.83s-.09,1.63-.2,2.55-.16,1.9-.2,2.89-.17,2-.21,2.89-.15,1.79-.16,2.54-.13,1.39-.14,1.83l-.08.71-.25-.67a11.87,11.87,0,0,1-.49-1.8,17.8,17.8,0,0,1-.37-2.61c0-1,0-2,0-3s.26-2,.44-3a19.44,19.44,0,0,1,.73-2.53,15,15,0,0,1,.74-1.71l.35-.63Z"/><path d="M224.78,233.66c.72-.48,1.56-1,2.45-1.71a29.55,29.55,0,0,0,2.71-2.23,31.6,31.6,0,0,0,2.51-2.67,13.57,13.57,0,0,0,1.9-2.93c1-2,1.35-4,.55-5.79a24.76,24.76,0,0,1-1.57-6.18c-.15-1.1-.25-2.19-.35-3.28s-.18-2.17-.24-3.17-.09-1.93-.11-2.77,0-1.59-.06-2.23c0-1.27,0-2,0-2l-.51.79-.57.93c-.21.37-.5.74-.78,1.18-.58.87-1.24,1.91-1.93,3.08-.36.57-.75,1.14-1.13,1.76s-.78,1.24-1.16,1.89-.77,1.31-1.17,1.95-.77,1.32-1.13,2-.69,1.36-1,2-.65,1.3-.92,1.94a17.75,17.75,0,0,0-.71,1.9c-.2.63-.34,1.25-.46,1.81a6.47,6.47,0,0,0,.07,3.17,29.34,29.34,0,0,1,1.5,8.87,13.68,13.68,0,0,1-.32,3.14S223.3,234.56,224.78,233.66Zm4.58-26.61a10.49,10.49,0,0,1,.51-1.89c.19-.44.29-.69.29-.69s0,.27,0,.74.08,1.12.12,1.89.2,1.67.29,2.62.27,2,.47,3,.28,2.05.43,3,.19,1.9.28,2.69.05,1.46.07,1.93,0,.74,0,.74-.11-.25-.31-.67-.45-1-.69-1.81-.56-1.62-.79-2.59-.47-2-.67-3-.22-2.14-.26-3.15A14.51,14.51,0,0,1,229.36,207.05Zm-2.55,9.09a8.51,8.51,0,0,1,.52-1.55,6.18,6.18,0,0,1,.55-1c.18-.23.27-.36.27-.36l.06.44c0,.28.08.68.07,1.14s.06,1,0,1.54,0,1.14,0,1.73-.08,1.17-.08,1.72-.11,1.09-.11,1.54-.11.85-.13,1.13l-.08.44-.25-.38a6.4,6.4,0,0,1-.49-1.06,8.35,8.35,0,0,1-.43-1.58c-.07-.59-.12-1.22-.14-1.86S226.71,216.73,226.81,216.14Z"/><path d="M253.19,187.68c-.42-1-.79-2-1.13-3s-.7-2-1-2.93c-.62-1.87-1-3.49-1.39-4.69s-.53-1.93-.53-1.93l-.27.91c-.08.29-.19.65-.3,1.06l-.45,1.35c-.32,1-.67,2.2-1,3.51s-.86,2.69-1.25,4.15c-.18.74-.42,1.46-.62,2.2s-.4,1.47-.57,2.22-.33,1.48-.49,2.2-.29,1.41-.39,2.1-.17,1.36-.2,2,0,1.27,0,1.83a6.06,6.06,0,0,0,.85,3,26.92,26.92,0,0,1,3.59,7.84,13.06,13.06,0,0,1,.48,3s.82-.78,2-2.05c.57-.66,1.2-1.46,1.87-2.34A27.22,27.22,0,0,0,256,202c.24-.55.47-1.1.65-1.65a15.44,15.44,0,0,0,.41-1.66c.41-2.18.26-4.15-.91-5.61A22.94,22.94,0,0,1,253.19,187.68Zm-3.87,12.37a4.54,4.54,0,0,1-.18.81c-.07.2-.12.32-.12.32s-.07-.1-.21-.26a5.35,5.35,0,0,1-.44-.71,8.21,8.21,0,0,1-.44-1c-.1-.39-.21-.8-.32-1.21s-.07-.85-.1-1.24a6.48,6.48,0,0,1,.08-1.12,5,5,0,0,1,.18-.81c.07-.2.12-.31.12-.31l.21.26a5.14,5.14,0,0,1,.44.7,6.64,6.64,0,0,1,.44,1l.32,1.2c0,.43.07.85.1,1.25A7.51,7.51,0,0,1,249.32,200.05Zm4.09-2.27a3.1,3.1,0,0,1-.33.67,3.73,3.73,0,0,0,0-.72,6,6,0,0,0-.43-1.74,11.71,11.71,0,0,0-1.25-2.18c-.5-.79-1.14-1.66-1.65-2.65a14.84,14.84,0,0,1-1-3.08,11.34,11.34,0,0,1-.16-2.78,8.91,8.91,0,0,1,.33-1.93l.23-.7s0,.26.1.72.19,1.1.31,1.85a21.84,21.84,0,0,0,.64,2.49,13.79,13.79,0,0,0,1.08,2.68c.38.89.91,1.76,1.39,2.65a8.38,8.38,0,0,1,.89,2.7A4.37,4.37,0,0,1,253.41,197.78Z"/><path d="M258.3,163.73c.08,1.54.08,3,.26,4.38q.13,1,.33,2a15,15,0,0,0,.45,1.73,5.81,5.81,0,0,0,1.52,2.56,25.18,25.18,0,0,1,5.27,6.36,13.59,13.59,0,0,1,1.2,2.72s.56-1,1.33-2.54c.4-.78.74-1.74,1.14-2.77s.77-2.17,1.12-3.33a35.16,35.16,0,0,0,.7-3.6,15.1,15.1,0,0,0,.15-3.46c-.19-2.2-.85-4-2.28-5.08a22.16,22.16,0,0,1-4.1-4.24c-.64-.82-1.24-1.68-1.81-2.53s-1.11-1.71-1.64-2.51c-1-1.62-1.88-3.07-2.46-4.11l-1-1.7s0,.34,0,1-.07,1.48-.09,2.54c0,.54,0,1.12,0,1.74s0,1.27,0,1.95c-.06,1.36-.08,2.84-.05,4.37S258.23,162.21,258.3,163.73Zm3.36-7.12.29.52c.16.34.46.79.73,1.34s.68,1.15,1,1.81a16.31,16.31,0,0,0,1.27,2,15.53,15.53,0,0,0,1.37,1.91c.47.58.9,1.17,1.31,1.71a3.59,3.59,0,0,1,.62,1.54,1.87,1.87,0,0,1-.05.62,1.77,1.77,0,0,0-.27-.51,4.61,4.61,0,0,0-1-1,20.21,20.21,0,0,1-1.69-1.35,18.07,18.07,0,0,1-1.69-1.95,17.78,17.78,0,0,1-1.19-2.28,10.32,10.32,0,0,1-.62-2.15,8.31,8.31,0,0,1-.13-1.57C261.65,156.83,261.66,156.61,261.66,156.61Zm-1.43,6.49c0-.3,0-.47,0-.47l.27.38c.14.25.41.57.65,1s.6.82.89,1.29a12.47,12.47,0,0,0,1.06,1.39,13.66,13.66,0,0,0,1.09,1.37c.39.39.7.85,1,1.17s.57.67.78.86l.3.36-.46-.07a5,5,0,0,1-1.18-.36,7.67,7.67,0,0,1-1.5-.87,15.63,15.63,0,0,1-1.43-1.4,13.19,13.19,0,0,1-1-1.72,6.85,6.85,0,0,1-.49-1.67A5,5,0,0,1,260.23,163.1Z"/><path d="M293.27,158.28l-4,2.34c-1.42.82-2.86,1.68-4.24,2.56s-2.65,1.81-3.89,2.72a20.64,20.64,0,0,0-3.16,2.83,9.7,9.7,0,0,0-1.1,1.47,8,8,0,0,0-.77,1.51c-.47,1.26-.91,2.39-1.36,3.42.1-.27.2-.54.29-.82.81-2.56,1.7-5.1,2.35-7.73a123.76,123.76,0,0,0,3.23-15.88c.08-.64.15-1.28.23-1.92a28.66,28.66,0,0,0,5.75-1.75,15.41,15.41,0,0,0,5.25-3.59,8.81,8.81,0,0,0,2.54-6,31.37,31.37,0,0,1,.35-3.74c.21-1.29.37-2.61.64-3.94s.55-2.65.82-4,.57-2.56.86-3.77.54-2.33.77-3.35.48-1.95.67-2.72l.58-2.46s-1,1-2.45,2.58-3.54,3.76-5.6,6.1c-1.07,1.17-2.14,2.39-3.14,3.62-.5.61-1,1.23-1.45,1.84s-.94,1.23-1.37,1.84a22.31,22.31,0,0,0-2.07,3.58,9,9,0,0,0-.94,3.39c-.05,1.09-.11,2.11-.21,3.05-.09.58-.18,1.12-.27,1.64.07-.86.13-1.72.16-2.57l.09-4c0-.68.05-1.32,0-2l0-2c0-1.33,0-2.65-.14-4s-.17-2.69-.25-4-.27-2.66-.41-4c-.21-1.79-.47-3.58-.76-5.36l.46-.25a24.59,24.59,0,0,0,4.2-3,15.12,15.12,0,0,0,3.79-4.85,10.26,10.26,0,0,0,.86-3,8.19,8.19,0,0,0-.24-3.35,32.82,32.82,0,0,1-.73-3.68c-.23-1.27-.41-2.59-.54-3.93s-.27-2.66-.4-4-.2-2.6-.3-3.82c-.23-2.41-.31-4.6-.46-6.14s-.18-2.49-.18-2.49-.6,1.2-1.47,3.09c-.45,1-1,2.08-1.53,3.3s-1.17,2.57-1.77,4-1.22,2.83-1.78,4.27-1,2.86-1.48,4.26a21,21,0,0,0-.87,4,10.11,10.11,0,0,0,.12,3.5,33.65,33.65,0,0,1,.76,3.87c-.15-.65-.29-1.31-.44-2a132.29,132.29,0,0,0-4.6-14.74c-1.2-3.14-2.52-6.19-3.93-9.15a23.43,23.43,0,0,0,3.17-4.15,14,14,0,0,0,2-5.56,10.17,10.17,0,0,0-.08-3.11,10.05,10.05,0,0,0-1.22-3.1c-.59-1-1.19-2.12-1.76-3.27s-1.09-2.37-1.64-3.58-1.05-2.44-1.53-3.65l-1.43-3.5c-.45-1.11-.84-2.19-1.23-3.12s-.72-1.8-1-2.51-.49-1.3-.65-1.69l-.24-.61-.43,3.26c-.12,1-.26,2.18-.41,3.46s-.28,2.72-.43,4.16-.25,3-.33,4.45-.14,3-.09,4.4a27.53,27.53,0,0,0,.39,4,11.39,11.39,0,0,0,1.17,3.27c.32.56.61,1.1.89,1.63-1.51-2.59-3.08-5.1-4.72-7.5a119,119,0,0,0-8.25-10.73c-.67-.74-1.32-1.48-2-2.21l.11-.22a20.88,20.88,0,0,0,1.51-4.38,14.42,14.42,0,0,0,.16-5.69,10.16,10.16,0,0,0-3.08-5.45c-.87-.79-1.74-1.67-2.6-2.62s-1.75-1.9-2.6-2.91l-1.26-1.52-1.26-1.49-2.35-2.9c-1.53-1.8-2.81-3.49-3.78-4.64l-1.52-1.88s.2,1.21.58,3.08.88,4.49,1.54,7.21c.33,1.36.64,2.82,1,4.21s.82,2.76,1.26,4.09a22.07,22.07,0,0,0,1.59,3.6,10.75,10.75,0,0,0,2.06,2.8c.5.45.94.9,1.37,1.34a118.1,118.1,0,0,0-16.88-13.26c-1.1-.71-2.19-1.38-3.26-2a19.76,19.76,0,0,0,.13-4.78,13,13,0,0,0-1.59-5.22,10.94,10.94,0,0,0-1.81-2.38,11.21,11.21,0,0,0-2.7-1.86c-.53-.26-1-.55-1.59-.85s-1.09-.58-1.64-.9c-1.1-.62-2.19-1.34-3.3-2s-2.21-1.39-3.27-2.11-2.12-1.36-3.09-2-1.89-1.28-2.73-1.82l-2.2-1.45-2-1.31s.56,1,1.47,2.62l1.62,2.78c.62,1.06,1.29,2.19,2,3.35s1.47,2.34,2.25,3.52,1.58,2.34,2.42,3.4A29.8,29.8,0,0,0,209,18.58a13.18,13.18,0,0,0,2.79,2,44.64,44.64,0,0,1,4.9,2.88l.06.05c-2.12-1.11-4.13-2.07-6-2.9a108.72,108.72,0,0,0-10.22-3.87c-1.2-.38-2.12-.65-2.75-.83l-.94-.28.9.4c.6.26,1.48.65,2.64,1.13,2.3,1,5.62,2.57,9.76,4.71a146.25,146.25,0,0,1,14.37,8.66,128.29,128.29,0,0,1,16.84,13.66l2.15,2.12c.72.71,1.4,1.47,2.12,2.22,1.44,1.48,2.8,3.1,4.21,4.7.7.82,1.36,1.67,2.05,2.51s1.38,1.7,2,2.6,1.34,1.77,2,2.67l1.94,2.78a123.12,123.12,0,0,1,13.28,25.3,128.83,128.83,0,0,1,4.56,14.42,127.61,127.61,0,0,1,2.74,15.25l.39,3.9.24,3.91c.1,1.3.09,2.64.13,4l0,2c0,.62,0,1.31,0,2l-.1,4c0,1.32-.18,2.64-.27,4-.14,2.65-.53,5.27-.85,7.9a121,121,0,0,1-3.37,15.49c-.67,2.56-1.57,5-2.39,7.52-.42,1.24-.94,2.45-1.4,3.67s-.93,2.44-1.49,3.62l-1.59,3.56c-.55,1.17-1.16,2.31-1.74,3.46-1.12,2.33-2.47,4.51-3.71,6.74a126.57,126.57,0,0,1-8.53,12.42c-1.48,2-3.11,3.82-4.67,5.68-.76.94-1.63,1.79-2.43,2.68s-1.61,1.78-2.47,2.61c-1.71,1.65-3.33,3.36-5.09,4.87L236.57,225l-2.64,2.17a127.76,127.76,0,0,1-21.24,14,130.49,130.49,0,0,1-19.87,8.35c-1.5.57-3,1-4.44,1.42l-2.12.65c-.7.21-1.39.35-2.06.55l-3.88,1-3.58.81c-2.26.58-4.3.89-6.07,1.26-.89.17-1.71.35-2.48.48l-2.08.33c-1.24.2-2.19.38-2.84.49l-1,.17,1,0c.65,0,1.62.07,2.88.08l2.11,0c.77,0,1.62-.07,2.54-.1,1.83-.07,4-.17,6.31-.46a98.53,98.53,0,0,0,16.79-3.28l.12,0,.24.37a36.1,36.1,0,0,0,4,5.12,19.93,19.93,0,0,0,5.91,4.44,8.82,8.82,0,0,0,6.82.29,32.69,32.69,0,0,1,3.66-1.25c1.3-.36,2.67-.63,4.05-.9s2.76-.54,4.14-.75,2.75-.37,4-.59,2.5-.36,3.61-.49l2.94-.36c1.65-.23,2.68-.34,2.68-.34s-1.49-.69-3.8-1.71l-4-1.79c-1.49-.66-3.11-1.36-4.76-2l-2.5-1c-.85-.35-1.7-.69-2.54-1-1.68-.65-3.33-1.22-4.89-1.65a25.42,25.42,0,0,0-4.38-.89,8.15,8.15,0,0,0-3.06.27l3-1.29,5.4-2.61,5.48-3c1.81-1.12,3.68-2.22,5.51-3.43.33-.21.65-.44,1-.66l.07.06a33.22,33.22,0,0,0,5.13,3.55,18.79,18.79,0,0,0,6.72,2.35A8.74,8.74,0,0,0,245,242c1-.73,2-1.51,3.13-2.21s2.34-1.38,3.58-2,2.45-1.31,3.69-1.91,2.5-1.15,3.63-1.72c2.29-1.11,4.39-2,5.92-2.71l2.4-1.1s-1.56-.21-4-.47-5.77-.68-9.22-1c-1.7-.13-3.51-.31-5.25-.4s-3.44-.14-5-.08a23,23,0,0,0-4.37.47,9.37,9.37,0,0,0-2.22.8,124.71,124.71,0,0,0,15.78-15.95l.17.07a30.66,30.66,0,0,0,5.69,1.8,17.8,17.8,0,0,0,6.86.19,8.77,8.77,0,0,0,5.64-3.54c.72-1,1.5-2,2.36-3s1.81-2,2.81-2.94,1.94-2,2.94-2.89,2-1.82,2.93-2.68c1.83-1.72,3.53-3.22,4.77-4.3.63-.53,1.08-1,1.43-1.28l.52-.46-3.8.73c-2.33.44-5.48,1.06-8.74,1.81-1.61.38-3.35.74-5,1.17s-3.22.9-4.66,1.43a21.42,21.42,0,0,0-4,1.73,9.15,9.15,0,0,0-2.67,2.32v0q2.5-3.8,4.84-7.79c1.23-2.31,2.56-4.58,3.66-7,.57-1.2,1.18-2.38,1.71-3.59l1-2.31.44,0a28.4,28.4,0,0,0,5.71,0,16.85,16.85,0,0,0,6.34-1.86,8.8,8.8,0,0,0,4.27-5c.38-1.14.9-2.31,1.4-3.52s1.14-2.41,1.79-3.62,1.31-2.4,2-3.59,1.32-2.32,2-3.39,1.2-2.11,1.75-3,1-1.74,1.45-2.43l1-1.62c.24-.38.35-.59.35-.59l-3.29,1.78Zm-1.06-28.16c-.14.32-.27.81-.5,1.34s-.43,1.19-.72,1.84-.56,1.36-.8,2.07-.58,1.4-.81,2.07-.53,1.29-.7,1.84-.43,1-.54,1.33l-.24.51s0-.2-.09-.56a7.51,7.51,0,0,1-.08-1.46A11.4,11.4,0,0,1,288,137c.17-.74.39-1.52.64-2.29s.7-1.46,1.07-2.12a12.7,12.7,0,0,1,1.22-1.67,9.71,9.71,0,0,1,1.05-1l.45-.35Zm-6.62,3.69a13,13,0,0,1,.46-1.54,16.49,16.49,0,0,1,.94-2.07c.41-.72.88-1.47,1.37-2.21s1.14-1.36,1.7-2a18.18,18.18,0,0,1,1.71-1.51,11.6,11.6,0,0,1,1.33-.9l.55-.29-.31.53c-.23.31-.49.81-.88,1.33s-.77,1.17-1.26,1.8-1,1.32-1.45,2-1,1.34-1.51,2-1,1.21-1.34,1.74-.78.92-1,1.23l-.42.45S285.52,134.2,285.59,133.81Zm-.32-42,.38-.46s0,.21-.07.58-.11.89-.25,1.49-.21,1.31-.39,2-.34,1.51-.47,2.3-.38,1.55-.52,2.29-.36,1.42-.46,2-.31,1.1-.39,1.46l-.17.56-.16-.57a9.21,9.21,0,0,1-.25-1.51,15,15,0,0,1,0-2.16c.08-.78.18-1.62.32-2.45s.46-1.62.72-2.36a12.73,12.73,0,0,1,.92-2A10.16,10.16,0,0,1,285.27,91.83Zm-3.62,1.74c.09-.68.12-1.49.3-2.32l.53-2.61c.25-.87.51-1.75.75-2.56s.58-1.55.81-2.19a15.9,15.9,0,0,1,.7-1.52l.31-.57s0,.23,0,.64,0,1-.09,1.68-.13,1.48-.3,2.32-.34,1.72-.52,2.61-.51,1.74-.75,2.56-.58,1.55-.81,2.19-.54,1.15-.7,1.52l-.31.57s0-.24,0-.65S281.56,94.25,281.65,93.57ZM219.89,20.66a15.52,15.52,0,0,0-1.62-1.89,22.45,22.45,0,0,0-2.64-2.24,29.74,29.74,0,0,0-3.34-2.21l-3.46-2.2a28,28,0,0,1-2.9-2.21A14.06,14.06,0,0,1,204.13,8c-.38-.49-.58-.79-.58-.79s.29.21.81.55,1.26.78,2.13,1.33,2,1.06,3.11,1.71l3.59,2a32.56,32.56,0,0,1,3.38,2.51A14.88,14.88,0,0,1,219,18.16a9.91,9.91,0,0,1,1.17,2.35,7.2,7.2,0,0,1,.19.7c.05.16.07.24.07.24S220.26,21.15,219.89,20.66ZM248.33,42a5.12,5.12,0,0,1-.34.87,5.77,5.77,0,0,0,0-.9,8.58,8.58,0,0,0-.44-2.26,11.53,11.53,0,0,0-1.42-2.83A18.53,18.53,0,0,0,243.8,34l-2.56-2.91a16.11,16.11,0,0,1-1.92-2.9,9.15,9.15,0,0,1-.83-2.32,8.36,8.36,0,0,1-.13-.92,8.09,8.09,0,0,0,.44.8,16,16,0,0,0,1.33,1.92,32.64,32.64,0,0,0,2.22,2.42l2.72,2.75a20.9,20.9,0,0,1,2.36,3.26,9.69,9.69,0,0,1,1.08,3.4A6.36,6.36,0,0,1,248.33,42Zm17.41,21c0,.63-.07,1.18-.07,1.55s-.06.6-.06.6l-.27-.54a13.83,13.83,0,0,1-.56-1.47,16.43,16.43,0,0,1-.51-2.16c-.11-.8-.19-1.65-.26-2.51s.06-1.73.12-2.53a17.86,17.86,0,0,1,.4-2.18,12,12,0,0,1,.47-1.5c.15-.36.24-.56.24-.56s0,.22.09.6.13.91.16,1.54.13,1.37.13,2.14.05,1.61.11,2.44,0,1.66,0,2.43S265.72,62.36,265.74,63Zm3,5.59c-.22-.81-.42-1.67-.58-2.55s-.12-1.77-.13-2.6a14.3,14.3,0,0,1,.25-2.26,12.22,12.22,0,0,1,.41-1.57L269,59l.11.6c0,.38.16.93.22,1.57s.22,1.37.28,2.16.19,1.61.34,2.44.19,1.67.33,2.44.19,1.53.32,2.16.13,1.19.2,1.56.06.62.06.62l-.37-.5a10.43,10.43,0,0,1-.82-1.39A14.71,14.71,0,0,1,268.78,68.58ZM221.69,256.8a11.22,11.22,0,0,1,2.95.32,8.91,8.91,0,0,1,1.06.35,9.67,9.67,0,0,0-1.1,0,16.48,16.48,0,0,0-2.81.31,28.31,28.31,0,0,0-3.83,1.07c-1.4.44-2.88,1-4.4,1.54a27.1,27.1,0,0,1-4.71,1,12,12,0,0,1-4.25-.34,8.1,8.1,0,0,1-2.7-1.27,5.17,5.17,0,0,1-.63-.54l-.22-.19.26.12a7,7,0,0,0,.75.32,10.42,10.42,0,0,0,2.72.61,15,15,0,0,0,3.88-.19,25.19,25.19,0,0,0,4.38-1.16c1.51-.44,3-.94,4.5-1.33A19.4,19.4,0,0,1,221.69,256.8Zm-14.31.12,1.67-.4,1.7-.18a12.53,12.53,0,0,1,1.51,0,9.92,9.92,0,0,1,1.09.13l.42.1-.37.23a9.82,9.82,0,0,1-1,.49,13.53,13.53,0,0,1-1.42.51l-1.66.4-1.7.18a15,15,0,0,1-1.51,0,7.35,7.35,0,0,1-1.09-.14l-.43-.09.37-.24a9.82,9.82,0,0,1,1-.49A11.64,11.64,0,0,1,207.38,256.92Zm39.18-20.8c1.3-.74,2.6-1.55,3.89-2.24a16.15,16.15,0,0,1,3.78-1.4,8.13,8.13,0,0,1,3.9,0,8.87,8.87,0,0,0-1,.14,12.25,12.25,0,0,0-2.57.77,22.51,22.51,0,0,0-3.34,1.78c-1.19.72-2.43,1.59-3.75,2.41a20.28,20.28,0,0,1-4.24,1.89,9.65,9.65,0,0,1-4.12.24,6.4,6.4,0,0,1-2.68-1.06,7.25,7.25,0,0,1-.61-.51l-.19-.19.24.12a7,7,0,0,0,.72.29,7.74,7.74,0,0,0,2.6.39,11,11,0,0,0,3.59-.7A19.65,19.65,0,0,0,246.56,236.12Zm-7.42-1.42a11.64,11.64,0,0,0,1.89-.18c.59-.13,1.19-.15,1.68-.29s.94-.17,1.23-.26l.5-.1-.33.39a5.56,5.56,0,0,1-1,.86,7.6,7.6,0,0,1-1.69.84,12.74,12.74,0,0,1-2.13.46,14,14,0,0,1-2.18-.15,7.9,7.9,0,0,1-1.8-.61,5.74,5.74,0,0,1-1.13-.71l-.38-.33.51,0c.3.05.76,0,1.26.09s1.09,0,1.7.05A11.11,11.11,0,0,0,239.14,234.7Zm26.68-30.26a17,17,0,0,1,1.42-1.22,23,23,0,0,1,2.19-1.47c.85-.46,1.76-.93,2.69-1.37s1.94-.7,2.86-1a25.33,25.33,0,0,1,2.57-.56,14.85,14.85,0,0,1,1.87-.19h.71l-.63.34c-.41.17-1,.5-1.67.79s-1.48.7-2.35,1-1.78.75-2.68,1.17-1.85.74-2.7,1.13-1.69.66-2.38,1-1.31.49-1.72.66l-.68.23Zm-3.6,8.32a8.14,8.14,0,0,0,2.2-.5,11.41,11.41,0,0,0,2.72-1.5,17.39,17.39,0,0,0,2.68-2.45c.91-.88,1.79-1.83,2.67-2.7a16.8,16.8,0,0,1,2.67-2.13,9.4,9.4,0,0,1,2.19-1,7.06,7.06,0,0,1,.89-.22,8.54,8.54,0,0,0-.74.51,16.54,16.54,0,0,0-1.75,1.51,32,32,0,0,0-2.18,2.39c-.8.9-1.62,1.9-2.52,2.88A18.73,18.73,0,0,1,268,212a8.9,8.9,0,0,1-3.31,1.2,6.27,6.27,0,0,1-2.46-.11,5,5,0,0,1-.86-.31A5.5,5.5,0,0,0,262.22,212.76Zm26.31-44c-.24.28-.55.73-1,1.2s-.84,1.07-1.35,1.63-1,1.2-1.52,1.85-1.06,1.24-1.52,1.86-1,1.14-1.33,1.64-.76.89-1,1.18l-.4.45s0-.22.1-.59a9.87,9.87,0,0,1,.44-1.51,13.12,13.12,0,0,1,.94-2c.42-.69.91-1.41,1.42-2.1s1.19-1.26,1.78-1.82a13.89,13.89,0,0,1,1.79-1.31,10.15,10.15,0,0,1,1.39-.73l.56-.22Zm3.88-6.6c-.38.23-.87.61-1.49,1s-1.3.92-2.06,1.4-1.52,1.07-2.26,1.67-1.54,1.15-2.22,1.74-1.37,1.09-1.89,1.6-1.05.87-1.36,1.17l-.54.44.27-.64a10.54,10.54,0,0,1,.9-1.61,15.4,15.4,0,0,1,1.6-2c.66-.68,1.42-1.36,2.2-2a29.28,29.28,0,0,1,2.54-1.58,16.13,16.13,0,0,1,2.4-1,11.15,11.15,0,0,1,1.79-.43l.69-.1Z"/><path d="M277.2,150.25s.25-1.1.52-2.82a25.4,25.4,0,0,0,.34-3c.07-1.11.11-2.3.1-3.52,0-.61,0-1.22-.05-1.83s-.14-1.23-.23-1.82a20.55,20.55,0,0,0-.79-3.37,8.52,8.52,0,0,0-1.38-2.67,4.73,4.73,0,0,0-2-1.58,21,21,0,0,1-4.81-3c-.8-.63-1.57-1.29-2.31-2l-2.16-2c-1.37-1.28-2.47-2.47-3.34-3.32s-1.33-1.39-1.33-1.39.09.34.24.94.39,1.46.63,2.5.61,2.27.92,3.61.74,2.79,1.1,4.27c.18.74.38,1.49.59,2.24s.44,1.49.63,2.23a38.43,38.43,0,0,0,1.41,4.17c.28.64.5,1.25.78,1.82a12,12,0,0,0,.86,1.55,5.7,5.7,0,0,0,2.07,2,23,23,0,0,1,6.42,4.58A12.54,12.54,0,0,1,277.2,150.25Zm-5.57-12.7a3.89,3.89,0,0,1-.9-.14,5.57,5.57,0,0,1-1.18-.47c-.38-.24-.78-.52-1.17-.82s-.65-.74-.93-1.1a5.91,5.91,0,0,1-.56-1.13,4,4,0,0,1-.22-.88c0-.23,0-.36,0-.36l.3.18c.17.13.46.27.72.49s.62.42.9.71.63.56,1,.82a12.55,12.55,0,0,0,.9.89c.31.26.53.61.78.84s.41.52.56.67l.2.29Zm3.14-1.3a8.1,8.1,0,0,0-1.25-1.23,17.42,17.42,0,0,0-2-1.35c-.76-.47-1.62-.92-2.51-1.36a27.66,27.66,0,0,1-2.53-1.67,9.16,9.16,0,0,1-1.85-2,5.24,5.24,0,0,1-.77-1.76,2.75,2.75,0,0,1-.08-.52,1.29,1.29,0,0,1,0-.19,4.93,4.93,0,0,0,.4.57,7.87,7.87,0,0,0,1.2,1.26,15.41,15.41,0,0,0,2,1.4,24.4,24.4,0,0,0,2.5,1.38c.86.52,1.73,1.06,2.52,1.64a9.58,9.58,0,0,1,1.9,1.93,5.44,5.44,0,0,1,.84,1.72,6.62,6.62,0,0,1,.14.7S275.06,136.58,274.77,136.25Z"/><path d="M277,112.69c-.13-.86-.3-1.86-.52-3a30,30,0,0,0-.87-3.41,26.6,26.6,0,0,0-1.26-3.44,21.64,21.64,0,0,0-1.65-3,9.62,9.62,0,0,0-2-2.2,4.56,4.56,0,0,0-2.26-1,18.78,18.78,0,0,1-5.19-1.57c-.89-.39-1.76-.83-2.63-1.28s-1.74-.9-2.53-1.34-1.52-.89-2.19-1.29-1.29-.75-1.79-1c-1-.61-1.6-1-1.6-1s.68,1.23,1.8,3.1c.52,1,1.16,2.06,1.87,3.25s1.41,2.52,2.21,3.84c.37.67.76,1.34,1.15,2l1.22,2A40.74,40.74,0,0,0,263.2,107a16.63,16.63,0,0,0,2.42,2.82,5.69,5.69,0,0,0,2.42,1.41,22.73,22.73,0,0,1,7.06,2.68,12.46,12.46,0,0,1,2.23,1.69s0-.29-.06-.79S277.19,113.55,277,112.69Zm-6.61-10.59a9.22,9.22,0,0,0-1.39-.76,18.09,18.09,0,0,0-2.07-.74c-.76-.26-1.62-.48-2.49-.7a23.61,23.61,0,0,1-2.54-1,8.25,8.25,0,0,1-2-1.42,5,5,0,0,1-1-1.42,5,5,0,0,1-.22-.61,5,5,0,0,0,.49.41,8.28,8.28,0,0,0,1.32.84,13.4,13.4,0,0,0,2,.83,24.47,24.47,0,0,0,2.45.74c.85.3,1.72.61,2.53,1a8.91,8.91,0,0,1,2.06,1.32,5.1,5.1,0,0,1,1.1,1.34,5,5,0,0,1,.28.59S270.76,102.31,270.43,102.1Z"/><path d="M266.57,79.55c-.36-.79-.78-1.73-1.31-2.7s-1.15-2-1.8-3a28.92,28.92,0,0,0-2.18-3c-.38-.46-.77-.91-1.16-1.33s-.83-.79-1.24-1.13a10.77,10.77,0,0,0-2.46-1.61,4.32,4.32,0,0,0-2.38-.36,16.72,16.72,0,0,1-5.16-.24,48.93,48.93,0,0,1-5.51-1.25c-1.75-.45-3.27-.92-4.36-1.28l-1.79-.56.72.68c.46.43,1.08,1.09,1.87,1.85l1.29,1.23,1.42,1.43,1.56,1.52c.52.53,1.06,1.07,1.62,1.61s1.14,1.07,1.68,1.63,1.11,1.09,1.68,1.61l1.67,1.52c.55.5,1.09,1,1.63,1.39s1.08.81,1.57,1.17a12.13,12.13,0,0,0,1.47.92,5,5,0,0,0,2.61.73,21.09,21.09,0,0,1,7.16.78,10.76,10.76,0,0,1,2.52,1l-.27-.74C267.22,81,266.94,80.34,266.57,79.55Zm-7.83-6a7.71,7.71,0,0,0-1.38-.79,12.32,12.32,0,0,0-2.06-.72,15.29,15.29,0,0,0-2.48-.53l-2.6-.57a12,12,0,0,1-2.27-.8,6.92,6.92,0,0,1-1.46-.91,6.31,6.31,0,0,1-.48-.44l.62.14c.39.11,1,.17,1.6.29s1.43.13,2.26.26l2.65.34a17.48,17.48,0,0,1,2.66.81A7.89,7.89,0,0,1,257.9,72,4.88,4.88,0,0,1,259,73.34a4.69,4.69,0,0,1,.26.6A5.09,5.09,0,0,0,258.74,73.56Z"/><path d="M245.11,48.46A31.51,31.51,0,0,0,242.55,46c-.94-.78-1.89-1.58-2.89-2.26a24.42,24.42,0,0,0-3-1.73,9.75,9.75,0,0,0-2.78-.9,4.2,4.2,0,0,0-2.29.2,11.16,11.16,0,0,1-2.24.65,21.32,21.32,0,0,1-2.64.35c-.91.07-1.84.1-2.76.11s-1.86,0-2.74,0-1.7-.05-2.45-.09l-2-.09c-1.14-.06-1.84-.13-1.84-.13l.88.49,1,.54c.39.22.85.44,1.33.72,1,.55,2.1,1.18,3.35,1.85l1.91,1.09,2,1.11c.67.39,1.36.78,2.05,1.16s1.4.72,2.06,1.1c1.34.76,2.71,1.39,3.95,2A18,18,0,0,0,237,53.43a4.86,4.86,0,0,0,2.6.09,19.53,19.53,0,0,1,6.81-1,11.92,11.92,0,0,1,2.61.37s-.69-.91-1.81-2.25C246.6,50,245.89,49.26,245.11,48.46Zm-8.77-3.86a14.31,14.31,0,0,0-1.61-.06,17.73,17.73,0,0,0-4.67.83c-.86.19-1.75.44-2.63.61a8.36,8.36,0,0,1-2.47.09,5.15,5.15,0,0,1-1.69-.51,3.64,3.64,0,0,1-.55-.35,5.4,5.4,0,0,0,.63,0,8.46,8.46,0,0,0,1.59-.14,16,16,0,0,0,2.14-.57c.79-.22,1.63-.53,2.53-.82a15,15,0,0,1,2.78-.42,8.16,8.16,0,0,1,2.47.3,6,6,0,0,1,1.59.7,6.41,6.41,0,0,1,.53.38S236.75,44.63,236.34,44.6Z"/><path d="M192.76,29.43l2,.49c.69.17,1.42.32,2.16.5l2.24.57c.77.19,1.55.34,2.31.55s1.53.38,2.28.54,1.51.32,2.23.49,1.42.29,2.1.39,1.33.18,1.92.26a14.82,14.82,0,0,0,1.7.1,4.82,4.82,0,0,0,2.48-.55,18.56,18.56,0,0,1,6.05-2.48,9.81,9.81,0,0,1,2.55-.28l-.63-.47c-.41-.29-1-.68-1.75-1.15s-1.6-1-2.57-1.57-2.05-1.08-3.15-1.6a31,31,0,0,0-3.4-1.37,18.18,18.18,0,0,0-3.32-.88,11.25,11.25,0,0,0-2.88-.18,3.88,3.88,0,0,0-2.1.74,14.63,14.63,0,0,1-4.29,2,47,47,0,0,1-5.18,1.4c-1.68.39-3.2.69-4.31.9l-1.79.33L191,29C191.53,29.15,192.13,29.27,192.76,29.43Zm3.83-.6a14.37,14.37,0,0,0,1.76-.3c.72-.13,1.52-.43,2.4-.67s1.83-.56,2.79-.87a27.08,27.08,0,0,1,3-.57,9.89,9.89,0,0,1,2.71.12,5.91,5.91,0,0,1,1.81.64,6,6,0,0,1,.6.4,6.41,6.41,0,0,0-.7-.08,9.38,9.38,0,0,0-1.77,0,16.42,16.42,0,0,0-2.42.4,24,24,0,0,0-2.75.74c-1,.24-2,.48-2.91.67a12.1,12.1,0,0,1-2.67.19,6.52,6.52,0,0,1-1.87-.34,6.82,6.82,0,0,1-.67-.26S196.15,28.89,196.59,28.83Z"/><path d="M81.08,74.21a2.55,2.55,0,0,1-.76,2.15,2.6,2.6,0,0,1-2.11,1,4.14,4.14,0,0,1-2.42-1.18l-4-3.52q-2-1.8-1.53-3.39A3.31,3.31,0,0,1,71,68.11c1.22-1.38,2.63-1.35,4.25.08L76.5,69.3l-1.27,1.44-1.17-1a3.71,3.71,0,0,0-1.12-.77.67.67,0,0,0-.74.23.71.71,0,0,0-.14.8,3.39,3.39,0,0,0,.86,1l4.26,3.76a3.63,3.63,0,0,0,1.17.79.68.68,0,0,0,.77-.22.69.69,0,0,0,.12-.79,3.82,3.82,0,0,0-.94-1.08L77,72.3l1.29-1.46L79.58,72A4.11,4.11,0,0,1,81.08,74.21Z"/><path d="M89.63,66a2.58,2.58,0,0,1-1.06,2.1,2.64,2.64,0,0,1-2.23.79,4.18,4.18,0,0,1-2.28-1.53l-3.68-4.18q-2.2-2.52,0-4.45a2.63,2.63,0,0,1,2.2-.8,4.06,4.06,0,0,1,2.14,1.44l3.68,4.18A4.32,4.32,0,0,1,89.63,66ZM86.69,67.1a.71.71,0,0,0,.82-.16.67.67,0,0,0,.24-.79,4.29,4.29,0,0,0-.85-1.23l-3.74-4.26a3.37,3.37,0,0,0-1-.83.69.69,0,0,0-.78.15.75.75,0,0,0-.27.77,2.85,2.85,0,0,0,.68,1.08l3.74,4.26A4.66,4.66,0,0,0,86.69,67.1Z"/><path d="M95.62,62.3,88.84,52.19l1.29-.86,6.37,4.52-2-2.68-2.22-3.3,1.48-1L100.57,59l-1.17.78-6.56-4.69,1.87,2.59,2.43,3.62Z"/><path d="M108.44,54.77a2.3,2.3,0,0,1-2.12,0,4.55,4.55,0,0,1-1.86-2.19l-2.34-4.74a4,4,0,0,1-.51-2.62,2.73,2.73,0,0,1,1.62-1.79,2.31,2.31,0,0,1,2.78.12,6.27,6.27,0,0,1,1.25,1.82l.38.78L106,47l-.56-1.14a2.7,2.7,0,0,0-.69-1,.75.75,0,0,0-.79,0,.78.78,0,0,0-.48.69A3.33,3.33,0,0,0,103.9,47l2.34,4.73a5,5,0,0,0,.91,1.41.76.76,0,0,0,.89.09.82.82,0,0,0,.48-.81,4.4,4.4,0,0,0-.54-1.62l-.73-1.47-.9.44-.59-1.21,2.44-1.21,3,6-.79.4-.81-.94a1.6,1.6,0,0,1-.18,1.17A2.16,2.16,0,0,1,108.44,54.77Z"/><path d="M117.69,44.56l-.61.19,1.86,5.43-1.88.64-3.94-11.51,3.1-1.06a2.47,2.47,0,0,1,1.57-.13,1.79,1.79,0,0,1,1,.8,8.07,8.07,0,0,1,.74,1.64,4.29,4.29,0,0,1,.3,1.69,1.38,1.38,0,0,1-.62,1,1.17,1.17,0,0,1,1.16.5,10.89,10.89,0,0,1,1.25,2.82,17.74,17.74,0,0,0,.89,2.36l-1.88.64c-.08-.07-.57-1.44-1.49-4.1a1.84,1.84,0,0,0-.54-.95A1.09,1.09,0,0,0,117.69,44.56Zm-1.07-1.18.75-.25a.89.89,0,0,0,.47-.34.91.91,0,0,0,.06-.59,6.55,6.55,0,0,0-.31-1.15l0-.07a3,3,0,0,0-.58-1.16c-.18-.16-.47-.16-.88,0l-.64.21Z"/><path d="M128,47.45l-.61-12.29,2.57-.52,4.37,11.52-1.81.37-.74-2.06-2.06.42.15,2.18Zm3.28-4.4-2.08-5.81h0l.44,6.14Z"/><path d="M140.68,45.37l-.91-10.53-1.52.13-.14-1.59,4.95-.44.14,1.6-1.47.13.92,10.52Z"/><path d="M154.76,44.37a3.43,3.43,0,0,1-4.38-.12,3.71,3.71,0,0,1-.61-2.49l.25-9,2,.06-.26,9a3.92,3.92,0,0,0,.06,1.17,1.6,1.6,0,0,0,.23.38c.08.12.27.18.56.19a.72.72,0,0,0,.62-.22,1.06,1.06,0,0,0,.24-.57,9,9,0,0,0,.07-.9l.25-9,2,.06-.26,9A3.7,3.7,0,0,1,154.76,44.37Z"/><path d="M161.84,45.67l1.79-12,2,.29L164,44.41l2.49.36-.24,1.56Z"/><path d="M171.27,47.34l5-11.25,2.53.69L177.5,49l-1.79-.48.27-2.18-2-.55-.84,2Zm4.91-2.45.76-6.12h0l-2.38,5.68Z"/><path d="M183.57,51.22l3.93-9.81-1.42-.57.6-1.48,4.61,1.85-.6,1.48-1.36-.54L185.4,52Z"/><path d="M192,55l5.63-10.78,1.76.92L193.74,55.9Z"/><path d="M204,61.33a2.59,2.59,0,0,1-2.3-.49,2.64,2.64,0,0,1-1.33-2,4.24,4.24,0,0,1,.9-2.6l3.11-4.61q1.88-2.79,4.3-1.15A2.56,2.56,0,0,1,210,52.44a4,4,0,0,1-.84,2.44L206,59.5A4.24,4.24,0,0,1,204,61.33Zm-1.77-2.58a.69.69,0,0,0,.36.75.68.68,0,0,0,.83,0,4.34,4.34,0,0,0,1-1.14l3.16-4.7a3.22,3.22,0,0,0,.56-1.14.65.65,0,0,0-.34-.71.73.73,0,0,0-.81-.07,2.82,2.82,0,0,0-.87.93l-3.17,4.71A4.29,4.29,0,0,0,202.18,58.75Z"/><path d="M209.1,66.17,217.15,57l1.16,1-2.75,7.3,2.09-2.58,2.63-3L221.62,61l-8.05,9.13-1-.93,2.86-7.55-2,2.47-2.89,3.28Z"/><path d="M220.54,72.28l.82-.71L222.6,73l-.92.81a4,4,0,0,0-1,1.08.7.7,0,0,0,.15.79.68.68,0,0,0,.71.29,2.82,2.82,0,0,0,.94-.61,2.75,2.75,0,0,0,.8-1.1,4.72,4.72,0,0,0,.28-1.5l.06-1.33a5.46,5.46,0,0,1,.33-1.69,4.07,4.07,0,0,1,3.07-2.37,2.68,2.68,0,0,1,2,1.12,2.25,2.25,0,0,1,.72,2.11,4.75,4.75,0,0,1-1.52,2l-.56.5-1.21-1.38.65-.57a3.46,3.46,0,0,0,.85-1,.6.6,0,0,0-.13-.72.72.72,0,0,0-.66-.31,1.44,1.44,0,0,0-.78.42,1.71,1.71,0,0,0-.56.77,5,5,0,0,0-.17,1.14l-.11,1.53a6.48,6.48,0,0,1-.43,2,4.87,4.87,0,0,1-3.4,2.72,2.54,2.54,0,0,1-2-1.07,2.4,2.4,0,0,1-.73-2.21A4.86,4.86,0,0,1,220.54,72.28Z"/><polygon points="150 58.23 153.5 65.32 161.32 66.46 155.66 71.98 157 79.77 150 76.09 143 79.77 144.34 71.98 138.68 66.46 146.5 65.32 150 58.23"/><polygon points="123.63 64.61 125.75 68.92 130.51 69.61 127.07 72.97 127.88 77.7 123.63 75.47 119.37 77.7 120.19 72.97 116.75 69.61 121.5 68.92 123.63 64.61"/><polygon points="176.37 64.61 178.5 68.92 183.26 69.61 179.81 72.97 180.63 77.7 176.37 75.47 172.12 77.7 172.93 72.97 169.49 69.61 174.25 68.92 176.37 64.61"/></g></g></svg>