<svg xmlns="http://www.w3.org/2000/svg" viewBox="0 0 309.36 310.81" fill="#4e76cd"><title>Fichier 13</title><g id="Calque_2" data-name="Calque 2"><g id="Calque_1-2" data-name="Calque 1"><path d="M306.86,147.79c-1.53.81-3.63,2-5.91,3.32A78.89,78.89,0,0,0,294,155.7a34.68,34.68,0,0,0-3.07,2.6,23.05,23.05,0,0,0-2.62,2.74l-.49.63c.42-4.35.64-8.67.66-12.93v-2.13l-.1-1.88c-.05-.92-.1-1.83-.16-2.74.45.39.93.79,1.48,1.19,6.48,4.8,10.12,2.78,14.43-6.56a16,16,0,0,0,1.27-4,42.55,42.55,0,0,0,.5-4.74c.09-1.66.1-3.38.06-5.09,0-.86,0-1.71-.1-2.55s-.22-1.66-.33-2.46c-.47-3.21-1-6.12-1.5-8.22-.24-1-.4-1.9-.59-2.47s-.29-.89-.29-.89-.76.69-1.93,1.85-2.91,2.82-4.7,4.71a75.36,75.36,0,0,0-5.33,6.19,35.86,35.86,0,0,0-2.22,3.29,31.66,31.66,0,0,0-1.72,3.31c-.2.49-.4,1-.58,1.42a71.93,71.93,0,0,0-1.64-8.34A101.05,101.05,0,0,0,281.89,107a19,19,0,0,0,2.06,1c7.3,3,10.21.12,11.85-10a14.68,14.68,0,0,0,.05-4.15,40.59,40.59,0,0,0-.75-4.69c-.34-1.62-.77-3.29-1.24-4.92S292.66,81,292,79.54s-1.27-2.89-1.87-4.17S289,73,288.51,72c-1.1-1.84-1.82-3-1.82-3s-.54.85-1.34,2.26-1.82,3.34-3.05,5.63a75.36,75.36,0,0,0-3.39,7.3A25.74,25.74,0,0,0,277,91.57c-.1.77-.18,1.5-.24,2.2l-.81-1.9a136.93,136.93,0,0,0-9.63-16.93,17.63,17.63,0,0,0,2.75.59c3.81.53,6.21,0,7.52-2.06a8.85,8.85,0,0,0,1.2-4.11,26.65,26.65,0,0,0-.25-6.34,31,31,0,0,0-3-8.29q-.56-1.11-1.17-2.22c-.43-.72-.92-1.41-1.39-2.11-1-1.38-1.95-2.74-2.93-4s-1.94-2.48-2.83-3.56-1.83-1.93-2.57-2.69c-1.51-1.5-2.48-2.4-2.48-2.4s-1.1,3.79-2,8.58c-.22,1.22-.44,2.49-.66,3.77s-.42,2.67-.56,4a26.14,26.14,0,0,0,.15,7.49c.24,1.07.45,2.09.64,3a131,131,0,0,0-11.53-12.5c-1.44-1.38-2.89-2.69-4.33-4,.29,0,.59,0,.9,0a16.24,16.24,0,0,0,2.56-.09c3.72-.38,5.83-1.52,6.54-3.76a9.14,9.14,0,0,0,.06-4.24,24.11,24.11,0,0,0-2-5.88,21.74,21.74,0,0,0-2.06-3.54A39.54,39.54,0,0,0,245.93,27a87.11,87.11,0,0,0-7.49-6.55c-.63-.5-1.24-1-1.85-1.43l-1.84-1.18c-1.18-.74-2.26-1.39-3.17-1.93-1.82-1.08-3-1.71-3-1.71s-.05,3.87.36,8.66c.1,1.2.23,2.46.39,3.72s.4,2.52.62,3.83a26.09,26.09,0,0,0,2.11,7.16c.64,1.3,1.26,2.43,1.87,3.46a146.45,146.45,0,0,0-17.42-10.91l-3.11-1.45a15.9,15.9,0,0,0,3.84-1.05,11.64,11.64,0,0,0,3.87-2.2,4.12,4.12,0,0,0,1.35-3,7.82,7.82,0,0,0-1.11-4,33.14,33.14,0,0,0-3.53-5.05,23.2,23.2,0,0,0-2.9-2.87,22.83,22.83,0,0,0-3.86-2.65c-1.4-.82-2.89-1.61-4.39-2.36s-3-1.47-4.49-2.07c-6-2.14-11.1-3.41-11.1-3.41s1,3.66,2.65,8.09a64.51,64.51,0,0,0,3,6.86c.58,1.12,1.21,2.17,1.85,3.26a20.46,20.46,0,0,0,2.12,2.9,44.66,44.66,0,0,0,3.4,3.51l-.42-.15c-1.94-.61-3.71-1.22-5.37-1.7-.83-.24-1.6-.5-2.36-.68s-1.5-.29-2.19-.41a84.23,84.23,0,0,0-8.49-1.24S188,22,193.11,24c.63.25,1.3.53,2,.79s1.43.66,2.19,1c1.52.73,3.21,1.44,5,2.25l2.83,1.18.07,0a8.37,8.37,0,0,0-1.16-.14,35.26,35.26,0,0,0-5.8.15A16.43,16.43,0,0,0,195,30a16,16,0,0,0-3.28,1.46,37.9,37.9,0,0,0-5.85,4.11,45.34,45.34,0,0,0-5.51,5.53,67.09,67.09,0,0,0,8,2.52c1.12.24,2.23.73,3.4,1s2.36.63,3.54.87,2.39.33,3.47.54a15.42,15.42,0,0,0,3.13.19,33.18,33.18,0,0,0,5.15-.62,10.51,10.51,0,0,0,3.52-1.36c1.79-1.25,2.57-3.42,2.12-7a9.67,9.67,0,0,0-2.46-5.52l4.37,2.17a140,140,0,0,1,18.05,12.14l-.7-.26c-.44-.11-.9-.22-1.38-.32-.95-.21-2-.39-3.07-.54a19.56,19.56,0,0,0-7,.46,25.75,25.75,0,0,0-3.55,1.15c-1.15.46-2.25,1-3.27,1.45a47.59,47.59,0,0,0-6.92,4.16s.76.56,2,1.38c.63.41,1.39.89,2.24,1.4s1.82,1,2.75,1.68A45.88,45.88,0,0,0,220,60.18c1.11.49,2.09,1.1,3.14,1.5a15.57,15.57,0,0,0,3,.92c1.94.38,3.77.51,5.18.65a9.1,9.1,0,0,0,3.77-.41c2.12-.81,3.47-2.72,4-6.35a9.78,9.78,0,0,0-.33-5.14c1.6,1.44,3.19,2.93,4.78,4.52a128.39,128.39,0,0,1,11.81,13.71,19.38,19.38,0,0,0-3.87-2,20.2,20.2,0,0,0-7-1.2,35.18,35.18,0,0,0-3.71.18,32.59,32.59,0,0,0-3.6.62,49.27,49.27,0,0,0-8,2.44s.6.72,1.62,1.81c.51.55,1.12,1.19,1.82,1.89s1.34,1.57,2.12,2.41,1.59,1.69,2.46,2.52,1.82,1.62,2.64,2.47a19.07,19.07,0,0,0,5.42,3.82l1.36.57,1.21.56a21.89,21.89,0,0,0,2.24.85,9.36,9.36,0,0,0,3.86.49c2.32-.27,4.18-1.79,5.71-5.17a12.47,12.47,0,0,0,1.18-4.45,128.82,128.82,0,0,1,9.24,17.12c.49,1.2,1,2.42,1.44,3.64-.81-.78-1.71-1.58-2.72-2.4a12.75,12.75,0,0,0-3.07-1.72,25.44,25.44,0,0,0-3.58-1.18,38.34,38.34,0,0,0-7.37-1.07,46.81,46.81,0,0,0-6.06.15c-1.54.14-2.48.28-2.48.28s.4.83,1.12,2.13c.4.62.72,1.46,1.15,2.33s.91,1.84,1.45,2.83,1.14,2,1.79,3,1.14,2.1,1.79,3.09a21.28,21.28,0,0,0,4.34,5c5.94,5.12,10.11,6.73,14.95,1a12.62,12.62,0,0,0,2.2-3.57,95,95,0,0,1,3,12,79.15,79.15,0,0,1,1.56,9.67c-.49-.74-1-1.51-1.63-2.31a12.29,12.29,0,0,0-2.47-2.47,26,26,0,0,0-3.25-2.06,39.72,39.72,0,0,0-7.08-2.9,44.67,44.67,0,0,0-5.92-1.42c-1.58-.26-2.55-.36-2.55-.36l.14.63a13,13,0,0,1,.33,1.71c.23,1.46.6,3.45,1.16,5.62.27,1.09.67,2.2.88,3.36s.58,2.31.95,3.43a24.13,24.13,0,0,0,1.33,3.2,29.92,29.92,0,0,0,1.58,2.75c4.58,6.49,8.3,9.13,14.62,4.9a13.77,13.77,0,0,0,2.77-2.41c0,1.19.07,2.38.11,3.59l.05,1.88c0-.26,0,.06,0,.06v.23l0,.46,0,.92a130.09,130.09,0,0,1-1.17,14c-.25-.68-.52-1.38-.83-2.11a14.81,14.81,0,0,0-1.76-3,25.66,25.66,0,0,0-2.7-2.84,41.07,41.07,0,0,0-6.29-4.65,53.71,53.71,0,0,0-5.48-2.92c-.7-.33-1.35-.58-1.76-.75l-.66-.26s0,.23,0,.64-.12,1-.18,1.74a56.77,56.77,0,0,0-.3,5.71c0,.56,0,1.14,0,1.72s-.05,1.16-.08,1.74a35.06,35.06,0,0,0,.08,3.55,23.67,23.67,0,0,0,.5,3.42,18.44,18.44,0,0,0,.81,3c1.46,3.72,3,6.46,5,8a6.69,6.69,0,0,0,3.52,1.33,11.93,11.93,0,0,0,4.78-.71,13.86,13.86,0,0,0,3.09-1.42c-.29,1.22-.59,2.43-.91,3.64a133,133,0,0,1-5.43,15.81c-.07-.59-.15-1.2-.26-1.83a14.68,14.68,0,0,0-1-3.42,18.18,18.18,0,0,0-1.83-3.43,43.62,43.62,0,0,0-5.09-6.19,54.29,54.29,0,0,0-6.8-5.87,53.5,53.5,0,0,0-2.56,7.6c-.29,1.06-.72,2.13-1,3.27a30.94,30.94,0,0,0-.78,3.43c-.19,1.16-.28,2.33-.43,3.4a13.79,13.79,0,0,0,0,3.15,33.13,33.13,0,0,0,1.1,5.31,11.57,11.57,0,0,0,1.77,3.75c1.57,2,4.06,3,8.13,3a14.26,14.26,0,0,0,3.14-.43c-.28.5-.54,1-.83,1.51a121.75,121.75,0,0,1-10.08,15.14c.06-.49.11-1,.15-1.51a20.19,20.19,0,0,0-1.08-7.45,26.75,26.75,0,0,0-1.52-3.81c-.6-1.25-1.25-2.45-1.9-3.57a57.43,57.43,0,0,0-5.28-7.61s-.56.71-1.37,1.91c-.41.6-.88,1.32-1.38,2.13-.24.41-.5.84-.77,1.28s-.6.86-.91,1.32a36.44,36.44,0,0,0-3.35,6.07,16.69,16.69,0,0,0-2.09,6.2c-.1,1-.17,2-.2,2.93a24.25,24.25,0,0,0-.09,2.5,10.68,10.68,0,0,0,.8,4.14c1,2.39,3.23,4.09,7.21,5.11a16.62,16.62,0,0,0,3,.49,130.57,130.57,0,0,1-14.58,13.06c.17-.4.33-.79.49-1.21a21.1,21.1,0,0,0,.72-7.67,38,38,0,0,0-.51-4.12,38.91,38.91,0,0,0-.91-3.94,60.36,60.36,0,0,0-3.36-8.95s-.7.56-1.77,1.52c-.55.46-1.12,1.11-1.88,1.67s-1.53,1.28-2.33,2-1.62,1.54-2.4,2.4-1.64,1.66-2.39,2.54a17.06,17.06,0,0,0-3.47,5.62c-1.52,3.72-2.35,6.78-1.91,9.45s2.13,4.92,5.73,7a17,17,0,0,0,2.91,1.32l-.81.51a121.35,121.35,0,0,1-16.88,8.43c.31-.4.61-.82.92-1.26a12.93,12.93,0,0,0,1.65-3.26,28,28,0,0,0,1-4,43.65,43.65,0,0,0,.61-8.36c0-1.32-.08-2.58-.17-3.71s-.24-2.21-.35-3.08c-.26-1.76-.47-2.84-.47-2.84l-.56.27c-.37.15-.85.48-1.53.73a48.34,48.34,0,0,0-5,2.42c-1,.5-1.9,1.18-2.93,1.67a29.66,29.66,0,0,0-2.94,1.8,21.37,21.37,0,0,0-2.63,2.17,21.69,21.69,0,0,0-2.13,2.34c-2.39,3.3-4,6.15-4.2,8.91s.79,5.46,3.73,8.44a16.16,16.16,0,0,0,2.49,2.1,126.63,126.63,0,0,1-24.09,4.48,12.35,12.35,0,0,0-21.87,0,126.16,126.16,0,0,1-23.43-4.26c.34-.26.68-.54,1-.85,6.19-5.6,4.79-10.47.3-17.48a16.15,16.15,0,0,0-2-2.48A22,22,0,0,0,117,243.7a30.68,30.68,0,0,0-2.84-2l-1.46-.89c-.47-.34-.93-.65-1.39-.95a48.25,48.25,0,0,0-4.81-2.77,13.2,13.2,0,0,1-1.49-.79l-.54-.31s-.27,1.08-.6,2.84a58.19,58.19,0,0,0-.83,6.8,46.06,46.06,0,0,0,.18,8.44,27.53,27.53,0,0,0,.81,4.08,12.15,12.15,0,0,0,1.46,3.4l.19.29A119.18,119.18,0,0,1,90.21,254L90,253.8a13.43,13.43,0,0,0,1.25-.56c7.41-3.68,7.27-8.62,4.6-16.35a17.8,17.8,0,0,0-1.29-3A23.17,23.17,0,0,0,92.6,231c-.7-1-1.53-1.76-2.27-2.69s-1.5-1.78-2.25-2.58-1.5-1.53-2.19-2.18l-1-.9-.81-.86c-1-1-1.65-1.64-1.65-1.64a62.68,62.68,0,0,0-3.8,8.87c-.43,1.27-.78,2.55-1.1,3.91a36,36,0,0,0-.74,4.1,21,21,0,0,0,.31,7.73c0,.07,0,.14.07.21A130.7,130.7,0,0,1,64.1,233.21c.43-.05.87-.12,1.32-.2,4-.77,6.31-2.35,7.48-4.71a11.25,11.25,0,0,0,1-4.15,23.5,23.5,0,0,0,0-2.53c0-.92,0-1.93-.06-3a17.87,17.87,0,0,0-1.74-6.43c-.48-1.06-.88-2.21-1.41-3.26s-1-2.09-1.6-3-1.15-1.81-1.55-2.69-.87-1.59-1.24-2.21c-.73-1.25-1.23-2-1.23-2a59.8,59.8,0,0,0-5.69,7.41c-.71,1.09-1.42,2.26-2.08,3.49a26.69,26.69,0,0,0-1.74,3.74,19.89,19.89,0,0,0-1.48,7.39c0,.2,0,.38,0,.57a123.3,123.3,0,0,1-9.31-14.12c-.18-.32-.34-.65-.52-1,.46.09.93.16,1.44.22,4.08.33,6.62-.57,8.29-2.5a11.2,11.2,0,0,0,2-3.69,36.13,36.13,0,0,0,1.38-5.34,14.51,14.51,0,0,0,.21-3.19c0-.56-.07-1.12-.14-1.69s-.07-1.17-.13-1.76a38.46,38.46,0,0,0-1.41-6.85c-.23-1.09-.44-2.12-.68-3s-.46-1.76-.67-2.46c-.41-1.39-.72-2.24-.72-2.24a56.08,56.08,0,0,0-7.14,5.58,43.66,43.66,0,0,0-5.42,5.93c-.4.55-.79,1.11-1.15,1.67s-.62,1.11-.89,1.67A15.31,15.31,0,0,0,38,192.18c-.06.31-.11.6-.17.9a133.09,133.09,0,0,1-5-14.62c-.26-1-.5-2-.75-3,.5.26,1,.51,1.59.74,3.6,1.46,6.24,1.28,8.32-.14s3.76-4.13,5.44-7.82a14,14,0,0,0,1-3,23.82,23.82,0,0,0,.71-3.44,32.47,32.47,0,0,0,.3-3.55c.05-1.19,0-2.35.11-3.47.14-2.25.12-4.27.07-5.74,0-.73-.07-1.32-.1-1.74a4.94,4.94,0,0,1,0-.63s-1,.3-2.43.9a56,56,0,0,0-5.66,2.64,41.25,41.25,0,0,0-6.54,4.32A26.06,26.06,0,0,0,32,157.16a13.47,13.47,0,0,0-1.94,2.92c-.21.41-.4.82-.58,1.22l-.21-1.53c-.12-1.23-.23-2.45-.34-3.68-.27-2.39-.33-5-.43-7.51l-.07-1.8.05-1.83.09-2.9a14.74,14.74,0,0,0,1.58,1.41c6.08,4.67,9.91,2.16,14.9-4.15a24,24,0,0,0,1.7-2.69,26.38,26.38,0,0,0,1.53-3.16c.44-1.1.83-2.25,1.17-3.39.15-.57.31-1.14.46-1.7l.56-1.63c.7-2.14,1.19-4.1,1.51-5.54.17-.72.24-1.31.37-1.7s.18-.62.18-.62-1,.05-2.58.24a51.62,51.62,0,0,0-6,1.12,39.85,39.85,0,0,0-7.23,2.51,25.84,25.84,0,0,0-3.35,1.88A11.68,11.68,0,0,0,30.82,127c-.42.5-.8,1-1.17,1.47A71.13,71.13,0,0,1,31,120.1a93.37,93.37,0,0,1,2.82-11.42,15.64,15.64,0,0,0,1.39,2.25c4.5,6,8.74,4.61,15-.24a30.07,30.07,0,0,0,2.39-2.15,25.68,25.68,0,0,0,2.23-2.69,34.29,34.29,0,0,0,2-3c.66-1,1.36-2,1.95-2.94S59.93,98,60.4,97.17s.88-1.63,1.23-2.29c.8-1.25,1.25-2,1.25-2s-.94-.19-2.48-.4a45,45,0,0,0-6-.46,38.17,38.17,0,0,0-7.41.65,19.7,19.7,0,0,0-6.8,2.52c-.74.54-1.42,1.07-2.06,1.6l.9-2.29a129.56,129.56,0,0,1,8.9-16.62,14.16,14.16,0,0,0,.79,3c1.33,3.51,3.09,5.14,5.4,5.53a9.43,9.43,0,0,0,3.9-.3,45.15,45.15,0,0,0,4.91-1.76,19.87,19.87,0,0,0,5.67-3.56c.45-.38.9-.78,1.34-1.2l1.4-1.16c.93-.79,1.81-1.6,2.62-2.39s1.57-1.57,2.24-2.29,1.37-1.28,1.89-1.82c1.08-1,1.72-1.71,1.72-1.71a51.12,51.12,0,0,0-7.84-2.86,30.93,30.93,0,0,0-7.23-1.2,19.32,19.32,0,0,0-7,.82,21.2,21.2,0,0,0-3,1.2A127.13,127.13,0,0,1,65.54,55.68c1.38-1.39,2.77-2.71,4.16-4a9.51,9.51,0,0,0-.17,1,16,16,0,0,0,0,2.58c.33,3.7,1.56,5.7,3.63,6.61a9,9,0,0,0,3.75.62c1.43-.07,3.25-.16,5.23-.43a14.89,14.89,0,0,0,3.1-.76,33.44,33.44,0,0,0,3.2-1.37,49.14,49.14,0,0,0,6.45-3.23l1.42-.87,1.39-.71c.87-.47,1.65-.9,2.3-1.28,1.3-.75,2.09-1.26,2.09-1.26A48,48,0,0,0,95.44,48c-1-.55-2-1.11-3.17-1.62a26.62,26.62,0,0,0-3.46-1.35,18.59,18.59,0,0,0-6.88-.83,36.78,36.78,0,0,0-4.06.57A141.75,141.75,0,0,1,94.62,33.67c1.17-.58,2.3-1.15,3.41-1.69a11.43,11.43,0,0,0-1.61,4,9.77,9.77,0,0,0-.08,4.39,4.8,4.8,0,0,0,1.74,2.73,9.83,9.83,0,0,0,3.44,1.53,32.85,32.85,0,0,0,5.14.88,15.87,15.87,0,0,0,3.15,0c1.09-.16,2.29-.24,3.49-.41s2.42-.41,3.6-.69,2.33-.61,3.44-.9a70,70,0,0,0,8.08-2.1,45.15,45.15,0,0,0-5.19-5.84,36.29,36.29,0,0,0-5.56-4.4,16.92,16.92,0,0,0-3.18-1.65,15.16,15.16,0,0,0-3.21-.87,36.56,36.56,0,0,0-5.42-.42l1-.41c1.8-.79,3.49-1.49,5-2.2.77-.35,1.49-.71,2.2-1l2.06-.78c5.18-2,7.87-3.28,7.87-3.28s-3,.32-8.41,1.4l-2.15.44c-.76.18-1.53.45-2.36.69-1.65.5-3.43,1.12-5.37,1.75l-3,1.06-1.33.6c.68-.45,1.37-1,2.11-1.52a42.68,42.68,0,0,0,4.44-4.06,19.22,19.22,0,0,0,2.29-2.83c.71-1.07,1.4-2.14,2.07-3.23a70.23,70.23,0,0,0,3.48-6.78C117.74,3.66,119,0,119,0s-5.12,1.07-11.24,3a41.06,41.06,0,0,0-4.61,1.85c-1.54.69-3.07,1.43-4.53,2.2a28.42,28.42,0,0,0-4,2.48,23.75,23.75,0,0,0-3.08,2.79,35.68,35.68,0,0,0-3.89,5,7.93,7.93,0,0,0-1.39,4c-.09,2.36,1.48,4,4.82,5.44,2.88,1.32,5.2,1.69,7.38,1.13l-5.54,2.57a143.64,143.64,0,0,0-20.08,12.9c1.16-1.57,2.31-3.54,3.68-5.85A27.28,27.28,0,0,0,79,30.3c.28-1.33.61-2.56.85-3.85s.46-2.54.64-3.75c.73-4.84,1-8.78,1-8.78s-1.17.58-3,1.59c-.93.5-2,1.12-3.24,1.81a35.93,35.93,0,0,0-3.84,2.42A88.94,88.94,0,0,0,63.54,26a28,28,0,0,0-3.16,3.57,24.11,24.11,0,0,0-2.28,3.5A26.49,26.49,0,0,0,55.7,39a9.4,9.4,0,0,0-.21,4.31c.56,2.33,2.58,3.59,6.24,4.17A13.64,13.64,0,0,0,68,47.18c-1.92,1.62-3.84,3.31-5.76,5.14A132.84,132.84,0,0,0,49,67c.51-1.55.86-3.42,1.43-5.41A26.33,26.33,0,0,0,51,54c-.06-1.36-.18-2.73-.33-4.08s-.28-2.62-.42-3.86c-.61-4.92-1.45-8.84-1.45-8.84s-1,.85-2.57,2.29c-.78.72-1.7,1.59-2.71,2.57s-2,2.2-3,3.44-2.09,2.56-3.11,3.92a30,30,0,0,0-2.81,4.22A32.44,32.44,0,0,0,31.15,62c-.12.61-.24,1.21-.36,1.78s-.13,1.15-.18,1.69a25.63,25.63,0,0,0-.09,3,9.32,9.32,0,0,0,.95,4.26c1.18,2.12,3.53,2.85,7.34,2.52a12.58,12.58,0,0,0,5.26-1.44A135.81,135.81,0,0,0,33.53,92q-.9,2.1-1.8,4.25c0-1.33-.05-2.79-.18-4.43a28.22,28.22,0,0,0-.47-3.66,36.66,36.66,0,0,0-1-3.84,79.58,79.58,0,0,0-3-7.6c-1.07-2.37-1.95-4.39-2.69-5.89s-1.18-2.39-1.18-2.39-.77,1.09-1.94,2.88a30.54,30.54,0,0,0-1.85,3.26c-.65,1.25-1.35,2.63-2.05,4.1s-1.4,3-2,4.59-1.07,3.28-1.5,4.9-.75,3.22-1,4.72a16.94,16.94,0,0,0-.19,4.21c1.14,10.38,3.84,13.51,11.26,10.88A14.28,14.28,0,0,0,28,105.85a103.06,103.06,0,0,0-3.59,12.83,88.21,88.21,0,0,0-2,10.63c-.31-1-.68-2.15-1.11-3.36a29.08,29.08,0,0,0-1.59-3.43,36.75,36.75,0,0,0-2.05-3.45,80.1,80.1,0,0,0-5-6.58c-1.66-2-3.33-3.81-4.4-5.06s-1.82-2-1.82-2-.12.31-.33.88a19.9,19.9,0,0,0-.75,2.43c-.54,2.07-1.24,5-1.85,8.17a34.6,34.6,0,0,0-.71,5c-.11,1.72-.17,3.45-.15,5.14A43.28,43.28,0,0,0,3,131.87,15,15,0,0,0,4,136c3.89,9.74,7.4,12,14.09,7.58a16.11,16.11,0,0,0,3.21-2.68V141c-.07,1.28-.15,2.57-.22,3.86L21,146.78l0,2c0,2.54,0,5,.24,7.77.08,1.34.17,2.68.25,4l.36,3.15c-.44-.68-.91-1.38-1.44-2.12a20.73,20.73,0,0,0-2.52-2.9A36,36,0,0,0,15,155.91a82.16,82.16,0,0,0-6.7-5C6,149.35,4,148.05,2.49,147.13L.13,145.67,0,146.6c0,.6,0,1.47,0,2.54,0,2.15.07,5.13.3,8.39.07.81.14,1.65.21,2.49s.29,1.69.45,2.54c.34,1.69.73,3.39,1.18,5a40.63,40.63,0,0,0,1.54,4.6,18,18,0,0,0,2.15,3.73c3.17,4.21,5.79,6.65,8.29,7.26a5.44,5.44,0,0,0,3.74-.46,14,14,0,0,0,3.91-3.21A17.76,17.76,0,0,0,24,176.61c.28,1.31.58,2.63.89,3.94a140.7,140.7,0,0,0,5.57,17.09c-.5-.43-1-.88-1.58-1.34a21,21,0,0,0-3.21-2.13c-1.2-.66-2.51-1.26-3.76-1.86a81.52,81.52,0,0,0-7.92-3.1c-5.15-1.75-9.47-2.86-9.47-2.86a118.07,118.07,0,0,0,3.28,11.51c.56,1.55,1.32,3.1,2.06,4.68s1.57,3.11,2.43,4.58a23.81,23.81,0,0,0,2.78,4,22.39,22.39,0,0,0,3.1,3,33.58,33.58,0,0,0,5.57,3.66,9.49,9.49,0,0,0,4.55,1.08c2.7-.13,4.7-2,6.52-5.62a20.79,20.79,0,0,0,1.36-3.22c.3.58.6,1.17.91,1.74a132.61,132.61,0,0,0,10.65,16.56c-.51-.25-1-.5-1.6-.75a28.32,28.32,0,0,0-7.88-2c-1.47-.18-3-.32-4.38-.47s-2.88-.24-4.25-.32c-5.5-.3-10-.2-10-.2s.6,1.2,1.66,3.1c.53.95,1.18,2.08,1.92,3.31L24.31,233l1.44,1.94a77,77,0,0,0,6.7,7.84,29.79,29.79,0,0,0,7.64,5.2c1.21.52,2.34.95,3.4,1.3a21,21,0,0,0,3,.68,10.42,10.42,0,0,0,4.74-.2c2.6-.86,4.11-3.22,5-7.31a18.13,18.13,0,0,0,.45-3.25A134,134,0,0,0,72.48,253.6l-1.58-.21a27.67,27.67,0,0,0-8.13.16c-1.47.21-3,.47-4.45.77l-4.31.94c-5.43,1.19-9.82,2.5-9.82,2.5s.88,1,2.38,2.62a31.63,31.63,0,0,0,2.72,2.69c1.08.95,2.29,2,3.59,3s2.67,2.09,4.09,3.11a31.43,31.43,0,0,0,4.49,2.67A29.5,29.5,0,0,0,70.17,275c5.41.49,9.13.14,11.44-1.4s3.19-4.28,3.06-8.59a19.27,19.27,0,0,0-.32-3.17l.8.5a130.84,130.84,0,0,0,18.07,9.15l-1.53.21a30.06,30.06,0,0,0-3.85,1,39.51,39.51,0,0,0-4,1.51c-2.74,1.18-5.55,2.64-8.09,4l-3.56,2L79.3,281.9c-1.61,1-2.59,1.57-2.59,1.57l.79.54c.52.32,1.23.88,2.2,1.39,1.92,1.06,4.61,2.46,7.65,3.85a37.23,37.23,0,0,0,4.8,1.92c1.69.53,3.4,1,5.08,1.38a40.07,40.07,0,0,0,4.9.82,16,16,0,0,0,4.41-.18c5.38-.94,8.89-2.26,10.72-4.39s2-5.09.75-9.35a21.44,21.44,0,0,0-1.15-3.15,136.76,136.76,0,0,0,24.36,4.82,21.09,21.09,0,0,0-.13,3c.07,3,.55,6,.83,9s.33,6.13-.48,8.29a5.14,5.14,0,0,1-1.83,2.54,6.5,6.5,0,0,1-3.06,1.26,2.81,2.81,0,0,1-2.36-.88,5.72,5.72,0,0,1-1.44-2.7,5.8,5.8,0,0,1-.06-2.64,2.93,2.93,0,0,1,.74-1.55,3,3,0,0,1,1.35-.7l.67-.17a3.39,3.39,0,0,0-.54-.47,3.05,3.05,0,0,0-2.12-.55,4,4,0,0,0-3,2.22,8.54,8.54,0,0,0-.85,4.33,10,10,0,0,0,1.59,5,7.92,7.92,0,0,0,5.58,3.53,12,12,0,0,0,6.52-1.17,11.77,11.77,0,0,0,5.19-4.83,19.43,19.43,0,0,0,2.13-6.08,42.62,42.62,0,0,0,.62-5.55c.1-1.58.14-3.07.17-4.45a12.2,12.2,0,0,0,7.8,0c0,1.38.07,2.87.16,4.45a42.71,42.71,0,0,0,.63,5.55,19.65,19.65,0,0,0,2.12,6.08,12.18,12.18,0,0,0,11.71,6,8,8,0,0,0,5.59-3.53,10,10,0,0,0,1.58-5,8.54,8.54,0,0,0-.84-4.33,4.07,4.07,0,0,0-3-2.22,3.1,3.1,0,0,0-2.13.55,3,3,0,0,0-.53.47l.66.17a3,3,0,0,1,1.35.7,2.86,2.86,0,0,1,.74,1.55,6.08,6.08,0,0,1-1.5,5.34,2.8,2.8,0,0,1-2.35.88,6.49,6.49,0,0,1-3.07-1.26,5.2,5.2,0,0,1-1.83-2.54c-.81-2.16-.76-5.29-.48-8.29s.76-6,.83-9a22.43,22.43,0,0,0-.12-3,136,136,0,0,0,23.61-4.56c-.15.38-.3.76-.44,1.18-2.87,8.34.05,11.9,10.56,14.37a18.14,18.14,0,0,0,4.36.45A39.69,39.69,0,0,0,211,292c1.68-.3,3.4-.68,5.1-1.13.84-.22,1.7-.44,2.51-.71l2.37-.91c3.08-1.23,5.83-2.51,7.8-3.48a19.43,19.43,0,0,0,2.29-1.24l.81-.5s-.93-.68-2.46-1.72-3.72-2.55-6.14-4.07-5.14-3.15-7.8-4.48a38.83,38.83,0,0,0-3.94-1.73,31.45,31.45,0,0,0-3.77-1.14l-.11,0a130.65,130.65,0,0,0,16.48-8.47l.11-.07c0,.35-.09.69-.11,1.07-.71,8.58,3,11.17,13.78,10.82a17.33,17.33,0,0,0,4.19-.85,39.1,39.1,0,0,0,4.57-1.76,41,41,0,0,0,4.6-2.39c1.45-.94,2.87-1.93,4.21-2.9s2.58-1.94,3.71-2.83l1.59-1.29c.46-.44.89-.86,1.29-1.23,1.56-1.52,2.49-2.51,2.49-2.51s-4.25-1.6-9.56-3.1c-1.33-.38-2.79-.82-4.23-1.2s-2.93-.73-4.38-1a27.39,27.39,0,0,0-8.07-.61h-.08A135,135,0,0,0,252,239.93c0,.36.08.72.15,1.11.7,4.12,2.08,6.57,4.6,7.58a10.12,10.12,0,0,0,4.67.5,26.07,26.07,0,0,0,3.05-.48c1.07-.27,2.2-.64,3.42-1.08a29.06,29.06,0,0,0,7.79-4.74,37.84,37.84,0,0,0,3.68-3.6c1.18-1.26,2.31-2.56,3.36-3.83a35.93,35.93,0,0,0,2.82-3.69c.79-1.2,1.49-2.29,2.06-3.21,1.14-1.85,1.8-3,1.8-3s-4.45-.4-9.91-.44c-1.37,0-2.79,0-4.23.06s-2.9.12-4.37.22a28.28,28.28,0,0,0-7.93,1.52l-.09,0a132.28,132.28,0,0,0,9.49-15c.17-.31.32-.62.49-.93.16.4.33.81.53,1.23,1.63,3.72,3.53,5.69,6.19,6a9.62,9.62,0,0,0,4.56-.77,32.37,32.37,0,0,0,5.68-3.28,21.76,21.76,0,0,0,3.2-2.81c.53-.56,1.06-1.16,1.59-1.79s.93-1.32,1.39-2a78.24,78.24,0,0,0,4.91-9c.62-1.51,1.14-3,1.61-4.34s.86-2.58,1.18-3.61c.65-2.07,1-3.37,1-3.37s-4.32.8-9.52,2.22a79.4,79.4,0,0,0-8,2.59c-.65.26-1.29.53-1.91.8s-1.29.55-1.9.85a20.93,20.93,0,0,0-3.3,1.94l-.28.22a141.46,141.46,0,0,0,4.85-15.23c.25-1,.47-2,.69-3,.26.36.55.73.86,1.11,2.63,3.18,4.9,4.54,7.45,4.11s5.24-2.66,8.57-6.63a20.82,20.82,0,0,0,2.35-3.55,41.07,41.07,0,0,0,1.73-4.46c.52-1.59,1-3.25,1.39-4.92a33.18,33.18,0,0,0,.93-5c.37-3.23.57-6.19.66-8.34,0-1.07.07-1.94.09-2.54a7.5,7.5,0,0,0,0-.94Zm-9-26.16c.56-1.58,1.16-3,1.66-4.26s1-2.25,1.31-3l.53-1.11s-.13.46-.34,1.25-.54,1.89-.92,3.22-.78,2.84-1.39,4.44l-1.87,5c-.65,1.67-1.29,3.34-1.89,4.9-.3.77-.58,1.51-.86,2.22s-.64,1.36-.9,2l-1.4,2.92c-.35.69-.54,1.08-.54,1.08s.12-.43.35-1.19.56-1.85,1-3.13.88-2.79,1.43-4.39,1.16-3.3,1.77-5S297.22,123.22,297.87,121.63ZM289.74,135c.09-.5.17-1.22.37-2.06s.42-1.84.75-2.87.73-2.11,1.15-3.2,1-2.1,1.45-3.07,1-1.81,1.4-2.53a19.55,19.55,0,0,1,1.06-1.68l.44-.6-.25.75-.7,2c-.29.77-.7,1.74-1.13,2.71s-.87,2-1.29,3.09-.87,2.07-1.25,3.06-.77,1.87-1,2.66-.57,1.42-.76,1.88l-.35.71S289.64,135.51,289.74,135Zm-5.07-31.43c0-.79.06-1.93.16-3.29s0-2.89.12-4.56.24-3.48.37-5.29c.1-.9.21-1.8.31-2.68s.11-1.73.18-2.56c.12-1.66.32-3.2.46-4.53s.35-2.41.46-3.19.21-1.2.21-1.2,0,.47,0,1.29,0,2,0,3.33,0,3-.11,4.61-.26,3.49-.38,5.28-.35,3.55-.51,5.21-.33,3.15-.47,4.46-.43,2.41-.56,3.17l-.24,1.19S284.65,104.36,284.67,103.57ZM281.54,95c.06-1.08.14-2.23.25-3.38s.41-2.29.53-3.31.39-2,.58-2.76.42-1.43.56-1.88.26-.7.26-.7,0,.29,0,.8-.09,1.2-.16,2-.1,1.81-.23,2.84-.3,2.18-.41,3.31-.29,2.22-.39,3.27-.24,2-.3,2.84-.16,1.52-.22,2-.09.76-.09.76-.05-.29-.12-.79-.16-1.23-.19-2.09S281.49,96.12,281.54,95ZM263.79,45.7c.2.78.49,1.89.83,3.22s.72,2.85,1.08,4.46.82,3.3,1.15,5.06.59,3.51.87,5.15.51,3.12.72,4.41.39,2.33.43,3.11.08,1.21.08,1.21-.1-.44-.29-1.21-.54-1.81-.85-3.11-.72-2.8-1.06-4.44-.67-3.41-1-5.18-.71-3.44-1.05-5.06-.53-3.15-.73-4.47-.3-2.41-.39-3.17-.12-1.21-.12-1.21S263.58,44.92,263.79,45.7Zm-1.68,6.76.06-.73.17.78c.09.48.22,1.18.38,2s.33,1.77.53,2.79.42,2.06.6,3.18.3,2.21.48,3.24.29,2,.45,2.82.24,1.51.32,2,.1.75.1.75l-.31-.73c-.18-.47-.47-1.15-.72-2s-.56-1.8-.79-2.85-.43-2.18-.65-3.32-.36-2.18-.49-3.21-.15-2-.18-2.8S262.09,52.93,262.11,52.46Zm-29.6-32.34.69,1c.42.66,1.05,1.55,1.69,2.77s1.44,2.56,2.2,4,1.62,3,2.45,4.54c.4.77.82,1.51,1.19,2.3l1.06,2.31,1.84,4.08c.51,1.18,1,2.17,1.25,2.85s.45,1.09.45,1.09l-.65-1c-.4-.66-1-1.6-1.64-2.76s-1.42-2.53-2.17-4c-.37-.74-.73-1.55-1.15-2.3l-1.28-2.28-2.32-4.61c-.73-1.48-1.33-2.9-1.86-4.11L233,21.19Zm.94,7.79c-.08-.46-.13-.71-.13-.71l.36.7c.22.44.53,1.08.89,1.84s.79,1.62,1.24,2.55.92,1.91,1.42,2.88,1,1.9,1.41,2.88l1.16,2.6.82,1.84.29.7s-.17-.23-.49-.63-.74-1-1.19-1.73-1-1.6-1.49-2.56-1.08-1.88-1.6-2.87-.92-2-1.31-3-.66-1.86-.9-2.64S233.56,28.36,233.45,27.91ZM197.14,5.64l-.73-.9.94.81,2.38,2.15c1,.85,2.08,2,3.2,3.2l3.55,3.74,3.45,3.68,2.83,3.46,2,2.43.71.93-.89-.83c-.55-.54-1.38-1.29-2.3-2.25l-3.14-3.29-3.6-3.65-3.44-3.82c-.54-.62-1.05-1.23-1.53-1.81L199.14,8C198.27,7,197.62,6.21,197.14,5.64Zm4.83,10c-.63-.82-1.13-1.62-1.57-2.3s-.72-1.28-1-1.65l-.33-.61.55.54c.33.35.8.9,1.35,1.52l1.85,2.14c.66.78,1.39,1.6,2.13,2.4s1.43,1.62,2.13,2.36,1.32,1.41,1.85,2.07l1.27,1.57.47.6-.63-.49c-.39-.33-1-.78-1.6-1.38s-1.42-1.17-2.17-1.91S204.78,19,204,18.19,202.6,16.49,202,15.68Zm5.09,25.09c-.41.12-1,.33-1.69.48s-1.52.35-2.42.47-1.85.2-2.79.26-2,.12-2.87.13-1.77,0-2.49-.1-1.32-.17-1.74-.23l-.65-.13.65-.06,1.7-.13c.71,0,1.53-.14,2.43-.2S199,41.1,200,41s1.88-.06,2.77-.13,1.73-.08,2.46-.16l1.77-.11.69,0Zm1.56-3.2c-.66.13-1.59.35-2.72.52s-2.43.39-3.82.54-2.94.43-4.43.61-3,.31-4.38.41-2.65,0-3.78.2-2.06.13-2.7.17h-1l1-.2,2.62-.51a35.14,35.14,0,0,1,3.72-.52c1.37-.15,2.84-.33,4.33-.53l4.45-.52,3.88-.23,2.82-.15,1.09,0Zm24.16,20.89c-.43,0-1.05.09-1.79.08s-1.6,0-2.51-.11-1.88-.24-2.83-.4-1.86-.47-2.73-.7-1.72-.47-2.42-.69-1.24-.47-1.64-.63l-.6-.29.65.1,1.71.27c.7.14,1.54.22,2.43.38s1.78.38,2.72.53,1.86.39,2.76.53,1.73.33,2.46.42l1.78.31.69.13Zm2.43-2.76c-.69,0-1.67,0-2.83-.14s-2.5-.19-3.91-.37-2.85-.48-4.4-.59-3-.42-4.41-.64-2.65-.52-3.72-.76-2-.44-2.63-.56l-1-.23,1,0c.63.05,1.61,0,2.67.18l3.72.46c1.38.18,2.88.35,4.39.51s3,.46,4.4.69l3.88.69,2.82.52,1.08.22Zm17.7,26.52c-.42-.09-1-.22-1.72-.41s-1.59-.39-2.47-.7-1.8-.67-2.7-1-1.74-.88-2.52-1.33-1.43-1-2.05-1.35-1.11-.76-1.45-1l-.52-.42.62.24,1.61.67c.69.28,1.39.64,2.19,1s1.64.8,2.52,1.18,1.75.81,2.59,1.16,1.63.73,2.33,1,1.24.58,1.63.76l.6.32Zm3.16-2.1c-.62-.23-1.55-.5-2.69-.86s-2.44-.78-3.79-1.29-2.77-1.08-4.15-1.66-2.8-1.19-4.1-1.73-2.48-1.13-3.48-1.61-1.78-1-2.34-1.26a7.92,7.92,0,0,0-.88-.5,9.46,9.46,0,0,1,1,.31l2.47.9,3.57,1.31c1.3.52,2.81,1,4.16,1.58s2.74,1.23,4.07,1.79l3.67,1.59a28.66,28.66,0,0,1,2.6,1.22l.95.52Zm9.94,30.2c-.39-.2-1-.44-1.59-.83s-1.34-.81-2.13-1.33-1.61-1.1-2.41-1.68-1.5-1.28-2.16-1.9a23.61,23.61,0,0,1-1.67-1.81,15.55,15.55,0,0,1-1-1.38l-.4-.52.55.38,1.3,1.09c.52.47,1.19,1,1.86,1.55s1.43,1.17,2.21,1.76,1.52,1.21,2.27,1.75,1.38,1.13,1.95,1.58l1.36,1.16.52.46Zm3.71-1.23c-.57-.37-1.42-.87-2.36-1.53s-2.17-1.37-3.37-2.21-2.47-1.73-3.69-2.62-2.31-1.9-3.45-2.75-2.18-1.68-3-2.39-1.52-1.34-2-1.77l-.72-.7.85.54,2.23,1.46,3.2,2.13c1.24.77,2.31,1.72,3.55,2.6s2.41,1.86,3.59,2.73,2.3,1.72,3.2,2.46l2.13,1.87.81.74Zm1.54,31.69c-.34-.29-.84-.68-1.37-1.21a24.7,24.7,0,0,1-1.74-1.85c-.55-.71-1.24-1.47-1.88-2.25s-1.16-1.61-1.66-2.37a21.36,21.36,0,0,1-1.19-2.17,16.94,16.94,0,0,1-.66-1.59c-.13-.4-.21-.62-.21-.62l.39.51,1,1.39c.39.59.93,1.23,1.44,2s1.12,1.49,1.74,2.25l1.77,2.29c.54.72,1,1.45,1.45,2l1.05,1.47.4.58Zm4-.22c-.47-.51-1.18-1.21-1.95-2.1s-1.62-1.9-2.66-3-2-2.31-3-3.48-1.85-2.41-2.67-3.54-1.66-2.18-2.3-3.08-1.17-1.68-1.53-2.21l-.54-.85.71.72,1.84,2c.72.85,1.73,1.78,2.59,2.87s1.79,2.26,2.76,3.44,1.92,2.41,2.86,3.55c.47.57.93,1.13,1.35,1.67l1.08,1.54,1.63,2.36.61.92Zm-6.85,30.92c-.25-.36-.66-.87-1.05-1.52s-.86-1.41-1.27-2.24-.76-1.73-1.23-2.65-.74-1.85-1-2.72a22.18,22.18,0,0,1-.63-2.4c-.16-.7-.2-1.29-.26-1.7l0-.65s.09.22.26.6.38.94.65,1.6.61,1.43.94,2.27.73,1.73,1.15,2.63.8,1.82,1.11,2.65.63,1.66.93,2.34.51,1.28.68,1.69l.25.66Zm4.05.86c-.34-.61-.87-1.47-1.41-2.53s-1.16-2.29-1.82-3.59-1.41-2.75-2.09-4.14-1.23-2.81-1.75-4.1c-.28-.65-.47-1.28-.73-1.88s-.49-1.17-.72-1.69c-.44-1-.72-1.93-.94-2.53l-.31-1,.51.88c.32.57.77,1.4,1.32,2.38s1.27,2.17,1.78,3.44,1.2,2.64,1.87,4,1.29,2.82,1.93,4.17,1.05,2.62,1.53,3.72.78,2.05,1,2.71l.38,1.05Zm-14.78,27.9c-.16-.43-.44-1-.67-1.78s-.51-1.6-.71-2.52-.37-1.91-.51-2.88-.21-2-.29-2.88a23.75,23.75,0,0,1,0-2.49,14.27,14.27,0,0,1,.16-1.72l.11-.64.11.66c.06.41.15,1,.26,1.72s.26,1.55.38,2.45.3,1.87.46,2.84.21,1.92.34,2.83.22,1.78.36,2.53.19,1.39.26,1.83.08.72.08.72Zm3.78,1.95c-.19-.7-.5-1.68-.78-2.86s-.62-2.53-.88-4-.61-3-.95-4.53-.53-3.05-.74-4.45-.25-2.67-.42-3.79-.25-2-.32-2.68l-.08-1s.11.36.29,1,.43,1.55.73,2.64.52,2.36.79,3.75.55,2.89.87,4.41.66,3.12.82,4.54.38,2.83.53,4,.28,2.22.36,2.92.12,1.13.12,1.13S261.69,202.88,261.47,202.19Zm-19.89,8.57c0,.42-.09,1-.15,1.76s-.09,1.61-.23,2.5-.27,1.83-.36,2.8-.26,1.94-.33,2.88-.21,1.81-.25,2.59-.14,1.42-.18,1.88-.09.71-.09.71,0-.25-.13-.73-.19-1.14-.24-1.93-.12-1.72-.1-2.68.09-2,.18-3,.32-1.95.51-2.83.42-1.71.6-2.41a13.63,13.63,0,0,1,.55-1.65l.26-.59Zm3.28-2.68c-.05,1.13-.11,2.45-.17,3.86s-.14,3-.18,4.57-.32,3.06-.44,4.55-.3,2.89-.43,4.09-.25,2.25-.33,3a9.32,9.32,0,0,1-.19,1.12,9.75,9.75,0,0,0,0-1.14c0-.74-.09-1.79-.08-3s0-2.67.07-4.16.19-3,.31-4.57.2-3.15.32-4.58.35-2.71.51-3.8.4-2,.46-2.63l.16-1s0,.39.06,1.05A25.35,25.35,0,0,1,244.86,208.08ZM217,242.77l-.7,1.7-.28.66s0-.27.07-.74a19,19,0,0,1,.29-1.89c.18-.74.35-1.64.59-2.62s.55-1.94.87-2.9.77-1.85,1.16-2.67a21.37,21.37,0,0,1,1.24-2.12l1-1.42.39-.52s-.07.24-.2.65-.31,1-.59,1.67-.56,1.45-.92,2.27-.69,1.75-1,2.69-.7,1.87-1,2.78S217.31,242.08,217,242.77Zm1.24,6.52.25-1.12c.18-.7.4-1.71.75-2.87s.63-2.64,1.06-4.1.91-3,1.39-4.46,1.11-2.85,1.53-4.27,1-2.6,1.38-3.64.84-1.85,1.11-2.43l.45-.88-.25,1c-.17.63-.42,1.53-.71,2.62l-1.07,3.78c-.2.7-.41,1.43-.62,2.18s-.49,1.43-.74,2.16c-.53,1.45-1.05,2.94-1.53,4.36l-1.39,3.95c-.44,1.14-.86,2-1.14,2.7Zm-30.2,8.13.25-.71c.18-.44.4-1.09.76-1.8a26.13,26.13,0,0,1,1.24-2.37c.26-.4.53-.81.79-1.23l.81-1.33c.59-.84,1.19-1.64,1.77-2.36a19.87,19.87,0,0,1,1.7-1.78,12.14,12.14,0,0,1,1.31-1.09l.52-.36s-.13.2-.37.54l-1,1.42c-.45.57-.89,1.31-1.44,2s-1.09,1.56-1.63,2.41-1.12,1.72-1.67,2.44-1.09,1.45-1.51,2.09l-1.1,1.52Zm1.61,3.68c.35-.65.81-1.6,1.44-2.66s1.35-2.23,2.11-3.61l2.44-4.09c.87-1.31,1.74-2.58,2.56-3.73s1.58-2.29,2.25-3.19,1.24-1.62,1.64-2.12l.65-.76-.48.92L201,244.28c-.59,1-1.18,2.25-2,3.44s-1.61,2.48-2.44,3.81-1.74,2.65-2.56,3.95-1.67,2.4-2.37,3.4l-1.79,2.37-.71.9ZM107,242.43c.26.63.65,1.52,1.11,2.59s1,2.37,1.69,3.69,1.44,2.64,2.26,4,1.64,2.78,2.48,4.07l1.22,1.87c.4.56.79,1.09,1.17,1.57l1.82,2.37.7.92-.86-.74c-.53-.5-1.31-1.17-2.15-2.06-.41-.45-.88-.89-1.33-1.45s-.91-1.16-1.36-1.8c-.89-1.27-1.79-2.63-2.64-4s-1.54-2.81-2.16-4.15-1-2.79-1.4-3.94-.58-2.14-.75-2.82l-.22-1.07Zm-.19,7.48.75,1.78c.27.77.75,1.48,1.16,2.37s.95,1.76,1.49,2.65,1.06,1.82,1.61,2.66,1,1.65,1.53,2.31.84,1.27,1.15,1.61l.45.6-.61-.41a10.22,10.22,0,0,1-1.47-1.32,24.38,24.38,0,0,1-1.85-2.11c-.61-.82-1.22-1.71-1.79-2.62s-1-1.91-1.4-2.82a14.45,14.45,0,0,1-.86-2.64,18.71,18.71,0,0,1-.37-2l-.08-.76S106.58,249.49,106.77,249.91ZM83,227.1c0-.68,0-1.07,0-1.07s.06.36.18,1,.28,1.6.48,2.73.48,2.46.75,3.93c.15.73.31,1.49.47,2.25s.43,1.48.66,2.23c.44,1.5.92,3,1.43,4.45s1,2.81,1.41,4,.88,2.06,1.16,2.74.45,1,.45,1l-.65-.92a18.93,18.93,0,0,1-1.55-2.54c-.55-1.13-1.19-2.42-1.75-3.85s-1.11-2.93-1.6-4.44a36.8,36.8,0,0,1-1-4.63c-.23-1.49-.33-2.88-.42-4.06S83,227.78,83,227.1Zm-2,7c.06-.47.09-.74.09-.74l.13.71c.07.44.18,1.09.3,1.86s.32,1.66.49,2.64a17.78,17.78,0,0,0,.76,2.93c.27,1,.59,2,.92,2.91s.62,1.82.93,2.56.53,1.41.7,1.85.26.72.26.72l-.46-.6A18.47,18.47,0,0,1,84,247.27a24,24,0,0,1-1.28-2.45c-.4-.93-.78-1.92-1.11-2.93a20.72,20.72,0,0,1-.61-3.1,23.41,23.41,0,0,1-.14-2.77A15.7,15.7,0,0,1,81,234.07ZM62.73,212.54c.11-1.47.33-2.82.51-4a19.82,19.82,0,0,1,.65-2.75l.34-1s0,.38-.13,1.05-.15,1.61-.21,2.74-.1,2.46-.17,3.92-.08,3-.06,4.63a40.29,40.29,0,0,0,.3,4.62c.17,1.48.27,2.9.44,4.11s.28,2.27.37,3,.14,1.15.14,1.15-.14-.39-.36-1.09-.52-1.69-.79-2.9-.59-2.6-.81-4.08a33.24,33.24,0,0,1-.42-4.69C62.55,215.61,62.62,214,62.73,212.54Zm-3.45,3.9a22,22,0,0,1,.49-2.66,16.67,16.67,0,0,1,.56-1.82l.26-.67s0,.25,0,.69-.08,1.09-.13,1.85-.08,1.66-.14,2.62-.08,2-.05,3.06a18.69,18.69,0,0,0,.14,3c.13,1,.18,1.88.3,2.66s.19,1.46.25,1.93.09.74.09.74l-.31-.68c-.17-.44-.45-1.06-.68-1.83s-.49-1.67-.67-2.65a19.53,19.53,0,0,1-.27-3.14C59.1,218.5,59.17,217.43,59.28,216.44ZM47,190.79c.4-1.55.83-3.06,1.27-4.43a24.48,24.48,0,0,1,1.49-3.68c.51-1.06,1-1.9,1.36-2.49l.56-.91-.36,1c-.23.63-.57,1.53-1,2.61s-.69,2.33-1.12,3.71-.77,2.87-1.11,4.4a45.16,45.16,0,0,0-1,4.57c-.18,1.45-.41,2.83-.52,4s-.26,2.23-.34,2.94l-.14,1.14L46,202.52c0-.72-.11-1.75-.08-3s0-2.62.16-4.1S46.65,192.34,47,190.79ZM42.6,195.2c.13-1,.32-2.06.53-3.1s.59-2,.92-2.94a21.53,21.53,0,0,1,1.09-2.41,15.39,15.39,0,0,1,1-1.59l.43-.58a5.76,5.76,0,0,0-.23.67L45.75,187c-.26.71-.46,1.56-.75,2.47s-.53,1.89-.75,2.9-.49,2-.67,3a20.58,20.58,0,0,0-.41,2.65c-.09.77-.16,1.44-.21,1.89s-.09.73-.09.73l-.14-.73a17.88,17.88,0,0,1-.22-1.92A13.1,13.1,0,0,1,42.6,195.2Zm2.45-70.69c.92-.68,1.73-1.17,2.28-1.52l.89-.52-.75.68-2,1.81c-.84.75-1.85,1.68-2.84,2.68s-2,2.13-3,3.3-2,2.33-3,3.5l-1.36,1.68c-.43.54-.77,1.06-1.1,1.55l-1.62,2.39-.64.92s.17-.38.45-1,.71-1.57,1.29-2.62a24.73,24.73,0,0,1,2.24-3.47c.91-1.21,1.9-2.45,2.9-3.64s2.09-2.26,3.1-3.25S44.13,125.19,45.05,124.51ZM30.87,136c.2-.43.46-1.07.86-1.77a26.94,26.94,0,0,1,1.43-2.34c.58-.81,1.22-1.64,1.88-2.44s1.43-1.48,2.13-2.12a13.17,13.17,0,0,1,2.08-1.55c.65-.42,1.24-.69,1.63-.9l.64-.29L41,125l-1.39,1.21c-.61.48-1.12,1.14-1.79,1.79s-1.32,1.39-2,2.16-1.34,1.51-1.94,2.27-1.21,1.45-1.67,2.09-.92,1.15-1.18,1.53l-.41.59Zm25.9-40.51,1-.29-.89.48-2.36,1.26c-1,.51-2.12,1.19-3.38,1.88a31.38,31.38,0,0,0-3.71,2.42c-1.25.85-2.51,1.75-3.68,2.64s-2.33,1.71-3.24,2.48l-2.13,1.9-.83.73.68-.89c.46-.54,1.06-1.35,1.89-2.21s1.93-1.82,3.08-2.76,2.4-1.9,3.65-2.81l1.89-1.24c.65-.39,1.34-.74,2-1.07,1.29-.67,2.52-1.18,3.56-1.61S56.16,95.68,56.77,95.47Zm-15.67,5c.74-.64,1.56-1.28,2.38-1.89a22.55,22.55,0,0,1,2.57-1.5,21.26,21.26,0,0,1,2.44-.94,16,16,0,0,1,1.75-.47l.68-.13-.61.33-1.61.83c-.67.33-1.44.78-2.26,1.23s-1.6,1-2.4,1.6-1.65,1.13-2.4,1.71-1.5,1.1-2.1,1.61L38,104.05l-.59.45.45-.6c.3-.37.7-.92,1.26-1.5A25.28,25.28,0,0,1,41.1,100.49Zm29.48-29c1.09-.18,2-.23,2.62-.3l1,0-1,.26-2.54.68c-1.07.26-2.31.65-3.68,1s-2.87.79-4.26,1.36-2.8,1.1-4.13,1.68-2.61,1.11-3.7,1.62-2,.89-2.62,1.23l-1,.51s.31-.26.87-.7a21.7,21.7,0,0,1,2.48-1.58c1.06-.6,2.28-1.3,3.61-1.94S61,74,62.44,73.43s3-.87,4.38-1.22S69.49,71.67,70.58,71.49ZM57,72.24A27.47,27.47,0,0,1,59.76,71c1-.29,2-.54,2.94-.74a23.46,23.46,0,0,1,2.53-.34c.74-.07,1.35,0,1.77,0l.67,0-.66.17-1.73.43c-.72.16-1.55.43-2.45.65A23.67,23.67,0,0,0,60,72c-.92.33-1.84.7-2.7,1.09s-1.69.7-2.38,1L53.23,75l-.66.3s.2-.18.57-.48.9-.72,1.57-1.15S56.16,72.68,57,72.24ZM92.94,51.58a22.83,22.83,0,0,1,2.63.43l1,.23-1,0c-.64,0-1.59-.09-2.66,0s-2.36.11-3.74.15-2.89.15-4.42.29c-.76.06-1.55.09-2.29.2l-2.15.36c-1.41.27-2.75.46-3.91.71l-2.83.54-1.09.2,1.06-.4c.67-.23,1.63-.59,2.79-.92s2.49-.73,3.91-1c.72-.14,1.43-.32,2.19-.42l2.33-.25c1.55-.1,3.07-.15,4.47-.17S91.86,51.51,92.94,51.58Zm-10.1-3c1,0,2-.06,3,0a18.72,18.72,0,0,1,2.49.26,14.9,14.9,0,0,1,1.68.36l.62.19h-.67l-1.74,0c-.72,0-1.58,0-2.5.06s-1.9.08-2.9.17a22.54,22.54,0,0,0-2.93.29c-.91.18-1.78.3-2.52.47l-1.83.36-.7.13.66-.33c.43-.19,1-.49,1.78-.75s1.62-.57,2.55-.8S81.81,48.73,82.84,48.62Zm39.44-9.29.88.44-1-.27-2.57-.72A34.05,34.05,0,0,0,116,38c-1.34-.26-2.8-.52-4.3-.74s-3-.49-4.45-.66-2.74-.19-3.91-.22l-2.84-.13-1.09-.06L100.5,36c.71-.06,1.72-.19,2.9-.24a40.13,40.13,0,0,1,4-.06c1.48.14,3,.33,4.55.54s3,.56,4.31.87c.67.16,1.3.33,1.89.5l1.69.64C120.9,38.66,121.71,39.07,122.28,39.33ZM108,32.69c1,.07,2,.18,3,.32s2,.41,2.84.65a20.13,20.13,0,0,1,2.31.82,10.22,10.22,0,0,1,1.52.75l.55.36-.65-.19c-.41-.11-1-.23-1.68-.39s-1.52-.31-2.4-.52-1.84-.37-2.81-.51-2-.33-2.9-.44a22.7,22.7,0,0,0-2.58-.27l-1.83-.07-.7,0,.72-.16c.45-.08,1.11-.23,1.89-.3A17.37,17.37,0,0,1,108,32.69Zm-16.25-12,.28-.66a18.89,18.89,0,0,1,.9-1.73c.43-.7.94-1.53,1.59-2.39s1.4-1.76,2.19-2.66A31.31,31.31,0,0,1,99.31,11c.89-.71,1.81-1.31,2.58-1.83s1.49-.9,2-1.18l.78-.42-.63.55L102.36,9.5c-.7.56-1.43,1.27-2.27,2s-1.66,1.5-2.46,2.3-1.58,1.7-2.26,2.52S94,17.86,93.5,18.53l-1.29,1.59Zm4,.15-2,2.44-.74.92.53-1c.37-.62.87-1.53,1.59-2.59s1.55-2.3,2.58-3.61a42.25,42.25,0,0,1,3.49-3.81c1.3-1.23,2.66-2.46,4-3.59A34.22,34.22,0,0,1,109,6.73C110.2,6,111.25,5.37,112,4.94l1.16-.64-1,.77-2.61,2A41.25,41.25,0,0,0,106,10.14c-1.26,1.14-2.55,2.37-3.8,3.62s-2.52,2.43-3.59,3.66S96.54,19.86,95.75,20.88ZM60.94,40.61c-.21.45-.32.71-.32.71l.09-.72a16.56,16.56,0,0,1,.42-1.91A26.19,26.19,0,0,1,62,36c.41-1,.9-2.06,1.43-3.13s1.2-2.12,1.84-3.08,1.4-1.74,2-2.44,1.21-1.25,1.61-1.64l.65-.6-.47.69c-.3.43-.72,1.06-1.23,1.79s-1,1.61-1.67,2.51a26.16,26.16,0,0,0-1.68,3c-.56,1-1.08,2.06-1.53,3s-.9,1.87-1.22,2.65S61.14,40.15,60.94,40.61Zm3.7-.12c-.52,1.19-1,2.18-1.26,2.87l-.47,1.09.25-1.1c.19-.7.43-1.71.85-2.93s.89-2.64,1.54-4.17a46.47,46.47,0,0,1,2.27-4.75c.93-1.53,1.93-3.07,2.9-4.5s2-2.75,2.9-3.88A21.6,21.6,0,0,1,76,20.55l1-.93-.76,1c-.47.66-1.22,1.5-2,2.69s-1.62,2.53-2.55,4-1.85,3-2.72,4.49A39.23,39.23,0,0,0,66.5,36.4C65.82,37.91,65.14,39.3,64.64,40.49ZM38.34,57c-.3,1.08-.58,2.23-.81,3.37s-.52,2.27-.7,3.32-.4,2-.51,2.88a20.32,20.32,0,0,0-.25,2.08c-.06.51-.09.8-.09.8s0-.27-.13-.74a13.4,13.4,0,0,1-.18-2,25.74,25.74,0,0,1,.15-2.88c.14-1.08.34-2.24.57-3.41s.64-2.35,1-3.46a25,25,0,0,1,1.2-3c.41-.83.86-1.51,1.14-2l.48-.74-.27.79L39.19,54C38.84,54.84,38.66,55.91,38.34,57Zm3.08,1c-.4,1.78-.75,3.54-1,5.18s-.57,3.15-.75,4.43a31.35,31.35,0,0,0-.4,3.15l-.11,1.21L39,70.76a19.35,19.35,0,0,1,0-3.1c.08-1.28.18-2.79.41-4.44s.54-3.43.9-5.23a39.79,39.79,0,0,1,1.55-5.19c.59-1.64,1.25-3.17,1.82-4.49s1.13-2.41,1.5-3.18.65-1.18.65-1.18a11.85,11.85,0,0,0-.44,1.22c-.27.77-.64,1.89-1.09,3.21s-.92,2.86-1.46,4.49A50.4,50.4,0,0,0,41.42,58ZM19.21,102.43a16.89,16.89,0,0,1-.74-1.91,20.63,20.63,0,0,1-.77-2.89c-.14-1.08-.26-2.25-.34-3.45s0-2.44.06-3.61.24-2.27.37-3.22.34-1.74.46-2.29l.28-.84s0,.3-.06.83,0,1.32,0,2.24,0,2,0,3.1,0,2.31.08,3.47.1,2.34.19,3.41a28.07,28.07,0,0,0,.38,3c.15.87.27,1.59.36,2.1s.13.8.13.8Zm3.72,1.21c-.24-.72-.62-1.74-1-3a31.32,31.32,0,0,1-.85-4.42c-.2-1.66-.37-3.47-.49-5.3s-.13-3.76,0-5.51.39-3.4.6-4.82.48-2.63.65-3.47l.3-1.32s0,.47-.08,1.3-.14,2-.23,3.41-.15,3-.25,4.71a44.58,44.58,0,0,0,.12,5.39c.08,1.83.2,3.62.36,5.28s.22,3.18.47,4.5.43,2.42.57,3.19.21,1.21.21,1.21ZM12,139.45a19.17,19.17,0,0,1-1.24-1.66A25.65,25.65,0,0,1,9.2,135.2,21.92,21.92,0,0,1,7.86,132c-.34-1.17-.65-2.37-.9-3.51s-.37-2.26-.48-3.21-.13-1.78-.16-2.34,0-.9,0-.9l.22.84c.13.52.32,1.28.55,2.17s.52,1.91.8,3,.63,2.23,1,3.34A29.31,29.31,0,0,0,10,134.59c.47,1,.85,2,1.24,2.77s.69,1.46.91,1.93l.34.74Zm4,.19c-.43-.63-1.07-1.52-1.75-2.68a30,30,0,0,1-2.13-4.07c-.64-1.55-1.29-3.24-1.9-5s-1.07-3.6-1.52-5.33a32.29,32.29,0,0,1-.77-4.84c-.17-1.44-.22-2.67-.27-3.53s0-1.36,0-1.36l.26,1.29c.16.81.39,2,.67,3.35s.6,3,1.06,4.64,1.05,3.47,1.64,5.19,1.16,3.46,1.75,5c.3.78.58,1.53.85,2.24s.63,1.38.93,2l1.4,2.93.53,1.11Zm-1.36,37.5A17.34,17.34,0,0,1,13,175.86a27.4,27.4,0,0,1-2.21-2.1A26,26,0,0,1,8.54,171c-.64-1.05-1.25-2.12-1.79-3.16a32.54,32.54,0,0,1-1.32-3c-.37-.89-.59-1.69-.76-2.23s-.24-.87-.24-.87.15.28.43.75l1.11,2c.43.82,1,1.72,1.58,2.7s1.2,2,1.87,3a21,21,0,0,0,2,2.84c.72.85,1.35,1.7,1.94,2.35s1.06,1.24,1.39,1.64l.53.63Zm4-.89c-.59-.5-1.45-1.19-2.42-2.13A42.78,42.78,0,0,1,13,170.75c-1-1.33-2.12-2.8-3.18-4.33s-2-3.2-2.9-4.77c-.43-.79-.88-1.57-1.2-2.32s-.61-1.49-.88-2.16c-.55-1.34-.92-2.52-1.2-3.33l-.41-1.31.6,1.18,1.55,3.07c.64,1.27,1.36,2.68,2.32,4.2s1.94,3.09,3,4.6,2,3,3,4.39,2,2.6,2.92,3.62l2.15,2.47.8.94ZM27.13,213a19.47,19.47,0,0,1-1.95-.79,27.46,27.46,0,0,1-2.69-1.45c-1-.62-2-1.33-3-2.08a24.77,24.77,0,0,1-2.65-2.55c-.8-.87-1.47-1.78-2-2.55s-1-1.49-1.31-2l-.46-.78.62.62L15.25,203c.64.68,1.44,1.39,2.24,2.21a31.69,31.69,0,0,0,2.62,2.36c.95.78,1.91,1.51,2.83,2.16s1.75,1.29,2.49,1.77l1.78,1.21.68.47Zm3.77-2c-.7-.33-1.72-.77-2.91-1.42s-2.59-1.42-4.06-2.38a39.89,39.89,0,0,1-4.34-3.31c-1.39-1.25-2.78-2.57-4.06-3.85a47.48,47.48,0,0,1-3.33-3.75c-.88-1.16-1.55-2.21-2-2.93l-.74-1.16.89,1,2.32,2.57c.89,1.09,2.24,2.17,3.5,3.42s2.69,2.47,4.1,3.66a44.55,44.55,0,0,0,4.16,3.42c1.43,1,2.73,1.95,3.87,2.69L31,210.76l1,.69Zm12.67-57c.74-.9,1.42-1.58,1.88-2.07l.74-.73-.57.86c-.37.55-.91,1.33-1.54,2.27A35.65,35.65,0,0,0,42,157.65c-.7,1.22-1.42,2.56-2.11,3.95s-1.43,2.79-2.06,4.15a36.77,36.77,0,0,0-1.56,3.76l-1,2.73-.4,1.06.19-1.12c.14-.7.31-1.71.61-2.87.16-.58.32-1.2.5-1.87s.49-1.36.78-2.06c.6-1.4,1.26-2.85,2-4.27s1.51-2.72,2.25-3.94A32.58,32.58,0,0,1,43.57,154Zm-11,14.76a8.72,8.72,0,0,1,.33-1.92,27.59,27.59,0,0,1,.82-2.64c.37-.93.79-1.9,1.25-2.84s1-1.8,1.56-2.6a18.64,18.64,0,0,1,1.62-2c.54-.57,1.05-1,1.39-1.29l.56-.45s-.15.21-.4.59-.64.89-1,1.53-.81,1.39-1.29,2.18-1,1.69-1.41,2.6-.94,1.82-1.35,2.71-.82,1.71-1.12,2.45a18.4,18.4,0,0,0-.71,1.78l-.25.68S32.51,169.23,32.54,168.76Zm16.05,75.56a15.38,15.38,0,0,1-2.1-.25,24.93,24.93,0,0,1-3-.7c-1.09-.34-2.25-.76-3.41-1.23s-2.28-1.11-3.34-1.7a18.37,18.37,0,0,1-2.68-1.9c-.76-.6-1.35-1.19-1.77-1.57l-.63-.65.75.44,2,1.15c.79.49,1.72,1,2.74,1.54s2.17,1,3.3,1.49,2.23,1,3.28,1.36,2,.79,2.87,1.06l2,.71c.49.19.78.27.78.27S49.09,244.35,48.59,244.32Zm4.11-2.86c-.21,0-.52-.05-.9-.11-.77-.13-1.87-.28-3.19-.6s-2.87-.7-4.54-1.25-3.44-1.21-5.22-1.93-3.35-1.76-4.91-2.68-3-1.9-4.22-2.74a22.34,22.34,0,0,1-2.85-2.22l-1-.93,1.12.72c.68.47,1.73,1.1,3,1.8s2.76,1.5,4.32,2.36,3.24,1.7,4.91,2.49,3.47,1.47,5.08,2.08,3.13,1.19,4.42,1.6l3.1,1.06a11.22,11.22,0,0,0,1.2.38Zm25,27.5a19.2,19.2,0,0,1-2.16.41,16.18,16.18,0,0,1-3.12.17c-1.14-.05-2.38-.16-3.62-.32s-2.49-.49-3.66-.79-2.25-.71-3.17-1.05a11.64,11.64,0,0,1-2.14-1l-.78-.46.84.23c.53.14,1.27.39,2.21.57s2,.4,3.16.65,2.37.44,3.57.6,2.41.37,3.52.48,2.14.28,3.08.25l2.22.05.85,0ZM80,265.17c-.8.11-1.94.3-3.35.4s-3,.08-4.71,0-3.64-.29-5.55-.53a40.61,40.61,0,0,1-5.57-1.16c-1.75-.48-3.37-1.08-4.78-1.58s-2.55-1-3.37-1.38l-1.27-.58,1.33.35,3.44.91c1.4.39,3,.74,4.78,1.18l2.66.61c.93.14,1.88.28,2.82.4,1.89.28,3.75.51,5.48.67s3.33.34,4.69.42,2.56.05,3.37.07l1.27,0Zm32.21,20a19.83,19.83,0,0,1-2,1,26.72,26.72,0,0,1-3,1.08c-.57.16-1.17.31-1.78.45s-1.22.2-1.84.29c-1.26.1-2.54.16-3.75.17a32.44,32.44,0,0,1-3.34-.22c-1-.09-1.81-.27-2.38-.37l-.9-.2.9-.05,2.33-.09c1,0,2.06-.14,3.23-.18s2.4-.18,3.61-.34a25.08,25.08,0,0,0,3.55-.51c1.13-.27,2.2-.45,3.09-.7l2.16-.53.83-.19Zm1.33-4.4c-.74.32-1.79.81-3.13,1.28a34.58,34.58,0,0,1-4.63,1.41c-1.72.35-3.59.67-5.51.93s-3.88.35-5.74.43a33.21,33.21,0,0,1-5.07-.24c-1.48-.13-2.74-.35-3.61-.48l-1.38-.25h4.93c1.48,0,3.13,0,4.95-.12s3.76-.34,5.65-.6,3.76-.47,5.47-.76,3.34-.63,4.7-1l3.28-.84,1.24-.31ZM223,283.31l1.27.34-1.35-.09-3.5-.3c-1.43-.18-3.08-.24-4.85-.53l-5.54-.9-5.4-.94c-.86-.14-1.67-.28-2.44-.45L199,279.9l-3.27-.83-1.22-.34,1.27.1c.81.09,2,.17,3.37.38.69.1,1.46.24,2.25.31s1.63.16,2.49.27l5.47.8,5.53,1.06c1.74.27,3.36.62,4.76.89S222.16,283.13,223,283.31Zm-15.06-6.89c1.18.27,2.36.57,3.46.88s2.1.7,2.93,1,1.51.61,2,.81l.74.35-.84-.12-2.14-.33c-.85-.15-1.94-.37-3-.62s-2.26-.49-3.43-.71-2.3-.48-3.38-.67-2.07-.41-2.93-.54-1.56-.3-2.07-.43l-.8-.22.82,0c.54,0,1.26-.08,2.15,0s1.92,0,3,.17S206.72,276.21,207.92,276.42Zm-62.73.5a9.46,9.46,0,1,1,9.46,9.45A9.47,9.47,0,0,1,145.19,276.92Zm107.33-16.55c1.42-.1,2.61-.1,3.44-.13h1.31l-1.32.26-3.45.61c-1.42.2-3.06.53-4.79.77l-2.65.4-2.81.3-5.45.49c-1.72.18-3.31.25-4.66.39s-2.54.06-3.33.09h-1.27l1.25-.23c.79-.14,2-.29,3.31-.56s2.94-.54,4.67-.77l5.48-.65c1.92-.1,3.71-.39,5.47-.57S251.11,260.47,252.52,260.37Zm-12.65-2.61c1.22,0,2.38-.11,3.48-.15s2.14,0,3,.09,1.61.18,2.12.24l.79.15-.83.1-2.15.23c-.88.06-1.91.22-3,.3s-2.27.18-3.45.28-2.34.13-3.43.22-2.11.14-3,.24l-2.1.16-.79,0,.76-.28c.49-.15,1.18-.41,2-.61s1.87-.46,3-.62S238.66,257.87,239.87,257.76Zm38.59-27.23c1.35-.46,2.47-.78,3.21-1.06l1.2-.39-1.15.64c-.7.41-1.81.91-3.12,1.51s-2.81,1.3-4.42,2l-5,2.18c-1.66.72-3.49,1.29-5.08,1.91s-3.14,1.09-4.41,1.57l-3.08,1c-.74.25-1.18.36-1.18.36s.41-.2,1.1-.58,1.71-.92,3-1.49,2.7-1.27,4.32-1.93,3.39-1.32,5-2.11l5.05-2C275.56,231.5,277.12,231,278.46,230.53Zm-12.74.87c1.1-.39,2.21-.77,3.26-1.09a29.66,29.66,0,0,1,2.93-.7c.86-.19,1.59-.25,2.09-.32l.8-.07-.77.31-2,.78c-.84.28-1.79.7-2.81,1.06s-2.09.79-3.15,1.24-2.15.79-3.19,1.16-2,.67-2.81,1l-2,.69-.76.24.67-.46c.44-.27,1-.7,1.84-1.11s1.7-.91,2.73-1.35S264.64,231.86,265.72,231.4ZM295.6,195c1.09-.82,2-1.44,2.7-1.9l1.05-.69-.94.92-2.48,2.31c-1,.93-2.34,2-3.69,3.08L288,202.11c-1.46,1.11-2.81,2.25-4.21,3.25s-2.75,1.87-3.86,2.66-2.05,1.38-2.71,1.81l-1,.67.91-.86c.59-.53,1.42-1.32,2.48-2.19s2.3-1.92,3.69-3L287.4,201l4.34-3.27C293.15,196.73,294.54,195.84,295.6,195Zm-14.5,6.43c.82-.71,1.72-1.46,2.64-2.18s1.93-1.32,2.86-1.91,1.85-1,2.62-1.45,1.46-.65,1.93-.86l.72-.29a7.59,7.59,0,0,1-.64.52l-1.74,1.28-2.43,1.75c-.89.63-1.82,1.31-2.72,2s-1.83,1.34-2.67,2S280,203.52,279.3,204l-1.74,1.18-.67.44.53-.62c.35-.37.84-.94,1.5-1.54S280.28,202.15,281.1,201.43Zm7.17-30.62c.26-.44.56-1.12,1-1.88s.89-1.67,1.49-2.58,1.27-1.85,2-2.79,1.5-1.78,2.23-2.59,1.52-1.49,2.11-2.08,1.14-1,1.5-1.34l.6-.47s-.17.24-.45.67-.69,1-1.23,1.69l-1.86,2.33c-.69.83-1.4,1.73-2.08,2.65s-1.41,1.77-2,2.63-1.25,1.6-1.73,2.29a19.62,19.62,0,0,1-1.3,1.61l-.53.6ZM304.93,154l-1.76,2.86c-.77,1.15-1.5,2.55-2.59,3.93l-3.17,4.37c-1.08,1.45-2.14,2.9-3.14,4.25s-2,2.54-2.9,3.59l-2.14,2.46-.82.91.66-1.07c.43-.66,1-1.64,1.83-2.76l1.29-1.82c.42-.64.87-1.32,1.33-2l3.05-4.38c1.13-1.45,2.25-2.91,3.31-4.28l2.82-3.68c.82-1.08,1.57-1.91,2.07-2.53s.82-.93.82-.93Z"/><path d="M154.65,284.62a7.7,7.7,0,0,0,7.7-7.7c0-4.25-3.45,0-7.7,0s-7.7-4.25-7.7,0A7.7,7.7,0,0,0,154.65,284.62Z"/><polygon points="218.59 188.47 198.05 188.47 198.05 152.9 218.59 152.9 210.68 170.68 218.59 188.47"/><polygon points="94.63 188.47 115.17 188.47 115.17 152.9 94.63 152.9 102.54 170.68 94.63 188.47"/><path d="M163.2,210.69a4.68,4.68,0,0,0,2.78,2.93,21.79,21.79,0,0,0,6.54,1v2.51q-5.19-.37-16-.37-11.43,0-18,.37V214.6a33.62,33.62,0,0,0,8.13-1,5.43,5.43,0,0,0,3.55-2.93,17.69,17.69,0,0,0,1-6.85V147.22c0-2.89-.41-5-1.25-6.39a6.31,6.31,0,0,0-4.22-2.72,44.19,44.19,0,0,0-9-.67v-2.63q15.42-2.26,25.81-7.58v76.61A22.18,22.18,0,0,0,163.2,210.69Z"/><path d="M86.22,98.51a2.56,2.56,0,0,1-.77,2.15,2.59,2.59,0,0,1-2.1,1,4.07,4.07,0,0,1-2.42-1.19L77,97c-1.35-1.2-1.87-2.33-1.53-3.39a3.24,3.24,0,0,1,.72-1.19q1.81-2.06,4.24.09l1.25,1.11L80.36,95,79.2,94a3.89,3.89,0,0,0-1.12-.76.66.66,0,0,0-.75.23.69.69,0,0,0-.13.8,3.33,3.33,0,0,0,.85,1l4.26,3.76a3.82,3.82,0,0,0,1.18.79.67.67,0,0,0,.76-.22.66.66,0,0,0,.12-.79,3.91,3.91,0,0,0-.93-1.08L82.13,96.6l1.29-1.46,1.29,1.14A4.16,4.16,0,0,1,86.22,98.51Z"/><path d="M94.77,90.34a2.61,2.61,0,0,1-1.06,2.1,2.66,2.66,0,0,1-2.24.79,4.21,4.21,0,0,1-2.28-1.54l-3.67-4.18q-2.22-2.51,0-4.44a2.57,2.57,0,0,1,2.19-.8,4.08,4.08,0,0,1,2.15,1.44l3.67,4.18A4.31,4.31,0,0,1,94.77,90.34Zm-3,1.06a.7.7,0,0,0,.82-.16.69.69,0,0,0,.25-.79A4.75,4.75,0,0,0,92,89.22L88.29,85a3.37,3.37,0,0,0-1-.83.67.67,0,0,0-.77.15.71.71,0,0,0-.27.77A2.8,2.8,0,0,0,87,86.13l3.75,4.26A4.49,4.49,0,0,0,91.82,91.4Z"/><path d="M100.75,86.6,94,76.49l1.29-.87,6.36,4.53-2-2.68-2.21-3.31,1.48-1,6.78,10.11-1.17.78L98,79.36,99.84,82l2.43,3.62Z"/><path d="M113.57,79.06a2.28,2.28,0,0,1-2.12,0,4.58,4.58,0,0,1-1.85-2.19l-2.35-4.74a4,4,0,0,1-.51-2.62,2.71,2.71,0,0,1,1.62-1.79,2.3,2.3,0,0,1,2.78.12,6.13,6.13,0,0,1,1.25,1.82l.39.78-1.66.82-.57-1.14a2.7,2.7,0,0,0-.69-1,.75.75,0,0,0-.79,0,.78.78,0,0,0-.48.69,3.24,3.24,0,0,0,.45,1.38L111.38,76a4.91,4.91,0,0,0,.91,1.41.75.75,0,0,0,.88.09.83.83,0,0,0,.49-.81,4.37,4.37,0,0,0-.55-1.63l-.73-1.47-.89.45-.6-1.21,2.45-1.21,3,6-.8.4-.8-.94a1.6,1.6,0,0,1-.18,1.17A2.05,2.05,0,0,1,113.57,79.06Z"/><path d="M122.82,68.86l-.61.18,1.86,5.44-1.87.64-4-11.51,3.1-1.06a2.47,2.47,0,0,1,1.57-.13,1.79,1.79,0,0,1,1,.79,8.23,8.23,0,0,1,.73,1.65,4.48,4.48,0,0,1,.31,1.68,1.38,1.38,0,0,1-.63,1,1.18,1.18,0,0,1,1.17.5,11.46,11.46,0,0,1,1.25,2.82,19.5,19.5,0,0,0,.88,2.36l-1.88.64c-.07-.07-.57-1.44-1.48-4.1a1.91,1.91,0,0,0-.55-1A1,1,0,0,0,122.82,68.86Zm-1.07-1.18.75-.26a.82.82,0,0,0,.48-.33.93.93,0,0,0,.06-.6,7.54,7.54,0,0,0-.32-1.14l0-.07a3.17,3.17,0,0,0-.59-1.17c-.18-.15-.47-.16-.88,0l-.63.22Z"/><path d="M133.11,71.75l-.62-12.29,2.57-.53,4.37,11.53-1.81.37-.74-2.06-2.06.42.16,2.18Zm3.27-4.4-2.08-5.81h0l.44,6.15Z"/><path d="M145.82,69.66l-.92-10.52-1.52.13-.14-1.59,4.95-.44.14,1.6-1.46.13.92,10.52Z"/><path d="M159.89,68.67a2.71,2.71,0,0,1-2.21.73,2.75,2.75,0,0,1-2.17-.86,3.72,3.72,0,0,1-.61-2.48l.26-9.05,2,.06-.26,9a4.15,4.15,0,0,0,.07,1.17,1.57,1.57,0,0,0,.22.38.71.71,0,0,0,.56.19.72.72,0,0,0,.62-.22,1.14,1.14,0,0,0,.25-.58c0-.23.05-.53.06-.89l.26-9,2,.05-.26,9A3.7,3.7,0,0,1,159.89,68.67Z"/><path d="M167,70l1.79-12,2,.3L169.17,68.7l2.48.37-.23,1.56Z"/><path d="M176.4,71.64l5-11.25,2.53.69-1.3,12.26-1.78-.48.27-2.18-2-.55-.84,2Zm4.91-2.45.76-6.13h0l-2.38,5.68Z"/><path d="M188.7,75.52l3.93-9.81-1.41-.57.59-1.49,4.62,1.85-.6,1.49-1.36-.54-3.93,9.8Z"/><path d="M197.11,79.28l5.64-10.78,1.76.91L198.87,80.2Z"/><path d="M209.09,85.63a2.59,2.59,0,0,1-2.3-.49,2.65,2.65,0,0,1-1.34-2,4.31,4.31,0,0,1,.91-2.6L209.47,76q1.86-2.77,4.29-1.14a2.57,2.57,0,0,1,1.33,1.92,4,4,0,0,1-.84,2.44l-3.11,4.62A4.44,4.44,0,0,1,209.09,85.63Zm-1.77-2.58a.8.8,0,0,0,1.18.79,4.52,4.52,0,0,0,1-1.14l3.17-4.7a3.35,3.35,0,0,0,.56-1.15.68.68,0,0,0-.34-.71.75.75,0,0,0-.82-.06,2.82,2.82,0,0,0-.87.93L208,81.71A4.42,4.42,0,0,0,207.32,83.05Z"/><path d="M214.23,90.47l8.05-9.13,1.17,1-2.76,7.3,2.09-2.58,2.63-3,1.34,1.18-8,9.13-1.06-.93,2.87-7.55-2,2.47-2.88,3.28Z"/><path d="M225.68,96.58l.81-.71,1.24,1.41-.91.81a3.58,3.58,0,0,0-.95,1.08.67.67,0,0,0,.15.79.68.68,0,0,0,.7.29,2.73,2.73,0,0,0,.94-.61,3,3,0,0,0,.81-1.1,5,5,0,0,0,.27-1.5l.06-1.33a5.46,5.46,0,0,1,.33-1.69,3.49,3.49,0,0,1,1-1.36,3.4,3.4,0,0,1,2.09-1,2.69,2.69,0,0,1,2,1.12,2.21,2.21,0,0,1,.71,2.11,4.71,4.71,0,0,1-1.51,2.05l-.57.5-1.21-1.38.66-.57a3.55,3.55,0,0,0,.84-1,.63.63,0,0,0-.12-.73.76.76,0,0,0-.66-.3,1.43,1.43,0,0,0-.79.42,1.74,1.74,0,0,0-.56.77,4.93,4.93,0,0,0-.17,1.14l-.1,1.52a6.48,6.48,0,0,1-.44,2,4.06,4.06,0,0,1-1.1,1.52,4.17,4.17,0,0,1-2.3,1.2,2.54,2.54,0,0,1-2-1.07,2.37,2.37,0,0,1-.73-2.21A4.78,4.78,0,0,1,225.68,96.58Z"/><polygon points="155.13 82.53 158.63 89.62 166.46 90.75 160.8 96.27 162.13 104.07 155.13 100.39 148.13 104.07 149.47 96.27 143.81 90.75 151.63 89.62 155.13 82.53"/><polygon points="128.76 88.91 130.89 93.22 135.64 93.91 132.2 97.26 133.01 102 128.76 99.77 124.51 102 125.32 97.26 121.88 93.91 126.63 93.22 128.76 88.91"/><polygon points="181.51 88.91 183.63 93.22 188.39 93.91 184.95 97.26 185.76 102 181.51 99.77 177.25 102 178.07 97.26 174.63 93.91 179.38 93.22 181.51 88.91"/></g></g></svg>