<svg xmlns="http://www.w3.org/2000/svg" viewBox="0 0 198.58 108.52" fill="#4e76cd"><title>Fichier 17</title><g id="Calque_2" data-name="Calque 2"><g id="Calque_1-2" data-name="Calque 1"><path d="M89.29,56.7a8.19,8.19,0,0,1-1.4-2.49,10.43,10.43,0,0,1-.42-3.2,13.52,13.52,0,0,1,.28-2.61,12.86,12.86,0,0,0-.49,1.73,9.65,9.65,0,0,0-.19,2.1,9.19,9.19,0,0,0,.81,4.16,13.67,13.67,0,0,0,2.41,3.25,20.75,20.75,0,0,1,2.3,2.72,5.17,5.17,0,0,1,.71,2.91,10.8,10.8,0,0,1-.15,1.64,7.08,7.08,0,0,0,.48-1.24,6.84,6.84,0,0,0-1.71-6.17A26.37,26.37,0,0,1,89.29,56.7Z"/><path d="M109.53,50a9.5,9.5,0,0,0-.1,1.19,2.33,2.33,0,0,0,.29,1.31.79.79,0,0,0,.64.44,2.41,2.41,0,0,0,.58-.21c-.49-.24-.74-.82-.74-1.75,0-.07,0-.28,0-.62a7.62,7.62,0,0,0,.06-.87,2.86,2.86,0,0,0-.93-2.29,5.4,5.4,0,0,1,.26,1.55A10.23,10.23,0,0,1,109.53,50Z"/><path d="M105.48,66.78a9.15,9.15,0,0,1-1.61-3.49,19.44,19.44,0,0,1-.6-5,25.77,25.77,0,0,1,.72-6.15,19.58,19.58,0,0,1,2.08-5.25,7.62,7.62,0,0,0-1.93,2.7,16.68,16.68,0,0,0-1.22,4,26.71,26.71,0,0,0-.41,4.65,22.53,22.53,0,0,0,.67,5.75,11,11,0,0,0,1.75,3.94,2.92,2.92,0,0,0,2.22,1.38c1.09,0,2.11-.86,3.07-2.51A4.78,4.78,0,0,1,107.71,68,2.79,2.79,0,0,1,105.48,66.78Z"/><path d="M91.86,48.14a20.05,20.05,0,0,1,1.2,2.76C93,49.64,93,49,93,47.76a7.25,7.25,0,0,0-1.23-1,2.39,2.39,0,0,0-1.29-.26A5.39,5.39,0,0,1,91.86,48.14Z"/><path d="M87.31,63.37v3.38a11.38,11.38,0,0,0,2,1.48,12.72,12.72,0,0,1-1.1-2.11C88,65.5,87.66,64.59,87.31,63.37Z"/><path d="M176.31,55v-.42a3.7,3.7,0,0,0-.24-1.36,2.41,2.41,0,0,0-.65-1,1.72,1.72,0,0,0-.95-.45,1.48,1.48,0,0,0-1.46.76,4.32,4.32,0,0,0-.67,2.28Z"/><path d="M81.24,47.4l-.18.06-.19.06a3.74,3.74,0,0,1,.64,1.64,16,16,0,0,1,.17,2.54V68.6a1.69,1.69,0,0,0,.59-.93,7.2,7.2,0,0,0,.18-1.87V51.45a14.61,14.61,0,0,0-.23-3C82.07,47.74,81.74,47.38,81.24,47.4Z"/><path d="M174.52,62.85a5.47,5.47,0,0,0,1.93-.8,5.71,5.71,0,0,0,1.64-1.53,11.73,11.73,0,0,1-1.41,1,5,5,0,0,1-1.72.59,2.86,2.86,0,0,1-2.83-1,6.06,6.06,0,0,1-1.13-3.9,9.21,9.21,0,0,1,.38-2.8A10,10,0,0,1,172.45,52a7.18,7.18,0,0,0-2.14,5.61,6.11,6.11,0,0,0,1.28,4.13A3,3,0,0,0,174.52,62.85Z"/><path d="M114.24,48.89a1,1,0,0,0-.26,0,1.48,1.48,0,0,1-.28,0c.85.85,1.27,2.28,1.27,4.32V65.52a5.57,5.57,0,0,1-.13,1.36,6.55,6.55,0,0,1-.39,1,1.37,1.37,0,0,0,1-.85,6.62,6.62,0,0,0,.3-2.38V53.31a11.26,11.26,0,0,0-.36-3.35C115.13,49.25,114.76,48.9,114.24,48.89Z"/><path d="M176.36,52.92a4.2,4.2,0,0,1,.32,1.83V55l.79,0a4,4,0,0,0-.52-2.11,3.12,3.12,0,0,0-1.64-1.12A2.9,2.9,0,0,1,176.36,52.92Z"/><path d="M119.67,49.46c-.31-.51-.55-.83-.75-.84s-.47.32-.83,1c.21,0,.42.17.64.5.49.88.9,1.31,1.23,1.32s.72-.58.91-1.75c-.22.24-.39.36-.49.36A1,1,0,0,1,119.67,49.46Z"/><path d="M37.45,62.12a4.8,4.8,0,0,1,.3-1.71,11.41,11.41,0,0,1,.92-1.8,7.73,7.73,0,0,0-1.45,1.66,3.85,3.85,0,0,0-.51,2,3,3,0,0,0,.62,1.88,2.12,2.12,0,0,0,1.34.92A2,2,0,0,0,39.76,65a2.54,2.54,0,0,1-1.68-.9A3,3,0,0,1,37.45,62.12Z"/><path d="M167.71,51l-1.88-.22a3.41,3.41,0,0,1,.69,2.33A4.89,4.89,0,0,1,167.71,51Z"/><path d="M76,67a11.3,11.3,0,0,1-.7-4.4V50.86c0-2.17-.39-3.24-1.17-3.2l-.2.06-.21.06a4.65,4.65,0,0,1,.64,1.76,17.4,17.4,0,0,1,.14,2.4v9.58a15.62,15.62,0,0,0,.75,5.39c.51,1.31,1.19,2,2.07,2a2.55,2.55,0,0,0,.73-.07A3,3,0,0,1,76,67Z"/><path d="M22.44,45.35l-.34.12a1,1,0,0,1,.63.44,3,3,0,0,1,.17,1.26V60.34a1.84,1.84,0,0,1-.2.95,1.31,1.31,0,0,1-.6.5l.19.05.19.06c.76.13,1.15-.45,1.15-1.73V47.55a7.19,7.19,0,0,0-.18-1.91C23.33,45.25,23,45.15,22.44,45.35Z"/><path d="M39.73,58.89a5.18,5.18,0,0,0-.58,2.56,3.21,3.21,0,0,0,.34,1.61,1.15,1.15,0,0,0,.81.65c.49.06,1-.29,1.5-1.07V56.46A10.48,10.48,0,0,0,39.73,58.89Z"/><path d="M30.63,63.13l2.1.3c.39-1.24.59-1.87,1-3.16a8.3,8.3,0,0,1-1.4,1.78A5.54,5.54,0,0,1,30.63,63.13Z"/><path d="M38.7,50a7.17,7.17,0,0,0-1.26,1.43A2.62,2.62,0,0,0,37,52.91a1.08,1.08,0,0,0,.23.66.67.67,0,0,0,.56.29,1,1,0,0,0,.88-.56.58.58,0,0,1-.63-.22,1.11,1.11,0,0,1-.22-.71,2.61,2.61,0,0,1,.19-1C38.15,51,38.37,50.6,38.7,50Z"/><path d="M62,50.11a4.72,4.72,0,0,0-1.06-1.62A1.48,1.48,0,0,0,59.84,48a2,2,0,0,0-1.1.62l.28,0c1-.06,1.8.71,2.4,2.37a21.56,21.56,0,0,1,.91,7.12,25.26,25.26,0,0,1-.45,5.47,10.32,10.32,0,0,1-1.23,3.13A3.94,3.94,0,0,0,62,65a11.06,11.06,0,0,0,.82-3A26.1,26.1,0,0,0,63.11,58a30.94,30.94,0,0,0-.32-4.73A13.72,13.72,0,0,0,62,50.11Z"/><path d="M68.27,36.32a1,1,0,0,0-1.15-.57,3.26,3.26,0,0,0-.63.13,2.26,2.26,0,0,1,1.31,1.76A20.87,20.87,0,0,1,68,41V64.38A6,6,0,0,1,67.53,67a1,1,0,0,0,1-.9,12,12,0,0,0,.21-2.59V40.89c0-1.19,0-2.14-.07-2.84A4.25,4.25,0,0,0,68.27,36.32Z"/><path d="M53.44,49.71a3.36,3.36,0,0,1,.89,1.41,9.68,9.68,0,0,1,.22,2.47V74.8a7.43,7.43,0,0,1-.1,1.41,2,2,0,0,1-.4.87.93.93,0,0,0,1-.67,8.81,8.81,0,0,0,.24-2.5V53.44a7.68,7.68,0,0,0-.44-3A1.16,1.16,0,0,0,53.44,49.71Z"/><path d="M43.24,64.66A7.64,7.64,0,0,1,43,62.24v-9a7.51,7.51,0,0,0-.34-2.78,1.35,1.35,0,0,0-1.18-.81,1.71,1.71,0,0,1,.6,1.06,16.4,16.4,0,0,1,.15,2.76v7.66a15.25,15.25,0,0,0,.29,3.42c.2.76.58,1.19,1.14,1.27a1.08,1.08,0,0,0,.62-.08A1.67,1.67,0,0,1,43.24,64.66Z"/><path d="M61.94,58.11a26,26,0,0,0-.39-4.9,7.87,7.87,0,0,0-1.06-3A1.77,1.77,0,0,0,59,49.35c-.68,0-1.39.66-2.11,1.81V64.73C57.6,66.14,58.31,66.89,59,67a1.67,1.67,0,0,0,1.49-.87,8.29,8.29,0,0,0,1.08-3A26.1,26.1,0,0,0,61.94,58.11Z"/><path d="M129.27,53v.51h.83a13.2,13.2,0,0,0-.55-4.19,3.11,3.11,0,0,0-1.7-1.89,4.56,4.56,0,0,1,1.09,2A14.44,14.44,0,0,1,129.27,53Z"/><path d="M135.46,47.89a6.73,6.73,0,0,0-1.29,1.69,4.18,4.18,0,0,0-.45,2,1.9,1.9,0,0,0,.24.93.72.72,0,0,0,.57.45,1,1,0,0,0,.9-.66.6.6,0,0,1-.65-.36,2.12,2.12,0,0,1-.22-1,4.26,4.26,0,0,1,.2-1.35C134.89,49.18,135.13,48.62,135.46,47.89Z"/><path d="M134.82,66.76a4.29,4.29,0,0,1-.64-2.58,8.77,8.77,0,0,1,.31-2.38,16.91,16.91,0,0,1,.94-2.5A9.83,9.83,0,0,0,134,61.68a7.29,7.29,0,0,0-.53,2.88,4.28,4.28,0,0,0,.64,2.46c.42.63.88.93,1.37.89a1.93,1.93,0,0,0,1.11-.39A1.84,1.84,0,0,1,134.82,66.76Z"/><path d="M135.92,63a4.62,4.62,0,0,0,.35,2c.24.47.51.69.83.67.49,0,1-.58,1.52-1.63V56.45a12,12,0,0,0-2.11,3.14A8.69,8.69,0,0,0,135.92,63Z"/><path d="M124.86,48.37c-1.48,2.5-2.22,5.88-2.22,10.06A17.59,17.59,0,0,0,124,65.82c.89,1.88,1.9,2.76,3.06,2.69a3.36,3.36,0,0,0,2-1,7.33,7.33,0,0,0,1.71-2.68,9.88,9.88,0,0,1-1.47,1.67,2.85,2.85,0,0,1-1.8.73c-1.18.07-2.16-.77-3-2.54a17.65,17.65,0,0,1-1.18-7,28.2,28.2,0,0,1,.39-4.94A31.37,31.37,0,0,1,124.86,48.37Z"/><path d="M139,52.81v9.35a20.57,20.57,0,0,0,.29,4.1c.2.89.58,1.31,1.15,1.25a1.05,1.05,0,0,0,.63-.24,1.36,1.36,0,0,1-1-1,9.67,9.67,0,0,1-.3-2.84V52.59a11.3,11.3,0,0,0-.34-3.39,1.78,1.78,0,0,0-1.2-1.2,2.7,2.7,0,0,1,.61,1.41A24.54,24.54,0,0,1,139,52.81Z"/><path d="M99.29,9c-7.76,0-16,1-26.65,3.27C59.23,15.11,31.08,28.53,9,40.24v28C31.08,80,59.23,93.4,72.64,96.25c10.68,2.26,18.89,3.27,26.65,3.27s16-1,26.65-3.27c13.41-2.85,41.56-16.26,63.64-28v-28c-22.08-11.71-50.23-25.13-63.64-28C115.27,10,107.05,9,99.29,9ZM33.85,64.52c-5.57-.88-8.33-1.37-13.8-2.44v-.64l.15,0a4,4,0,0,0,1.5.06.94.94,0,0,0,.66-.56,3.28,3.28,0,0,0,.18-1.24v-12a4.26,4.26,0,0,0-.16-1.39.7.7,0,0,0-.69-.47,4.56,4.56,0,0,0-1.64.36v-.64c3.14-1.2,4.72-1.77,7.89-2.85v.81l-.35.12a4.62,4.62,0,0,0-1.37.64,1.86,1.86,0,0,0-.66.93,4.85,4.85,0,0,0-.2,1.53V60.25a2.87,2.87,0,0,0,.23,1.25,1.62,1.62,0,0,0,.8.77,5.5,5.5,0,0,0,1.64.47,6.27,6.27,0,0,0,1.66,0,3.9,3.9,0,0,0,1.5-.52,5.92,5.92,0,0,0,1.54-1.35,13.22,13.22,0,0,0,1.59-2.44l1.06,0C34.77,61,34.46,62.19,33.85,64.52Zm11,1.66a1.36,1.36,0,0,1-1.15.34,1.64,1.64,0,0,1-1.19-.74,4.45,4.45,0,0,1-.61-1.85c-1.06,1.41-2.12,2-3.16,1.82A2.49,2.49,0,0,1,37,64.59a4.16,4.16,0,0,1-.65-2.33,4.68,4.68,0,0,1,.4-2,5.12,5.12,0,0,1,1.05-1.48c.43-.44,1.07-1,1.92-1.7s1.55-1.35,2.1-1.88V52.24a4.14,4.14,0,0,0-.36-2,1,1,0,0,0-1.08-.55,1.49,1.49,0,0,0-1,.46A1.26,1.26,0,0,0,39,51a3.12,3.12,0,0,0,.15.53,2.69,2.69,0,0,1,.15.86,2.52,2.52,0,0,1-.41,1.43,1.25,1.25,0,0,1-1,.66A1.08,1.08,0,0,1,37,54,1.71,1.71,0,0,1,36.62,53a3.51,3.51,0,0,1,.58-1.86,5.48,5.48,0,0,1,1.61-1.65,5.07,5.07,0,0,1,2.26-.86,2.75,2.75,0,0,1,1.69.33A3.06,3.06,0,0,1,44,50.43a6.51,6.51,0,0,1,.46,2.62V63.22c0,.82.14,1.24.41,1.27s.36-.18.59-.61l.43.92A6.51,6.51,0,0,1,44.85,66.18Zm19.33-2.92a9,9,0,0,1-2,3.88,3.4,3.4,0,0,1-2.86,1.16A4.3,4.3,0,0,1,56.86,67v8A9.38,9.38,0,0,0,57,76.42a1.42,1.42,0,0,0,1.26,1.29l.6.11V79.1c-2.46-.47-3.69-.72-6.13-1.27V76.57a2.77,2.77,0,0,0,.89,0c.19,0,.34-.18.44-.44a3.52,3.52,0,0,0,.16-1.25V53.69a7.1,7.1,0,0,0-.36-2.59,2.67,2.67,0,0,0-1.2-1.33v-.91c1.51-.72,2.27-1.09,3.79-1.85l.46,0v2.51a10.82,10.82,0,0,1,1.58-2,2.76,2.76,0,0,1,1.72-.81,2.38,2.38,0,0,1,1.79.68,6.35,6.35,0,0,1,1.52,2.18,14.92,14.92,0,0,1,1,3.49,23.79,23.79,0,0,1,.4,4.41A21,21,0,0,1,64.18,63.26Zm7.74,5.44c-2.36-.15-3.54-.23-5.89-.42V66.92l.28,0a1,1,0,0,0,1-.55,4.43,4.43,0,0,0,.3-1.88V40.85a11.82,11.82,0,0,0-.28-2.94A2.89,2.89,0,0,0,66,36.22v-1c1.53-1.27,2.3-1.91,3.84-3.21l.47-.06V63.7a12.21,12.21,0,0,0,.2,2.75,1.06,1.06,0,0,0,1.06.83h.32Zm13.71-.5c-1.74.7-2.61,1-4.35,1.71V66.24c-1.3,2.41-2.6,3.55-3.9,3.48-1,0-1.82-.76-2.42-2.11a14.06,14.06,0,0,1-.9-5.6V53c0-1.34,0-2.3-.06-2.87a3.42,3.42,0,0,0-.4-1.46,1.88,1.88,0,0,0-1.14-.85V46.32l4.34-.21V61.58A27.44,27.44,0,0,0,77,64.8a5,5,0,0,0,.54,1.87,1.18,1.18,0,0,0,1,.66c.88,0,1.81-.89,2.8-2.82V51.76c0-2.69-.51-4.1-1.53-4.21V46L84,45.85V64.12a6,6,0,0,0,.17,1.64,1.17,1.17,0,0,0,.49.71,1.84,1.84,0,0,0,.85.19h.11Zm8.65-1.77a7.06,7.06,0,0,1-1.47,2.8,2.69,2.69,0,0,1-2.1,1c-1.11,0-2.39-.74-3.84-2.15V61h.64a25.86,25.86,0,0,0,1.9,5.55c.66,1.25,1.3,1.89,1.93,1.9.41,0,.77-.29,1.09-.89a4.32,4.32,0,0,0,.47-2,4.26,4.26,0,0,0-.36-2.08A15.64,15.64,0,0,0,90,60.28a9.77,9.77,0,0,1-3.28-7.89,11.34,11.34,0,0,1,1-5.07,3.18,3.18,0,0,1,2.77-2.09,3.25,3.25,0,0,1,1.65.4,10.47,10.47,0,0,1,1.69,1.19c0,2.59.07,3.89.12,6.48h-.59a23.91,23.91,0,0,0-1.91-4.92c-.63-1.1-1.25-1.65-1.87-1.64-.38,0-.69.3-.94.88a4.66,4.66,0,0,0-.38,1.89,4,4,0,0,0,.47,2.09,15,15,0,0,0,2,2.29,36.86,36.86,0,0,1,2.61,2.94,6.14,6.14,0,0,1,1.12,2.38,12.57,12.57,0,0,1,.42,3.34A13.63,13.63,0,0,1,94.28,66.43Zm15.45,2.11a3.66,3.66,0,0,1-2.68,1.71,3,3,0,0,1-2.41-1.55,12.41,12.41,0,0,1-1.84-4.3,24.17,24.17,0,0,1-.69-6,28.89,28.89,0,0,1,.42-5,20,20,0,0,1,1.2-4.25,8.84,8.84,0,0,1,1.85-2.93,3.24,3.24,0,0,1,2.38-1,3,3,0,0,1,1.91.75,5,5,0,0,1,1.35,2,7.74,7.74,0,0,1,.49,2.8,4.88,4.88,0,0,1-.43,2.19c-.28.57-.62.86-1,.86s-.65-.29-.89-.86a4.9,4.9,0,0,1-.35-1.84c0-.13,0-.54.11-1.24s.11-1.17.11-1.42a2.13,2.13,0,0,0-.34-1.24,1,1,0,0,0-.81-.52,2,2,0,0,0-1.62,1.17,9.87,9.87,0,0,0-1.14,3.4,28.43,28.43,0,0,0-.41,5.05,21.32,21.32,0,0,0,.48,4.71,9.4,9.4,0,0,0,1.3,3.28,2.25,2.25,0,0,0,1.79,1.16,2.58,2.58,0,0,0,1.67-.86,6.12,6.12,0,0,0,1.4-2.15l.42,1.27A14.86,14.86,0,0,1,109.73,68.54Zm11.19-17.19c-.25.66-.56,1-.93,1a1.08,1.08,0,0,1-.55-.22,2,2,0,0,1-.5-.57l-.25-.45a2.66,2.66,0,0,0-.23-.38.29.29,0,0,0-.22-.14c-.15,0-.3.12-.45.38a10.48,10.48,0,0,0-.5,1.07V64.9a8.11,8.11,0,0,0,.17,2,1,1,0,0,0,.54.71,3.72,3.72,0,0,0,1.26.1v1.46c-2.55.11-3.83.16-6.39.24V67.89h.32c.92,0,1.38-.86,1.38-2.51V53.3c0-2.06-.56-3.48-1.7-4.28V48.1c1.53-1.08,2.3-1.61,3.83-2.66l.59,0v4.11a31.17,31.17,0,0,1,1.4-3.17c.33-.58.72-.86,1.18-.84s.73.34,1,1a5.92,5.92,0,0,1,.41,2.37A7.16,7.16,0,0,1,120.92,51.35Zm49.41,3.38a7.16,7.16,0,0,1,1.06-2.24A4.09,4.09,0,0,1,173,51.17a3.23,3.23,0,0,1,1.9-.23,5.2,5.2,0,0,1,3.41,2.26,4.24,4.24,0,0,1,.57,1.23,9.2,9.2,0,0,1,.28,1.44l-6.85-.14a8.29,8.29,0,0,0,.4,2.51,4,4,0,0,0,.93,1.57,2.86,2.86,0,0,0,1.23.74,3.08,3.08,0,0,0,1.23.1,4.44,4.44,0,0,0,2.61-1.43l.45.32a7.63,7.63,0,0,1-1.21,1.81,6.55,6.55,0,0,1-1.54,1.27,5.73,5.73,0,0,1-1.77.68,3.4,3.4,0,0,1-2.33-.32,4,4,0,0,1-1.7-2,8.44,8.44,0,0,1-.63-3.39A10.34,10.34,0,0,1,170.33,54.73Zm-12.71-5.86c2.33.27,3.49.41,5.81.7v1l-.43-.05a.78.78,0,0,0-.72.31,1.29,1.29,0,0,0-.3.86,11.36,11.36,0,0,0,.39,1.82c.79,2.94,1.19,4.36,2,7.09.51-1.77.76-2.63,1.27-4.32a11,11,0,0,0,.57-2.87,3.76,3.76,0,0,0-.31-1.61,2,2,0,0,0-.9-1v-1l4,.53v.92a3,3,0,0,0-1.18,1.08,9.58,9.58,0,0,0-.93,2.25c-1.24,4-1.86,6.16-3.11,10.69l-.92.15c-1.37-4.72-2-7.23-3.43-12.54a9.15,9.15,0,0,0-.76-2.14,1.28,1.28,0,0,0-1-.7Zm-4.9-9.46a1.84,1.84,0,0,1,.6-.91.9.9,0,0,1,.81-.19,1.63,1.63,0,0,1,.82.58,3.35,3.35,0,0,1,.61,1.14,4.86,4.86,0,0,1,.22,1.43,4.06,4.06,0,0,1-.22,1.35,2,2,0,0,1-.61.91,1,1,0,0,1-.82.24,1.69,1.69,0,0,1-1.15-1,4.79,4.79,0,0,1-.47-2.13A4.25,4.25,0,0,1,152.72,39.41ZM151.6,65.29a1.35,1.35,0,0,0,1-.62,3.75,3.75,0,0,0,.28-1.71V53.54a4.08,4.08,0,0,0-.34-1.66,2.67,2.67,0,0,0-1-1.2V50c1.39-.74,2.09-1.1,3.48-1.76l.48,0V62.61a5.93,5.93,0,0,0,.11,1.37.79.79,0,0,0,.41.59,2.11,2.11,0,0,0,.95.1v1.07c-2.17.29-3.25.43-5.43.7Zm-7.82-17.53c.69-.94,1.2-1.65,1.55-2.14a14.1,14.1,0,0,0,1-1.65,13.94,13.94,0,0,0,.79-1.91l.62.09v5.69l2.9.28v1.33l-2.9-.23v13a8.54,8.54,0,0,0,.19,2.13c.12.47.33.68.63.65a1.08,1.08,0,0,0,.77-.5,11.29,11.29,0,0,0,.87-1.4c.18.32.26.48.44.79a15,15,0,0,1-1.61,2.6,2.52,2.52,0,0,1-1.68,1,1.39,1.39,0,0,1-1.4-.59,4.54,4.54,0,0,1-.7-2,21.81,21.81,0,0,1-.19-3.17V49l-1.26-.09Zm-5.53,1a1.27,1.27,0,0,0-1.1-.9,1.07,1.07,0,0,0-1,.41,1.56,1.56,0,0,0-.36,1A5.5,5.5,0,0,0,136,50a4.7,4.7,0,0,1,.15,1.14,3.9,3.9,0,0,1-.41,1.84c-.28.54-.63.8-1.05.79a1.09,1.09,0,0,1-1-.67,3.24,3.24,0,0,1-.35-1.52,5.5,5.5,0,0,1,.6-2.49,4.65,4.65,0,0,1,1.64-1.89,3.52,3.52,0,0,1,2.3-.6,3,3,0,0,1,1.72.77,4.76,4.76,0,0,1,1.26,2,9.07,9.07,0,0,1,.47,3.12V64.3q0,1.41.42,1.38c.16,0,.36-.29.59-.81.18.38.27.57.44.95a10.55,10.55,0,0,1-1.06,1.8,1.67,1.67,0,0,1-1.16.7,1.24,1.24,0,0,1-1.22-.57,5.17,5.17,0,0,1-.61-2.12c-1.08,2-2.15,3-3.22,3.12a1.81,1.81,0,0,1-1.8-1.08,6.29,6.29,0,0,1-.67-3.09,9.3,9.3,0,0,1,.41-2.92,8,8,0,0,1,1.08-2.14,25,25,0,0,1,2-2.33c.87-.93,1.58-1.71,2.14-2.35V51.25A6.61,6.61,0,0,0,138.25,48.78Zm-7.3.88a13.38,13.38,0,0,1,.6,2.48c.12.85.22,1.86.29,3-2.86,0-4.29,0-7.16,0a25.67,25.67,0,0,0,.42,4.55,10.84,10.84,0,0,0,1,3,4.4,4.4,0,0,0,1.27,1.57,2.1,2.1,0,0,0,1.29.43c1-.05,1.91-.87,2.73-2.43l.47.76a16.21,16.21,0,0,1-1.27,3.51A6.62,6.62,0,0,1,129,68.61a3.25,3.25,0,0,1-1.85.79,2.89,2.89,0,0,1-2.42-1.22,9.58,9.58,0,0,1-1.78-3.9,24.6,24.6,0,0,1-.65-5.92,28.33,28.33,0,0,1,.4-4.92,19.12,19.12,0,0,1,1.1-4,8,8,0,0,1,1.64-2.64,2.55,2.55,0,0,1,2-.86,3.1,3.1,0,0,1,2,1.06A7.13,7.13,0,0,1,131,49.66Zm-5.72-7.19-.67,0c.54-3.21.81-4.8,1.34-8l3.5.41C127.73,37.82,126.9,39.35,125.23,42.47Z"/><path d="M99.29,5.5c-8,0-16.46,1-27.37,3.35-14.25,3-44.49,17.56-66.42,29.29V70.37C27.43,82.1,57.67,96.65,71.92,99.67,82.84,102,91.28,103,99.29,103s16.46-1,27.38-3.35c14.25-3,44.48-17.57,66.41-29.3V38.14c-21.93-11.73-52.16-26.27-66.41-29.29C115.75,6.53,107.31,5.5,99.29,5.5ZM191.58,39V69.47l-.53.29c-22.28,11.84-51,25.53-64.69,28.44-10.82,2.29-19.17,3.32-27.07,3.32s-16.25-1-27.06-3.32C58.51,95.29,29.81,81.6,7.53,69.76L7,69.47V39l.53-.28c22.28-11.85,51-25.54,64.7-28.45C83,8,91.38,7,99.29,7s16.26,1,27.07,3.31c13.71,2.91,42.41,16.6,64.69,28.45Z"/><path d="M127.39,36l-1.34-.15c-.34,2.06-.51,3.09-.85,5.17C126.08,39,126.51,38,127.39,36Z"/><path d="M125.44,49.26a13.27,13.27,0,0,0-.69,4.21l4.14.06V52.7a12.46,12.46,0,0,0-.25-2.64,5,5,0,0,0-.68-1.8,1.27,1.27,0,0,0-1-.67C126.37,47.56,125.86,48.11,125.44,49.26Z"/><path d="M127.81,3.47C116.5,1.07,107.7,0,99.29,0S82.08,1.07,70.78,3.47C50.15,7.84,4.31,32.52,0,34.86v38.8c4.3,2.33,50.15,27,70.78,31.39,11.3,2.4,20.1,3.47,28.51,3.47s17.21-1.07,28.52-3.47c20.62-4.37,66.47-29.06,70.77-31.39V34.86C194.28,32.52,148.43,7.84,127.81,3.47Zm68.27,68.7-.79.42c-22.16,11.9-53.27,26.89-68,30-11.13,2.36-19.77,3.42-28,3.42s-16.86-1.06-28-3.42c-14.72-3.12-45.83-18.11-68-30l-.79-.42V36.35l.79-.43C25.46,24,56.56,9,71.29,5.91c11.13-2.36,19.77-3.41,28-3.41s16.87,1,28,3.41C142,9,173.13,24,195.29,35.92l.79.43Z"/><path d="M152.73,50.6a1.47,1.47,0,0,0-.43,0,4.1,4.1,0,0,1,1,3v9.69a3.11,3.11,0,0,1-.48,1.85,1.17,1.17,0,0,0,.94-.61,3.77,3.77,0,0,0,.29-1.69V53.38a4.57,4.57,0,0,0-.36-2A1.18,1.18,0,0,0,152.73,50.6Z"/><path d="M145.81,65.58c.27.88.76,1.27,1.45,1.19a2.43,2.43,0,0,0,1.1-.44,1.44,1.44,0,0,1-1.62-.77,7,7,0,0,1-.56-3.3V45.33l-.77,1.14V61.3A16.48,16.48,0,0,0,145.81,65.58Z"/><path d="M154.32,43.35a6.3,6.3,0,0,1-.54-1.14,3.45,3.45,0,0,1-.18-1.2,2.62,2.62,0,0,1,.72-2,1,1,0,0,0-1.06.32,2.55,2.55,0,0,0-.37,1.5,3.53,3.53,0,0,0,.36,1.65A1.63,1.63,0,0,0,154.32,43.35Z"/><path d="M159.67,52.5c1.35,5.16,2,7.61,3.35,12.2l.18-.06c.09-.29.13-.43.23-.72a1.4,1.4,0,0,0,0-.47,4.38,4.38,0,0,0-.27-1.07c-1.07-3.7-1.6-5.65-2.66-9.72a8.91,8.91,0,0,0-.67-1.9,1.18,1.18,0,0,0-.92-.7l-.25,0a3.11,3.11,0,0,1,.56,1.05C159.41,51.55,159.55,52,159.67,52.5Z"/></g></g></svg>