<svg xmlns="http://www.w3.org/2000/svg" viewBox="0 0 262.66 83.24" fill="#4e76cd"><title>Fichier 16</title><g id="Calque_2" data-name="Calque 2"><g id="Calque_1-2" data-name="Calque 1"><path d="M41.41,57.2a2,2,0,0,1-.34-.12L41,57a1.48,1.48,0,0,1-.35-.25l-.08-.08a1.44,1.44,0,0,1-.22-.27.36.36,0,0,1-.07-.1,2,2,0,0,1-.18-.42L33.61,33.67,0,43.91,26.26,56a1.86,1.86,0,0,1,.81,2.66L12,83.24l62.49-19-33-7Z"/><path d="M235.4,57.09a1.85,1.85,0,0,1,1-1.14l26.26-12-31.75-9.67-6.3,21.68a1.52,1.52,0,0,1-.19.43.21.21,0,0,1,0,.06,1.54,1.54,0,0,1-.28.34l-.06,0a1.83,1.83,0,0,1-.36.26h0a2.16,2.16,0,0,1-.43.14.05.05,0,0,1,0,0l-34.87,7,62.35,19L235.59,58.61A1.85,1.85,0,0,1,235.4,57.09Z"/><path d="M187.08,49.41l-3.66,12,31.18-6.27Q200.91,51.71,187.08,49.41Z"/><path d="M49.91,55.21,79.23,61.4,75.67,49.73Q62.74,52,49.91,55.21Z"/><path d="M115.57,28.87a2.09,2.09,0,0,1,.21-1,7.16,7.16,0,0,1,.73-1.1A5.88,5.88,0,0,0,115,28.06a2.27,2.27,0,0,0-.44,1.52,2.1,2.1,0,0,0,1.25,1.72,6,6,0,0,0,3.09.58c2.56-.09,4.29-.1,5.16-.07a5.63,5.63,0,0,1,2.37.57,1.86,1.86,0,0,1,1.07,1.78,4.7,4.7,0,0,1-.06.52,2.87,2.87,0,0,0,.44-1.41,2.11,2.11,0,0,0-1.18-1.93,7.06,7.06,0,0,0-3.45-.66l-3.27,0a19.17,19.17,0,0,1-2.53-.1,2.69,2.69,0,0,1-1.38-.53A1.65,1.65,0,0,1,115.57,28.87Z"/><path d="M106.48,20.21a2.27,2.27,0,0,0-.69-1.59,1.9,1.9,0,0,0-1.51-.45,4.36,4.36,0,0,0-.67.09,2.5,2.5,0,0,1,1.73,2.27c.27,3.17.4,4.75.68,7.92a1.68,1.68,0,0,1-.59,1.53,2,2,0,0,0,1.36-.54,1.79,1.79,0,0,0,.34-1.4Z"/><path d="M114.93,35.13a1.84,1.84,0,0,1,.55-1.46,7.52,7.52,0,0,1,1.81-1.22,5.52,5.52,0,0,0-2.67.95,1.94,1.94,0,0,0-.83,1.73,2,2,0,0,0,.89,1.51,5.42,5.42,0,0,0,2.37.91C115.7,36.92,115,36.12,114.93,35.13Z"/><path d="M122.32,32.32a19.63,19.63,0,0,0-3.36.34,4.3,4.3,0,0,0-2,.88,1.87,1.87,0,0,0-.62,1.58,2,2,0,0,0,1.19,1.73,6,6,0,0,0,3.09.54,14.45,14.45,0,0,0,3.38-.48,5.24,5.24,0,0,0,2.19-1.13,2.12,2.12,0,0,0,.75-1.61C127,32.86,125.4,32.22,122.32,32.32Z"/><path d="M121.25,15.76A4.48,4.48,0,0,1,123,17.48a5.73,5.73,0,0,1,.6,2.69A5.5,5.5,0,0,1,122,24.73a4,4,0,0,0,2.8-4.33C124.71,17.69,123.54,16.13,121.25,15.76Z"/><path d="M116.06,23a4.42,4.42,0,0,1-.94-2.44,4.26,4.26,0,0,1,.83-2.71,7.29,7.29,0,0,1,2.84-2.28,7,7,0,0,0-2.65,1,4.92,4.92,0,0,0-1.74,1.78,4,4,0,0,0-.52,2.19,4.25,4.25,0,0,0,1.28,2.83A6.39,6.39,0,0,0,118.59,25,7,7,0,0,1,116.06,23Z"/><path d="M122.42,23.48a6.65,6.65,0,0,0,.62-3.39,5.07,5.07,0,0,0-.9-3.07,2.4,2.4,0,0,0-2-1.06,2.24,2.24,0,0,0-1.89,1.25,5.42,5.42,0,0,0-.62,3.08,6.33,6.33,0,0,0,.9,3.29,2.29,2.29,0,0,0,2.07,1.16A2.16,2.16,0,0,0,122.42,23.48Z"/><path d="M98.8,19.06a2.27,2.27,0,0,0-1.19-.39,2.47,2.47,0,0,0-1.19.75,1.92,1.92,0,0,1,1,.19,3.46,3.46,0,0,0,2,.61c.62-.06,1-.48,1.25-1.25a2.13,2.13,0,0,1-.72.31A2,2,0,0,1,98.8,19.06Z"/><path d="M104.52,11.43a2.65,2.65,0,0,0,1.74.42,5.14,5.14,0,0,1-.94-.79,1.51,1.51,0,0,1-.36-.93,2.05,2.05,0,0,1,1-1.88,2.66,2.66,0,0,0-1.66.61,1.53,1.53,0,0,0-.48,1.33A1.67,1.67,0,0,0,104.52,11.43Z"/><path d="M61.39,25.68a12.15,12.15,0,0,1-.32-3.86A10.75,10.75,0,0,1,62,18.3a18.49,18.49,0,0,1,2.14-3.53,11.73,11.73,0,0,0-3.63,5.28,11.28,11.28,0,0,0-.16,6.19,12.41,12.41,0,0,0,2.14,4.68,11,11,0,0,0,3.73,3.16,14.08,14.08,0,0,0,5.16,1.47A14.73,14.73,0,0,1,65,32.21,12.35,12.35,0,0,1,61.39,25.68Z"/><path d="M135.73,10.86a5.59,5.59,0,0,1-.85-.87,1.52,1.52,0,0,1-.27-1,2.06,2.06,0,0,1,1.17-1.78,2.67,2.67,0,0,0-1.7.45,1.54,1.54,0,0,0-.6,1.29,1.64,1.64,0,0,0,.56,1.3A2.77,2.77,0,0,0,135.73,10.86Z"/><path d="M93.16,22.19a3.24,3.24,0,0,0-.8-2,2.1,2.1,0,0,0-1.79-.43l-.39.09-.41.09A2.7,2.7,0,0,1,92,22.34c.39,3,.59,4.53,1,7.55a1.45,1.45,0,0,1-.08.87,3.28,3.28,0,0,1-.47.66,2.26,2.26,0,0,0,1.35-.69,2.1,2.1,0,0,0,.25-1.53C93.69,26.4,93.51,25,93.16,22.19Z"/><path d="M81.38,17.19a10.28,10.28,0,0,0-3.32-3.67,8.07,8.07,0,0,0-4.46-1.35,10.19,10.19,0,0,1,4,2.09,11.37,11.37,0,0,1,2.89,3.8,18.58,18.58,0,0,1,1.59,5.21,13.28,13.28,0,0,1,0,4.92,11.94,11.94,0,0,1-1.62,3.95,10.14,10.14,0,0,0,2-2.72,9.37,9.37,0,0,0,.88-3.16,15,15,0,0,0-.16-3.78A15.94,15.94,0,0,0,81.38,17.19Z"/><path d="M81.62,27.65a15,15,0,0,0-.13-4.44A17.46,17.46,0,0,0,80,18.31a11.88,11.88,0,0,0-2.61-3.58,8.8,8.8,0,0,0-3.41-2,7.83,7.83,0,0,0-3.85-.18,7.66,7.66,0,0,0-3,1.29A7.16,7.16,0,0,0,65,16.3a8.92,8.92,0,0,0-1,3.26,12.41,12.41,0,0,0,.28,3.92,21,21,0,0,0,1.8,5.09,13.89,13.89,0,0,0,2.68,3.72A8.63,8.63,0,0,0,72,34.36a7,7,0,0,0,3.57.24,7.29,7.29,0,0,0,2.81-1.18,7.1,7.1,0,0,0,2.1-2.34A9.3,9.3,0,0,0,81.62,27.65Z"/><path d="M129.51,17.13a2.63,2.63,0,0,1-1-.33,2.41,2.41,0,0,0-1.13-.33.84.84,0,0,0-.35.07l-.31.12a1.63,1.63,0,0,1,.36,0,2.08,2.08,0,0,1,1.27.81,1.78,1.78,0,0,0,1.15.71.81.81,0,0,0,.63-.28.86.86,0,0,0,.21-.55,1,1,0,0,0-.15-.48A.75.75,0,0,1,129.51,17.13Z"/><path d="M163.34,28.69a3.05,3.05,0,0,1,.63-1.55,9.83,9.83,0,0,1,1.59-1.54A9.11,9.11,0,0,0,163.18,27a2.72,2.72,0,0,0-1,1.85A2,2,0,0,0,163,30.6a3.43,3.43,0,0,0,1.94.89,5.22,5.22,0,0,0,1.65,0,4.63,4.63,0,0,1-2.45-.9A2,2,0,0,1,163.34,28.69Z"/><path d="M184.11,13.86a2,2,0,0,0-.49-1.29,2.79,2.79,0,0,0-1.72-.76c-.4-.06-.73-.11-1-.12,1.09.46,1.69,1,1.83,1.6a6.21,6.21,0,0,1,0,2.27L180.17,31a2.3,2.3,0,0,1-1,1.65c.81.09,1.35,0,1.63-.39a3.86,3.86,0,0,0,.6-1.65c1-5.95,1.5-8.93,2.51-14.88A12.15,12.15,0,0,0,184.11,13.86Z"/><path d="M167.14,26A3.27,3.27,0,0,0,166,28.23a1.9,1.9,0,0,0,.35,1.48,1.77,1.77,0,0,0,1.16.64,3.41,3.41,0,0,0,2.37-.78c.28-2.13.41-3.2.69-5.33A11.94,11.94,0,0,0,167.14,26Z"/><path d="M171.81,31.45a3.81,3.81,0,0,1-.16-2.09c.41-3,.62-4.56,1-7.61a3.87,3.87,0,0,0-.21-2.45,2.56,2.56,0,0,0-1.73-1,1.7,1.7,0,0,1,.82,1.08,8.18,8.18,0,0,1-.08,2.41c-.34,2.62-.52,3.93-.86,6.56a7.53,7.53,0,0,0,0,2.95,1.68,1.68,0,0,0,1.56,1.18,2.87,2.87,0,0,0,.93,0A2,2,0,0,1,171.81,31.45Z"/><path d="M193.24,22.72a7.59,7.59,0,0,0-4.56,5.72,6.29,6.29,0,0,0,1,5.05,6.48,6.48,0,0,0,4,2.72,8.29,8.29,0,0,0,3,.08,6.69,6.69,0,0,0,2.85-1.1,12.73,12.73,0,0,1-2.36.54,8.14,8.14,0,0,1-2.68-.17,6,6,0,0,1-3.91-2.6,6.15,6.15,0,0,1-.85-4.8,8.08,8.08,0,0,1,1.2-3A12.46,12.46,0,0,1,193.24,22.72Z"/><path d="M233,13.64a378.39,378.39,0,0,0-201.36,0L43.13,53.13a337.33,337.33,0,0,1,178.42,0ZM133.21,7.85a2.4,2.4,0,0,1,1-.85,2.88,2.88,0,0,1,2.62,0,2.51,2.51,0,0,1,1,.86,2.09,2.09,0,0,1,.33,1.18,2.18,2.18,0,0,1-.38,1.18,2.48,2.48,0,0,1-1,.84,2.71,2.71,0,0,1-1.31.3,2.62,2.62,0,0,1-1.81-.72,2.17,2.17,0,0,1-.4-2.82ZM103.46,9.09a2.38,2.38,0,0,1,.88-.93,2.81,2.81,0,0,1,1.27-.42,2.88,2.88,0,0,1,1.34.2,2.54,2.54,0,0,1,1,.77,2.08,2.08,0,0,1,.43,1.14,2.05,2.05,0,0,1-.26,1.21,2.48,2.48,0,0,1-.89.93,2.9,2.9,0,0,1-1.28.42,2.53,2.53,0,0,1-1.86-.55,2.19,2.19,0,0,1-.91-1.58A2.26,2.26,0,0,1,103.46,9.09ZM86.05,26.15a12.18,12.18,0,0,1-2.24,4.35A13.91,13.91,0,0,1,80,33.8a16,16,0,0,1-5.07,1.89,14.39,14.39,0,0,1-5.1.11,12.55,12.55,0,0,1-4.5-1.62,11.62,11.62,0,0,1-3.47-3.24,12.81,12.81,0,0,1-2.08-4.59,12.54,12.54,0,0,1-.37-2.86,11.23,11.23,0,0,1,.3-2.72,10.79,10.79,0,0,1,1-2.58,11.57,11.57,0,0,1,1.58-2.3,11.84,11.84,0,0,1,2.25-2,13.19,13.19,0,0,1,2.83-1.44,20.39,20.39,0,0,1,3.41-.94,15.64,15.64,0,0,1,5.85-.11,12.32,12.32,0,0,1,4.79,1.87,11.37,11.37,0,0,1,5,7.88A11.92,11.92,0,0,1,86.05,26.15ZM100.81,20a1.81,1.81,0,0,1-1.33.76,3,3,0,0,1-1.63-.31l-.41-.24a2.68,2.68,0,0,0-.38-.19.64.64,0,0,0-.34,0,1.15,1.15,0,0,0-.64.32,7,7,0,0,0-.68.76l.95,8a2.22,2.22,0,0,0,.4,1.2,1.12,1.12,0,0,0,.83.37,12.84,12.84,0,0,0,1.86-.12l.1.92c-3.71.4-5.56.63-9.26,1.15l-.13-.91.47-.06c1.33-.19,1.93-.78,1.8-1.8-.4-3-.59-4.47-1-7.45-.17-1.27-1.14-2-2.91-2.27l-.08-.57c2.22-1,3.33-1.5,5.58-2.47l.89-.11c.12,1,.18,1.54.31,2.56a19.4,19.4,0,0,1,1.89-2.25,3,3,0,0,1,1.74-.75,2.17,2.17,0,0,1,1.59.43,2,2,0,0,1,.77,1.43A2.3,2.3,0,0,1,100.81,20Zm2.92,11c0-.37,0-.55-.08-.92a2.41,2.41,0,0,0,1.46-.55,1.8,1.8,0,0,0,.3-1.41c-.26-3.06-.4-4.59-.67-7.65a2,2,0,0,0-.64-1.29,3,3,0,0,0-1.56-.78l-.05-.53c2.1-.89,3.15-1.33,5.27-2.18l.74-.06.9,12.07a3.2,3.2,0,0,0,.26,1.15.92.92,0,0,0,.66.49,5.58,5.58,0,0,0,1.43.09c0,.37,0,.55.06.92C108.58,30.62,107,30.76,103.73,31.06ZM130.51,18.3a1.45,1.45,0,0,1-1.72.24,3.37,3.37,0,0,1-.69-.58,4.93,4.93,0,0,0-.63-.58,1,1,0,0,0-.59-.19,1.48,1.48,0,0,0-.7.27,4.72,4.72,0,0,1,1.24,3,4.44,4.44,0,0,1-.78,2.54,5.57,5.57,0,0,1-2.12,1.9,7,7,0,0,1-1.69.6,17,17,0,0,1-1.8.25,13.1,13.1,0,0,0-3.1.62,1.33,1.33,0,0,0-1.06,1.35c0,.82.8,1.2,2.24,1.12l1.31-.07,1.57-.07a10.64,10.64,0,0,1,5.13.81,3.27,3.27,0,0,1,1.72,3.1,4.69,4.69,0,0,1-.51,2.17,4.82,4.82,0,0,1-1.58,1.74A8.89,8.89,0,0,1,124,37.67a17.57,17.57,0,0,1-3.91.54,11,11,0,0,1-5-.68,2.74,2.74,0,0,1-1.86-2.33,2.58,2.58,0,0,1,.72-2,3.72,3.72,0,0,1,2.43-1.07c-1.51-.56-2.31-1.43-2.38-2.62a3,3,0,0,1,.92-2.23,8,8,0,0,1,2.9-1.84c-2.87-1-4.39-2.62-4.53-4.86a4.64,4.64,0,0,1,1.63-3.81,7.28,7.28,0,0,1,4.81-1.75,8.77,8.77,0,0,1,5.81,1.76,5,5,0,0,1,1.45-.94,4.07,4.07,0,0,1,1.54-.35,2.76,2.76,0,0,1,1.71.51,1.58,1.58,0,0,1,.68,1.3A1.35,1.35,0,0,1,130.51,18.3Zm9,11.55c-3.24-.08-4.86-.11-8.1-.1v-.92a2.37,2.37,0,0,0,1.5-.42,1.76,1.76,0,0,0,.44-1.37l0-7.68A2,2,0,0,0,132.9,18a3,3,0,0,0-1.48-.93v-.53c2.17-.7,3.26-1,5.45-1.68h.74c-.09,4.84-.14,7.26-.23,12.1a3.32,3.32,0,0,0,.14,1.17,1,1,0,0,0,.62.55,5.44,5.44,0,0,0,1.41.22Zm20.22,1.24c-3.33-.32-5-.45-8.34-.68,0-.37,0-.55.06-.92a3,3,0,0,0,1.65-.23c.36-.2.57-.67.62-1.4l.6-8.06a3.44,3.44,0,0,0-.19-1.52,2,2,0,0,0-.8-1,2.84,2.84,0,0,0-1.39-.41,4.33,4.33,0,0,0-2.05.36,11,11,0,0,0-2.26,1.38c-.18,3.53-.28,5.29-.46,8.82a2.11,2.11,0,0,0,.2,1.17,1.08,1.08,0,0,0,.68.54,8.47,8.47,0,0,0,1.27.21l-.06.92c-3.35-.2-5-.28-8.37-.39,0-.36,0-.55,0-.92a3.82,3.82,0,0,0,1.65-.22c.39-.17.59-.58.62-1.24.12-3,.17-4.44.29-7.41a2.79,2.79,0,0,0-.47-1.8,3.42,3.42,0,0,0-1.72-1.09l0-.55c2.31-.6,3.47-.89,5.8-1.44l.7,0c-.05.89-.07,1.33-.12,2.22A14.9,14.9,0,0,1,150.62,16a7.57,7.57,0,0,1,3.14-.37c3.42.25,5,2,4.72,5.1s-.4,4.56-.67,7.6c-.06.73.08,1.2.42,1.42a3.72,3.72,0,0,0,1.6.43C159.8,30.54,159.78,30.72,159.75,31.09ZM174,32.88a3.46,3.46,0,0,1-1.75.17,2.88,2.88,0,0,1-1.71-.73,2.73,2.73,0,0,1-.7-1.64,7.7,7.7,0,0,1-4.95,1.41A4,4,0,0,1,162.39,31a2.7,2.7,0,0,1-.77-2.22,3.17,3.17,0,0,1,.81-1.89,5.85,5.85,0,0,1,1.75-1.27,32,32,0,0,1,3.11-1.24c1.38-.49,2.52-.89,3.42-1.24.13-1,.19-1.5.32-2.51a2.35,2.35,0,0,0-.34-1.78,2.24,2.24,0,0,0-1.6-.79,3.07,3.07,0,0,0-1.57.14c-.39.18-.6.39-.63.65a2.84,2.84,0,0,0,.18.5,1.65,1.65,0,0,1,.14.81,1.63,1.63,0,0,1-.78,1.2,2.28,2.28,0,0,1-1.64.38,2.21,2.21,0,0,1-1.4-.59A1.3,1.3,0,0,1,163,20,2.37,2.37,0,0,1,164,18.43a6.86,6.86,0,0,1,2.66-1.08,11.29,11.29,0,0,1,3.6-.1,7.63,7.63,0,0,1,2.58.79,4.32,4.32,0,0,1,1.75,1.63A3.46,3.46,0,0,1,175,22l-1.2,8.41c-.1.68,0,1,.46,1.1a1.37,1.37,0,0,0,1-.42l.53.81A8.52,8.52,0,0,1,174,32.88Zm9.6,0c.14.36.63.62,1.45.77l.47.09-.17.9c-3.41-.63-5.12-.92-8.54-1.45.05-.36.08-.55.14-.91l.41.06a2.13,2.13,0,0,0,1.53-.18,1.6,1.6,0,0,0,.65-1.18c1-6.26,1.54-9.4,2.56-15.66a3.91,3.91,0,0,0-.12-2,3.75,3.75,0,0,0-1.85-1.56l.1-.65c2.51-.33,3.77-.49,6.31-.77l.72.12c-1.46,8.25-2.19,12.38-3.64,20.62A3.74,3.74,0,0,0,183.64,32.92Zm19.06-3.63c-4.22-1-6.34-1.48-10.59-2.34a7.93,7.93,0,0,0,0,3,5.52,5.52,0,0,0,2.67,3.62,6.62,6.62,0,0,0,1.8.73,6.33,6.33,0,0,0,4.3-.59l.57.67a8.42,8.42,0,0,1-2.36,1.81,7.57,7.57,0,0,1-2.63.77,8.74,8.74,0,0,1-2.74-.15,7.58,7.58,0,0,1-3.31-1.6,6.72,6.72,0,0,1-2.07-3,7.48,7.48,0,0,1-.24-3.92,8.2,8.2,0,0,1,1.18-3,8,8,0,0,1,2.15-2.22,7.59,7.59,0,0,1,2.81-1.22,7.35,7.35,0,0,1,3.13,0,7.71,7.71,0,0,1,2.92,1.3,5.61,5.61,0,0,1,1.92,2.22,5.26,5.26,0,0,1,.51,1.81A11.49,11.49,0,0,1,202.7,29.29Z"/><path d="M197.88,23a3.58,3.58,0,0,1,1.36,1.6,4.38,4.38,0,0,1,0,2.42l-.08.33,1.23.28a4.25,4.25,0,0,0-.19-2.88A4.26,4.26,0,0,0,197.88,23Z"/><path d="M197.94,23.55a2.85,2.85,0,0,0-1.4-.72,2.92,2.92,0,0,0-2.53.62,4.4,4.4,0,0,0-1.58,2.47c2.46.5,3.69.76,6.15,1.31l.12-.54a3.92,3.92,0,0,0,0-1.77A2.86,2.86,0,0,0,197.94,23.55Z"/><path d="M133.18,17a5.82,5.82,0,0,0-.67,0,2.5,2.5,0,0,1,1.5,2.42c0,3.18,0,4.77-.07,8a1.67,1.67,0,0,1-.72,1.47,2,2,0,0,0,1.4-.41,1.77,1.77,0,0,0,.46-1.36l.1-7.86a2.34,2.34,0,0,0-.54-1.65A1.93,1.93,0,0,0,133.18,17Z"/><path d="M153.32,16.6a2.66,2.66,0,0,1,1.33,1.16,3.47,3.47,0,0,1,.3,1.91c-.26,3.29-.38,4.94-.63,8.23,0,.35-.06.6-.09.76a1.6,1.6,0,0,1-.17.46,2.46,2.46,0,0,1-.49.52l.33,0a1.21,1.21,0,0,0,1.25-.55,4.94,4.94,0,0,0,.45-1.91l.6-7.37a3.15,3.15,0,0,0-.52-2.24A3.32,3.32,0,0,0,153.32,16.6Z"/><path d="M143.21,17.21a2.28,2.28,0,0,0-.32,0,1.31,1.31,0,0,1-.31,0,2.32,2.32,0,0,1,1.53,2.32c-.12,3.08-.19,4.61-.31,7.68a3.84,3.84,0,0,1-.16,1.08,2.06,2.06,0,0,1-.53.72,1.66,1.66,0,0,0,1.79-1.75l.35-8a1.86,1.86,0,0,0-.57-1.46A2.12,2.12,0,0,0,143.21,17.21Z"/><path d="M163.55,20.07a.82.82,0,0,0,.31.66,1.31,1.31,0,0,0,.83.38,1.92,1.92,0,0,0,1.41-.31,1.36,1.36,0,0,1-1-.35.84.84,0,0,1-.26-.7,1.49,1.49,0,0,1,.4-.89,12.3,12.3,0,0,1,1.2-1.05,8.29,8.29,0,0,0-2.1,1A1.8,1.8,0,0,0,163.55,20.07Z"/></g></g></svg>