<?xml version="1.0" encoding="utf-8"?>
<svg xmlns="http://www.w3.org/2000/svg" xmlns:xlink="http://www.w3.org/1999/xlink" style="margin: auto; background: none; display: block; shape-rendering: auto;" width="200px" height="200px" viewBox="0 0 100 100" preserveAspectRatio="xMidYMid" fill="#ffffff">
<g transform="rotate(0 50 50)">
  <rect x="47" y="17.5" rx="3" ry="0.5" width="6" height="1">
    <animate attributeName="opacity" values="1;0" keyTimes="0;1" dur="1s" begin="-0.9791666666666666s" repeatCount="indefinite"></animate>
  </rect>
</g><g transform="rotate(7.5 50 50)">
  <rect x="47" y="17.5" rx="3" ry="0.5" width="6" height="1">
    <animate attributeName="opacity" values="1;0" keyTimes="0;1" dur="1s" begin="-0.9583333333333334s" repeatCount="indefinite"></animate>
  </rect>
</g><g transform="rotate(15 50 50)">
  <rect x="47" y="17.5" rx="3" ry="0.5" width="6" height="1">
    <animate attributeName="opacity" values="1;0" keyTimes="0;1" dur="1s" begin="-0.9375s" repeatCount="indefinite"></animate>
  </rect>
</g><g transform="rotate(22.5 50 50)">
  <rect x="47" y="17.5" rx="3" ry="0.5" width="6" height="1">
    <animate attributeName="opacity" values="1;0" keyTimes="0;1" dur="1s" begin="-0.9166666666666666s" repeatCount="indefinite"></animate>
  </rect>
</g><g transform="rotate(30 50 50)">
  <rect x="47" y="17.5" rx="3" ry="0.5" width="6" height="1">
    <animate attributeName="opacity" values="1;0" keyTimes="0;1" dur="1s" begin="-0.8958333333333334s" repeatCount="indefinite"></animate>
  </rect>
</g><g transform="rotate(37.5 50 50)">
  <rect x="47" y="17.5" rx="3" ry="0.5" width="6" height="1">
    <animate attributeName="opacity" values="1;0" keyTimes="0;1" dur="1s" begin="-0.875s" repeatCount="indefinite"></animate>
  </rect>
</g><g transform="rotate(45 50 50)">
  <rect x="47" y="17.5" rx="3" ry="0.5" width="6" height="1">
    <animate attributeName="opacity" values="1;0" keyTimes="0;1" dur="1s" begin="-0.8541666666666666s" repeatCount="indefinite"></animate>
  </rect>
</g><g transform="rotate(52.5 50 50)">
  <rect x="47" y="17.5" rx="3" ry="0.5" width="6" height="1">
    <animate attributeName="opacity" values="1;0" keyTimes="0;1" dur="1s" begin="-0.8333333333333334s" repeatCount="indefinite"></animate>
  </rect>
</g><g transform="rotate(60 50 50)">
  <rect x="47" y="17.5" rx="3" ry="0.5" width="6" height="1">
    <animate attributeName="opacity" values="1;0" keyTimes="0;1" dur="1s" begin="-0.8125s" repeatCount="indefinite"></animate>
  </rect>
</g><g transform="rotate(67.5 50 50)">
  <rect x="47" y="17.5" rx="3" ry="0.5" width="6" height="1">
    <animate attributeName="opacity" values="1;0" keyTimes="0;1" dur="1s" begin="-0.7916666666666666s" repeatCount="indefinite"></animate>
  </rect>
</g><g transform="rotate(75 50 50)">
  <rect x="47" y="17.5" rx="3" ry="0.5" width="6" height="1">
    <animate attributeName="opacity" values="1;0" keyTimes="0;1" dur="1s" begin="-0.7708333333333334s" repeatCount="indefinite"></animate>
  </rect>
</g><g transform="rotate(82.5 50 50)">
  <rect x="47" y="17.5" rx="3" ry="0.5" width="6" height="1">
    <animate attributeName="opacity" values="1;0" keyTimes="0;1" dur="1s" begin="-0.75s" repeatCount="indefinite"></animate>
  </rect>
</g><g transform="rotate(90 50 50)">
  <rect x="47" y="17.5" rx="3" ry="0.5" width="6" height="1">
    <animate attributeName="opacity" values="1;0" keyTimes="0;1" dur="1s" begin="-0.7291666666666666s" repeatCount="indefinite"></animate>
  </rect>
</g><g transform="rotate(97.5 50 50)">
  <rect x="47" y="17.5" rx="3" ry="0.5" width="6" height="1">
    <animate attributeName="opacity" values="1;0" keyTimes="0;1" dur="1s" begin="-0.7083333333333334s" repeatCount="indefinite"></animate>
  </rect>
</g><g transform="rotate(105 50 50)">
  <rect x="47" y="17.5" rx="3" ry="0.5" width="6" height="1">
    <animate attributeName="opacity" values="1;0" keyTimes="0;1" dur="1s" begin="-0.6875s" repeatCount="indefinite"></animate>
  </rect>
</g><g transform="rotate(112.5 50 50)">
  <rect x="47" y="17.5" rx="3" ry="0.5" width="6" height="1">
    <animate attributeName="opacity" values="1;0" keyTimes="0;1" dur="1s" begin="-0.6666666666666666s" repeatCount="indefinite"></animate>
  </rect>
</g><g transform="rotate(120 50 50)">
  <rect x="47" y="17.5" rx="3" ry="0.5" width="6" height="1">
    <animate attributeName="opacity" values="1;0" keyTimes="0;1" dur="1s" begin="-0.6458333333333334s" repeatCount="indefinite"></animate>
  </rect>
</g><g transform="rotate(127.5 50 50)">
  <rect x="47" y="17.5" rx="3" ry="0.5" width="6" height="1">
    <animate attributeName="opacity" values="1;0" keyTimes="0;1" dur="1s" begin="-0.625s" repeatCount="indefinite"></animate>
  </rect>
</g><g transform="rotate(135 50 50)">
  <rect x="47" y="17.5" rx="3" ry="0.5" width="6" height="1">
    <animate attributeName="opacity" values="1;0" keyTimes="0;1" dur="1s" begin="-0.6041666666666666s" repeatCount="indefinite"></animate>
  </rect>
</g><g transform="rotate(142.5 50 50)">
  <rect x="47" y="17.5" rx="3" ry="0.5" width="6" height="1">
    <animate attributeName="opacity" values="1;0" keyTimes="0;1" dur="1s" begin="-0.5833333333333334s" repeatCount="indefinite"></animate>
  </rect>
</g><g transform="rotate(150 50 50)">
  <rect x="47" y="17.5" rx="3" ry="0.5" width="6" height="1">
    <animate attributeName="opacity" values="1;0" keyTimes="0;1" dur="1s" begin="-0.5625s" repeatCount="indefinite"></animate>
  </rect>
</g><g transform="rotate(157.5 50 50)">
  <rect x="47" y="17.5" rx="3" ry="0.5" width="6" height="1">
    <animate attributeName="opacity" values="1;0" keyTimes="0;1" dur="1s" begin="-0.5416666666666666s" repeatCount="indefinite"></animate>
  </rect>
</g><g transform="rotate(165 50 50)">
  <rect x="47" y="17.5" rx="3" ry="0.5" width="6" height="1">
    <animate attributeName="opacity" values="1;0" keyTimes="0;1" dur="1s" begin="-0.5208333333333334s" repeatCount="indefinite"></animate>
  </rect>
</g><g transform="rotate(172.5 50 50)">
  <rect x="47" y="17.5" rx="3" ry="0.5" width="6" height="1">
    <animate attributeName="opacity" values="1;0" keyTimes="0;1" dur="1s" begin="-0.5s" repeatCount="indefinite"></animate>
  </rect>
</g><g transform="rotate(180 50 50)">
  <rect x="47" y="17.5" rx="3" ry="0.5" width="6" height="1">
    <animate attributeName="opacity" values="1;0" keyTimes="0;1" dur="1s" begin="-0.4791666666666667s" repeatCount="indefinite"></animate>
  </rect>
</g><g transform="rotate(187.5 50 50)">
  <rect x="47" y="17.5" rx="3" ry="0.5" width="6" height="1">
    <animate attributeName="opacity" values="1;0" keyTimes="0;1" dur="1s" begin="-0.4583333333333333s" repeatCount="indefinite"></animate>
  </rect>
</g><g transform="rotate(195 50 50)">
  <rect x="47" y="17.5" rx="3" ry="0.5" width="6" height="1">
    <animate attributeName="opacity" values="1;0" keyTimes="0;1" dur="1s" begin="-0.4375s" repeatCount="indefinite"></animate>
  </rect>
</g><g transform="rotate(202.5 50 50)">
  <rect x="47" y="17.5" rx="3" ry="0.5" width="6" height="1">
    <animate attributeName="opacity" values="1;0" keyTimes="0;1" dur="1s" begin="-0.4166666666666667s" repeatCount="indefinite"></animate>
  </rect>
</g><g transform="rotate(210 50 50)">
  <rect x="47" y="17.5" rx="3" ry="0.5" width="6" height="1">
    <animate attributeName="opacity" values="1;0" keyTimes="0;1" dur="1s" begin="-0.3958333333333333s" repeatCount="indefinite"></animate>
  </rect>
</g><g transform="rotate(217.5 50 50)">
  <rect x="47" y="17.5" rx="3" ry="0.5" width="6" height="1">
    <animate attributeName="opacity" values="1;0" keyTimes="0;1" dur="1s" begin="-0.375s" repeatCount="indefinite"></animate>
  </rect>
</g><g transform="rotate(225 50 50)">
  <rect x="47" y="17.5" rx="3" ry="0.5" width="6" height="1">
    <animate attributeName="opacity" values="1;0" keyTimes="0;1" dur="1s" begin="-0.3541666666666667s" repeatCount="indefinite"></animate>
  </rect>
</g><g transform="rotate(232.5 50 50)">
  <rect x="47" y="17.5" rx="3" ry="0.5" width="6" height="1">
    <animate attributeName="opacity" values="1;0" keyTimes="0;1" dur="1s" begin="-0.3333333333333333s" repeatCount="indefinite"></animate>
  </rect>
</g><g transform="rotate(240 50 50)">
  <rect x="47" y="17.5" rx="3" ry="0.5" width="6" height="1">
    <animate attributeName="opacity" values="1;0" keyTimes="0;1" dur="1s" begin="-0.3125s" repeatCount="indefinite"></animate>
  </rect>
</g><g transform="rotate(247.5 50 50)">
  <rect x="47" y="17.5" rx="3" ry="0.5" width="6" height="1">
    <animate attributeName="opacity" values="1;0" keyTimes="0;1" dur="1s" begin="-0.2916666666666667s" repeatCount="indefinite"></animate>
  </rect>
</g><g transform="rotate(255 50 50)">
  <rect x="47" y="17.5" rx="3" ry="0.5" width="6" height="1">
    <animate attributeName="opacity" values="1;0" keyTimes="0;1" dur="1s" begin="-0.2708333333333333s" repeatCount="indefinite"></animate>
  </rect>
</g><g transform="rotate(262.5 50 50)">
  <rect x="47" y="17.5" rx="3" ry="0.5" width="6" height="1">
    <animate attributeName="opacity" values="1;0" keyTimes="0;1" dur="1s" begin="-0.25s" repeatCount="indefinite"></animate>
  </rect>
</g><g transform="rotate(270 50 50)">
  <rect x="47" y="17.5" rx="3" ry="0.5" width="6" height="1">
    <animate attributeName="opacity" values="1;0" keyTimes="0;1" dur="1s" begin="-0.22916666666666666s" repeatCount="indefinite"></animate>
  </rect>
</g><g transform="rotate(277.5 50 50)">
  <rect x="47" y="17.5" rx="3" ry="0.5" width="6" height="1">
    <animate attributeName="opacity" values="1;0" keyTimes="0;1" dur="1s" begin="-0.20833333333333334s" repeatCount="indefinite"></animate>
  </rect>
</g><g transform="rotate(285 50 50)">
  <rect x="47" y="17.5" rx="3" ry="0.5" width="6" height="1">
    <animate attributeName="opacity" values="1;0" keyTimes="0;1" dur="1s" begin="-0.1875s" repeatCount="indefinite"></animate>
  </rect>
</g><g transform="rotate(292.5 50 50)">
  <rect x="47" y="17.5" rx="3" ry="0.5" width="6" height="1">
    <animate attributeName="opacity" values="1;0" keyTimes="0;1" dur="1s" begin="-0.16666666666666666s" repeatCount="indefinite"></animate>
  </rect>
</g><g transform="rotate(300 50 50)">
  <rect x="47" y="17.5" rx="3" ry="0.5" width="6" height="1">
    <animate attributeName="opacity" values="1;0" keyTimes="0;1" dur="1s" begin="-0.14583333333333334s" repeatCount="indefinite"></animate>
  </rect>
</g><g transform="rotate(307.5 50 50)">
  <rect x="47" y="17.5" rx="3" ry="0.5" width="6" height="1">
    <animate attributeName="opacity" values="1;0" keyTimes="0;1" dur="1s" begin="-0.125s" repeatCount="indefinite"></animate>
  </rect>
</g><g transform="rotate(315 50 50)">
  <rect x="47" y="17.5" rx="3" ry="0.5" width="6" height="1">
    <animate attributeName="opacity" values="1;0" keyTimes="0;1" dur="1s" begin="-0.10416666666666667s" repeatCount="indefinite"></animate>
  </rect>
</g><g transform="rotate(322.5 50 50)">
  <rect x="47" y="17.5" rx="3" ry="0.5" width="6" height="1">
    <animate attributeName="opacity" values="1;0" keyTimes="0;1" dur="1s" begin="-0.08333333333333333s" repeatCount="indefinite"></animate>
  </rect>
</g><g transform="rotate(330 50 50)">
  <rect x="47" y="17.5" rx="3" ry="0.5" width="6" height="1">
    <animate attributeName="opacity" values="1;0" keyTimes="0;1" dur="1s" begin="-0.0625s" repeatCount="indefinite"></animate>
  </rect>
</g><g transform="rotate(337.5 50 50)">
  <rect x="47" y="17.5" rx="3" ry="0.5" width="6" height="1">
    <animate attributeName="opacity" values="1;0" keyTimes="0;1" dur="1s" begin="-0.041666666666666664s" repeatCount="indefinite"></animate>
  </rect>
</g><g transform="rotate(345 50 50)">
  <rect x="47" y="17.5" rx="3" ry="0.5" width="6" height="1">
    <animate attributeName="opacity" values="1;0" keyTimes="0;1" dur="1s" begin="-0.020833333333333332s" repeatCount="indefinite"></animate>
  </rect>
</g><g transform="rotate(352.5 50 50)">
  <rect x="47" y="17.5" rx="3" ry="0.5" width="6" height="1">
    <animate attributeName="opacity" values="1;0" keyTimes="0;1" dur="1s" begin="0s" repeatCount="indefinite"></animate>
  </rect>
</g>
<!-- [ldio] generated by https://loading.io/ --></svg>