<svg xmlns="http://www.w3.org/2000/svg" viewBox="0 0 316.93 147.64"><title>Fichier 15</title><g id="Calque_2" data-name="Calque 2"><g id="Calque_1-2" data-name="Calque 1"><path d="M40.92,131.46l0,0a1.93,1.93,0,0,1-.27-.3s0,0,0,0,0,0,0,0a2.69,2.69,0,0,1-.16-.29l0-.08a1.64,1.64,0,0,1-.1-.38v-.08a1.69,1.69,0,0,1,0-.32s0-.07,0-.1a2.59,2.59,0,0,1,.09-.4l8.71-23.91H14.35l15.22,20a1.85,1.85,0,0,1-.44,2.67L0,147.64H66.67l-25.55-16A1.3,1.3,0,0,1,40.92,131.46Z" fill="#4e76cd"/><path d="M287,20.78a1.81,1.81,0,0,1,.8-1.24L316.93,0H250l25.56,16.84.14.12.07.05a1.93,1.93,0,0,1,.27.3v0s0,0,0,.05a1.64,1.64,0,0,1,.16.29l0,.08a1.78,1.78,0,0,1,.1.38.15.15,0,0,0,0,.07,1.82,1.82,0,0,1,0,.33s0,.07,0,.11a1.83,1.83,0,0,1-.09.39l-8.42,23.13h34.72L287.36,22.21A1.85,1.85,0,0,1,287,20.78Z" fill="#4e76cd"/><polygon points="54.58 66.12 107.66 82.31 262.06 82.31 208.99 66.12 54.58 66.12" fill="#4e76cd"/><polygon points="244.74 0.99 239.08 16.53 268.33 16.53 244.74 0.99" fill="#4e76cd"/><polygon points="72.17 146.7 77.56 131.9 48.57 131.9 72.17 146.7" fill="#4e76cd"/><path d="M189.18,104.37a7.38,7.38,0,0,0-1.73,1.14,1.74,1.74,0,0,0-.6,1.29.77.77,0,0,0,.33.59,1.1,1.1,0,0,0,.76.28,1.66,1.66,0,0,0,1.21-.44,1.12,1.12,0,0,1-.87-.23.81.81,0,0,1-.3-.63,1.5,1.5,0,0,1,.27-.88A12.9,12.9,0,0,1,189.18,104.37Z" fill="#4e76cd"/><path d="M178.88,105.38a3.49,3.49,0,0,1,.38,1.78V115a6.79,6.79,0,0,1,0,.72,1.39,1.39,0,0,1-.13.44,2.14,2.14,0,0,1-.4.53h.3a1.08,1.08,0,0,0,1.1-.61,4.93,4.93,0,0,0,.26-1.83v-7a3.15,3.15,0,0,0-.6-2.08,2.8,2.8,0,0,0-2.12-.78A2.37,2.37,0,0,1,178.88,105.38Z" fill="#4e76cd"/><path d="M193.75,105.24a8.11,8.11,0,0,1,.21,2.27v6.27a7.2,7.2,0,0,0,.4,2.77,1.52,1.52,0,0,0,1.55.91,2.41,2.41,0,0,0,.84-.12,1.84,1.84,0,0,1-1.35-.77,3.69,3.69,0,0,1-.39-1.93v-7.29a4,4,0,0,0-.47-2.27,2.22,2.22,0,0,0-1.61-.76A1.6,1.6,0,0,1,193.75,105.24Z" fill="#4e76cd"/><path d="M168.84,105.47l-.29,0-.27,0a2.21,2.21,0,0,1,1.43,2.14V115a3.66,3.66,0,0,1-.1,1,2,2,0,0,1-.45.69,1.53,1.53,0,0,0,1.55-1.72v-7.57a1.86,1.86,0,0,0-.56-1.36A1.78,1.78,0,0,0,168.84,105.47Z" fill="#4e76cd"/><path d="M155.78,105.86c.35.46.68.68,1,.68a.63.63,0,0,0,.55-.25.84.84,0,0,0,.19-.52,1.09,1.09,0,0,0-.12-.46.67.67,0,0,1-.59.28,2.18,2.18,0,0,1-.89-.32,2.12,2.12,0,0,0-1-.33.81.81,0,0,0-.31.06l-.28.12a1,1,0,0,1,.32,0C154.94,105.09,155.31,105.34,155.78,105.86Z" fill="#4e76cd"/><path d="M162.2,99.63a5.08,5.08,0,0,1-.74-.82,1.6,1.6,0,0,1-.24-.91,2,2,0,0,1,1-1.7,2.16,2.16,0,0,0-1.44.44,1.55,1.55,0,0,0-.51,1.22,1.67,1.67,0,0,0,.49,1.23A2.18,2.18,0,0,0,162.2,99.63Z" fill="#4e76cd"/><path d="M160,105.43a3.2,3.2,0,0,0-.59,0,2.38,2.38,0,0,1,1.34,2.28v7.54a1.61,1.61,0,0,1-.65,1.39,1.45,1.45,0,0,0,1.68-1.69v-7.45a2.31,2.31,0,0,0-.49-1.56A1.68,1.68,0,0,0,160,105.43Z" fill="#4e76cd"/><path d="M218.32,108.13v-.52A3.8,3.8,0,0,0,218,106a2.58,2.58,0,0,0-.91-1.11,2.37,2.37,0,0,0-1.32-.38,2.5,2.5,0,0,0-2.05,1.07,4.44,4.44,0,0,0-.92,2.59Z" fill="#4e76cd"/><path d="M215.81,117.43a7.13,7.13,0,0,0,2.71-.55,5.92,5.92,0,0,0,2.29-1.62,11.15,11.15,0,0,1-2,1,6.63,6.63,0,0,1-2.4.39,5.22,5.22,0,0,1-3.94-1.65,5.93,5.93,0,0,1-1.58-4.3,8.16,8.16,0,0,1,.52-3,12.7,12.7,0,0,1,1.49-2.69,7.48,7.48,0,0,0-3,6.16,6.1,6.1,0,0,0,1.77,4.52A5.65,5.65,0,0,0,215.81,117.43Z" fill="#4e76cd"/><path d="M151.12,105.81a6.1,6.1,0,0,1,.47,2.58,5.35,5.35,0,0,1-1.6,4.26q2.59-.87,2.6-4c0-2.57-1-4.06-3-4.49A4.24,4.24,0,0,1,151.12,105.81Z" fill="#4e76cd"/><path d="M218.38,105.57a4.39,4.39,0,0,1,.45,2.24v.32h1.11a4.48,4.48,0,0,0-.73-2.63,3.68,3.68,0,0,0-2.29-1.13A3.14,3.14,0,0,1,218.38,105.57Z" fill="#4e76cd"/><path d="M203.19,97.21a2.19,2.19,0,0,0-1.55-.46,6.35,6.35,0,0,0-.84,0c1,.27,1.56.68,1.75,1.22a6.19,6.19,0,0,1,.3,2.12V115a2.22,2.22,0,0,1-.65,1.69c.74,0,1.2-.23,1.39-.61a3.7,3.7,0,0,0,.29-1.64v-14.3a12.13,12.13,0,0,0-.11-1.8A1.82,1.82,0,0,0,203.19,97.21Z" fill="#4e76cd"/><path d="M189.8,114.24a1.83,1.83,0,0,0,.48,1.35,1.51,1.51,0,0,0,1.11.48,3,3,0,0,0,2.05-1V110A11.17,11.17,0,0,0,190.6,112,3.27,3.27,0,0,0,189.8,114.24Z" fill="#4e76cd"/><path d="M187.47,115a3.05,3.05,0,0,1,.42-1.54,9.44,9.44,0,0,1,1.26-1.61,8.27,8.27,0,0,0-2,1.53,2.64,2.64,0,0,0-.71,1.84,2,2,0,0,0,.85,1.61,3,3,0,0,0,1.85.64,4.45,4.45,0,0,0,1.49-.19,4.08,4.08,0,0,1-2.31-.59A1.92,1.92,0,0,1,187.47,115Z" fill="#4e76cd"/><path d="M134.66,105.43a3.13,3.13,0,0,0-.59,0,2.37,2.37,0,0,1,1.33,2.28v7.54a1.61,1.61,0,0,1-.65,1.39,1.8,1.8,0,0,0,1.28-.39,1.78,1.78,0,0,0,.4-1.3v-7.45a2.26,2.26,0,0,0-.49-1.56A1.67,1.67,0,0,0,134.66,105.43Z" fill="#4e76cd"/><path d="M112.23,98.47a11.72,11.72,0,0,1,1.89,4,19.69,19.69,0,0,1,.64,5.13,12.93,12.93,0,0,1-.73,4.59,10.82,10.82,0,0,1-2,3.44,9.29,9.29,0,0,0,2.16-2.23,9.17,9.17,0,0,0,1.23-2.83,14.87,14.87,0,0,0,.39-3.56,16.71,16.71,0,0,0-.78-5.22,10.25,10.25,0,0,0-2.29-3.94,6.75,6.75,0,0,0-3.53-2A9.24,9.24,0,0,1,112.23,98.47Z" fill="#4e76cd"/><path d="M122.56,105.5l-.35,0-.36,0a2.57,2.57,0,0,1,1.68,2.54v7.22a1.51,1.51,0,0,1-.17.8,3.15,3.15,0,0,1-.51.56,1.57,1.57,0,0,0,1.7-1.88v-6.7a3.24,3.24,0,0,0-.48-2A1.77,1.77,0,0,0,122.56,105.5Z" fill="#4e76cd"/><path d="M136.83,99.63a4.76,4.76,0,0,1-.75-.82,1.68,1.68,0,0,1-.23-.91,2,2,0,0,1,1-1.7,2.14,2.14,0,0,0-1.44.44,1.55,1.55,0,0,0-.51,1.22,1.63,1.63,0,0,0,.49,1.23A2.16,2.16,0,0,0,136.83,99.63Z" fill="#4e76cd"/><path d="M130.2,106.93c.55,0,1-.36,1.2-1.07a1.62,1.62,0,0,1-.65.22,1.7,1.7,0,0,1-.95-.31,1.75,1.75,0,0,0-1-.49,2.15,2.15,0,0,0-1.11.58,1.58,1.58,0,0,1,.86.29A2.88,2.88,0,0,0,130.2,106.93Z" fill="#4e76cd"/><path d="M44.76,128.18H256.53L271.88,86H60.11ZM210,108.13a7.82,7.82,0,0,1,1.47-2.46,6.91,6.91,0,0,1,2.19-1.66,6.19,6.19,0,0,1,2.66-.59A6.53,6.53,0,0,1,219,104a5.14,5.14,0,0,1,2.06,1.65,5,5,0,0,1,.8,1.56,12.57,12.57,0,0,1,.39,1.93h-9.59a7.7,7.7,0,0,0,.57,2.79,5,5,0,0,0,1.3,1.84,4.88,4.88,0,0,0,1.7,1,5.53,5.53,0,0,0,1.73.3,5.34,5.34,0,0,0,3.65-1.46l.64.49a7.62,7.62,0,0,1-1.7,2.19,6.34,6.34,0,0,1-2.16,1.27,7.37,7.37,0,0,1-2.47.42,6.53,6.53,0,0,1-3.25-.84,6.09,6.09,0,0,1-2.37-2.43,7.38,7.38,0,0,1-.87-3.6A8.22,8.22,0,0,1,210,108.13Zm-9.8,8.55h.38a1.94,1.94,0,0,0,1.35-.39,1.64,1.64,0,0,0,.41-1.21V100a3.81,3.81,0,0,0-.38-1.89A3.22,3.22,0,0,0,200.18,97v-.62l5.16-1.7H206V114.5a3.8,3.8,0,0,0,.27,1.71c.19.32.66.47,1.42.47h.43v.88h-7.9Zm-7.24-11.83a1.86,1.86,0,0,0-1.47-.56,2.44,2.44,0,0,0-1.34.31c-.33.21-.49.43-.49.68a2.26,2.26,0,0,0,.21.46,1.56,1.56,0,0,1,.2.74,1.62,1.62,0,0,1-.56,1.22,2,2,0,0,1-1.4.53,1.89,1.89,0,0,1-1.29-.42,1.26,1.26,0,0,1-.47-1,2.28,2.28,0,0,1,.8-1.62,5.82,5.82,0,0,1,2.2-1.29,9.31,9.31,0,0,1,3.11-.5,6,6,0,0,1,2.3.43,3.74,3.74,0,0,1,1.71,1.3,3.5,3.5,0,0,1,.64,2.11v8.06c0,.65.18,1,.55,1s.49-.18.81-.53l.59.69a8,8,0,0,1-1.44,1.17,2.92,2.92,0,0,1-1.56.4,2.23,2.23,0,0,1-2.46-1.92,6.7,6.7,0,0,1-4.33,1.89,3.5,3.5,0,0,1-2.42-.8,2.57,2.57,0,0,1-.9-2,3.13,3.13,0,0,1,.55-1.87,5.23,5.23,0,0,1,1.44-1.36c.6-.4,1.48-.9,2.64-1.51s2.12-1.13,2.88-1.56v-2.4A2.37,2.37,0,0,0,192.94,104.85Zm-25.77,11.83a3.32,3.32,0,0,0,1.49-.26c.35-.17.53-.57.53-1.2v-7a2.79,2.79,0,0,0-.48-1.7,3,3,0,0,0-1.54-1V105l5-1.58h.6v2.11a13.64,13.64,0,0,1,2.47-1.57,6.22,6.22,0,0,1,2.7-.54c3,0,4.49,1.48,4.49,4.46v7.23c0,.69.17,1.13.5,1.31a3.31,3.31,0,0,0,1.49.26v.88h-7.65v-.88a2.6,2.6,0,0,0,1.48-.32,1.59,1.59,0,0,0,.47-1.37v-7.67a3.53,3.53,0,0,0-.26-1.42,2,2,0,0,0-.77-.88,2.4,2.4,0,0,0-1.24-.3,3.72,3.72,0,0,0-1.77.47,10,10,0,0,0-1.91,1.42V115a2,2,0,0,0,.24,1.09,1,1,0,0,0,.64.48,7,7,0,0,0,1.17.12v.88h-7.67ZM160,96.79a2.25,2.25,0,0,1,.81-.81,2.27,2.27,0,0,1,1.11-.29,2.31,2.31,0,0,1,1.12.29,2.23,2.23,0,0,1,.83.81,2.1,2.1,0,0,1,.3,1.11,2.15,2.15,0,0,1-.3,1.11,2.18,2.18,0,0,1-.83.82,2.21,2.21,0,0,1-1.12.3,2.1,2.1,0,0,1-1.56-.66,2.2,2.2,0,0,1-.65-1.57A2.27,2.27,0,0,1,160,96.79Zm-1.53,19.89a2.09,2.09,0,0,0,1.37-.39,1.76,1.76,0,0,0,.39-1.3V107.7a2,2,0,0,0-.46-1.27,2.68,2.68,0,0,0-1.3-.87v-.51l4.75-1.63h.65v11.47A3,3,0,0,0,164,116a.87.87,0,0,0,.57.52,4.66,4.66,0,0,0,1.29.17v.88h-7.41Zm-16.16,3.69a3.38,3.38,0,0,1,2.29-.89,2.69,2.69,0,0,1-1.09-4.67,7.41,7.41,0,0,1,2.69-1.6q-3.79-1.63-3.8-4.82a4.58,4.58,0,0,1,1.61-3.52,6.16,6.16,0,0,1,4.27-1.45,7.56,7.56,0,0,1,5,1.82,4.69,4.69,0,0,1,1.29-.86,3.26,3.26,0,0,1,1.35-.31,2.23,2.23,0,0,1,1.49.49,1.56,1.56,0,0,1,.59,1.24,1.29,1.29,0,0,1-.36.9,1.16,1.16,0,0,1-.91.4,1.09,1.09,0,0,1-.61-.18,3,3,0,0,1-.61-.56,4.73,4.73,0,0,0-.54-.55.75.75,0,0,0-.51-.19,1.19,1.19,0,0,0-.62.24,4.73,4.73,0,0,1,1.05,2.83,4.37,4.37,0,0,1-.72,2.39,5,5,0,0,1-1.95,1.76,5.63,5.63,0,0,1-1.53.54,12.49,12.49,0,0,1-1.63.18,12.1,12.1,0,0,0-2.82.46,1.25,1.25,0,0,0-1,1.24c0,.77.66,1.16,2,1.16l1.19,0h1.44a9.77,9.77,0,0,1,4.66.88,3.14,3.14,0,0,1,1.55,3,4.33,4.33,0,0,1-2,3.69,8.14,8.14,0,0,1-2.6,1.07,15.59,15.59,0,0,1-3.69.39,9.94,9.94,0,0,1-4.66-.88,2.61,2.61,0,0,1-1.61-2.31A2.52,2.52,0,0,1,142.33,120.37Zm-7.68-23.58a2.1,2.1,0,0,1,.81-.81,2.23,2.23,0,0,1,1.1-.29,2.35,2.35,0,0,1,1.13.29,2.2,2.2,0,0,1,.82.81,2.1,2.1,0,0,1,.3,1.11,2.24,2.24,0,0,1-1.12,1.93,2.25,2.25,0,0,1-1.13.3,2.1,2.1,0,0,1-1.55-.66,2.2,2.2,0,0,1-.36-2.68Zm-1.53,19.89a2.13,2.13,0,0,0,1.37-.39,1.76,1.76,0,0,0,.39-1.3V107.7a2.09,2.09,0,0,0-.46-1.27,2.72,2.72,0,0,0-1.3-.87v-.51l4.74-1.63h.65v11.47a3,3,0,0,0,.15,1.1.87.87,0,0,0,.57.52,4.74,4.74,0,0,0,1.3.17v.88h-7.41Zm-12.38,0h.43c1.22,0,1.84-.48,1.84-1.46V108.1c0-1.22-.76-2-2.27-2.51v-.54l5.11-1.63h.78v2.44A17.13,17.13,0,0,1,128.5,104a2.42,2.42,0,0,1,1.57-.53,1.8,1.8,0,0,1,1.34.56,2,2,0,0,1,.55,1.42,2.32,2.32,0,0,1-.49,1.49,1.56,1.56,0,0,1-1.24.59,2.25,2.25,0,0,1-.73-.13,2,2,0,0,1-.67-.33l-.33-.27a3.13,3.13,0,0,0-.31-.22.6.6,0,0,0-.29-.08,1,1,0,0,0-.6.23,5.44,5.44,0,0,0-.67.64V115a2.14,2.14,0,0,0,.23,1.17,1,1,0,0,0,.71.44,11,11,0,0,0,1.69.08v.88h-8.52ZM95.27,103.56a11.61,11.61,0,0,1,.79-2.44,10.56,10.56,0,0,1,1.32-2.18,11.42,11.42,0,0,1,1.75-1.79,9.81,9.81,0,0,1,2.22-1.38,10.94,10.94,0,0,1,2.58-.79,17.35,17.35,0,0,1,3-.24,12.76,12.76,0,0,1,4.87.9,11.08,11.08,0,0,1,3.76,2.51,11.22,11.22,0,0,1,2.37,3.69,11.86,11.86,0,0,1,.82,4.4,11.71,11.71,0,0,1-.91,4.64,11,11,0,0,1-2.59,3.75,12,12,0,0,1-3.92,2.48,13.4,13.4,0,0,1-4.86.88,12,12,0,0,1-4.57-.87,10.55,10.55,0,0,1-6-6.15,12.91,12.91,0,0,1-.84-4.7A13.18,13.18,0,0,1,95.27,103.56Z" fill="#4e76cd"/><path d="M99.39,104.59a21.22,21.22,0,0,0,.58,5.08,13.18,13.18,0,0,0,1.63,4,7.81,7.81,0,0,0,2.52,2.56,6,6,0,0,0,3.13.88,6.14,6.14,0,0,0,5-2.45,8.64,8.64,0,0,0,1.5-3,14.59,14.59,0,0,0,.53-4.18,18,18,0,0,0-.61-4.82,12.06,12.06,0,0,0-1.7-3.76,7.94,7.94,0,0,0-2.56-2.39,6.2,6.2,0,0,0-3.17-.85,6,6,0,0,0-2.73.63,6.1,6.1,0,0,0-2.17,1.82,9,9,0,0,0-1.4,2.83A12.79,12.79,0,0,0,99.39,104.59Z" fill="#4e76cd"/><path d="M99,114.8a11.77,11.77,0,0,0,4.28,2.39,12.85,12.85,0,0,1-5-4.36A12.11,12.11,0,0,1,96.52,106a12.41,12.41,0,0,1,.49-3.63,11,11,0,0,1,1.46-3.06,18.06,18.06,0,0,1,2.42-2.83,11,11,0,0,0-4,4.13,11.72,11.72,0,0,0-1.37,5.68,12.52,12.52,0,0,0,.89,4.78A10,10,0,0,0,99,114.8Z" fill="#4e76cd"/><path d="M150.08,119.86a20,20,0,0,0-3.11.2,4,4,0,0,0-1.86.75,1.81,1.81,0,0,0-.65,1.46,1.93,1.93,0,0,0,1,1.7,5.54,5.54,0,0,0,2.88.63,12.41,12.41,0,0,0,3.18-.35,4.78,4.78,0,0,0,2.07-1,2,2,0,0,0,.73-1.52Q154.35,119.87,150.08,119.86Z" fill="#4e76cd"/><path d="M151.72,119.42a5.3,5.3,0,0,1,2.18.59,1.78,1.78,0,0,1,1,1.7,3.2,3.2,0,0,1-.07.5,2.8,2.8,0,0,0,.43-1.34,2,2,0,0,0-1.06-1.84,6.47,6.47,0,0,0-3.16-.69l-3-.08a15.18,15.18,0,0,1-2.31-.19,2.36,2.36,0,0,1-1.23-.58,1.56,1.56,0,0,1-.43-1.17,2.1,2.1,0,0,1,.25-1,6.1,6.1,0,0,1,.71-1,5.33,5.33,0,0,0-1.42,1.19,2.24,2.24,0,0,0-.47,1.41,2,2,0,0,0,1.05,1.69,5.3,5.3,0,0,0,2.82.69C149.33,119.34,150.91,119.38,151.72,119.42Z" fill="#4e76cd"/><path d="M144.76,110.82a4.15,4.15,0,0,1,.13-4.88,6.58,6.58,0,0,1,2.57-2,5.81,5.81,0,0,0-2.35.8,4.74,4.74,0,0,0-1.61,1.6,4,4,0,0,0-.56,2,4.17,4.17,0,0,0,1,2.75,5.66,5.66,0,0,0,3,1.71A6.24,6.24,0,0,1,144.76,110.82Z" fill="#4e76cd"/><path d="M146.92,105.4a5.62,5.62,0,0,0-.66,2.89,6.34,6.34,0,0,0,.67,3.16,2,2,0,0,0,1.82,1.17,1.9,1.9,0,0,0,1.67-1.13,6.54,6.54,0,0,0,.64-3.2,5.2,5.2,0,0,0-.71-2.94,2.08,2.08,0,0,0-1.73-1.06A2,2,0,0,0,146.92,105.4Z" fill="#4e76cd"/><path d="M145,124.6c-1.24-.65-1.86-1.45-1.86-2.39a1.77,1.77,0,0,1,.59-1.35,6.74,6.74,0,0,1,1.73-1.07,5.07,5.07,0,0,0-2.52.77,1.88,1.88,0,0,0-.86,1.58,2,2,0,0,0,.74,1.49A4.8,4.8,0,0,0,145,124.6Z" fill="#4e76cd"/><path d="M127.74,48a3.05,3.05,0,0,1,.42-1.54,9.44,9.44,0,0,1,1.26-1.61,8.27,8.27,0,0,0-2,1.53,2.64,2.64,0,0,0-.71,1.84,2,2,0,0,0,.85,1.61,3,3,0,0,0,1.85.64,4.45,4.45,0,0,0,1.49-.19,4.08,4.08,0,0,1-2.31-.59A1.92,1.92,0,0,1,127.74,48Z" fill="#4e76cd"/><path d="M129.45,37.37a7.6,7.6,0,0,0-1.73,1.14,1.74,1.74,0,0,0-.6,1.29.77.77,0,0,0,.33.59,1.11,1.11,0,0,0,.77.28,1.64,1.64,0,0,0,1.2-.44,1.12,1.12,0,0,1-.87-.23.81.81,0,0,1-.3-.63,1.5,1.5,0,0,1,.27-.88A12.9,12.9,0,0,1,129.45,37.37Z" fill="#4e76cd"/><path d="M160.47,47.38a9.06,9.06,0,0,0,.55-3.33,8.79,8.79,0,0,0-.53-3.24,4.38,4.38,0,0,0-1.43-2,3.41,3.41,0,0,0-2-.66,4.66,4.66,0,0,0-2.86,1.16v9.36a4.39,4.39,0,0,0,2.86,1.4,3.34,3.34,0,0,0,2-.67A4.59,4.59,0,0,0,160.47,47.38Z" fill="#4e76cd"/><path d="M186.85,37.56l-.24,0-.25,0a2.05,2.05,0,0,1,.86,1,4.55,4.55,0,0,1,.22,1.51V50.19a1.41,1.41,0,0,0,.79-.56,2.09,2.09,0,0,0,.24-1.12V40a4.34,4.34,0,0,0-.3-1.77A1.29,1.29,0,0,0,186.85,37.56Z" fill="#4e76cd"/><path d="M178.85,46.69V39.54c0-1.32-.51-2-1.55-2l-.27,0-.29,0a2.33,2.33,0,0,1,.86,1.1,4.75,4.75,0,0,1,.19,1.48v5.87a4.88,4.88,0,0,0,1,3.27,3.42,3.42,0,0,0,2.75,1.19,8,8,0,0,0,1-.07,4.09,4.09,0,0,1-2.74-1.11A3.64,3.64,0,0,1,178.85,46.69Z" fill="#4e76cd"/><path d="M130.07,47.24a1.83,1.83,0,0,0,.48,1.35,1.52,1.52,0,0,0,1.11.48,3,3,0,0,0,2.05-1V43A11.17,11.17,0,0,0,130.87,45,3.27,3.27,0,0,0,130.07,47.24Z" fill="#4e76cd"/><path d="M135.67,49.57a3.69,3.69,0,0,1-.39-1.93V40.35a4,4,0,0,0-.47-2.27,2.22,2.22,0,0,0-1.61-.76,1.57,1.57,0,0,1,.82.92,8.11,8.11,0,0,1,.21,2.27v6.27a7.2,7.2,0,0,0,.4,2.77,1.52,1.52,0,0,0,1.55.91,2.41,2.41,0,0,0,.84-.12A1.84,1.84,0,0,1,135.67,49.57Z" fill="#4e76cd"/><path d="M106.92,29h-.48a2.24,2.24,0,0,1,.89.82,3.79,3.79,0,0,1,.24,1.62V47.73a2.19,2.19,0,0,1-.28,1.21,2.32,2.32,0,0,1-.85.74l.27,0,.27,0c1.07,0,1.61-.77,1.61-2.32V32.2a8.61,8.61,0,0,0-.25-2.38C108.18,29.3,107.7,29,106.92,29Z" fill="#4e76cd"/><path d="M202.59,39.74l-.14-1.83a15.36,15.36,0,0,0-1.63-.59,7.34,7.34,0,0,0-1.72-.16,6.84,6.84,0,0,1,1.9,1A11.16,11.16,0,0,1,202.59,39.74Z" fill="#4e76cd"/><path d="M120.67,48.39a10.48,10.48,0,0,1-2.34,1.29h2.9l1.37-3.12A11.38,11.38,0,0,1,120.67,48.39Z" fill="#4e76cd"/><path d="M161.05,38.77a4.52,4.52,0,0,0-1.42-1.12,3.33,3.33,0,0,0-1.44-.36,3.58,3.58,0,0,0-1.49.37h.38a3.81,3.81,0,0,1,3.24,1.67,7.94,7.94,0,0,1,1.22,4.72,8.71,8.71,0,0,1-.6,3.62,6.06,6.06,0,0,1-1.67,2.14,4.64,4.64,0,0,0,1.84-1.2,5.13,5.13,0,0,0,1.11-2,9.14,9.14,0,0,0,.37-2.66,10,10,0,0,0-.44-3.11A6,6,0,0,0,161.05,38.77Z" fill="#4e76cd"/><path d="M169.51,30.21a2.15,2.15,0,0,0-1.54-.46,6.35,6.35,0,0,0-.84,0c1,.27,1.55.68,1.75,1.22a6.22,6.22,0,0,1,.29,2.12V48a2.19,2.19,0,0,1-.65,1.69c.74,0,1.21-.23,1.4-.61a3.7,3.7,0,0,0,.29-1.64V33.13a12.13,12.13,0,0,0-.11-1.8A1.84,1.84,0,0,0,169.51,30.21Z" fill="#4e76cd"/><path d="M149.54,38.15a2.88,2.88,0,0,1,1.2,1,3.67,3.67,0,0,1,.31,1.75v15a3.06,3.06,0,0,1-.14,1,1.61,1.61,0,0,1-.54.67,1.72,1.72,0,0,0,1.4-.62,3.65,3.65,0,0,0,.31-1.77V40.85a3.23,3.23,0,0,0-.58-2.15A2.25,2.25,0,0,0,149.54,38.15Z" fill="#4e76cd"/><path d="M271.88,20.25H60.11L44.76,62.41H256.53ZM122.79,50.56H103.57v-.88h.21a6.19,6.19,0,0,0,2.11-.26,1.59,1.59,0,0,0,.93-.82,4.16,4.16,0,0,0,.24-1.58V32a5.84,5.84,0,0,0-.21-1.8,1.53,1.53,0,0,0-1-.88,6.67,6.67,0,0,0-2.31-.29v-.87h11V29h-.49a6.2,6.2,0,0,0-1.9.22,1.49,1.49,0,0,0-.93.82,4.22,4.22,0,0,0-.27,1.69V47.3a2.73,2.73,0,0,0,.31,1.41,1.9,1.9,0,0,0,1.12.74,8.52,8.52,0,0,0,2.29.23,11.8,11.8,0,0,0,2.3-.2,8.07,8.07,0,0,0,2.08-.73,10.73,10.73,0,0,0,2.12-1.49,17.17,17.17,0,0,0,2.21-2.42h1.46Zm15.08.06a2.92,2.92,0,0,1-1.56.4,2.6,2.6,0,0,1-1.64-.47,2.57,2.57,0,0,1-.82-1.45A6.68,6.68,0,0,1,129.52,51a3.5,3.5,0,0,1-2.42-.8,2.57,2.57,0,0,1-.9-2,3.13,3.13,0,0,1,.55-1.87A5.23,5.23,0,0,1,128.19,45c.6-.4,1.48-.9,2.64-1.51s2.12-1.13,2.88-1.56v-2.4a2.37,2.37,0,0,0-.5-1.63,1.86,1.86,0,0,0-1.47-.56,2.44,2.44,0,0,0-1.34.31c-.33.21-.49.43-.49.68a2.26,2.26,0,0,0,.21.46,1.58,1.58,0,0,1,.21.74,1.63,1.63,0,0,1-.57,1.22,2,2,0,0,1-1.4.53,1.89,1.89,0,0,1-1.29-.42,1.29,1.29,0,0,1-.47-1,2.28,2.28,0,0,1,.8-1.62,5.82,5.82,0,0,1,2.2-1.29,9.31,9.31,0,0,1,3.11-.5,6.12,6.12,0,0,1,2.31.43,3.76,3.76,0,0,1,1.7,1.3,3.5,3.5,0,0,1,.64,2.11v8.06c0,.65.18,1,.55,1,.22,0,.49-.18.81-.53l.59.69A8,8,0,0,1,137.87,50.62ZM164,47.38a7,7,0,0,1-2.7,2.63,7.87,7.87,0,0,1-3.85.94,8.23,8.23,0,0,1-3.32-.71v5.49a3,3,0,0,0,.13,1,.89.89,0,0,0,.54.55,3,3,0,0,0,1.16.17h.81v.88h-8.29v-.91a8.82,8.82,0,0,0,1.21-.11.92.92,0,0,0,.6-.38,1.57,1.57,0,0,0,.21-.9V41a2.91,2.91,0,0,0-.49-1.84,3.25,3.25,0,0,0-1.62-1V37.5l5.12-1.08h.62v1.73a11.28,11.28,0,0,1,2.14-1.28,5.75,5.75,0,0,1,2.32-.45A5.68,5.68,0,0,1,161,37a6.35,6.35,0,0,1,2,1.49,7.08,7.08,0,0,1,1.41,2.3,7.62,7.62,0,0,1,.54,2.86A7.29,7.29,0,0,1,164,47.38Zm10.38,3.18h-7.9v-.88h.38a1.94,1.94,0,0,0,1.35-.39,1.64,1.64,0,0,0,.41-1.21V33a3.93,3.93,0,0,0-.38-1.89A3.22,3.22,0,0,0,166.51,30v-.62l5.16-1.7h.61V47.5a3.77,3.77,0,0,0,.28,1.71c.19.32.66.47,1.42.47h.43Zm18.3-.68L186.92,51V48.8A8.18,8.18,0,0,1,181.71,51a4.42,4.42,0,0,1-3.24-1.21,4.62,4.62,0,0,1-1.2-3.41V40.85a14,14,0,0,0-.08-1.77,1.5,1.5,0,0,0-.54-.9,3.38,3.38,0,0,0-1.53-.56v-.93h5.81v9.38a7,7,0,0,0,.22,2,2,2,0,0,0,.71,1.12,2.12,2.12,0,0,0,1.31.37,5.86,5.86,0,0,0,3.75-1.75v-7.6c0-1.6-.69-2.45-2-2.54v-.93h5.68V47.5a1.66,1.66,0,0,0,.23,1,1.1,1.1,0,0,0,.65.42,5.65,5.65,0,0,0,1.13.09h.15Zm11.51-1.13a4.83,4.83,0,0,1-1.95,1.63,6.25,6.25,0,0,1-2.8.61,13.69,13.69,0,0,1-5.11-1.21V45.62h.85a11.38,11.38,0,0,0,2.53,3.23,4.05,4.05,0,0,0,2.57,1.09,2.23,2.23,0,0,0,1.44-.52,1.52,1.52,0,0,0,.64-1.2,1.36,1.36,0,0,0-.48-1.2,18.38,18.38,0,0,0-3.44-1.83q-4.36-1.61-4.37-4.61a3.77,3.77,0,0,1,1.37-3,5.43,5.43,0,0,1,3.68-1.19,9.54,9.54,0,0,1,2.19.24,20.26,20.26,0,0,1,2.25.71l.16,3.76H203a11.91,11.91,0,0,0-2.54-2.87,4.07,4.07,0,0,0-2.49-1,1.74,1.74,0,0,0-1.26.5,1.54,1.54,0,0,0-.5,1.1,1.45,1.45,0,0,0,.62,1.23,16.91,16.91,0,0,0,2.6,1.34c1.33.6,2.49,1.17,3.48,1.72a3.88,3.88,0,0,1,1.49,1.38,3.59,3.59,0,0,1,.56,1.94A3.92,3.92,0,0,1,204.22,48.75Z" fill="#4e76cd"/><path d="M196.12,48.62A13.75,13.75,0,0,1,195,47v2a17.54,17.54,0,0,0,2.63.84A8,8,0,0,1,196.12,48.62Z" fill="#4e76cd"/><path d="M201.09,44.73a37,37,0,0,1-3.51-1.62,5.81,5.81,0,0,1-1.86-1.46,3,3,0,0,1-.57-1.88,3.81,3.81,0,0,1,.38-1.53,6.21,6.21,0,0,0-.66,1,2.81,2.81,0,0,0-.24,1.23,3.06,3.06,0,0,0,1.08,2.44,13.11,13.11,0,0,0,3.2,1.9A23.81,23.81,0,0,1,202,46.39a1.91,1.91,0,0,1,.94,1.69,2.89,2.89,0,0,1-.19,1,3.6,3.6,0,0,0,.64-.72,1.69,1.69,0,0,0,.2-.88C203.56,46.3,202.74,45.4,201.09,44.73Z" fill="#4e76cd"/></g></g></svg>