<svg xmlns="http://www.w3.org/2000/svg" fill="#4e76cd" viewBox="0 0 300 301.41"><title>Fichier 9</title><g id="Calque_2" data-name="Calque 2"><g id="Calque_1-2" data-name="Calque 1"><polygon points="196.99 99.14 200.24 98.87 165.16 96.39 197.16 81.7 163.35 91.36 188.4 66.61 159.93 87.25 175 55.43 155.32 84.56 158.59 49.51 150.06 83.62 141.15 49.55 144.79 84.53 124.77 55.56 140.15 87.18 111.43 66.81 136.7 91.26 102.75 81.94 134.86 96.28 99.76 99.14 196.99 99.14"/><path d="M175.6,127.85c0-11.93-11.67-15.88-22.44-15.88-12.09,0-27.59,5.08-27.59,15.13,0,4.79,3.32,8.46,7.25,8.08,1.71-4.13,7.05-7.52,13.59-7.52,3.12,0,6.55.47,6.55,5,0,3.1-1.21,4.88-4,6.86L129.8,152.85c-6,4.23-8.86,7.61-8.86,13.07,0,4,1.51,8.45,3.83,10.05.7-.94,1.61-1.5,4.33-1.5,5.94,0,14.09,2.53,25,2.53,15.3,0,20.44-5.63,20.44-13.81,0-3-.71-5.64-3.32-9.12-2.42,2.64-5.94,3.39-11,3.39a101.38,101.38,0,0,1-18-1.6c10.88-5.73,15.51-7.71,20.24-10.34C174.1,139,175.6,133.59,175.6,127.85ZM148,159.44c.64.09,1.56.11,2.63.24s2.34.14,3.65.27a40.36,40.36,0,0,0,4.15.13,38.18,38.18,0,0,0,4.15,0c1.32-.1,2.59,0,3.66-.17s2-.09,2.64-.17l1,0-.9.5a18.44,18.44,0,0,1-2.49,1,22.94,22.94,0,0,1-3.72.93,43.66,43.66,0,0,1-4.39.34A42.91,42.91,0,0,1,154,162a25.44,25.44,0,0,1-3.69-1,16.63,16.63,0,0,1-2.46-1.12l-.89-.52Zm-13.63-.2c-.19.25-.39.7-.68,1.11s-.52,1-.87,1.45a10.68,10.68,0,0,0-.88,1.64,11.21,11.21,0,0,0-.85,1.65c-.21.55-.55,1.06-.7,1.54s-.43.88-.53,1.18l-.22.49-.24-.49a5.15,5.15,0,0,1-.36-1.35,6.67,6.67,0,0,1,.05-2,13.45,13.45,0,0,1,.72-2.17,13.62,13.62,0,0,1,1.37-1.81,6.74,6.74,0,0,1,1.61-1.17,4.6,4.6,0,0,1,1.32-.47l.53-.08Zm13.75-15a15.52,15.52,0,0,1-2.86,3.66,30.64,30.64,0,0,1-5.22,3.94c-2,1.21-4.2,2.41-6.2,3.77a20,20,0,0,0-5.25,4.46,12.59,12.59,0,0,0-2.53,5.32,9,9,0,0,0,.09,4.27,7.06,7.06,0,0,0,.61,1.59l-.29-.35a6.59,6.59,0,0,1-.76-1.06,8.67,8.67,0,0,1-1-4.6,12.49,12.49,0,0,1,2.2-6.41,22,22,0,0,1,5.62-5.24c2.18-1.36,4.44-2.47,6.47-3.57a45,45,0,0,0,5.39-3.17,20.39,20.39,0,0,0,3.34-2.89,12.21,12.21,0,0,0,1.1-1.32A13,13,0,0,1,148.12,144.27Zm-15.79-21.85c-1,.6-1.49,1-1.49,1s.41-.5,1.2-1.34a22.29,22.29,0,0,1,3.67-3.08,26.65,26.65,0,0,1,6.12-3,25.35,25.35,0,0,1,15.6-.38,26,26,0,0,1,6.26,2.73,21.69,21.69,0,0,1,3.82,2.89c.83.8,1.26,1.29,1.26,1.29s-.55-.37-1.54-.92a37.32,37.32,0,0,0-4.15-2,35,35,0,0,0-6.16-1.91,31.81,31.81,0,0,0-14.48.35,35.39,35.39,0,0,0-6.06,2.21A36.12,36.12,0,0,0,132.33,122.42Zm27.28-.65-2.3-.11c-.93-.11-2-.06-3.18-.17s-2.38-.12-3.6-.1-2.45-.1-3.6-.07-2.25,0-3.19,0-1.74,0-2.3,0l-.9,0,.79-.43a15.81,15.81,0,0,1,2.19-.88,20.22,20.22,0,0,1,3.25-.77c1.21-.14,2.51-.23,3.81-.27s2.6.25,3.8.44a20,20,0,0,1,3.21.92,15.11,15.11,0,0,1,2.14,1l.78.47Z"/><path d="M297.58,143.32c-1.49.78-3.53,1.9-5.73,3.22a73.49,73.49,0,0,0-6.71,4.45,34.23,34.23,0,0,0-3,2.52,23.35,23.35,0,0,0-2.54,2.66l-.47.61q.62-6.33.64-12.55v-2l-.1-1.83-.15-2.66c.44.39.9.77,1.43,1.16,6.28,4.65,9.82,2.7,14-6.37a15,15,0,0,0,1.22-3.88,39.86,39.86,0,0,0,.49-4.59c.08-1.61.1-3.28.06-4.94,0-.83,0-1.66-.09-2.47s-.22-1.61-.32-2.38c-.46-3.12-1-5.94-1.46-8-.23-1-.39-1.85-.58-2.4L294,103s-.73.67-1.87,1.8-2.82,2.73-4.55,4.56a74.28,74.28,0,0,0-5.17,6,37.36,37.36,0,0,0-2.16,3.19,31.6,31.6,0,0,0-1.66,3.21c-.2.48-.39.93-.56,1.38a71.9,71.9,0,0,0-1.6-8.09,95.59,95.59,0,0,0-3.08-11.29,17.88,17.88,0,0,0,2,.94c7.08,2.91,9.9.12,11.49-9.69a14.52,14.52,0,0,0,0-4,40.18,40.18,0,0,0-.73-4.56c-.33-1.57-.75-3.18-1.2-4.77s-1.17-3.07-1.77-4.51-1.23-2.81-1.81-4-1.12-2.34-1.61-3.25C278.71,68.06,278,67,278,67s-.52.82-1.29,2.19-1.77,3.24-3,5.46a73,73,0,0,0-3.29,7.08,25.14,25.14,0,0,0-1.82,7.09c-.09.75-.17,1.45-.23,2.14-.26-.62-.52-1.24-.79-1.85a132.68,132.68,0,0,0-9.33-16.42,16.87,16.87,0,0,0,2.67.57c3.69.52,6,0,7.29-2a8.57,8.57,0,0,0,1.16-4,25.54,25.54,0,0,0-.24-6.15,29.88,29.88,0,0,0-2.92-8c-.36-.71-.74-1.43-1.13-2.15s-.89-1.37-1.35-2c-.93-1.35-1.89-2.66-2.84-3.9s-1.88-2.4-2.75-3.45-1.77-1.87-2.49-2.61c-1.46-1.45-2.4-2.32-2.4-2.32s-1.07,3.67-2,8.32c-.2,1.18-.42,2.41-.64,3.66s-.4,2.58-.53,3.87a25,25,0,0,0,.14,7.27c.24,1,.43,2,.62,3a128,128,0,0,0-11.18-12.12c-1.4-1.34-2.8-2.6-4.2-3.83.28,0,.57,0,.87,0a15.34,15.34,0,0,0,2.49-.09c3.6-.37,5.64-1.47,6.33-3.65a8.55,8.55,0,0,0,.06-4.1,23.63,23.63,0,0,0-2-5.71,22.38,22.38,0,0,0-2-3.43,37,37,0,0,0-2.86-3.58,83.4,83.4,0,0,0-7.25-6.35c-.61-.48-1.21-1-1.8-1.39s-1.22-.77-1.78-1.14c-1.15-.72-2.19-1.35-3.07-1.87-1.77-1-2.89-1.66-2.89-1.66s-.05,3.76.35,8.4c.1,1.16.22,2.38.38,3.61s.39,2.44.6,3.71a25.39,25.39,0,0,0,2,6.94c.61,1.27,1.22,2.36,1.81,3.36A140.34,140.34,0,0,0,210,29.23l-3-1.41a15.33,15.33,0,0,0,3.73-1,11.12,11.12,0,0,0,3.75-2.13,4,4,0,0,0,1.31-2.87A7.66,7.66,0,0,0,214.68,18a30.53,30.53,0,0,0-3.43-4.89,21.19,21.19,0,0,0-2.81-2.79A22,22,0,0,0,204.7,7.7c-1.36-.8-2.8-1.56-4.26-2.29s-2.92-1.42-4.35-2C190.27,1.33,185.33.1,185.33.1s.95,3.55,2.57,7.84a61.64,61.64,0,0,0,2.91,6.65c.57,1.09,1.18,2.11,1.8,3.17a20.33,20.33,0,0,0,2,2.81A45.5,45.5,0,0,0,198,24l-.4-.14c-1.88-.6-3.61-1.19-5.21-1.66-.8-.22-1.55-.48-2.29-.65s-1.46-.28-2.13-.4c-5.35-1-8.23-1.2-8.23-1.2s2.62,1.37,7.56,3.34c.62.25,1.27.52,2,.77s1.38.64,2.12,1c1.47.71,3.11,1.4,4.86,2.18L199,28.34l.07,0a9.56,9.56,0,0,0-1.12-.13,34.27,34.27,0,0,0-5.63.15,15.42,15.42,0,0,0-3.19.68,15.85,15.85,0,0,0-3.18,1.42,37.22,37.22,0,0,0-5.67,4,42.75,42.75,0,0,0-5.35,5.37,66.76,66.76,0,0,0,7.72,2.44c1.09.24,2.16.71,3.3,1s2.29.61,3.43.84,2.32.32,3.37.52a14.53,14.53,0,0,0,3,.19,30.37,30.37,0,0,0,5-.61,10,10,0,0,0,3.41-1.31c1.74-1.21,2.49-3.31,2.06-6.78a9.44,9.44,0,0,0-2.39-5.35l4.23,2.1a134.74,134.74,0,0,1,17.51,11.78l-.67-.25c-.43-.12-.88-.22-1.34-.32-.93-.2-1.92-.37-3-.52a18.93,18.93,0,0,0-6.77.45,23.21,23.21,0,0,0-3.43,1.11c-1.12.44-2.19.92-3.18,1.41a46.4,46.4,0,0,0-6.7,4s.73.54,2,1.34c.62.4,1.35.86,2.17,1.36s1.77,1,2.67,1.62a44.34,44.34,0,0,0,6,3.46c1.08.47,2,1.06,3.05,1.45a14.26,14.26,0,0,0,2.94.89c1.88.37,3.65.5,5,.64a8.75,8.75,0,0,0,3.66-.41c2.05-.77,3.36-2.63,3.9-6.15a9.56,9.56,0,0,0-.31-5c1.54,1.4,3.09,2.85,4.63,4.39a123.79,123.79,0,0,1,11.45,13.3,18.45,18.45,0,0,0-3.75-1.89,19.55,19.55,0,0,0-6.83-1.17,32.94,32.94,0,0,0-3.59.18,30.25,30.25,0,0,0-3.49.59,48.44,48.44,0,0,0-7.73,2.37s.58.7,1.57,1.76c.49.53,1.09,1.15,1.76,1.83s1.3,1.52,2,2.33,1.55,1.64,2.4,2.45,1.76,1.57,2.55,2.4a18.72,18.72,0,0,0,5.26,3.7l1.32.56,1.17.53a20.65,20.65,0,0,0,2.17.83,9.16,9.16,0,0,0,3.75.48c2.25-.26,4.05-1.74,5.54-5a12.25,12.25,0,0,0,1.14-4.31,125.58,125.58,0,0,1,9,16.59c.47,1.17.93,2.35,1.39,3.54-.78-.76-1.65-1.53-2.63-2.33a12.52,12.52,0,0,0-3-1.66,23.14,23.14,0,0,0-3.47-1.15,37.63,37.63,0,0,0-7.15-1,45.66,45.66,0,0,0-5.87.15c-1.5.13-2.41.27-2.41.27s.39.8,1.09,2.06c.38.61.69,1.42,1.11,2.26s.88,1.79,1.41,2.75,1.1,1.94,1.73,2.92,1.11,2,1.74,3a23.31,23.31,0,0,0,2,2.7,23.59,23.59,0,0,0,2.21,2.17c5.75,5,9.8,6.52,14.5,1a12.53,12.53,0,0,0,2.13-3.46,92.7,92.7,0,0,1,2.91,11.65,74.18,74.18,0,0,1,1.51,9.38c-.47-.73-1-1.47-1.58-2.25a11.7,11.7,0,0,0-2.38-2.39,26,26,0,0,0-3.16-2,38.75,38.75,0,0,0-6.86-2.81,43,43,0,0,0-5.75-1.38c-1.52-.26-2.47-.35-2.47-.35s.05.22.13.61a12.63,12.63,0,0,1,.33,1.66c.22,1.41.58,3.35,1.12,5.45.26,1,.66,2.13.86,3.26a32.2,32.2,0,0,0,.92,3.33,23.18,23.18,0,0,0,1.29,3.1,27.31,27.31,0,0,0,1.53,2.67c4.44,6.28,8,8.84,14.18,4.74A13.43,13.43,0,0,0,272,137.2c0,1.15.07,2.31.11,3.48l.05,1.83c0-.26,0,.05,0,.05v.23l0,.44,0,.9a122.43,122.43,0,0,1-1.14,13.53c-.24-.66-.5-1.34-.8-2a14.63,14.63,0,0,0-1.7-2.93,26,26,0,0,0-2.62-2.75,39.27,39.27,0,0,0-6.1-4.51,52.28,52.28,0,0,0-5.32-2.83c-.68-.32-1.3-.57-1.71-.73l-.64-.25s0,.22,0,.62-.12,1-.18,1.68c-.14,1.43-.29,3.38-.29,5.55,0,.54,0,1.1,0,1.66s-.05,1.13-.08,1.7a32.73,32.73,0,0,0,.08,3.43,20.9,20.9,0,0,0,.49,3.32,17.89,17.89,0,0,0,.78,3c1.41,3.61,2.87,6.26,4.85,7.74a6.5,6.5,0,0,0,3.42,1.28,11.49,11.49,0,0,0,4.63-.68,13.63,13.63,0,0,0,3-1.38c-.28,1.18-.57,2.36-.88,3.53a126.79,126.79,0,0,1-5.27,15.33c-.06-.57-.14-1.16-.24-1.78a15.44,15.44,0,0,0-1-3.31,17.93,17.93,0,0,0-1.78-3.32,41.08,41.08,0,0,0-4.93-6,52.61,52.61,0,0,0-6.6-5.7,52.56,52.56,0,0,0-2.48,7.37c-.29,1-.7,2.07-1,3.17a34.12,34.12,0,0,0-.75,3.33c-.19,1.12-.27,2.26-.42,3.3a12.92,12.92,0,0,0,0,3,31.65,31.65,0,0,0,1.06,5.15,11.19,11.19,0,0,0,1.72,3.64c1.52,1.93,3.93,2.94,7.88,2.86a14,14,0,0,0,3-.42c-.27.49-.52,1-.8,1.46a118.15,118.15,0,0,1-9.77,14.69c.05-.48.1-1,.14-1.47a19.35,19.35,0,0,0-1.05-7.22,25.31,25.31,0,0,0-1.47-3.69c-.58-1.22-1.21-2.38-1.84-3.47a55.71,55.71,0,0,0-5.13-7.38s-.54.69-1.33,1.85c-.39.58-.85,1.28-1.33,2.06l-.74,1.25-.89,1.28a35.3,35.3,0,0,0-3.25,5.88,16.52,16.52,0,0,0-2,6c-.09,1-.16,1.94-.19,2.84s-.11,1.66-.09,2.42a10.38,10.38,0,0,0,.78,4c1,2.32,3.13,4,7,5a16.54,16.54,0,0,0,3,.48A127.09,127.09,0,0,1,224,238.31l.47-1.17a20.31,20.31,0,0,0,.69-7.44,35.63,35.63,0,0,0-.49-4c-.25-1.32-.51-2.56-.88-3.82a59.23,59.23,0,0,0-3.26-8.69s-.68.55-1.72,1.48c-.53.45-1.08,1.07-1.82,1.62s-1.48,1.24-2.26,2-1.57,1.5-2.33,2.33-1.58,1.61-2.32,2.46a16.52,16.52,0,0,0-3.36,5.45c-1.47,3.6-2.28,6.58-1.85,9.16s2.06,4.78,5.55,6.78a16.78,16.78,0,0,0,2.83,1.28c-.27.16-.53.34-.79.5a118.3,118.3,0,0,1-16.36,8.17c.29-.39.58-.79.88-1.22a11.92,11.92,0,0,0,1.6-3.17,25.9,25.9,0,0,0,1-3.88,43.43,43.43,0,0,0,.59-8.11c0-1.28-.08-2.49-.17-3.6s-.23-2.14-.34-3c-.25-1.71-.46-2.76-.46-2.76l-.54.26c-.36.16-.83.47-1.48.72a45.3,45.3,0,0,0-4.84,2.34c-.93.49-1.84,1.14-2.84,1.62a27.92,27.92,0,0,0-2.85,1.75,19.38,19.38,0,0,0-2.55,2.1,20.46,20.46,0,0,0-2.07,2.27c-2.31,3.19-3.83,6-4.07,8.64s.76,5.29,3.61,8.19a16.18,16.18,0,0,0,2.42,2,123,123,0,0,1-23.36,4.34,12,12,0,0,0-21.21,0,122.8,122.8,0,0,1-22.72-4.13c.33-.26.66-.53,1-.83,6-5.43,4.64-10.15.29-17a15.8,15.8,0,0,0-2-2.41,21.42,21.42,0,0,0-2.45-2.3,26.19,26.19,0,0,0-2.76-2l-1.42-.87c-.45-.32-.89-.63-1.34-.92a47.15,47.15,0,0,0-4.67-2.69,12.52,12.52,0,0,1-1.44-.76l-.52-.3s-.26,1.05-.58,2.76a55,55,0,0,0-.81,6.59,44.14,44.14,0,0,0,.18,8.18,27.21,27.21,0,0,0,.78,4,12.09,12.09,0,0,0,1.41,3.29l.19.29a116.36,116.36,0,0,1-15-7.61l-.25-.16c.39-.16.79-.33,1.21-.54,7.19-3.58,7-8.36,4.46-15.86a17.9,17.9,0,0,0-1.25-2.93A21.75,21.75,0,0,0,89.8,224c-.68-.92-1.49-1.71-2.2-2.6s-1.46-1.74-2.19-2.51-1.45-1.48-2.12-2.11l-1-.88-.78-.83c-1-1-1.61-1.59-1.61-1.59a61.15,61.15,0,0,0-3.68,8.6c-.42,1.23-.76,2.48-1.07,3.79a36.1,36.1,0,0,0-.72,4,20.32,20.32,0,0,0,.31,7.49l.06.21a126.25,126.25,0,0,1-12.68-11.4c.42-.05.84-.11,1.28-.19,3.93-.75,6.12-2.28,7.25-4.57a10.61,10.61,0,0,0,1-4q.08-1.16,0-2.46c0-.89,0-1.87-.07-2.88A17.21,17.21,0,0,0,70,205.79c-.47-1-.86-2.15-1.37-3.17s-1-2-1.55-2.94-1.12-1.76-1.51-2.61-.84-1.54-1.19-2.15c-.71-1.2-1.2-1.92-1.2-1.92a58,58,0,0,0-5.52,7.18c-.69,1.06-1.38,2.2-2,3.39a27.9,27.9,0,0,0-1.68,3.62,19.53,19.53,0,0,0-1.44,7.17c0,.19,0,.37,0,.55a118,118,0,0,1-9-13.69c-.18-.31-.34-.63-.51-.94a13.78,13.78,0,0,0,1.4.21c3.95.32,6.42-.55,8-2.42a10.91,10.91,0,0,0,1.89-3.58,33.15,33.15,0,0,0,1.34-5.18,13.66,13.66,0,0,0,.21-3.1c0-.53-.07-1.08-.14-1.63s-.07-1.14-.13-1.71a36.49,36.49,0,0,0-1.36-6.64c-.22-1-.43-2.06-.66-3s-.45-1.71-.65-2.38c-.4-1.35-.7-2.17-.7-2.17a54.26,54.26,0,0,0-6.92,5.41A40.43,40.43,0,0,0,40,179.88c-.4.53-.77,1.07-1.12,1.62s-.61,1.07-.87,1.61a15,15,0,0,0-1.15,3.26c-.06.29-.11.58-.17.86a131.29,131.29,0,0,1-4.8-14.17l-.72-2.95a15.78,15.78,0,0,0,1.54.72c3.49,1.42,6.05,1.24,8.07-.13s3.65-4,5.28-7.59a13.74,13.74,0,0,0,.91-2.93,24,24,0,0,0,.7-3.33A33.44,33.44,0,0,0,48,153.4c0-1.15,0-2.27.1-3.37a53,53,0,0,0,.06-5.55c0-.72-.07-1.29-.09-1.69a4.77,4.77,0,0,1,0-.62s-.93.3-2.35.87a54.34,54.34,0,0,0-5.49,2.57,40.05,40.05,0,0,0-6.34,4.18,25.53,25.53,0,0,0-2.77,2.61,13.31,13.31,0,0,0-1.89,2.83l-.55,1.19-.21-1.49-.33-3.56c-.26-2.32-.32-4.83-.42-7.28l-.06-1.75.05-1.78c0-.94.06-1.87.08-2.81a16.24,16.24,0,0,0,1.54,1.37c5.89,4.52,9.61,2.1,14.45-4a23.64,23.64,0,0,0,1.64-2.62,24.1,24.1,0,0,0,1.49-3.06c.43-1.07.8-2.18,1.13-3.28q.23-.84.45-1.65L49,122.9c.67-2.07,1.15-4,1.45-5.37.17-.69.24-1.27.37-1.65l.17-.6s-1,0-2.5.23a51.37,51.37,0,0,0-5.79,1.09,38.24,38.24,0,0,0-7,2.44,23.7,23.7,0,0,0-3.25,1.82,11,11,0,0,0-2.54,2.25c-.41.48-.78,1-1.14,1.42a69.31,69.31,0,0,1,1.35-8.07,91.78,91.78,0,0,1,2.73-11.07,16,16,0,0,0,1.35,2.18c4.37,5.87,8.48,4.47,14.56-.23a30.37,30.37,0,0,0,2.32-2.09,25.25,25.25,0,0,0,2.16-2.6,34.57,34.57,0,0,0,1.9-2.91c.64-1,1.32-1.92,1.89-2.85s1.11-1.83,1.57-2.66L59.77,92C60.54,90.8,61,90,61,90s-.91-.19-2.41-.39a44.21,44.21,0,0,0-5.84-.44,36.69,36.69,0,0,0-7.19.63,18.9,18.9,0,0,0-6.6,2.44c-.72.52-1.38,1-2,1.55.29-.74.58-1.48.88-2.21a125.73,125.73,0,0,1,8.63-16.13,14,14,0,0,0,.77,2.93c1.29,3.4,3,5,5.23,5.36a9.16,9.16,0,0,0,3.78-.29A43.94,43.94,0,0,0,61,81.76a19.29,19.29,0,0,0,5.49-3.45c.44-.37.88-.76,1.3-1.16L69.16,76c.89-.76,1.74-1.55,2.53-2.32s1.52-1.52,2.17-2.22,1.33-1.25,1.84-1.76c1-1,1.66-1.66,1.66-1.66a48.43,48.43,0,0,0-7.6-2.78,31.32,31.32,0,0,0-3.44-.78,29.81,29.81,0,0,0-3.56-.38,18.61,18.61,0,0,0-6.84.79A19.94,19.94,0,0,0,53,66.08,122.89,122.89,0,0,1,63.56,54c1.34-1.35,2.68-2.63,4-3.87a7.24,7.24,0,0,0-.16.95,15.11,15.11,0,0,0,0,2.51C67.78,57.17,69,59.11,71,60a8.62,8.62,0,0,0,3.64.59c1.39-.06,3.15-.14,5.07-.4a15.4,15.4,0,0,0,3-.75,29.2,29.2,0,0,0,3.1-1.33A45,45,0,0,0,92,55l1.39-.84,1.34-.69c.85-.45,1.61-.87,2.24-1.24,1.26-.73,2-1.22,2-1.22a46.6,46.6,0,0,0-6.48-4.4c-1-.54-2-1.08-3.07-1.58a26.47,26.47,0,0,0-3.36-1.3,18.1,18.1,0,0,0-6.67-.81c-1.42.14-2.74.31-3.93.55a136.85,136.85,0,0,1,16.24-10.8L95.06,31a11.29,11.29,0,0,0-1.56,3.88,9.62,9.62,0,0,0-.07,4.26,4.66,4.66,0,0,0,1.68,2.65,9.8,9.8,0,0,0,3.34,1.48,32.21,32.21,0,0,0,5,.85,15,15,0,0,0,3.06,0c1.05-.15,2.22-.23,3.39-.39s2.33-.4,3.48-.67,2.27-.59,3.34-.88a65.94,65.94,0,0,0,7.83-2,43.25,43.25,0,0,0-5-5.66,35.64,35.64,0,0,0-5.39-4.26A16.77,16.77,0,0,0,111,28.6a14.31,14.31,0,0,0-3.12-.84,34.27,34.27,0,0,0-5.26-.41l1-.4c1.75-.77,3.38-1.45,4.86-2.14.74-.33,1.44-.69,2.13-1l2-.75c5-1.91,7.63-3.18,7.63-3.18s-2.88.31-8.16,1.36L110,21.7c-.72.18-1.48.44-2.28.68-1.6.48-3.32,1.08-5.21,1.69l-2.9,1-1.3.58c.66-.44,1.33-.95,2-1.47a43.63,43.63,0,0,0,4.31-3.94,20.54,20.54,0,0,0,2.22-2.74c.68-1,1.35-2.08,2-3.14a63,63,0,0,0,3.37-6.58C114.17,3.55,115.41,0,115.41,0s-5,1-10.9,2.9A39.77,39.77,0,0,0,100,4.7c-1.5.67-3,1.39-4.39,2.14a26.74,26.74,0,0,0-3.92,2.4,24.48,24.48,0,0,0-3,2.71A34.39,34.39,0,0,0,85,16.76a7.78,7.78,0,0,0-1.35,3.85c-.08,2.29,1.44,3.89,4.67,5.27,2.8,1.29,5,1.64,7.16,1.1l-5.38,2.49A139.53,139.53,0,0,0,70.61,42c1.12-1.52,2.24-3.43,3.56-5.67a26.36,26.36,0,0,0,2.45-6.92c.27-1.3.59-2.48.82-3.74s.45-2.46.63-3.64c.7-4.69.94-8.51.94-8.51s-1.14.56-3,1.54c-.9.49-2,1.08-3.15,1.76a36.26,36.26,0,0,0-3.72,2.34,87,87,0,0,0-7.57,6.12,27.2,27.2,0,0,0-3.07,3.46,22,22,0,0,0-2.2,3.39A25.1,25.1,0,0,0,54,37.81a9.24,9.24,0,0,0-.2,4.18c.54,2.26,2.5,3.48,6.06,4A12.94,12.94,0,0,0,66,45.75c-1.86,1.57-3.72,3.21-5.58,5A127.6,127.6,0,0,0,47.51,65c.49-1.51.83-3.32,1.39-5.26a26.18,26.18,0,0,0,.54-7.34c-.06-1.31-.17-2.64-.32-4s-.28-2.53-.41-3.74c-.59-4.76-1.4-8.57-1.4-8.57s-1,.83-2.49,2.23c-.76.69-1.66,1.53-2.63,2.48s-1.9,2.14-2.9,3.34-2,2.48-3,3.8a28.3,28.3,0,0,0-2.72,4.1,30.94,30.94,0,0,0-3.34,8c-.12.59-.24,1.16-.35,1.72s-.13,1.12-.17,1.64a26.56,26.56,0,0,0-.1,2.87,9.07,9.07,0,0,0,.93,4.13c1.14,2.06,3.42,2.76,7.11,2.44a12.16,12.16,0,0,0,5.11-1.39A132.14,132.14,0,0,0,32.52,89.19c-.59,1.36-1.17,2.74-1.75,4.13,0-1.29-.05-2.71-.17-4.3a28.31,28.31,0,0,0-.46-3.55,35.23,35.23,0,0,0-1-3.73,76.66,76.66,0,0,0-2.91-7.36c-1-2.3-1.89-4.26-2.6-5.71s-1.16-2.32-1.16-2.32-.74,1.05-1.88,2.79a32.69,32.69,0,0,0-1.79,3.16c-.63,1.21-1.31,2.56-2,4s-1.36,2.93-2,4.46-1,3.17-1.44,4.74a40.14,40.14,0,0,0-.94,4.58,16.41,16.41,0,0,0-.2,4.08c1.11,10.06,3.73,13.1,10.93,10.56a14.35,14.35,0,0,0,4-2,96.91,96.91,0,0,0-3.49,12.44,84.51,84.51,0,0,0-1.92,10.31c-.3-1-.66-2.09-1.08-3.26a28.86,28.86,0,0,0-1.53-3.33,36.82,36.82,0,0,0-2-3.34,75.24,75.24,0,0,0-4.85-6.38c-1.62-2-3.23-3.7-4.27-4.91s-1.77-1.94-1.77-1.94l-.31.85a18.12,18.12,0,0,0-.73,2.36c-.53,2-1.2,4.81-1.8,7.92a32.94,32.94,0,0,0-.68,4.85c-.11,1.67-.17,3.35-.16,5a43.29,43.29,0,0,0,.28,4.68,14.66,14.66,0,0,0,1,4c3.77,9.44,7.17,11.68,13.66,7.34a15.76,15.76,0,0,0,3.12-2.59v.09l-.21,3.74-.1,1.88,0,1.93c0,2.46,0,4.9.23,7.53.09,1.3.17,2.6.25,3.91.12,1,.23,2,.35,3.06-.43-.66-.88-1.34-1.39-2.06a20.87,20.87,0,0,0-2.45-2.81,35.47,35.47,0,0,0-2.86-2.71A77.2,77.2,0,0,0,8,146.3c-2.14-1.47-4.13-2.73-5.58-3.62l-2.3-1.42-.09.9c0,.59,0,1.43,0,2.47,0,2.09.07,5,.29,8.13.07.79.14,1.6.21,2.42s.28,1.63.44,2.46c.32,1.64.7,3.29,1.14,4.87A38.84,38.84,0,0,0,3.57,167a16.45,16.45,0,0,0,2.09,3.61c3.07,4.09,5.61,6.45,8,7a5.28,5.28,0,0,0,3.62-.45,13.52,13.52,0,0,0,3.79-3.11,17.21,17.21,0,0,0,2.12-2.8q.4,1.9.87,3.81a134.08,134.08,0,0,0,5.4,16.58c-.48-.42-1-.85-1.53-1.3a20.35,20.35,0,0,0-3.12-2.07c-1.16-.63-2.43-1.22-3.64-1.8a80.1,80.1,0,0,0-7.68-3c-5-1.7-9.18-2.78-9.18-2.78a112.84,112.84,0,0,0,3.18,11.16c.54,1.5,1.28,3,2,4.54s1.52,3,2.35,4.44a22.81,22.81,0,0,0,2.7,3.9,21.66,21.66,0,0,0,3,2.93,32.23,32.23,0,0,0,5.4,3.55,9.08,9.08,0,0,0,4.41,1c2.61-.12,4.55-1.91,6.32-5.44A19.5,19.5,0,0,0,35,203.7c.3.57.58,1.13.89,1.69a127.65,127.65,0,0,0,10.33,16.06l-1.56-.73a27.4,27.4,0,0,0-7.63-1.91c-1.43-.17-2.88-.31-4.26-.46s-2.79-.23-4.12-.3c-5.33-.29-9.71-.2-9.71-.2s.58,1.17,1.61,3c.52.92,1.14,2,1.86,3.21l1.14,1.86L25,227.81a76,76,0,0,0,6.49,7.6,29.41,29.41,0,0,0,7.41,5.05q1.77.75,3.3,1.26a22.62,22.62,0,0,0,3,.66,10.1,10.1,0,0,0,4.6-.2c2.52-.83,4-3.12,4.86-7.09a17.84,17.84,0,0,0,.44-3.15,129.88,129.88,0,0,0,15.25,14l-1.53-.2a26.66,26.66,0,0,0-7.88.16c-1.42.2-2.88.46-4.31.75l-4.18.91c-5.27,1.15-9.53,2.42-9.53,2.42s.86,1,2.31,2.54a31.22,31.22,0,0,0,2.64,2.61C48.85,256,50,257,51.28,258s2.59,2,4,3a30.49,30.49,0,0,0,4.35,2.6,28.42,28.42,0,0,0,8.45,3c5.24.49,8.85.14,11.09-1.35s3.09-4.15,3-8.33a18.14,18.14,0,0,0-.3-3.07c.26.16.51.33.78.48a126.11,126.11,0,0,0,17.51,8.87l-1.48.21a29.87,29.87,0,0,0-3.73.93A39.49,39.49,0,0,0,91,265.88c-2.66,1.14-5.38,2.56-7.84,3.92l-3.46,2-2.76,1.6c-1.56.92-2.51,1.52-2.51,1.52l.76.52a23,23,0,0,0,2.14,1.35c1.86,1,4.47,2.39,7.42,3.74a34.94,34.94,0,0,0,4.65,1.86c1.64.51,3.3,1,4.93,1.34a39.18,39.18,0,0,0,4.75.79,15.44,15.44,0,0,0,4.28-.17c5.22-.92,8.62-2.19,10.39-4.26s1.92-4.94.73-9.06a20.22,20.22,0,0,0-1.12-3.06A132.47,132.47,0,0,0,137,272.61a21.33,21.33,0,0,0-.13,2.95c.07,2.93.53,5.82.81,8.77s.32,5.94-.47,8a5,5,0,0,1-1.77,2.46,6.45,6.45,0,0,1-3,1.23,2.76,2.76,0,0,1-2.29-.86,5.92,5.92,0,0,1-1.45-5.18,2.92,2.92,0,0,1,.71-1.51,3,3,0,0,1,1.31-.67l.65-.16a3.08,3.08,0,0,0-.52-.47,3,3,0,0,0-2.06-.52,3.93,3.93,0,0,0-2.9,2.14,8.29,8.29,0,0,0-.82,4.2,9.72,9.72,0,0,0,1.54,4.88,7.72,7.72,0,0,0,5.41,3.42,11.75,11.75,0,0,0,6.32-1.14,11.41,11.41,0,0,0,5-4.68,19,19,0,0,0,2.06-5.9,41.64,41.64,0,0,0,.61-5.38c.09-1.53.12-3,.16-4.31a11.83,11.83,0,0,0,7.56,0c0,1.33.07,2.78.16,4.31a41.64,41.64,0,0,0,.61,5.38,19,19,0,0,0,2,5.9,11.48,11.48,0,0,0,5.05,4.68,11.69,11.69,0,0,0,6.31,1.14,7.72,7.72,0,0,0,5.42-3.42,9.72,9.72,0,0,0,1.54-4.88,8.4,8.4,0,0,0-.82-4.2,3.93,3.93,0,0,0-2.9-2.14,3,3,0,0,0-2.06.52,2.28,2.28,0,0,0-.52.47l.64.16a3,3,0,0,1,1.31.67,2.85,2.85,0,0,1,.72,1.51,5.89,5.89,0,0,1-1.46,5.18,2.73,2.73,0,0,1-2.28.86,6.41,6.41,0,0,1-3-1.23,4.92,4.92,0,0,1-1.77-2.46c-.79-2.1-.75-5.13-.47-8s.73-5.84.8-8.77a20.94,20.94,0,0,0-.12-2.93,132.26,132.26,0,0,0,22.89-4.43c-.14.37-.28.74-.42,1.14-2.78,8.1,0,11.54,10.25,13.94a17.47,17.47,0,0,0,4.22.44,39,39,0,0,0,4.72-.54c1.63-.28,3.3-.66,4.95-1.09.82-.22,1.64-.43,2.44-.69l2.29-.88c3-1.2,5.66-2.44,7.57-3.38a20,20,0,0,0,2.22-1.2l.79-.49s-.91-.66-2.39-1.66-3.61-2.47-6-4-5-3.06-7.57-4.35a37.48,37.48,0,0,0-3.81-1.67,31.5,31.5,0,0,0-3.66-1.11l-.11,0a128.18,128.18,0,0,0,16-8.21l.1-.07c0,.34-.08.68-.11,1-.68,8.31,2.94,10.84,13.37,10.5a17.85,17.85,0,0,0,4.07-.83,44.21,44.21,0,0,0,8.88-4c1.41-.91,2.79-1.87,4.08-2.81s2.51-1.88,3.61-2.75l1.54-1.25,1.25-1.19c1.51-1.47,2.42-2.43,2.42-2.43s-4.13-1.55-9.28-3c-1.29-.37-2.7-.8-4.1-1.16s-2.84-.71-4.24-1a26.78,26.78,0,0,0-7.83-.6h-.08a130.23,130.23,0,0,0,13.32-12.25c0,.35.08.7.15,1.07.68,4,2,6.38,4.46,7.36a9.83,9.83,0,0,0,4.53.48,24.16,24.16,0,0,0,3-.47,34.47,34.47,0,0,0,3.33-1,28.08,28.08,0,0,0,7.55-4.6,39,39,0,0,0,3.57-3.48c1.14-1.23,2.24-2.49,3.26-3.72a36.26,36.26,0,0,0,2.73-3.58c.77-1.16,1.44-2.22,2-3.12,1.11-1.79,1.75-2.94,1.75-2.94s-4.32-.38-9.61-.42c-1.32,0-2.71,0-4.1,0s-2.81.13-4.24.22A27.14,27.14,0,0,0,255,220l-.08,0a128.52,128.52,0,0,0,9.2-14.53l.47-.9c.16.39.33.78.52,1.19,1.58,3.61,3.42,5.51,6,5.8a9.25,9.25,0,0,0,4.42-.74,31,31,0,0,0,5.51-3.18,21.06,21.06,0,0,0,3.1-2.73c.52-.54,1-1.12,1.54-1.73s.91-1.28,1.35-2a75.06,75.06,0,0,0,4.76-8.69c.61-1.46,1.11-2.9,1.56-4.21s.84-2.49,1.15-3.5c.63-2,1-3.27,1-3.27s-4.19.78-9.23,2.16a73.94,73.94,0,0,0-7.78,2.51c-.63.25-1.25.51-1.85.78s-1.25.53-1.84.82a20,20,0,0,0-3.2,1.88l-.28.21A139.71,139.71,0,0,0,276,175.13c.24-1,.45-1.92.67-2.87.25.35.53.7.83,1.07,2.55,3.08,4.75,4.41,7.23,4s5.07-2.59,8.3-6.43a21,21,0,0,0,2.29-3.44,39.5,39.5,0,0,0,1.67-4.33c.5-1.54.95-3.15,1.35-4.77a32.44,32.44,0,0,0,.9-4.81c.36-3.13.55-6,.65-8.09,0-1,.06-1.88.08-2.47a7.84,7.84,0,0,0,0-.9ZM288.85,118c.54-1.53,1.13-2.92,1.62-4.13s1-2.18,1.26-2.88l.52-1.08-.33,1.21c-.21.76-.52,1.83-.89,3.12s-.76,2.76-1.34,4.31-1.21,3.22-1.83,4.87L286,128.12c-.29.75-.57,1.47-.84,2.15s-.62,1.32-.87,1.92L283,135c-.34.67-.53,1.06-.53,1.06s.13-.42.34-1.16.55-1.79,1-3,.85-2.71,1.39-4.25,1.13-3.2,1.71-4.86S288.23,119.49,288.85,118Zm-7.87,13c.08-.49.15-1.19.35-2s.41-1.78.73-2.78.71-2,1.11-3.1.94-2,1.41-3,1-1.75,1.36-2.45.78-1.24,1-1.63l.43-.58-.25.73-.68,1.88c-.28.75-.68,1.7-1.09,2.63s-.85,2-1.25,3-.85,2-1.21,3-.75,1.81-1,2.58-.55,1.37-.73,1.82l-.34.69S280.88,131.41,281,130.92Zm-4.93-30.49c0-.76.07-1.87.16-3.18s0-2.81.12-4.43.23-3.37.36-5.12q.15-1.32.3-2.61c.08-.86.11-1.67.17-2.48.11-1.61.31-3.1.45-4.39s.34-2.34.45-3.09.2-1.16.2-1.16,0,.45,0,1.24,0,1.9,0,3.23,0,2.86-.11,4.47-.25,3.39-.37,5.12-.34,3.45-.49,5-.32,3.06-.46,4.33-.41,2.33-.54,3.08l-.23,1.15S276,101.2,276.05,100.43Zm-3-8.27c.05-1,.14-2.16.25-3.28s.39-2.21.51-3.21a26.89,26.89,0,0,1,.56-2.67,17.32,17.32,0,0,1,.55-1.83l.25-.67s0,.28-.05.77-.08,1.17-.14,2-.11,1.76-.23,2.76-.29,2.11-.4,3.2-.28,2.16-.38,3.17-.23,2-.29,2.76-.16,1.47-.21,1.94-.09.73-.09.73,0-.27-.12-.76-.15-1.19-.18-2S273,93.21,273,92.16ZM255.81,44.32l.8,3.12c.29,1.27.71,2.76,1.05,4.33s.8,3.2,1.12,4.91.57,3.4.84,5,.49,3,.7,4.28.37,2.26.41,3,.09,1.17.09,1.17-.11-.42-.29-1.17-.53-1.76-.82-3-.7-2.71-1-4.3-.65-3.31-1-5-.69-3.33-1-4.9-.51-3.06-.71-4.34-.29-2.33-.38-3.08l-.11-1.16Zm-1.63,6.55.06-.71.16.76c.09.47.22,1.14.37,1.95s.32,1.72.51,2.71.41,2,.59,3.08.29,2.14.46,3.15.28,1.93.44,2.73.23,1.46.3,1.92l.11.74s-.12-.26-.31-.71-.45-1.12-.69-1.92-.55-1.74-.77-2.76-.41-2.11-.63-3.21-.35-2.12-.48-3.12-.14-1.92-.17-2.71S254.16,51.33,254.18,50.87Zm-28.7-31.36.67,1c.4.64,1,1.51,1.64,2.69s1.39,2.48,2.13,3.9l2.37,4.4c.39.76.8,1.47,1.15,2.23s.7,1.52,1,2.25c.64,1.44,1.26,2.8,1.78,3.95l1.21,2.77.44,1s-.24-.36-.64-1-1-1.56-1.59-2.68-1.37-2.45-2.09-3.9c-.37-.72-.72-1.5-1.13-2.23s-.82-1.47-1.23-2.22c-.77-1.51-1.53-3-2.25-4.46s-1.29-2.81-1.81-4l-1.25-2.75Zm.91,7.55c-.08-.44-.13-.69-.13-.69l.35.69.87,1.78,1.19,2.48c.42.9.89,1.85,1.38,2.79s1,1.84,1.37,2.79.8,1.79,1.12,2.52.6,1.36.8,1.78l.28.69-.47-.62c-.28-.4-.72-1-1.15-1.68s-1-1.55-1.45-2.48-1.05-1.82-1.56-2.78-.88-1.95-1.27-2.88-.64-1.81-.87-2.56S226.5,27.5,226.39,27.06ZM191.17,5.47c-.44-.56-.7-.87-.7-.87l.91.78c.55.51,1.35,1.22,2.3,2.08s2,1.94,3.11,3.11,2.27,2.4,3.44,3.62l3.34,3.58,2.75,3.35,1.89,2.36.69.9-.86-.81c-.54-.52-1.34-1.25-2.23-2.18l-3-3.19-3.5-3.54L195.94,11c-.53-.6-1-1.19-1.49-1.76l-1.34-1.47C192.27,6.82,191.64,6,191.17,5.47Zm4.69,9.74c-.61-.8-1.1-1.57-1.52-2.23s-.7-1.25-.93-1.6-.32-.59-.32-.59l.53.52c.32.34.77.87,1.3,1.47l1.8,2.08c.65.75,1.35,1.55,2.07,2.32s1.39,1.57,2.06,2.29,1.28,1.37,1.8,2L203.88,23l.45.58-.61-.47c-.37-.32-.94-.75-1.54-1.33s-1.38-1.15-2.11-1.86-1.49-1.49-2.23-2.28S196.47,16,195.86,15.21Zm4.93,24.32c-.39.12-.94.32-1.63.47a22.8,22.8,0,0,1-2.35.46c-.87.1-1.79.19-2.71.25s-1.9.12-2.78.13-1.72-.05-2.42-.1-1.28-.16-1.68-.22l-.63-.13.62-.06,1.66-.13c.69,0,1.48-.13,2.35-.19s1.79-.15,2.72-.27,1.82-.06,2.68-.12,1.69-.09,2.39-.16l1.72-.11.67,0Zm1.52-3.1c-.64.13-1.55.34-2.64.51s-2.36.38-3.71.52-2.85.42-4.29.6-2.91.29-4.25.39-2.57,0-3.67.2-2,.12-2.62.15l-1,0,.95-.2,2.54-.49a36.06,36.06,0,0,1,3.61-.51c1.32-.14,2.75-.31,4.2-.51l4.31-.5,3.76-.22,2.74-.15,1.05,0Zm23.43,20.26c-.42,0-1,.09-1.74.07s-1.55,0-2.44-.1-1.82-.23-2.74-.39-1.81-.45-2.65-.68a23.63,23.63,0,0,1-2.34-.66,16.26,16.26,0,0,1-1.59-.62l-.58-.27.63.09,1.65.26c.69.14,1.5.22,2.36.37s1.73.37,2.64.51,1.81.38,2.67.52,1.68.32,2.39.41l1.73.3.66.12ZM228.09,54c-.67,0-1.62,0-2.74-.13s-2.43-.18-3.8-.36-2.76-.46-4.26-.57-2.94-.41-4.28-.62-2.57-.51-3.6-.74-1.93-.42-2.55-.55l-1-.21,1,0a23.84,23.84,0,0,1,2.58.17l3.61.44c1.34.18,2.79.35,4.26.5s2.9.44,4.26.67l3.77.67,2.73.5,1,.21Zm17.17,25.72c-.41-.09-1-.21-1.67-.39s-1.54-.38-2.4-.68-1.74-.66-2.61-1-1.69-.86-2.45-1.29-1.39-.94-2-1.31-1.07-.74-1.41-1l-.5-.41.6.24,1.57.64c.66.27,1.35.62,2.12,1s1.59.78,2.44,1.15,1.7.78,2.52,1.13,1.58.7,2.26,1,1.2.57,1.57.74l.59.31Zm3.06-2c-.6-.22-1.5-.48-2.61-.83s-2.36-.75-3.68-1.25-2.68-1-4-1.61-2.71-1.15-4-1.68-2.41-1.09-3.37-1.56-1.73-.93-2.27-1.22a8.4,8.4,0,0,0-.86-.48,8,8,0,0,1,.93.29l2.4.88,3.46,1.27c1.25.51,2.73.94,4,1.53s2.66,1.19,3.95,1.73l3.56,1.55c1.07.46,1.95.86,2.52,1.18l.92.51ZM258,107c-.37-.19-.93-.43-1.54-.8s-1.3-.79-2.06-1.3-1.57-1.06-2.34-1.62-1.46-1.24-2.1-1.84a20.36,20.36,0,0,1-1.61-1.76,13,13,0,0,1-1-1.34l-.4-.51.54.37,1.26,1.06c.51.46,1.16.94,1.81,1.51s1.38,1.13,2.13,1.7,1.48,1.17,2.21,1.7,1.33,1.1,1.89,1.53l1.32,1.12.5.45Zm3.6-1.19c-.56-.36-1.38-.84-2.29-1.49s-2.11-1.33-3.27-2.14-2.39-1.67-3.58-2.54-2.24-1.84-3.35-2.66-2.1-1.63-2.94-2.32-1.48-1.3-1.94-1.72l-.69-.68.81.52,2.16,1.42,3.12,2.06c1.19.76,2.23,1.68,3.44,2.53s2.34,1.8,3.48,2.65,2.23,1.67,3.1,2.38l2.06,1.81.79.72Zm1.49,30.73c-.32-.28-.82-.66-1.33-1.18s-1.12-1.1-1.69-1.79-1.2-1.43-1.82-2.17-1.12-1.57-1.61-2.31a22,22,0,0,1-1.15-2.1,14.93,14.93,0,0,1-.64-1.55c-.13-.38-.2-.6-.2-.6l.38.5c.23.33.57.79,1,1.35s.9,1.19,1.4,1.91,1.09,1.45,1.69,2.18,1.16,1.51,1.72,2.22,1,1.4,1.4,2l1,1.43.39.55Zm3.89-.21c-.46-.5-1.15-1.17-1.89-2s-1.57-1.84-2.58-2.91-2-2.23-2.91-3.37-1.79-2.35-2.59-3.43-1.61-2.12-2.23-3-1.14-1.62-1.48-2.14l-.52-.83.68.71,1.78,1.91c.7.82,1.68,1.72,2.51,2.78s1.74,2.19,2.68,3.33,1.86,2.34,2.78,3.45c.46.55.9,1.09,1.3,1.62l1,1.49,1.58,2.29.6.89Zm-6.64,30c-.25-.35-.64-.84-1-1.48s-.84-1.36-1.23-2.17-.74-1.67-1.2-2.56-.72-1.8-1-2.64a23,23,0,0,1-.6-2.33,13.67,13.67,0,0,1-.25-1.65l-.05-.63.25.58c.16.38.38.91.64,1.55s.59,1.39.91,2.2.7,1.69,1.11,2.55.78,1.77,1.08,2.58.61,1.6.9,2.26l.66,1.65.24.64Zm3.93.84c-.34-.6-.85-1.44-1.37-2.46l-1.76-3.48c-.68-1.3-1.37-2.67-2-4s-1.19-2.72-1.7-4c-.27-.62-.45-1.23-.71-1.82s-.48-1.13-.69-1.64c-.43-1-.71-1.86-.92-2.45l-.3-.93.49.86,1.28,2.3c.49,1,1.24,2.11,1.73,3.34s1.16,2.56,1.81,3.91,1.25,2.74,1.88,4,1,2.55,1.48,3.61.76,2,1,2.63l.37,1ZM249.9,194.18a18.35,18.35,0,0,1-.66-1.72c-.22-.72-.5-1.55-.69-2.45s-.35-1.85-.49-2.79-.2-1.9-.28-2.8a22.24,22.24,0,0,1,0-2.41,15.74,15.74,0,0,1,.15-1.66l.11-.62.11.63c.06.4.15,1,.25,1.67s.25,1.5.37,2.38.29,1.81.45,2.75.19,1.86.33,2.75.21,1.72.34,2.45.19,1.34.25,1.78.09.69.09.69Zm3.66,1.89c-.18-.67-.49-1.63-.75-2.77s-.61-2.46-.87-3.85-.59-2.91-.91-4.39-.52-3-.72-4.32-.24-2.59-.41-3.67-.24-2-.31-2.61-.07-1-.07-1l.28.95.7,2.57c.31,1.09.51,2.28.77,3.64s.53,2.79.84,4.27.64,3,.8,4.41.36,2.73.51,3.88.27,2.14.35,2.82.12,1.1.12,1.1Zm-19.29,8.31c0,.41-.09,1-.15,1.71s-.08,1.56-.22,2.42-.26,1.78-.35,2.72-.25,1.88-.32,2.79-.2,1.76-.24,2.51-.13,1.38-.18,1.82-.09.7-.09.7,0-.25-.12-.71-.18-1.11-.23-1.88-.12-1.66-.1-2.6.09-1.91.17-2.88.32-1.88.5-2.73.41-1.67.58-2.35a13.58,13.58,0,0,1,.54-1.59l.25-.58Zm3.18-2.6c0,1.1-.1,2.38-.16,3.74s-.14,2.9-.18,4.44-.31,3-.43,4.41l-.41,4c-.13,1.19-.25,2.18-.33,2.88a9.66,9.66,0,0,1-.17,1.08s0-.38,0-1.1-.09-1.74-.08-2.94,0-2.59.06-4,.19-3,.31-4.44.19-3,.31-4.43.33-2.64.49-3.7.39-1.9.44-2.54.17-1,.17-1,0,.37,0,1A23.71,23.71,0,0,1,237.45,201.78Zm-27,33.64-.68,1.66-.27.63s0-.26.07-.71.12-1.1.28-1.83.34-1.6.57-2.54.54-1.89.85-2.82.74-1.79,1.13-2.59a20,20,0,0,1,1.19-2.05l.94-1.38.38-.51-.19.64c-.13.39-.3,1-.57,1.61s-.54,1.41-.89,2.21-.67,1.69-1,2.6-.68,1.81-1,2.69S210.73,234.76,210.47,235.42Zm1.21,6.33s.08-.4.24-1.09.39-1.66.73-2.78.61-2.57,1-4,.88-2.89,1.34-4.33,1.07-2.75,1.48-4.14.94-2.52,1.34-3.53.81-1.79,1.08-2.35l.44-.85-.24,1-.7,2.53c-.3,1.07-.65,2.33-1,3.67-.2.68-.4,1.39-.61,2.11l-.71,2.1c-.52,1.4-1,2.85-1.49,4.23s-1,2.7-1.34,3.83-.84,2-1.11,2.62Zm-29.29,7.88s.08-.25.24-.69.39-1.06.73-1.75.73-1.5,1.21-2.29l.77-1.2q.39-.63.78-1.29c.57-.81,1.15-1.58,1.72-2.28a17.52,17.52,0,0,1,1.65-1.73,13,13,0,0,1,1.27-1.06l.51-.35-.36.53-1,1.38c-.43.55-.86,1.26-1.39,2s-1.06,1.52-1.59,2.34-1.08,1.67-1.61,2.37-1.06,1.4-1.47,2-.8,1.12-1.06,1.47ZM184,253.2c.34-.63.79-1.55,1.4-2.58s1.3-2.17,2-3.51l2.37-4c.84-1.27,1.69-2.5,2.48-3.61s1.53-2.23,2.18-3.09,1.21-1.58,1.59-2.07l.63-.73s-.16.32-.46.89l-1.28,2.34c-.56.94-1.14,2.19-1.89,3.35s-1.57,2.4-2.37,3.69-1.69,2.57-2.48,3.83-1.62,2.33-2.3,3.29l-1.73,2.3-.69.88Zm-80.23-18.1,1.08,2.51c.44,1,1,2.29,1.64,3.57s1.4,2.56,2.19,3.88,1.59,2.69,2.4,3.94l1.18,1.82c.4.54.78,1.05,1.15,1.51l1.76,2.3.68.9-.84-.73c-.51-.47-1.27-1.13-2.08-2-.4-.44-.86-.87-1.29-1.41s-.89-1.12-1.32-1.74c-.87-1.23-1.74-2.56-2.56-3.88s-1.49-2.72-2.1-4-1-2.7-1.35-3.82-.57-2.07-.73-2.73l-.22-1Zm-.18,7.25.72,1.72c.27.75.73,1.44,1.14,2.3s.91,1.71,1.44,2.57,1,1.77,1.56,2.58,1,1.6,1.48,2.24.82,1.24,1.12,1.57.43.57.43.57l-.59-.4a9.59,9.59,0,0,1-1.43-1.28,24.28,24.28,0,0,1-1.79-2c-.59-.79-1.18-1.66-1.74-2.54s-1-1.85-1.35-2.73a13.8,13.8,0,0,1-.83-2.56,15.82,15.82,0,0,1-.36-1.91l-.09-.74Zm-23.1-22.13c0-.66,0-1,0-1l.17,1,.46,2.64c.17,1.11.47,2.4.73,3.81.15.72.31,1.45.46,2.19s.42,1.43.64,2.16c.42,1.46.9,2.93,1.39,4.32s.92,2.72,1.36,3.85.86,2,1.13,2.65l.44,1-.64-.89a17.15,17.15,0,0,1-1.49-2.46c-.54-1.09-1.16-2.35-1.71-3.73s-1.07-2.85-1.55-4.31a36.3,36.3,0,0,1-1-4.49c-.23-1.44-.33-2.8-.41-3.94S80.45,220.88,80.44,220.22ZM78.54,227c.06-.45.09-.71.09-.71l.12.68c.07.44.18,1.06.3,1.81s.31,1.61.47,2.56a19.23,19.23,0,0,0,.73,2.85c.27,1,.58,1.92.9,2.82s.6,1.76.9,2.48.51,1.36.68,1.79l.25.7-.45-.58c-.26-.38-.67-.91-1.06-1.59a24.69,24.69,0,0,1-1.24-2.38c-.38-.9-.75-1.86-1.07-2.84a19.64,19.64,0,0,1-.59-3,24.38,24.38,0,0,1-.14-2.69A17.22,17.22,0,0,1,78.54,227ZM60.83,206.11c.1-1.43.32-2.74.5-3.84A18,18,0,0,1,62,199.6l.32-1s0,.37-.12,1-.14,1.56-.2,2.66-.1,2.39-.17,3.8-.08,2.93,0,4.49A40.35,40.35,0,0,0,62,215c.17,1.43.26,2.81.43,4s.27,2.2.36,2.9S63,223,63,223s-.14-.38-.36-1.06-.5-1.64-.76-2.81-.57-2.52-.78-4a31.28,31.28,0,0,1-.41-4.55C60.66,209.09,60.72,207.54,60.83,206.11Zm-3.35,3.78a23.07,23.07,0,0,1,.48-2.58,16.61,16.61,0,0,1,.54-1.77c.17-.41.26-.65.26-.65s0,.25,0,.68-.08,1.05-.13,1.79-.07,1.61-.14,2.54-.07,1.95-.05,3a17.66,17.66,0,0,0,.15,2.95c.12.93.16,1.82.29,2.58s.18,1.41.24,1.86l.08.73-.3-.66a18.77,18.77,0,0,1-.65-1.78,21.81,21.81,0,0,1-.65-2.57,18.41,18.41,0,0,1-.27-3C57.32,211.88,57.38,210.85,57.48,209.89ZM45.56,185c.38-1.5.8-3,1.23-4.29a23.92,23.92,0,0,1,1.45-3.56c.49-1,1-1.85,1.31-2.42l.55-.88-.35.94-.94,2.53c-.45,1.07-.67,2.27-1.09,3.6s-.75,2.79-1.08,4.27-.76,3-1,4.43-.39,2.75-.5,3.91-.25,2.17-.33,2.85l-.13,1.1-.09-1.1c0-.7-.11-1.7-.08-2.88s0-2.54.15-4S45.24,186.52,45.56,185Zm-4.25,4.28c.13-1,.31-2,.52-3s.57-2,.89-2.86a21,21,0,0,1,1.05-2.33,14.42,14.42,0,0,1,.92-1.54l.42-.56s-.1.24-.22.64l-.53,1.67c-.24.69-.44,1.52-.72,2.39s-.51,1.84-.73,2.82-.48,2-.65,2.9a19.14,19.14,0,0,0-.4,2.57c-.08.75-.15,1.39-.2,1.83s-.09.71-.09.71,0-.25-.13-.7a17.33,17.33,0,0,1-.22-1.87A13.77,13.77,0,0,1,41.31,189.29Zm2.38-68.55c.89-.66,1.68-1.13,2.21-1.47l.86-.51-.73.66-2,1.76c-.82.72-1.8,1.63-2.76,2.59s-1.91,2.07-2.87,3.21-2,2.26-2.89,3.39L34.23,132c-.42.52-.74,1-1.06,1.51-.66,1-1.2,1.75-1.58,2.31l-.61.89s.15-.36.43-1,.69-1.53,1.25-2.55a24.08,24.08,0,0,1,2.17-3.36c.89-1.17,1.84-2.38,2.81-3.53s2-2.2,3-3.15S42.79,121.4,43.69,120.74ZM29.94,131.86c.19-.41.45-1,.83-1.71a25.49,25.49,0,0,1,1.39-2.28c.56-.78,1.18-1.58,1.82-2.36s1.39-1.43,2.06-2.05a12.43,12.43,0,0,1,2-1.5c.62-.41,1.19-.67,1.57-.88s.62-.28.62-.28l-.51.45-1.34,1.18c-.59.47-1.08,1.11-1.74,1.73s-1.27,1.35-1.91,2.1-1.3,1.47-1.88,2.2-1.16,1.41-1.62,2-.89,1.11-1.14,1.48l-.39.58S29.8,132.3,29.94,131.86ZM55.05,92.58,56,92.3l-.86.46L52.84,94c-1,.49-2.06,1.15-3.28,1.82A31.66,31.66,0,0,0,46,98.16c-1.21.82-2.43,1.7-3.57,2.56s-2.25,1.65-3.14,2.4L37.19,105l-.81.71.67-.86c.44-.52,1-1.31,1.83-2.14s1.87-1.77,3-2.68,2.32-1.84,3.53-2.72l1.84-1.21c.62-.38,1.29-.71,1.91-1,1.25-.64,2.44-1.13,3.45-1.55S54.47,92.78,55.05,92.58Zm-15.2,4.87c.73-.62,1.52-1.24,2.32-1.83a20.45,20.45,0,0,1,2.49-1.46A21,21,0,0,1,47,93.25a15.27,15.27,0,0,1,1.7-.46l.66-.12-.59.31-1.56.81c-.66.32-1.4.76-2.2,1.19s-1.54,1-2.32,1.56-1.6,1.09-2.33,1.66-1.45,1.07-2,1.55l-1.45,1.15-.57.44.43-.59c.29-.35.68-.89,1.22-1.45S39.13,98.07,39.85,97.45ZM68.44,69.33c1.06-.18,1.93-.23,2.54-.29l1-.05-.93.25-2.47.66c-1,.25-2.24.63-3.56,1s-2.79.77-4.13,1.31-2.73,1.08-4,1.64-2.53,1.07-3.58,1.57-2,.86-2.54,1.19l-.94.49.85-.67A22.24,22.24,0,0,1,53,74.88c1-.58,2.21-1.26,3.5-1.88s2.66-1.23,4-1.8,2.9-.84,4.25-1.17S67.39,69.5,68.44,69.33Zm-13.14.72A28,28,0,0,1,58,68.84c1-.28,1.95-.52,2.85-.72a24.18,24.18,0,0,1,2.46-.32,15.4,15.4,0,0,1,1.72,0l.64,0L65,68l-1.67.42c-.7.15-1.5.41-2.38.62a25,25,0,0,0-2.72.85c-.89.32-1.78.68-2.62,1.05s-1.63.69-2.31,1l-1.66.76L51,73l.55-.46c.37-.28.87-.7,1.52-1.12S54.46,70.48,55.3,70.05ZM90.12,50a20,20,0,0,1,2.56.42l.95.22-1,0c-.62,0-1.55-.09-2.58,0s-2.29.11-3.63.15-2.8.15-4.29.28c-.73,0-1.5.09-2.21.19l-2.09.35c-1.36.26-2.67.45-3.79.69l-2.75.52-1,.2,1-.39c.66-.22,1.59-.57,2.71-.89s2.41-.71,3.79-1c.7-.14,1.39-.31,2.13-.41L82.16,50c1.5-.1,3-.15,4.33-.16S89.08,50,90.12,50Zm-9.79-2.87c1,0,2-.06,2.88,0a19.45,19.45,0,0,1,2.42.25,14.47,14.47,0,0,1,1.63.35l.6.18-.65,0-1.69,0c-.7,0-1.53.05-2.42.05s-1.85.08-2.81.17a19.8,19.8,0,0,0-2.85.28c-.88.18-1.72.28-2.44.45l-1.77.35-.69.13.65-.32c.41-.18,1-.47,1.73-.72a24,24,0,0,1,2.46-.78C78.33,47.38,79.34,47.25,80.33,47.15Zm38.25-9,.86.42-.94-.25-2.49-.7a32.5,32.5,0,0,0-3.54-.79c-1.3-.25-2.72-.5-4.17-.71s-2.91-.48-4.32-.65-2.66-.18-3.79-.21l-2.75-.13-1.06,0,1.08-.14c.68-.06,1.66-.18,2.82-.23a37.53,37.53,0,0,1,3.89-.06c1.44.14,2.94.32,4.41.52s2.88.55,4.18.85c.65.15,1.26.32,1.84.49l1.63.61C117.24,37.49,118,37.89,118.58,38.14ZM104.69,31.7c1,.07,2,.17,2.92.31s1.9.4,2.76.63a20.37,20.37,0,0,1,2.24.79,9.88,9.88,0,0,1,1.47.74l.54.34-.64-.18c-.39-.11-1-.22-1.63-.38s-1.47-.3-2.32-.5-1.78-.36-2.73-.5-1.89-.32-2.81-.43a23.17,23.17,0,0,0-2.5-.25l-1.78-.08-.68,0,.7-.15c.44-.08,1.08-.22,1.83-.29A17.62,17.62,0,0,1,104.69,31.7ZM88.93,20.1l.28-.64a17.64,17.64,0,0,1,.87-1.67c.42-.69.91-1.49,1.54-2.33s1.36-1.7,2.12-2.57a31.34,31.34,0,0,1,2.57-2.25c.86-.69,1.75-1.27,2.5-1.78s1.44-.87,1.91-1.14l.75-.41-.61.53-1.6,1.37c-.68.55-1.39,1.23-2.19,1.92s-1.62,1.46-2.39,2.23S93.15,15,92.48,15.8,91.17,17.32,90.67,18l-1.26,1.54C89.11,19.89,88.93,20.1,88.93,20.1Zm3.92.15L91,22.62l-.72.89.52-1c.36-.6.84-1.48,1.54-2.51s1.5-2.24,2.5-3.5a41.16,41.16,0,0,1,3.38-3.7c1.27-1.2,2.58-2.39,3.86-3.48a34.76,34.76,0,0,1,3.7-2.84c1.13-.74,2.16-1.31,2.85-1.73l1.13-.62-1,.75-2.54,2a42.52,42.52,0,0,0-3.41,3c-1.22,1.11-2.48,2.31-3.68,3.51s-2.44,2.36-3.49,3.55S93.62,19.26,92.85,20.25ZM59.1,39.38l-.32.69.1-.7a15.24,15.24,0,0,1,.4-1.85,26.06,26.06,0,0,1,.87-2.65c.4-1,.87-2,1.38-3s1.17-2.05,1.79-3,1.37-1.68,2-2.37,1.17-1.21,1.55-1.59l.63-.58s-.16.25-.45.67l-1.19,1.74c-.52.7-1,1.55-1.63,2.43a27.79,27.79,0,0,0-1.62,2.91c-.54,1-1,2-1.48,2.94s-.88,1.81-1.19,2.57S59.29,38.93,59.1,39.38Zm3.58-.11-1.21,2.78L61,43.1,61.25,42c.19-.67.42-1.65.82-2.83s.87-2.56,1.5-4a46.86,46.86,0,0,1,2.19-4.61c.91-1.49,1.87-3,2.82-4.37s2-2.67,2.81-3.76a21.86,21.86,0,0,1,2.26-2.49l.93-.9-.74,1c-.46.64-1.18,1.46-1.9,2.62s-1.57,2.44-2.48,3.83-1.79,2.88-2.64,4.36a36.83,36.83,0,0,0-2.33,4.48C63.83,36.76,63.17,38.11,62.68,39.27Zm-25.5,16c-.29,1-.56,2.17-.79,3.27s-.5,2.2-.68,3.23-.38,2-.49,2.79-.21,1.52-.25,2-.08.78-.08.78,0-.26-.13-.72a14.25,14.25,0,0,1-.17-2,24.25,24.25,0,0,1,.15-2.79c.14-1,.32-2.17.55-3.31s.62-2.28,1-3.35a25.17,25.17,0,0,1,1.16-2.91c.4-.81.83-1.47,1.11-1.93l.46-.72-.26.77c-.17.47-.42,1.16-.71,2S37.49,54.22,37.18,55.25Zm3,1c-.39,1.72-.73,3.43-1,5s-.56,3.05-.72,4.3a29,29,0,0,0-.4,3l-.11,1.17s0-.41-.1-1.13a19.44,19.44,0,0,1,0-3c.08-1.24.17-2.7.39-4.3s.53-3.33.88-5.07a38.89,38.89,0,0,1,1.51-5c.56-1.6,1.21-3.08,1.76-4.36s1.09-2.34,1.45-3.08.63-1.15.63-1.15A12.51,12.51,0,0,0,44,43.8c-.26.75-.63,1.83-1.06,3.12s-.89,2.77-1.41,4.35A47.47,47.47,0,0,0,40.17,56.21ZM18.62,99.33a17.62,17.62,0,0,1-.71-1.85,20.13,20.13,0,0,1-.74-2.8c-.15-1.05-.26-2.19-.33-3.35s0-2.37.06-3.5.22-2.2.36-3.12.32-1.69.44-2.23.27-.81.27-.81,0,.29-.06.81,0,1.27-.05,2.17,0,1.91,0,3,0,2.24.08,3.37.09,2.27.19,3.3a24.27,24.27,0,0,0,.37,2.87c.14.84.26,1.54.34,2s.12.77.12.77Zm3.61,1.17c-.23-.7-.59-1.69-.92-2.94a30.07,30.07,0,0,1-.82-4.29c-.2-1.61-.37-3.36-.49-5.14s-.12-3.65,0-5.34.39-3.3.59-4.68.47-2.55.63-3.36.29-1.28.29-1.28,0,.46-.08,1.26-.13,1.94-.22,3.3S21.05,81,21,82.61a41.87,41.87,0,0,0,.12,5.22c.07,1.77.19,3.51.34,5.12s.22,3.08.46,4.36.42,2.35.55,3.1.2,1.17.2,1.17S22.49,101.18,22.23,100.5Zm-10.6,34.73a18.89,18.89,0,0,1-1.21-1.61,25.2,25.2,0,0,1-1.5-2.51A21,21,0,0,1,7.62,128c-.33-1.14-.62-2.3-.87-3.41s-.36-2.19-.47-3.11-.12-1.72-.15-2.27,0-.87,0-.87.08.29.21.81.32,1.24.54,2.11.5,1.85.77,2.92.62,2.16,1,3.23a29.81,29.81,0,0,0,1.09,3.15c.45,1,.82,1.92,1.2,2.68s.67,1.42.88,1.87l.33.72Zm3.89.18c-.41-.61-1-1.47-1.69-2.6a28.12,28.12,0,0,1-2.07-3.94c-.62-1.5-1.25-3.15-1.84-4.84s-1-3.49-1.47-5.17a31.53,31.53,0,0,1-.75-4.7c-.17-1.39-.21-2.58-.27-3.41s0-1.32,0-1.32l.25,1.24c.16.79.38,1.91.66,3.26s.58,2.85,1,4.5,1,3.36,1.59,5,1.12,3.35,1.7,4.86c.28.76.56,1.49.82,2.18s.61,1.34.9,1.93c.57,1.17,1,2.16,1.37,2.84s.51,1.08.51,1.08ZM14.2,171.78a19.51,19.51,0,0,1-1.61-1.24,27.64,27.64,0,0,1-2.14-2,22.53,22.53,0,0,1-2.16-2.71c-.62-1-1.22-2-1.75-3.06s-.93-2-1.28-2.9-.56-1.63-.73-2.16l-.24-.84s.16.26.42.73l1.08,1.9c.42.8,1,1.67,1.53,2.63S8.49,164,9.13,165a20.6,20.6,0,0,0,2,2.75c.7.83,1.31,1.65,1.88,2.29l1.36,1.58.51.61Zm3.92-.86c-.57-.49-1.4-1.16-2.34-2.07a37.12,37.12,0,0,1-3.13-3.27c-1-1.29-2.06-2.72-3.09-4.2s-1.94-3.1-2.81-4.62c-.42-.77-.85-1.52-1.17-2.25s-.59-1.45-.85-2.09c-.53-1.3-.89-2.45-1.16-3.24s-.4-1.26-.4-1.26l.58,1.14c.37.72.89,1.74,1.51,3a42.67,42.67,0,0,0,2.25,4.08c.89,1.47,1.88,3,2.89,4.46s2,3,2.94,4.26,2,2.52,2.84,3.51l2.08,2.4.78.9Zm8.19,35.59c-.45-.18-1.12-.39-1.89-.77a26.9,26.9,0,0,1-2.61-1.41c-.94-.6-1.92-1.28-2.89-2a23.35,23.35,0,0,1-2.57-2.48c-.77-.84-1.43-1.73-2-2.47s-1-1.44-1.27-1.91l-.44-.76.59.6,1.55,1.57c.62.66,1.39,1.35,2.17,2.14a31.41,31.41,0,0,0,2.54,2.29c.92.75,1.85,1.46,2.74,2.09s1.7,1.25,2.42,1.71l1.73,1.18.65.46ZM30,204.59c-.68-.31-1.67-.74-2.83-1.37s-2.51-1.38-3.93-2.31A38.76,38.76,0,0,1,19,197.7c-1.35-1.21-2.7-2.49-3.94-3.74a43,43,0,0,1-3.23-3.63c-.85-1.12-1.5-2.14-2-2.84l-.71-1.12.86.95,2.25,2.49c.86,1.06,2.17,2.11,3.39,3.32s2.61,2.4,4,3.56A44.86,44.86,0,0,0,23.67,200c1.38,1,2.64,1.89,3.74,2.61l2.64,1.77,1,.67Zm12.28-55.25c.71-.87,1.38-1.53,1.82-2l.73-.72-.56.83-1.5,2.21a38,38,0,0,0-2,3.22c-.67,1.18-1.36,2.49-2,3.83s-1.39,2.7-2,4a32.79,32.79,0,0,0-1.51,3.64l-1,2.65-.38,1s.06-.39.18-1.08.3-1.66.59-2.78l.48-1.81c.22-.65.48-1.32.77-2,.57-1.36,1.21-2.77,1.88-4.14s1.46-2.65,2.18-3.82A30.75,30.75,0,0,1,42.25,149.34Zm-10.7,14.31a8.3,8.3,0,0,1,.33-1.86,24.1,24.1,0,0,1,.79-2.56c.36-.9.77-1.84,1.21-2.76s1-1.74,1.52-2.52A17.17,17.17,0,0,1,37,152a18,18,0,0,1,1.34-1.25l.54-.44-.38.57c-.24.35-.63.87-1,1.48s-.78,1.35-1.25,2.12-.93,1.64-1.36,2.53-.92,1.75-1.31,2.62-.8,1.66-1.09,2.38a16.44,16.44,0,0,0-.69,1.72l-.25.66S31.53,164.11,31.55,163.65Zm15.57,73.28a20.09,20.09,0,0,1-2-.24,25.08,25.08,0,0,1-2.9-.68c-1.06-.34-2.18-.74-3.31-1.2s-2.21-1.08-3.23-1.64a17.83,17.83,0,0,1-2.6-1.85c-.74-.58-1.31-1.15-1.71-1.52l-.62-.63.73.43,1.9,1.11c.77.48,1.67,1,2.66,1.49s2.1,1,3.2,1.45,2.16.94,3.18,1.32,2,.77,2.78,1l2,.69c.47.18.76.26.76.26Zm4-2.78a8.12,8.12,0,0,1-.88-.1c-.74-.13-1.81-.27-3.09-.59s-2.79-.67-4.4-1.21-3.34-1.17-5.06-1.87-3.25-1.71-4.77-2.59-2.9-1.85-4.09-2.66A24.54,24.54,0,0,1,26.05,223l-1-.91,1.08.7c.66.46,1.68,1.06,2.93,1.75s2.68,1.45,4.19,2.29,3.14,1.64,4.76,2.4,3.36,1.43,4.93,2,3,1.14,4.29,1.55l3,1a10.17,10.17,0,0,0,1.16.36ZM75.3,260.83a21,21,0,0,1-2.1.39,16,16,0,0,1-3,.17c-1.11-.06-2.3-.16-3.51-.31s-2.41-.49-3.55-.78-2.18-.69-3.07-1a11.64,11.64,0,0,1-2.08-1l-.76-.45.82.22c.52.14,1.23.38,2.15.56s2,.39,3.06.63,2.29.43,3.46.59,2.33.35,3.42.46,2.07.27,3,.24l2.15,0,.82,0Zm2.31-3.69c-.78.11-1.88.3-3.25.39s-2.87.08-4.57,0-3.52-.28-5.38-.51a40,40,0,0,1-5.4-1.12c-1.7-.47-3.27-1-4.63-1.54s-2.48-1-3.27-1.33l-1.23-.57,1.28.34,3.33.88c1.37.39,3,.73,4.64,1.15l2.58.59c.91.14,1.83.27,2.74.38,1.83.28,3.64.5,5.32.66s3.22.33,4.54.4,2.49.05,3.27.07l1.23,0Zm31.24,19.44a18.64,18.64,0,0,1-1.93.94,26,26,0,0,1-2.92,1.05c-.55.15-1.13.3-1.73.43s-1.18.2-1.78.28c-1.22.1-2.46.16-3.63.17s-2.29-.12-3.24-.21-1.75-.27-2.31-.36l-.87-.2.87,0,2.26-.1c.93,0,2-.12,3.13-.17s2.33-.17,3.5-.33a23.89,23.89,0,0,0,3.45-.49c1.09-.26,2.13-.44,3-.68l2.1-.51.8-.19Zm1.29-4.27c-.72.31-1.75.79-3,1.24a32.93,32.93,0,0,1-4.49,1.37c-1.67.34-3.49.65-5.34.91s-3.77.33-5.58.41a34,34,0,0,1-4.91-.23c-1.44-.13-2.65-.34-3.5-.47l-1.34-.24h4.79c1.43,0,3,0,4.8-.12s3.64-.33,5.47-.58,3.65-.45,5.31-.74a41.44,41.44,0,0,0,4.55-1l3.19-.81,1.2-.3Zm106.09,2.43,1.23.33-1.31-.09-3.39-.29c-1.39-.18-3-.23-4.7-.51l-5.38-.88-5.23-.91c-.83-.14-1.62-.27-2.37-.44l-2.14-.52-3.17-.8-1.18-.33,1.23.09c.78.09,1.91.17,3.26.37.67.09,1.42.23,2.19.31s1.58.15,2.41.26l5.31.77,5.36,1c1.69.26,3.25.6,4.61.86S215.44,274.56,216.23,274.74Zm-14.6-6.69c1.14.27,2.28.56,3.35.86s2,.68,2.85.93,1.46.59,1.93.78l.71.34-.81-.11-2.08-.33c-.83-.14-1.88-.35-2.93-.6s-2.2-.47-3.33-.68-2.24-.47-3.28-.65-2-.4-2.84-.53-1.51-.29-2-.41l-.78-.21.8,0c.52,0,1.22-.07,2.08,0s1.87,0,3,.16S200.47,267.85,201.63,268.05Zm-60.83.49a9.17,9.17,0,1,1,9.17,9.17A9.17,9.17,0,0,1,140.8,268.54Zm104.08-16.05c1.38-.1,2.53-.1,3.34-.13h1.27l-1.29.26-3.34.59c-1.38.2-3,.52-4.65.75l-2.57.38-2.72.3-5.29.47c-1.66.18-3.21.25-4.51.38s-2.47.06-3.24.08h-1.23l1.22-.22c.76-.14,1.92-.28,3.21-.54s2.84-.53,4.52-.75l5.32-.63c1.86-.09,3.6-.38,5.3-.55S243.51,252.59,244.88,252.49ZM232.61,250c1.19,0,2.31-.11,3.38-.15s2.07,0,2.92.09,1.56.18,2.06.24l.77.14-.81.1-2.09.22c-.85.06-1.85.22-2.89.29s-2.2.17-3.34.27-2.28.12-3.34.22-2,.13-2.88.23l-2,.15-.77,0,.74-.27c.47-.15,1.15-.4,2-.59s1.82-.44,2.9-.6S231.44,250.06,232.61,250ZM270,223.55c1.32-.44,2.4-.75,3.12-1l1.16-.38-1.11.62c-.68.39-1.76.88-3,1.46s-2.72,1.26-4.29,1.91l-4.82,2.12c-1.6.7-3.38,1.25-4.93,1.85s-3,1.06-4.27,1.52l-3,1c-.71.24-1.14.35-1.14.35s.4-.19,1.07-.57,1.65-.88,2.86-1.44,2.63-1.23,4.19-1.87,3.3-1.28,4.89-2l4.89-2C267.22,224.49,268.73,224,270,223.55Zm-12.35.85c1.06-.39,2.14-.75,3.16-1.06s2-.5,2.84-.68,1.54-.24,2-.31l.78-.07-.75.31-2,.75c-.81.27-1.73.68-2.73,1s-2,.77-3.05,1.2-2.09.77-3.09,1.12-1.94.65-2.73,1l-1.93.67-.73.24.65-.45c.42-.26,1-.67,1.78-1.07s1.65-.89,2.65-1.31S256.63,224.84,257.68,224.4Zm29-35.3c1.06-.8,2-1.39,2.62-1.84l1-.67-.91.89-2.4,2.24c-1,.9-2.27,1.94-3.58,3l-4.11,3.3c-1.41,1.07-2.72,2.18-4.08,3.15s-2.67,1.81-3.74,2.57l-2.63,1.76-1,.65.88-.84c.58-.51,1.38-1.28,2.41-2.12s2.23-1.86,3.58-2.89l4-3.32,4.22-3.17C284.28,190.78,285.63,189.92,286.65,189.1Zm-14.06,6.23c.8-.69,1.67-1.41,2.57-2.11s1.86-1.28,2.77-1.85,1.79-1,2.54-1.4,1.42-.64,1.87-.84l.7-.28a7.19,7.19,0,0,1-.62.5l-1.69,1.24-2.36,1.7c-.86.61-1.76,1.27-2.63,2s-1.78,1.3-2.59,1.94-1.61,1.17-2.3,1.67L269.16,199l-.65.42.51-.59c.35-.37.82-.92,1.46-1.49S271.8,196,272.59,195.33Zm7-29.68c.25-.44.54-1.1.93-1.84s.86-1.61,1.44-2.49,1.24-1.8,1.91-2.71,1.46-1.73,2.17-2.51,1.47-1.44,2-2,1.1-1,1.46-1.3l.57-.45-.43.64c-.29.4-.67,1-1.19,1.64l-1.81,2.26c-.66.81-1.35,1.68-2,2.57s-1.37,1.72-2,2.55-1.21,1.56-1.68,2.23a16.33,16.33,0,0,1-1.26,1.56l-.51.58S279.32,166.1,279.55,165.65Zm16.16-16.3c-.42.67-1,1.63-1.71,2.78s-1.46,2.46-2.52,3.81l-3.07,4.24-3.05,4.11c-.9,1.33-2,2.46-2.81,3.48l-2.07,2.39-.79.88.63-1c.42-.65,1-1.6,1.78-2.68.38-.54.8-1.14,1.25-1.76l1.29-2,3-4.25,3.21-4.16,2.73-3.56c.8-1.05,1.52-1.86,2-2.45l.8-.91Z"/><path d="M150,276a7.48,7.48,0,0,0,7.47-7.47c0-4.13-3.35,0-7.47,0s-7.47-4.13-7.47,0A7.47,7.47,0,0,0,150,276Z"/><polygon points="222.35 160.51 201.85 160.51 201.85 125 222.35 125 214.46 142.75 222.35 160.51"/><polygon points="83.36 160.51 103.86 160.51 103.86 125 83.36 125 91.26 142.75 83.36 160.51"/><path d="M83.63,189.1l1.49-.12c1-.07,2.4-.21,4.21-.32,3.63-.24,8.82-.55,15-.81,3.11-.14,6.48-.28,10-.38s7.32-.24,11.21-.29,7.91-.18,12-.19l12.38-.07,12.38.07c4.08,0,8.1.13,12,.19s7.65.18,11.21.29,6.94.24,10,.37c6.22.26,11.41.58,15,.82s5.7.44,5.7.44-2.07.19-5.7.43-8.82.56-15,.82c-3.11.13-6.48.28-10,.37s-7.32.24-11.21.29-7.91.19-12,.19l-12.38.07-12.38-.07c-4.08,0-8.1-.13-12-.19s-7.65-.19-11.21-.29-6.94-.24-10-.38c-6.22-.26-11.41-.57-15-.81-1.81-.11-3.24-.25-4.21-.32Z"/><path d="M150,8.13l1.53,3.11.76,1.54L154,13l3.43.5-2.48,2.41-1.23,1.2.29,1.7.59,3.41-3.07-1.61-1.52-.8-1.52.8-3.07,1.61.59-3.41.29-1.7-1.23-1.2-2.48-2.41L146,13l1.7-.25.76-1.54L150,8.13Zm0-7.38-4.46,9-10,1.45,7.23,7-1.71,10,8.93-4.7,8.93,4.7-1.71-9.95,7.23-7-10-1.45L150,.75Z"/></g></g></svg>