<svg xmlns="http://www.w3.org/2000/svg" viewBox="0 0 300 284.93" fill="#4e76cd"><title>Fichier 12</title><g id="Calque_2" data-name="Calque 2"><g id="Calque_1-2" data-name="Calque 1"><path d="M137.91,250.16a7.64,7.64,0,0,0-1.62-3,15.53,15.53,0,0,0-2.93-2.68,40.59,40.59,0,0,0-3.68-2.46c-.65-.39-1.32-.74-2-1.11s-1.32-.76-2-1.11-1.31-.68-1.94-1-1.24-.66-1.83-.95c-1.18-.62-2.27-1.14-3.19-1.56-1.82-1-3-1.51-3-1.51s.39.68,1,1.84l2.39,4.67c.46.94.94,1.95,1.42,3s.94,2.19,1.38,3.26a28.15,28.15,0,0,1,1.9,6.57A6.17,6.17,0,0,0,125,257a8.25,8.25,0,0,0,2.36,2.14,16.58,16.58,0,0,0,3.16,1.55,23.69,23.69,0,0,0,3.55.91,32.28,32.28,0,0,0,3.47.47c1.11.05,2.12.06,3,.05,1.73,0,2.86-.12,2.86-.12a15,15,0,0,1-2-2.76A34,34,0,0,1,137.91,250.16Zm-11.28,2.08a9.25,9.25,0,0,1-.28,1.65l-.19.62s-.06-.23-.15-.62-.23-.94-.35-1.59-.37-1.38-.54-2.17a19.43,19.43,0,0,0-.75-2.4,20.69,20.69,0,0,0-.86-2.37c-.34-.73-.58-1.47-.89-2.05s-.49-1.13-.69-1.47l-.25-.58.52.37a8.57,8.57,0,0,1,1.22,1.15,11.85,11.85,0,0,1,1.42,1.91,12.57,12.57,0,0,1,1.75,5.16A12.94,12.94,0,0,1,126.63,252.24Zm3.07-1a6.44,6.44,0,0,1-.36,1.41,4.49,4.49,0,0,1-.48.92l-.24.33-.08-.4c0-.24-.13-.58-.16-1s-.16-.85-.18-1.31a12.21,12.21,0,0,0-.18-1.45,11.27,11.27,0,0,0-.15-1.46c-.08-.46-.06-.93-.13-1.32s0-.75-.06-1,0-.41,0-.41l.31.27a5,5,0,0,1,.67.79,7,7,0,0,1,.67,1.29,6.3,6.3,0,0,1,.38,3.29Z"/><path d="M137,265.66c-.68.1-1.42.18-2.24.25s-1.7.11-2.65.12h-1.49c-.51,0-1-.07-1.58-.13a7.35,7.35,0,0,0-3.54.68,26.74,26.74,0,0,0-4,2.2c-1.38.91-2.82,2-4.27,3.17s-2.89,2.34-4.31,3.56-2.79,2.4-4.06,3.53l-3.42,3c-2,1.73-3.23,2.89-3.23,2.89s1-.21,2.7-.49c.84-.14,1.84-.31,3-.53s2.35-.42,3.65-.63,2.66-.38,4.06-.62,2.82-.41,4.23-.54l2.1-.17c.69-.06,1.38-.11,2.06-.14a24.62,24.62,0,0,1,3.88.13,8.46,8.46,0,0,0,6.51-2.37,19.41,19.41,0,0,0,4.43-6.19,41.69,41.69,0,0,0,3.14-9.27,14.79,14.79,0,0,1-3.15,1.13C138.23,265.39,137.63,265.53,137,265.66Zm-3.48,9a7.44,7.44,0,0,1-.41.69,8.36,8.36,0,0,1-2.06,2,12.11,12.11,0,0,1-3.73,1.67,27.49,27.49,0,0,1-4.57.65c-1.55,0-3.06,0-4.46.11a27,27,0,0,0-3.79.36,15.52,15.52,0,0,0-2.63.68,7.64,7.64,0,0,0-1,.39,10.44,10.44,0,0,1,.83-.69,10.64,10.64,0,0,1,2.52-1.31,18,18,0,0,1,3.93-.91c1.45-.16,3-.23,4.49-.34a26.88,26.88,0,0,0,4.33-.4,15,15,0,0,0,3.58-1,10.89,10.89,0,0,0,2.3-1.38,7.63,7.63,0,0,0,.79-.7Zm.71-4.19a12.85,12.85,0,0,1-1.29,1.43,16.28,16.28,0,0,1-2.1,1.72,30.51,30.51,0,0,1-2.71,1.56,29,29,0,0,1-3,1,16.85,16.85,0,0,1-2.67.48,13.38,13.38,0,0,1-1.93.05l-.72-.06.67-.27c.44-.14,1-.41,1.76-.66s1.54-.63,2.42-.95,1.8-.74,2.7-1.19,1.83-.83,2.66-1.28,1.65-.81,2.3-1.22,1.25-.66,1.64-.9l.65-.34Z"/><path d="M92.87,247.36a9,9,0,0,0,1.7,2.64,13.42,13.42,0,0,0,2.62,2.33,30,30,0,0,0,3.15,1.87,22.6,22.6,0,0,0,3.22,1.38c1,.38,2,.69,2.84.94a17,17,0,0,0,2,.5l.77.15a14.35,14.35,0,0,1-1.15-3,31.61,31.61,0,0,1-.92-9.33,6.9,6.9,0,0,0-.78-3.18,16.26,16.26,0,0,0-2.09-3.34c-.44-.55-.91-1.09-1.4-1.62s-1-1.14-1.51-1.68-1.06-1.09-1.61-1.61-1.09-1-1.63-1.58-1.07-1-1.6-1.5-1.06-.91-1.54-1.39c-1-.93-1.88-1.74-2.66-2.41s-1.39-1.29-1.84-1.67l-.7-.61s.2.74.49,2c.15.62.3,1.42.5,2.23s.4,1.77.6,2.77.41,2.08.59,3.2.36,2.23.49,3.37a26.32,26.32,0,0,1,.09,6.62A5.65,5.65,0,0,0,92.87,247.36Zm4.74-11.21a6.86,6.86,0,0,1,.73,1.11,8.85,8.85,0,0,1,.72,1.74,19.39,19.39,0,0,1,.42,2.12,19,19,0,0,1-.08,2.16,9.45,9.45,0,0,1-.44,1.83,6.44,6.44,0,0,1-.55,1.21l-.27.44s0-.19,0-.51S98,245.48,98,245s-.1-1.13-.1-1.75a16.64,16.64,0,0,0-.15-2,17.47,17.47,0,0,0-.16-2c-.1-.62-.09-1.24-.18-1.75s-.07-1-.12-1.28,0-.5,0-.5Zm-3.2-5.66a16.13,16.13,0,0,1,.74,1.72,19.44,19.44,0,0,1,.73,2.53c.18.94.33,2,.44,3s0,2.06,0,3a18,18,0,0,1-.37,2.61,11.87,11.87,0,0,1-.49,1.8l-.25.67-.08-.71c0-.44-.12-1.08-.14-1.83s-.15-1.62-.16-2.55-.11-1.91-.21-2.88-.11-2-.2-2.89-.11-1.8-.2-2.55-.08-1.39-.12-1.83,0-.71,0-.71Z"/><path d="M106,260.88l.12,0a98.4,98.4,0,0,0,16.79,3.27c2.35.3,4.48.4,6.31.47.92,0,1.77.08,2.54.1l2.11-.05c1.26,0,2.23-.06,2.88-.08l1,0-1-.17c-.65-.12-1.6-.3-2.84-.49l-2.08-.33c-.77-.13-1.59-.31-2.48-.48-1.77-.37-3.81-.69-6.07-1.26l-3.58-.81-3.88-1c-.67-.2-1.36-.34-2.06-.55l-2.12-.65c-1.43-.45-2.94-.85-4.44-1.42A130.49,130.49,0,0,1,87.31,249a127.76,127.76,0,0,1-21.24-14l-2.64-2.17-2.59-2.31c-1.76-1.51-3.38-3.22-5.09-4.87-.86-.83-1.64-1.74-2.47-2.61s-1.67-1.74-2.43-2.68c-1.56-1.86-3.19-3.7-4.67-5.68a126.57,126.57,0,0,1-8.53-12.42c-1.24-2.23-2.59-4.42-3.71-6.74-.58-1.15-1.19-2.29-1.74-3.46l-1.59-3.56c-.56-1.18-1-2.4-1.49-3.62s-1-2.43-1.4-3.67c-.82-2.49-1.72-5-2.39-7.52A121,121,0,0,1,22,158.19c-.32-2.63-.71-5.25-.85-7.9-.09-1.32-.23-2.64-.27-4l-.1-4c0-.65,0-1.34,0-2l0-2c0-1.32,0-2.67.13-4l.24-3.91.39-3.9A119.22,119.22,0,0,1,28.8,97a122.86,122.86,0,0,1,13.28-25.3L44,68.89l2-2.68c.65-.89,1.33-1.75,2-2.59s1.35-1.69,2-2.51c1.41-1.6,2.77-3.22,4.21-4.7.72-.75,1.4-1.51,2.12-2.23l2.15-2.11A127.48,127.48,0,0,1,75.43,38.41,146.25,146.25,0,0,1,89.8,29.75C93.94,27.61,97.26,26,99.56,25c1.16-.48,2-.87,2.64-1.13l.9-.4-.94.28c-.63.18-1.55.45-2.75.83a108.72,108.72,0,0,0-10.22,3.87c-1.85.83-3.86,1.79-6,2.89l.06,0a44.64,44.64,0,0,1,4.9-2.88,12.93,12.93,0,0,0,2.79-2,29.8,29.8,0,0,0,2.58-2.91c.84-1.06,1.64-2.21,2.42-3.41s1.54-2.34,2.25-3.52,1.36-2.29,2-3.34l1.62-2.78c.91-1.59,1.47-2.62,1.47-2.62l-2,1.31-2.2,1.45c-.84.54-1.75,1.18-2.73,1.82s-2,1.29-3.09,2S91.1,15.88,90,16.56s-2.2,1.4-3.3,2c-.55.32-1.1.62-1.64.9s-1.06.59-1.59.85a11.21,11.21,0,0,0-2.7,1.86A10.94,10.94,0,0,0,79,24.58a12.91,12.91,0,0,0-1.59,5.22,19.76,19.76,0,0,0,.13,4.78c-1.07.64-2.16,1.31-3.26,2A118.1,118.1,0,0,0,57.35,49.86c.43-.44.87-.89,1.37-1.34a10.75,10.75,0,0,0,2.06-2.8,22.07,22.07,0,0,0,1.59-3.6c.44-1.33.88-2.69,1.26-4.09s.7-2.85,1-4.21c.66-2.72,1.14-5.35,1.54-7.21s.58-3.08.58-3.08l-1.52,1.88c-1,1.15-2.25,2.83-3.78,4.64L59.13,33l-1.26,1.49L56.61,36c-.85,1-1.74,2-2.6,2.91s-1.73,1.83-2.6,2.62a10.12,10.12,0,0,0-3.08,5.45,14.42,14.42,0,0,0,.16,5.69A20.88,20.88,0,0,0,50,57l.11.22-2,2.2a120.63,120.63,0,0,0-8.25,10.74c-1.64,2.4-3.21,4.91-4.72,7.5.28-.53.57-1.07.89-1.63a11.35,11.35,0,0,0,1.17-3.28,27.25,27.25,0,0,0,.39-4c.05-1.41,0-2.9-.09-4.4s-.19-3-.33-4.45-.29-2.85-.43-4.16-.29-2.46-.41-3.46L35.93,49s-.09.21-.24.6-.38,1-.65,1.69-.63,1.57-1,2.51-.79,2-1.24,3.13l-1.43,3.49c-.48,1.22-1,2.45-1.53,3.66s-1.06,2.44-1.64,3.58S27,70,26.44,71a10.05,10.05,0,0,0-1.22,3.1,10.17,10.17,0,0,0-.08,3.11,14,14,0,0,0,2,5.56,23.81,23.81,0,0,0,3.17,4.15c-1.41,3-2.73,6-3.93,9.15a131.63,131.63,0,0,0-4.6,14.74c-.15.65-.29,1.31-.44,2a32.84,32.84,0,0,1,.76-3.87,10.12,10.12,0,0,0,.12-3.5,21,21,0,0,0-.87-4c-.44-1.4-.9-2.82-1.48-4.26s-1.2-2.89-1.78-4.27-1.2-2.73-1.77-4l-1.53-3.3c-.87-1.89-1.47-3.09-1.47-3.09s-.07.95-.18,2.49-.23,3.72-.46,6.14c-.1,1.22-.2,2.51-.3,3.81s-.27,2.67-.4,4-.31,2.66-.54,3.93a32.82,32.82,0,0,1-.73,3.68,8.15,8.15,0,0,0-.24,3.34,10.33,10.33,0,0,0,.86,3,15,15,0,0,0,3.79,4.84,24.71,24.71,0,0,0,4.2,3l.46.25c-.29,1.78-.55,3.56-.76,5.36-.14,1.33-.27,2.65-.41,4s-.17,2.69-.25,4-.11,2.67-.14,4l0,2c0,.72,0,1.36,0,2l.09,4c0,.86.09,1.72.16,2.58-.09-.52-.18-1.06-.27-1.64-.1-.94-.16-2-.21-3a9,9,0,0,0-.94-3.39A21.48,21.48,0,0,0,15,137.36c-.43-.61-.89-1.23-1.37-1.84s-.95-1.23-1.45-1.85c-1-1.22-2.07-2.44-3.14-3.61-2.06-2.35-4.08-4.51-5.6-6.1S.94,121.38.94,121.38l.58,2.46.67,2.71c.23,1,.49,2.17.77,3.36s.58,2.47.86,3.77.54,2.64.82,4,.43,2.65.64,3.94a31.37,31.37,0,0,1,.35,3.74,8.81,8.81,0,0,0,2.54,6,15.24,15.24,0,0,0,5.25,3.58,28.27,28.27,0,0,0,5.74,1.76c.09.64.16,1.28.24,1.92a123.76,123.76,0,0,0,3.23,15.88c.65,2.63,1.54,5.17,2.35,7.73.09.28.19.55.29.82-.45-1-.89-2.17-1.36-3.42a8,8,0,0,0-.77-1.51,10.29,10.29,0,0,0-1.1-1.48,21.15,21.15,0,0,0-3.16-2.82c-1.24-.91-2.5-1.83-3.89-2.72s-2.82-1.74-4.24-2.56l-4-2.34-3.44-1.92L0,162.43s.11.21.35.59l1,1.62,1.45,2.43c.55.92,1.08,2,1.75,3s1.31,2.21,2,3.39,1.3,2.4,2,3.59,1.26,2.42,1.79,3.62,1,2.38,1.4,3.52a8.8,8.8,0,0,0,4.27,5,17,17,0,0,0,6.34,1.86,29.08,29.08,0,0,0,5.71,0l.44,0,1,2.3c.53,1.22,1.14,2.4,1.71,3.6,1.1,2.41,2.43,4.68,3.66,7q2.34,4,4.85,7.79l0,0a9.15,9.15,0,0,0-2.67-2.32,21.72,21.72,0,0,0-4-1.73,48.34,48.34,0,0,0-4.66-1.43c-1.62-.43-3.36-.79-5-1.17-3.26-.75-6.41-1.37-8.74-1.81l-3.8-.73.52.46c.35.3.8.75,1.43,1.28,1.24,1.07,2.94,2.57,4.77,4.3.93.86,1.94,1.74,2.93,2.68s2,1.91,2.94,2.88,1.94,2,2.81,3,1.64,2,2.36,3a8.77,8.77,0,0,0,5.64,3.54,18,18,0,0,0,6.86-.19,31.43,31.43,0,0,0,5.69-1.8l.17-.07a124.71,124.71,0,0,0,15.78,15.95,9.37,9.37,0,0,0-2.22-.8,23,23,0,0,0-4.37-.47c-1.57-.07-3.26,0-5,.07s-3.55.28-5.25.41c-3.45.3-6.76.68-9.22,1s-4,.46-4,.46l2.4,1.11c1.53.66,3.63,1.6,5.92,2.71,1.13.57,2.4,1.1,3.63,1.72s2.48,1.24,3.69,1.91,2.45,1.31,3.58,2S54,249.08,55,249.81a8.69,8.69,0,0,0,6.51,1.73,18.58,18.58,0,0,0,6.72-2.34,33.22,33.22,0,0,0,5.13-3.55l.07-.06,1,.66c1.83,1.21,3.7,2.3,5.51,3.43l5.48,3,5.4,2.6,3,1.3a8.15,8.15,0,0,0-3.06-.27,24.78,24.78,0,0,0-4.39.89c-1.55.43-3.2,1-4.88,1.65-.84.32-1.69.66-2.54,1l-2.5,1c-1.65.69-3.27,1.39-4.76,2.05l-4,1.79c-2.31,1-3.8,1.71-3.8,1.71s1,.11,2.68.34l2.94.35c1.11.14,2.33.31,3.61.5s2.64.37,4,.59,2.78.46,4.14.75,2.75.54,4,.9A32.69,32.69,0,0,1,89,271.09a8.77,8.77,0,0,0,6.82-.28,20,20,0,0,0,5.91-4.45,36.08,36.08,0,0,0,4-5.11ZM79.62,29.06a7.2,7.2,0,0,1,.19-.7A9.91,9.91,0,0,1,81,26a14.88,14.88,0,0,1,2.45-2.79,31.18,31.18,0,0,1,3.38-2.51l3.59-2c1.13-.65,2.23-1.17,3.11-1.72s1.64-1,2.13-1.33.81-.54.81-.54-.2.29-.58.79a14.06,14.06,0,0,1-1.8,1.87,26.67,26.67,0,0,1-2.9,2.2l-3.46,2.21a29.74,29.74,0,0,0-3.34,2.21,22.45,22.45,0,0,0-2.64,2.24,14.79,14.79,0,0,0-1.62,1.89c-.37.49-.56.79-.56.79ZM51.49,47.39A9.69,9.69,0,0,1,52.57,44a20.44,20.44,0,0,1,2.36-3.26L57.65,38a32.64,32.64,0,0,0,2.22-2.42,16,16,0,0,0,1.33-1.92c.3-.5.44-.8.44-.8a8.36,8.36,0,0,1-.13.92,9.15,9.15,0,0,1-.83,2.32A16.11,16.11,0,0,1,58.76,39L56.2,41.89a19,19,0,0,0-2.34,2.86,11.76,11.76,0,0,0-1.42,2.84A8.52,8.52,0,0,0,52,49.84a6,6,0,0,0,0,.91,5.12,5.12,0,0,1-.34-.87A6.38,6.38,0,0,1,51.49,47.39ZM34.24,68.69c0-.78,0-1.61,0-2.43s.1-1.66.11-2.44.12-1.51.13-2.14.14-1.17.16-1.54.09-.6.09-.6l.24.55a12.8,12.8,0,0,1,.47,1.51,18,18,0,0,1,.4,2.17c.06.81.1,1.67.12,2.53s-.15,1.72-.26,2.52A16.82,16.82,0,0,1,35.22,71a13.83,13.83,0,0,1-.56,1.47c-.18.34-.27.54-.27.54s0-.22-.06-.6-.08-.92-.07-1.55S34.2,69.47,34.24,68.69ZM29.56,79.93l-.36.5s0-.23.05-.62.09-.93.2-1.56.16-1.39.32-2.16.25-1.61.33-2.44.26-1.66.34-2.44.23-1.53.28-2.17.18-1.18.22-1.56l.11-.6.22.57A12,12,0,0,1,31.68,69a14.57,14.57,0,0,1,.25,2.27c0,.83-.05,1.71-.13,2.6s-.36,1.74-.58,2.55a14.71,14.71,0,0,1-.84,2.11A11.13,11.13,0,0,1,29.56,79.93ZM17.48,109.88a9.4,9.4,0,0,1-.25,1.51l-.16.57s-.06-.21-.17-.56-.27-.86-.39-1.46-.34-1.28-.46-2-.32-1.52-.52-2.29-.29-1.57-.47-2.3-.25-1.45-.39-2-.17-1.13-.25-1.49-.07-.58-.07-.58l.38.45a12.43,12.43,0,0,1,.84,1.28,14.86,14.86,0,0,1,.93,2c.25.75.5,1.55.71,2.37s.24,1.67.32,2.45A15,15,0,0,1,17.48,109.88Zm.94-6.15-.31-.56c-.16-.37-.46-.88-.7-1.52s-.58-1.38-.81-2.19-.49-1.69-.75-2.56-.36-1.78-.52-2.62S15.12,92.64,15,92s-.06-1.26-.09-1.67,0-.64,0-.64l.31.56c.17.37.46.88.7,1.52s.58,1.38.81,2.2.5,1.68.75,2.56l.53,2.61c.18.83.21,1.64.3,2.32s.06,1.27.09,1.67S18.42,103.73,18.42,103.73Zm-6.23,44.68c-.06.36-.09.56-.09.56l-.24-.51c-.11-.33-.35-.78-.54-1.33s-.49-1.16-.7-1.84-.51-1.38-.81-2.07-.52-1.42-.8-2.08-.47-1.3-.72-1.83-.36-1-.5-1.34l-.17-.54.45.35a9.71,9.71,0,0,1,1,1,12.7,12.7,0,0,1,1.22,1.67c.37.66.74,1.38,1.07,2.12s.47,1.55.64,2.28a11.49,11.49,0,0,1,.22,2.06A7.57,7.57,0,0,1,12.19,148.41Zm1.92-6.6c-.23-.3-.63-.7-1-1.22s-.9-1.09-1.34-1.74-1-1.33-1.51-2-1-1.4-1.45-2-.87-1.29-1.26-1.8-.65-1-.88-1.33l-.31-.53.55.29a11.6,11.6,0,0,1,1.33.9,18.18,18.18,0,0,1,1.71,1.51c.56.61,1.14,1.28,1.7,2s1,1.49,1.37,2.2a17.25,17.25,0,0,1,.94,2.08,13,13,0,0,1,.46,1.54c.07.39.12.61.12.61ZM9.08,171c-.62-.39-1.11-.77-1.49-1L7,169.6l.69.09a12.61,12.61,0,0,1,1.79.44,16.13,16.13,0,0,1,2.4,1,29.28,29.28,0,0,1,2.54,1.58,28.81,28.81,0,0,1,2.2,2,14.78,14.78,0,0,1,1.6,2.05,10.54,10.54,0,0,1,.9,1.61c.18.41.27.64.27.64l-.54-.44c-.31-.3-.82-.68-1.36-1.17s-1.23-1-1.89-1.6-1.44-1.19-2.22-1.74-1.51-1.17-2.26-1.67S9.71,171.37,9.08,171Zm10,15c-.22-.3-.61-.68-1-1.18s-.89-1-1.33-1.65-1-1.24-1.52-1.85-1-1.28-1.52-1.85-.92-1.18-1.35-1.63-.72-.92-1-1.2l-.36-.48.56.22a10.15,10.15,0,0,1,1.39.73,13.89,13.89,0,0,1,1.79,1.31c.59.55,1.2,1.17,1.78,1.81s1,1.42,1.42,2.11a13.12,13.12,0,0,1,.94,2,10.14,10.14,0,0,1,.44,1.5c.07.38.1.6.1.6Zm.74,20.51h.71a14.85,14.85,0,0,1,1.87.19,25.33,25.33,0,0,1,2.57.56c.92.29,1.89.63,2.86,1s1.84.91,2.69,1.37a23,23,0,0,1,2.19,1.47,15.3,15.3,0,0,1,1.42,1.22l.5.51-.68-.23c-.41-.17-1-.35-1.72-.66s-1.54-.58-2.38-1-1.77-.77-2.7-1.13-1.81-.82-2.68-1.17-1.65-.77-2.35-1-1.26-.61-1.67-.79Zm17.94,14.47a6.27,6.27,0,0,1-2.46.11,8.9,8.9,0,0,1-3.31-1.2A18.73,18.73,0,0,1,29,217.36c-.9-1-1.72-2-2.52-2.88a32,32,0,0,0-2.18-2.39,16.54,16.54,0,0,0-1.75-1.51,8.54,8.54,0,0,0-.74-.51,8,8,0,0,1,.89.21,9.51,9.51,0,0,1,2.19,1.05,16.8,16.8,0,0,1,2.67,2.13c.88.87,1.76,1.82,2.67,2.7a17.39,17.39,0,0,0,2.68,2.45,11.41,11.41,0,0,0,2.72,1.5,8.14,8.14,0,0,0,2.2.5,5.5,5.5,0,0,0,.89,0A6.38,6.38,0,0,1,37.81,220.94ZM64.22,246a7.25,7.25,0,0,1-.61.51,6.53,6.53,0,0,1-2.68,1.06,9.81,9.81,0,0,1-4.12-.24,20.81,20.81,0,0,1-4.24-1.89c-1.32-.83-2.56-1.69-3.75-2.41a22.51,22.51,0,0,0-3.34-1.78,12.25,12.25,0,0,0-2.57-.77,8.87,8.87,0,0,0-1-.14,8.13,8.13,0,0,1,3.9,0,16.15,16.15,0,0,1,3.78,1.4c1.29.69,2.59,1.5,3.89,2.23a19.17,19.17,0,0,0,3.82,1.95,10.67,10.67,0,0,0,3.59.69,7.49,7.49,0,0,0,2.6-.39,7.38,7.38,0,0,0,.72-.28l.24-.13Zm1.63-3.2a5.74,5.74,0,0,1-1.13.71,7.9,7.9,0,0,1-1.8.61,15.34,15.34,0,0,1-2.18.15,13.82,13.82,0,0,1-2.13-.46,7.6,7.6,0,0,1-1.69-.84,6,6,0,0,1-1-.86l-.33-.39.5.1c.29.09.74.14,1.23.26s1.09.16,1.68.29a11.64,11.64,0,0,0,1.89.18,11.11,11.11,0,0,0,1.9.08c.61,0,1.2,0,1.7,0s1,0,1.26-.09l.51,0Zm20.8,21.53a9.92,9.92,0,0,1,1.09-.13,12.53,12.53,0,0,1,1.51,0l1.7.17,1.67.4a13.53,13.53,0,0,1,1.42.51,9.82,9.82,0,0,1,1,.49l.37.23-.43.1a7.35,7.35,0,0,1-1.09.14,15,15,0,0,1-1.51,0l-1.7-.18-1.66-.4c-.53-.13-1-.37-1.42-.51a9.82,9.82,0,0,1-1-.49l-.37-.23Zm12.08,2.74a5.17,5.17,0,0,1-.63.54,8.1,8.1,0,0,1-2.7,1.27,12,12,0,0,1-4.25.34,26.24,26.24,0,0,1-4.71-1c-1.52-.52-3-1.09-4.4-1.53a28.31,28.31,0,0,0-3.83-1.07,16.48,16.48,0,0,0-2.81-.31,9.67,9.67,0,0,0-1.1,0,8.91,8.91,0,0,1,1.06-.35,11.22,11.22,0,0,1,3-.32,19.35,19.35,0,0,1,4.15.59c1.47.39,3,.9,4.5,1.34a26.11,26.11,0,0,0,4.38,1.16,15,15,0,0,0,3.88.19,10.84,10.84,0,0,0,2.72-.61c.32-.13.58-.23.75-.32l.26-.13Z"/><path d="M79,227.74a18.52,18.52,0,0,0-.46-1.81,17.75,17.75,0,0,0-.71-1.9c-.27-.64-.59-1.29-.93-1.94s-.66-1.34-1-2-.74-1.34-1.13-2-.8-1.29-1.17-1.95-.77-1.29-1.16-1.89-.77-1.19-1.13-1.76c-.69-1.17-1.35-2.21-1.93-3.08-.28-.44-.57-.82-.78-1.19l-.57-.92c-.32-.51-.51-.79-.51-.79s0,.76,0,2c0,.63-.05,1.4-.06,2.23s-.06,1.77-.11,2.77-.13,2.07-.24,3.17-.2,2.18-.35,3.28a24.76,24.76,0,0,1-1.57,6.18c-.8,1.82-.43,3.78.55,5.79a13.82,13.82,0,0,0,1.9,2.93,31.6,31.6,0,0,0,2.51,2.67,27.84,27.84,0,0,0,2.71,2.22c.89.66,1.73,1.24,2.45,1.72,1.48.9,2.5,1.4,2.5,1.4a13.52,13.52,0,0,1-.32-3.13,29.29,29.29,0,0,1,1.5-8.87A6.47,6.47,0,0,0,79,227.74Zm-8.35-6.93c-.2,1.06-.44,2.09-.67,3.05s-.57,1.83-.79,2.59-.53,1.37-.69,1.8l-.31.68s0-.27,0-.74,0-1.14.07-1.93.12-1.72.28-2.69.31-2,.43-3,.36-2,.47-3,.26-1.85.29-2.62.12-1.43.12-1.89,0-.74,0-.74.1.25.29.69a10.25,10.25,0,0,1,.51,1.89,14.43,14.43,0,0,1,.24,2.77C70.84,218.68,70.75,219.75,70.62,220.81Zm2.67,6.9a9.43,9.43,0,0,1-.43,1.58,6.4,6.4,0,0,1-.49,1.06l-.25.38-.08-.45c0-.27-.11-.67-.13-1.12s-.11-1-.11-1.54,0-1.14-.08-1.73,0-1.17,0-1.72,0-1.09,0-1.54.07-.86.07-1.14.06-.45.06-.45l.26.37a5.47,5.47,0,0,1,.56,1,8.51,8.51,0,0,1,.52,1.55c.1.59.18,1.22.24,1.86S73.36,227.12,73.29,227.71Z"/><path d="M43.32,208.16c.18.55.41,1.1.65,1.65A27.22,27.22,0,0,0,47.64,216c.67.88,1.3,1.68,1.87,2.34,1.18,1.27,2,2,2,2a13.06,13.06,0,0,1,.48-3,26.92,26.92,0,0,1,3.59-7.84,6.06,6.06,0,0,0,.85-3c0-.57,0-1.18,0-1.83s-.1-1.32-.2-2-.23-1.39-.39-2.11-.32-1.45-.49-2.19-.36-1.49-.57-2.22-.44-1.46-.62-2.2c-.39-1.47-.82-2.87-1.25-4.15s-.71-2.51-1-3.51L51.43,185c-.11-.41-.22-.77-.3-1.06l-.27-.91s-.18.73-.53,1.93-.77,2.82-1.39,4.69c-.29.93-.63,1.92-1,2.93s-.71,2-1.13,3a22.74,22.74,0,0,1-3,5.36c-1.17,1.47-1.32,3.43-.91,5.61A15.6,15.6,0,0,0,43.32,208.16Zm8.14-4.85a5.14,5.14,0,0,1,.44-.7l.21-.26s0,.11.12.31a5,5,0,0,1,.18.81,6.48,6.48,0,0,1,.08,1.12c0,.39-.06.82-.1,1.24s-.22.82-.32,1.21a8.21,8.21,0,0,1-.44,1,5.35,5.35,0,0,1-.44.71c-.14.16-.21.26-.21.26s0-.12-.12-.32a4.54,4.54,0,0,1-.18-.81,7.51,7.51,0,0,1-.08-1.11c0-.4.06-.82.1-1.25s.22-.82.32-1.21A6.94,6.94,0,0,1,51.46,203.31Zm-5.05.3a8.38,8.38,0,0,1,.89-2.7c.48-.89,1-1.76,1.39-2.65a13.79,13.79,0,0,0,1.08-2.68,21.84,21.84,0,0,0,.64-2.49c.12-.75.28-1.39.31-1.85s.1-.73.1-.73.08.26.23.71a8.92,8.92,0,0,1,.33,1.92,11.42,11.42,0,0,1-.16,2.79,14.58,14.58,0,0,1-1,3.07c-.51,1-1.15,1.87-1.65,2.66a11.71,11.71,0,0,0-1.25,2.18,6,6,0,0,0-.43,1.74,3.65,3.65,0,0,0,0,.71,2.8,2.8,0,0,1-.33-.67A4.31,4.31,0,0,1,46.41,203.61Z"/><path d="M29.08,182.67c.35,1.16.73,2.29,1.12,3.33s.74,2,1.14,2.77c.77,1.56,1.33,2.54,1.33,2.54a12.88,12.88,0,0,1,1.2-2.72,25,25,0,0,1,5.27-6.36,5.81,5.81,0,0,0,1.52-2.56,15.18,15.18,0,0,0,.45-1.74c.13-.62.24-1.29.33-2,.18-1.39.18-2.85.26-4.38s.06-3.08,0-4.58,0-3-.05-4.37c0-.68,0-1.33,0-2s0-1.19,0-1.73c0-1.06-.07-1.93-.09-2.54s0-1,0-1l-1,1.7c-.58,1-1.43,2.49-2.46,4.11-.53.8-1.08,1.65-1.64,2.51s-1.17,1.7-1.81,2.53a22.09,22.09,0,0,1-4.1,4.23c-1.43,1-2.09,2.89-2.28,5.08a15.17,15.17,0,0,0,.15,3.47A35.16,35.16,0,0,0,29.08,182.67Zm10.37-11.81c.17-.25.27-.38.27-.38s0,.17.05.46a5.08,5.08,0,0,1-.07,1.23,6.85,6.85,0,0,1-.49,1.67,13.19,13.19,0,0,1-1,1.72A14.29,14.29,0,0,1,36.78,177a7.27,7.27,0,0,1-1.5.88,5.5,5.5,0,0,1-1.18.36l-.46.07.3-.36c.21-.19.46-.53.78-.86s.65-.78,1-1.18a12.48,12.48,0,0,0,1.09-1.36,12.47,12.47,0,0,0,1.06-1.39c.29-.48.67-.88.89-1.29S39.31,171.1,39.45,170.86Zm-7.74,4.39a3.59,3.59,0,0,1,.62-1.54c.41-.55.84-1.14,1.31-1.71A17.22,17.22,0,0,0,35,170.09a15.66,15.66,0,0,0,1.27-2c.36-.66.78-1.25,1-1.8s.57-1,.73-1.34l.29-.52s0,.22,0,.6a8.37,8.37,0,0,1-.13,1.57,10.5,10.5,0,0,1-.62,2.15,17.78,17.78,0,0,1-1.19,2.28A18.07,18.07,0,0,1,34.74,173a20.21,20.21,0,0,1-1.69,1.35,4.61,4.61,0,0,0-1,1,1.77,1.77,0,0,0-.27.51A1.87,1.87,0,0,1,31.71,175.25Z"/><path d="M33.11,149.24a11.5,11.5,0,0,0,.86-1.56c.28-.56.5-1.17.78-1.81a37.89,37.89,0,0,0,1.41-4.18c.19-.73.41-1.47.63-2.22s.41-1.5.59-2.24c.36-1.48.8-2.93,1.1-4.27s.68-2.56.92-3.61.47-1.9.63-2.5.24-.94.24-.94-.49.54-1.33,1.39-2,2-3.34,3.32l-2.16,2c-.74.67-1.51,1.33-2.31,2a20.28,20.28,0,0,1-4.81,2.95,4.81,4.81,0,0,0-2,1.58,8.69,8.69,0,0,0-1.38,2.68,20.55,20.55,0,0,0-.79,3.37c-.09.59-.17,1.2-.23,1.81s-.05,1.23-.05,1.84c0,1.22,0,2.41.1,3.52a25.4,25.4,0,0,0,.34,3c.27,1.71.52,2.82.52,2.82a12.54,12.54,0,0,1,1.82-2.25A23.23,23.23,0,0,1,31,151.26,5.59,5.59,0,0,0,33.11,149.24Zm-7.88-5.14a4.51,4.51,0,0,0-.43.54,5,5,0,0,1,.13-.7,5.44,5.44,0,0,1,.84-1.72,9.58,9.58,0,0,1,1.9-1.93c.79-.58,1.66-1.12,2.52-1.64a25.08,25.08,0,0,0,2.49-1.38,14.89,14.89,0,0,0,2-1.4,7.87,7.87,0,0,0,1.2-1.26,6.26,6.26,0,0,0,.41-.57l0,.18a2.72,2.72,0,0,1-.08.53,5.33,5.33,0,0,1-.77,1.76,9.16,9.16,0,0,1-1.85,2A27.66,27.66,0,0,1,31,140.16c-.89.44-1.75.89-2.51,1.36a17.42,17.42,0,0,0-2,1.35A7.68,7.68,0,0,0,25.23,144.1Zm4,1.16a4.52,4.52,0,0,1-.9.14H28l.2-.29c.15-.15.31-.43.56-.67s.47-.58.78-.84a12.55,12.55,0,0,0,.9-.89c.34-.26.67-.54,1-.82s.65-.48.9-.71.55-.36.72-.49l.3-.18s0,.13,0,.36a4,4,0,0,1-.22.88,5.91,5.91,0,0,1-.56,1.13c-.28.36-.59.74-.93,1.1s-.79.58-1.17.82A5.57,5.57,0,0,1,29.27,145.26Z"/><path d="M45.67,100.08c1.12-1.87,1.8-3.1,1.8-3.1s-.6.4-1.6,1c-.5.3-1.1.66-1.79,1.05s-1.4.84-2.19,1.29-1.64.9-2.53,1.34-1.74.89-2.63,1.28a18.78,18.78,0,0,1-5.19,1.57,4.56,4.56,0,0,0-2.26,1,9.62,9.62,0,0,0-2,2.2,21.09,21.09,0,0,0-1.65,3,26.6,26.6,0,0,0-1.26,3.44,30,30,0,0,0-.87,3.41c-.22,1.09-.39,2.09-.52,3s-.18,1.58-.23,2.08l-.06.78a12.2,12.2,0,0,1,2.23-1.68A22.48,22.48,0,0,1,32,119a5.69,5.69,0,0,0,2.42-1.41,17,17,0,0,0,2.42-2.82,40.74,40.74,0,0,0,2.42-3.66l1.22-2c.39-.67.78-1.34,1.15-2,.8-1.32,1.53-2.63,2.21-3.84S45.15,101,45.67,100.08Zm-4.59,3.81a5,5,0,0,1-1,1.42,8.25,8.25,0,0,1-2,1.42,25.87,25.87,0,0,1-2.54,1c-.87.22-1.73.44-2.49.7a18.09,18.09,0,0,0-2.07.74,9.22,9.22,0,0,0-1.39.76c-.33.21-.52.36-.52.36a5,5,0,0,1,.28-.59,5.1,5.1,0,0,1,1.1-1.34,8.91,8.91,0,0,1,2.06-1.32c.81-.35,1.68-.66,2.53-1a24.47,24.47,0,0,0,2.45-.74,15.87,15.87,0,0,0,2-.83,7.59,7.59,0,0,0,1.32-.85,4.32,4.32,0,0,0,.49-.4A5.88,5.88,0,0,1,41.08,103.89Z"/><path d="M58.9,74.71l1.29-1.23c.79-.77,1.41-1.42,1.87-1.85l.72-.69L61,71.51c-1.09.36-2.61.83-4.36,1.27A44.91,44.91,0,0,1,51.12,74a16.13,16.13,0,0,1-5.16.24,4.42,4.42,0,0,0-2.38.37,10.44,10.44,0,0,0-2.46,1.61c-.41.34-.83.72-1.24,1.13s-.78.87-1.16,1.33a29.93,29.93,0,0,0-2.18,3c-.65,1-1.26,2.07-1.8,3s-1,1.91-1.31,2.7-.65,1.45-.85,1.91l-.27.74a10.76,10.76,0,0,1,2.52-1A21.09,21.09,0,0,1,42,88.24a5.09,5.09,0,0,0,2.61-.73,12.13,12.13,0,0,0,1.47-.92c.49-.36,1-.74,1.57-1.17s1.08-.9,1.63-1.39l1.67-1.52c.57-.52,1.13-1.06,1.68-1.61s1.14-1.08,1.68-1.63,1.1-1.08,1.62-1.61,1.06-1,1.56-1.52Zm-5.39,2.38a6.92,6.92,0,0,1-1.46.91,12.75,12.75,0,0,1-2.27.8l-2.6.57a15.29,15.29,0,0,0-2.48.53,12.32,12.32,0,0,0-2.06.72,7.71,7.71,0,0,0-1.38.79,5.09,5.09,0,0,0-.51.38,4.69,4.69,0,0,1,.26-.6,4.88,4.88,0,0,1,1.09-1.37,7.89,7.89,0,0,1,2.1-1.33,17.48,17.48,0,0,1,2.66-.81l2.65-.35c.83-.12,1.61-.13,2.26-.26s1.21-.17,1.6-.28l.62-.14S53.83,76.81,53.51,77.09Z"/><path d="M83.17,51l1-.55.88-.48s-.7.07-1.84.13c-.57,0-1.25.06-2,.08s-1.58.08-2.45.1-1.8,0-2.74,0-1.85,0-2.76-.1a21.32,21.32,0,0,1-2.64-.35,11.86,11.86,0,0,1-2.24-.65,4.2,4.2,0,0,0-2.29-.2,9.75,9.75,0,0,0-2.78.9,24.42,24.42,0,0,0-3,1.73,36.32,36.32,0,0,0-2.89,2.26,31.51,31.51,0,0,0-2.56,2.42c-.78.8-1.49,1.54-2,2.2C51.72,59.85,51,60.76,51,60.76a11.92,11.92,0,0,1,2.61-.37,19.29,19.29,0,0,1,6.81,1,4.86,4.86,0,0,0,2.6-.09A18,18,0,0,0,66.5,60c1.24-.58,2.61-1.22,4-2,.66-.38,1.37-.73,2.06-1.11s1.38-.76,2-1.15l2-1.11,1.91-1.09c1.25-.67,2.39-1.3,3.35-1.85C82.32,51.47,82.78,51.25,83.17,51Zm-6.44,2.38a5.15,5.15,0,0,1-1.69.51,8.36,8.36,0,0,1-2.47-.09c-.88-.17-1.77-.42-2.63-.62a15,15,0,0,0-2.47-.59,14.08,14.08,0,0,0-2.2-.23,12.26,12.26,0,0,0-1.61.06c-.41,0-.64.07-.64.07a6.41,6.41,0,0,1,.53-.38,6,6,0,0,1,1.59-.71,8.5,8.5,0,0,1,2.47-.29,15,15,0,0,1,2.78.42c.9.28,1.74.59,2.53.82a16,16,0,0,0,2.14.57,8.46,8.46,0,0,0,1.59.14,5.4,5.4,0,0,0,.63,0A5,5,0,0,1,76.73,53.41Z"/><path d="M97,31.37a4,4,0,0,0-2.1-.73,11.68,11.68,0,0,0-2.88.17,19.09,19.09,0,0,0-3.32.89,31,31,0,0,0-3.4,1.37c-1.1.52-2.17,1.07-3.15,1.6s-1.83,1.1-2.57,1.57-1.34.86-1.75,1.15l-.63.47a9.81,9.81,0,0,1,2.55.28,18.56,18.56,0,0,1,6,2.48,4.82,4.82,0,0,0,2.48.55,14.53,14.53,0,0,0,1.69-.1c.6-.08,1.26-.15,1.93-.26s1.38-.24,2.1-.4l2.23-.48c.75-.16,1.52-.35,2.28-.54s1.54-.36,2.31-.55l2.24-.57c.74-.19,1.47-.33,2.16-.5l2-.49c.63-.16,1.23-.28,1.77-.42l3.6-.82-1.79-.32c-1.11-.22-2.63-.51-4.31-.9a47,47,0,0,1-5.18-1.4A14.39,14.39,0,0,1,97,31.37Zm6.37,5.31c.44.06.7.07.7.07a6.82,6.82,0,0,1-.67.26,7.3,7.3,0,0,1-1.87.34,12.74,12.74,0,0,1-2.67-.19C98,37,97,36.72,96,36.49a24,24,0,0,0-2.75-.74,15.2,15.2,0,0,0-2.42-.4,9.38,9.38,0,0,0-1.77,0c-.44,0-.7.07-.7.07s.2-.15.6-.39a6.05,6.05,0,0,1,1.81-.65,9.91,9.91,0,0,1,2.71-.11,27.08,27.08,0,0,1,3,.57c1,.31,1.9.62,2.79.87s1.68.54,2.4.67A14.37,14.37,0,0,0,103.41,36.68Z"/><path d="M162.48,262a32.28,32.28,0,0,0,3.47-.47,23.69,23.69,0,0,0,3.55-.91,16.58,16.58,0,0,0,3.16-1.55A8.25,8.25,0,0,0,175,257a6.17,6.17,0,0,0,1.15-2.85,28.15,28.15,0,0,1,1.9-6.57c.44-1.07.9-2.21,1.38-3.26s1-2.06,1.42-3l2.39-4.67c.6-1.16,1-1.84,1-1.84s-1.2.54-3,1.51c-.92.42-2,.94-3.19,1.56-.59.29-1.19.66-1.83.95s-1.28.64-1.94,1-1.31.72-2,1.11-1.33.72-2,1.11a40.59,40.59,0,0,0-3.68,2.46,15.53,15.53,0,0,0-2.93,2.68,7.64,7.64,0,0,0-1.62,3,34,34,0,0,1-3.5,9,15,15,0,0,1-2,2.76s1.13.1,2.86.12C160.36,262.09,161.37,262.08,162.48,262Zm10.93-12.18a12.57,12.57,0,0,1,1.75-5.16,11.85,11.85,0,0,1,1.42-1.91,8.57,8.57,0,0,1,1.22-1.15l.52-.37-.25.58c-.2.34-.4.88-.69,1.47s-.55,1.32-.89,2.05a20.69,20.69,0,0,0-.86,2.37,19.43,19.43,0,0,0-.75,2.4c-.17.79-.44,1.52-.54,2.17s-.29,1.2-.35,1.59-.15.62-.15.62l-.19-.62a9.25,9.25,0,0,1-.28-1.65A12.94,12.94,0,0,1,173.41,249.85Zm-2.73-1.93a6.47,6.47,0,0,1,.67-1.29,5,5,0,0,1,.67-.79l.31-.27s0,.15,0,.41,0,.6-.06,1,0,.86-.13,1.32a11.27,11.27,0,0,0-.15,1.46,12.21,12.21,0,0,0-.18,1.45c0,.46-.16.92-.18,1.31s-.14.73-.16,1l-.08.4-.24-.33a4.49,4.49,0,0,1-.48-.92,6.44,6.44,0,0,1-.36-1.41,6.3,6.3,0,0,1,.38-3.29Z"/><path d="M191.15,279c-1.27-1.13-2.65-2.33-4.06-3.53s-2.86-2.37-4.31-3.56-2.89-2.26-4.27-3.17a26.74,26.74,0,0,0-4-2.2,7.35,7.35,0,0,0-3.54-.68c-.54.06-1.07.11-1.58.13h-1.49c-1,0-1.84-.06-2.65-.12s-1.56-.15-2.24-.25-1.27-.27-1.81-.42a14.79,14.79,0,0,1-3.15-1.13,41.69,41.69,0,0,0,3.14,9.27,19.41,19.41,0,0,0,4.43,6.19,8.46,8.46,0,0,0,6.51,2.37,24.62,24.62,0,0,1,3.88-.13c.68,0,1.37.08,2.06.14l2.1.17c1.41.13,2.83.32,4.23.54s2.76.41,4.06.62,2.53.42,3.65.63,2.12.39,3,.53c1.67.28,2.7.49,2.7.49s-1.26-1.16-3.23-2.89Zm-25.77-9.17.65.34c.39.24,1,.51,1.64.9s1.48.75,2.3,1.22,1.73.89,2.66,1.28,1.82.85,2.7,1.19,1.69.72,2.42.95,1.32.52,1.76.66l.67.27-.72.06a13.38,13.38,0,0,1-1.93-.05,16.85,16.85,0,0,1-2.67-.48,29,29,0,0,1-3-1,30.51,30.51,0,0,1-2.71-1.56,16.28,16.28,0,0,1-2.1-1.72,12.85,12.85,0,0,1-1.29-1.43Zm22.79,10.93a15.52,15.52,0,0,0-2.63-.68,27,27,0,0,0-3.79-.36c-1.4-.08-2.91-.07-4.46-.11a27.49,27.49,0,0,1-4.57-.65,12.11,12.11,0,0,1-3.73-1.67,8.36,8.36,0,0,1-2.06-2,7.44,7.44,0,0,1-.41-.69l-.14-.24a7.63,7.63,0,0,0,.79.7,10.89,10.89,0,0,0,2.3,1.38,15,15,0,0,0,3.58,1,26.88,26.88,0,0,0,4.33.4c1.5.11,3,.18,4.49.34a18,18,0,0,1,3.93.91,10.64,10.64,0,0,1,2.52,1.31,10.44,10.44,0,0,1,.83.69A7.64,7.64,0,0,0,188.17,280.79Z"/><path d="M208.07,234.43c.18-1.12.38-2.19.59-3.2s.41-1.93.6-2.77.35-1.61.5-2.23c.29-1.26.49-2,.49-2l-.7.61c-.45.38-1.05,1-1.84,1.67s-1.69,1.48-2.66,2.41c-.48.48-1,.9-1.54,1.39s-1.07,1-1.6,1.5-1.07,1.08-1.63,1.58-1.09,1.06-1.61,1.61-1,1.11-1.51,1.68-1,1.07-1.4,1.62a16.77,16.77,0,0,0-2.1,3.34,7,7,0,0,0-.77,3.18,31.61,31.61,0,0,1-.92,9.33,14.35,14.35,0,0,1-1.15,3l.77-.15a17.52,17.52,0,0,0,2-.5c.82-.25,1.79-.56,2.83-.94a22.6,22.6,0,0,0,3.22-1.38,30,30,0,0,0,3.15-1.87,13.42,13.42,0,0,0,2.62-2.33,9,9,0,0,0,1.7-2.64,5.65,5.65,0,0,0,.36-2.94,26.32,26.32,0,0,1,.09-6.62C207.71,236.66,207.9,235.57,208.07,234.43Zm-5.37,1.84c0,.31,0,.77-.12,1.28s-.08,1.13-.18,1.75a17.47,17.47,0,0,0-.16,2,16.64,16.64,0,0,0-.15,2c0,.62-.11,1.23-.1,1.75s-.08,1-.08,1.28,0,.51,0,.51l-.27-.44a6.44,6.44,0,0,1-.55-1.21,9.45,9.45,0,0,1-.44-1.83,19,19,0,0,1-.08-2.16c.1-.73.25-1.45.41-2.12a9.49,9.49,0,0,1,.73-1.74,6.86,6.86,0,0,1,.73-1.11l.34-.38S202.72,236,202.7,236.27Zm3.21-5.69c0,.44,0,1.09-.12,1.83s-.09,1.63-.2,2.55-.16,1.9-.2,2.89-.17,2-.21,2.88-.15,1.8-.16,2.55-.13,1.39-.14,1.83l-.08.71-.25-.67a11.87,11.87,0,0,1-.49-1.8,18,18,0,0,1-.37-2.61c0-1,0-2,0-3s.26-2,.44-3a19.44,19.44,0,0,1,.73-2.53,16.13,16.13,0,0,1,.74-1.72l.35-.62Z"/><path d="M224.78,241.51c.72-.48,1.56-1.06,2.45-1.72a27.84,27.84,0,0,0,2.71-2.22,31.6,31.6,0,0,0,2.51-2.67,13.82,13.82,0,0,0,1.9-2.93c1-2,1.35-4,.55-5.79a24.76,24.76,0,0,1-1.57-6.18c-.15-1.1-.25-2.19-.35-3.28s-.18-2.17-.24-3.17-.09-1.93-.11-2.77,0-1.6-.06-2.23c0-1.27,0-2,0-2s-.19.28-.51.79l-.57.92c-.21.37-.5.75-.78,1.19-.58.87-1.24,1.91-1.93,3.08-.36.57-.75,1.14-1.13,1.76s-.78,1.24-1.16,1.89-.77,1.31-1.17,1.95-.77,1.32-1.13,2-.69,1.36-1,2-.65,1.3-.92,1.94a17.75,17.75,0,0,0-.71,1.9,18.52,18.52,0,0,0-.46,1.81,6.47,6.47,0,0,0,.07,3.17,29.29,29.29,0,0,1,1.5,8.87,13.52,13.52,0,0,1-.32,3.13S223.3,242.41,224.78,241.51Zm4.58-26.61a10.25,10.25,0,0,1,.51-1.89c.19-.44.29-.69.29-.69s0,.27,0,.74.08,1.12.12,1.89.2,1.67.29,2.62.27,2,.47,3,.28,2,.43,3,.19,1.9.28,2.69.05,1.46.07,1.93,0,.74,0,.74l-.31-.68c-.16-.43-.45-1-.69-1.8s-.56-1.62-.79-2.59-.47-2-.67-3.05-.22-2.13-.26-3.14A14.43,14.43,0,0,1,229.36,214.9ZM226.81,224a8.51,8.51,0,0,1,.52-1.55,6.18,6.18,0,0,1,.55-1c.18-.23.27-.37.27-.37l.06.45c0,.28.08.68.07,1.14s.06,1,0,1.54,0,1.14,0,1.72-.08,1.18-.08,1.73-.11,1.08-.11,1.54-.11.85-.13,1.12l-.08.45-.25-.38a6.4,6.4,0,0,1-.49-1.06,8.56,8.56,0,0,1-.43-1.58c-.07-.59-.12-1.23-.14-1.86S226.71,224.58,226.81,224Z"/><path d="M253.19,195.52c-.42-1-.79-2-1.13-3s-.7-2-1-2.93c-.62-1.87-1-3.5-1.39-4.69s-.53-1.93-.53-1.93l-.27.91c-.08.29-.19.65-.3,1.06s-.28.85-.45,1.35c-.32,1-.67,2.2-1,3.51s-.86,2.68-1.25,4.15c-.18.74-.42,1.46-.62,2.2s-.4,1.47-.57,2.22-.33,1.48-.49,2.19-.29,1.42-.39,2.11-.17,1.36-.2,2,0,1.26,0,1.83a6.06,6.06,0,0,0,.85,3,26.92,26.92,0,0,1,3.59,7.84,13.06,13.06,0,0,1,.48,3s.82-.78,2-2c.57-.66,1.2-1.46,1.87-2.34a27.22,27.22,0,0,0,3.67-6.15c.24-.55.47-1.1.65-1.65a15.6,15.6,0,0,0,.41-1.67c.41-2.18.26-4.14-.91-5.61A22.74,22.74,0,0,1,253.19,195.52Zm-3.87,12.38a4.54,4.54,0,0,1-.18.81c-.07.2-.12.32-.12.32s-.07-.1-.21-.26a5.35,5.35,0,0,1-.44-.71,8.21,8.21,0,0,1-.44-1c-.1-.39-.21-.8-.32-1.21s-.07-.85-.1-1.24a6.48,6.48,0,0,1,.08-1.12,5,5,0,0,1,.18-.81c.07-.2.12-.31.12-.31l.21.26a5.14,5.14,0,0,1,.44.7,6.94,6.94,0,0,1,.44,1c.1.39.21.8.32,1.21s.07.85.1,1.25A7.51,7.51,0,0,1,249.32,207.9Zm4.09-2.28a2.8,2.8,0,0,1-.33.67,3.65,3.65,0,0,0,0-.71,6,6,0,0,0-.43-1.74,11.71,11.71,0,0,0-1.25-2.18c-.5-.79-1.14-1.66-1.65-2.66a14.58,14.58,0,0,1-1-3.07,11.42,11.42,0,0,1-.16-2.79,8.92,8.92,0,0,1,.33-1.92c.15-.45.23-.71.23-.71s0,.27.1.73.19,1.1.31,1.85a21.84,21.84,0,0,0,.64,2.49,13.79,13.79,0,0,0,1.08,2.68c.38.89.91,1.76,1.39,2.65a8.38,8.38,0,0,1,.89,2.7A4.31,4.31,0,0,1,253.41,205.62Z"/><path d="M258.3,171.58c.08,1.53.08,3,.26,4.38.09.68.2,1.35.33,2a15.18,15.18,0,0,0,.45,1.74,5.81,5.81,0,0,0,1.52,2.56,25,25,0,0,1,5.27,6.36,13.59,13.59,0,0,1,1.2,2.72s.56-1,1.33-2.54c.4-.78.74-1.74,1.14-2.77s.77-2.17,1.12-3.33a35.16,35.16,0,0,0,.7-3.6,15.17,15.17,0,0,0,.15-3.47c-.19-2.19-.85-4-2.28-5.08a22.09,22.09,0,0,1-4.1-4.23c-.64-.83-1.24-1.68-1.81-2.53s-1.11-1.71-1.64-2.51c-1-1.62-1.88-3.07-2.46-4.11l-1-1.7s0,.34,0,1-.07,1.48-.09,2.54c0,.54,0,1.12,0,1.73s0,1.28,0,2c-.06,1.36-.08,2.84-.05,4.37S258.23,170.05,258.3,171.58Zm3.36-7.12.29.52c.16.33.46.78.73,1.34s.68,1.14,1,1.8a15.66,15.66,0,0,0,1.27,2,17.22,17.22,0,0,0,1.37,1.91c.47.57.9,1.16,1.31,1.71a3.59,3.59,0,0,1,.62,1.54,1.87,1.87,0,0,1-.05.62,1.77,1.77,0,0,0-.27-.51,4.61,4.61,0,0,0-1-1,20.21,20.21,0,0,1-1.69-1.35,18.07,18.07,0,0,1-1.69-1.95,17.78,17.78,0,0,1-1.19-2.28,10.5,10.5,0,0,1-.62-2.15,8.37,8.37,0,0,1-.13-1.57C261.65,164.68,261.66,164.46,261.66,164.46Zm-1.43,6.48c0-.29,0-.46,0-.46l.27.38c.14.24.41.57.65,1s.6.81.89,1.29a72.35,72.35,0,0,0,2.15,2.75c.39.4.7.86,1,1.18s.57.67.78.86l.3.36-.46-.07a5.5,5.5,0,0,1-1.18-.36,7.27,7.27,0,0,1-1.5-.88,14.29,14.29,0,0,1-1.43-1.39,13.19,13.19,0,0,1-1-1.72,6.85,6.85,0,0,1-.49-1.67A5.08,5.08,0,0,1,260.23,170.94Z"/><path d="M293.27,166.13l-4,2.34c-1.42.82-2.86,1.68-4.24,2.56s-2.65,1.81-3.89,2.72a21.15,21.15,0,0,0-3.16,2.82,10.29,10.29,0,0,0-1.1,1.48,8,8,0,0,0-.77,1.51c-.47,1.26-.91,2.39-1.36,3.42.1-.27.2-.54.29-.82.81-2.56,1.7-5.1,2.35-7.73a123.76,123.76,0,0,0,3.23-15.88c.08-.64.15-1.28.23-1.92a28.14,28.14,0,0,0,5.75-1.76,15.24,15.24,0,0,0,5.25-3.58,8.81,8.81,0,0,0,2.54-6,31.37,31.37,0,0,1,.35-3.74c.21-1.29.37-2.62.64-3.94s.55-2.65.82-4,.57-2.57.86-3.77.54-2.33.77-3.36l.67-2.71.58-2.46s-1,1-2.45,2.58-3.54,3.75-5.6,6.1c-1.07,1.17-2.14,2.39-3.14,3.61-.5.62-1,1.23-1.45,1.85s-.94,1.23-1.37,1.84a21.48,21.48,0,0,0-2.07,3.58,9,9,0,0,0-.94,3.39c-.05,1.09-.11,2.11-.21,3-.09.58-.18,1.12-.27,1.64.07-.86.13-1.72.16-2.58l.09-4c0-.68.05-1.32,0-2l0-2c0-1.33,0-2.65-.14-4s-.17-2.69-.25-4-.27-2.65-.41-4c-.21-1.8-.47-3.58-.76-5.36l.46-.25a24.71,24.71,0,0,0,4.2-3,15,15,0,0,0,3.79-4.84,10.33,10.33,0,0,0,.86-3,8.15,8.15,0,0,0-.24-3.34,32.82,32.82,0,0,1-.73-3.68c-.23-1.27-.41-2.59-.54-3.93s-.27-2.66-.4-4-.2-2.59-.3-3.81c-.23-2.42-.31-4.61-.46-6.14s-.18-2.49-.18-2.49-.6,1.2-1.47,3.09c-.45,1-1,2.08-1.53,3.3s-1.17,2.57-1.77,4-1.22,2.83-1.78,4.27-1,2.86-1.48,4.26a21,21,0,0,0-.87,4,10.12,10.12,0,0,0,.12,3.5,32.84,32.84,0,0,1,.76,3.87c-.15-.65-.29-1.31-.44-2A131.63,131.63,0,0,0,273.64,96c-1.2-3.15-2.52-6.19-3.93-9.15a23.81,23.81,0,0,0,3.17-4.15,14,14,0,0,0,2-5.56,10.17,10.17,0,0,0-.08-3.11,10.05,10.05,0,0,0-1.22-3.1c-.59-1-1.19-2.12-1.76-3.27s-1.09-2.38-1.64-3.58-1.05-2.44-1.53-3.66L267.2,57c-.45-1.12-.84-2.19-1.23-3.13l-1-2.51c-.27-.71-.49-1.29-.65-1.69s-.24-.6-.24-.6l-.43,3.26c-.12,1-.26,2.18-.41,3.46s-.28,2.72-.43,4.16-.25,3-.33,4.45-.14,3-.09,4.4a27.25,27.25,0,0,0,.39,4A11.35,11.35,0,0,0,263.94,76c.32.56.61,1.1.89,1.62-1.51-2.58-3.08-5.09-4.72-7.49a120.63,120.63,0,0,0-8.25-10.74l-2-2.2L250,57a20.88,20.88,0,0,0,1.51-4.38,14.42,14.42,0,0,0,.16-5.69,10.12,10.12,0,0,0-3.08-5.45c-.87-.79-1.74-1.67-2.6-2.62s-1.75-1.9-2.6-2.91l-1.26-1.52L240.87,33l-2.35-2.9c-1.53-1.81-2.81-3.49-3.78-4.64l-1.52-1.88s.2,1.21.58,3.08.88,4.49,1.54,7.21c.33,1.36.64,2.82,1,4.21s.82,2.76,1.26,4.09a22.07,22.07,0,0,0,1.59,3.6,10.75,10.75,0,0,0,2.06,2.8c.5.45.94.9,1.37,1.34A118.1,118.1,0,0,0,225.77,36.6c-1.1-.71-2.19-1.38-3.26-2a19.76,19.76,0,0,0,.13-4.78,12.91,12.91,0,0,0-1.59-5.22,10.94,10.94,0,0,0-1.81-2.38,11.21,11.21,0,0,0-2.7-1.86c-.53-.26-1-.55-1.59-.85s-1.09-.58-1.64-.9c-1.1-.63-2.19-1.35-3.3-2s-2.21-1.4-3.27-2.11-2.12-1.36-3.09-2-1.89-1.28-2.73-1.82l-2.2-1.45-2-1.31s.56,1,1.47,2.62l1.62,2.78c.62,1.05,1.29,2.19,2,3.34s1.47,2.35,2.25,3.52,1.58,2.35,2.42,3.41A29.8,29.8,0,0,0,209,26.43a13.18,13.18,0,0,0,2.79,2,44.64,44.64,0,0,1,4.9,2.88l.06,0c-2.12-1.1-4.13-2.06-6-2.89a108.72,108.72,0,0,0-10.22-3.87c-1.2-.38-2.12-.65-2.75-.83l-.94-.28.9.4c.6.26,1.48.65,2.64,1.13,2.3,1,5.62,2.57,9.76,4.71a146.25,146.25,0,0,1,14.37,8.66,127.48,127.48,0,0,1,16.84,13.66l2.15,2.11c.72.72,1.4,1.48,2.12,2.23,1.44,1.48,2.8,3.1,4.21,4.7.7.82,1.36,1.67,2.05,2.51s1.38,1.7,2,2.59l2,2.68,1.94,2.78A122.86,122.86,0,0,1,271.2,97a119.22,119.22,0,0,1,7.3,29.67l.39,3.9.24,3.91c.1,1.29.09,2.64.13,4l0,2c0,.62,0,1.31,0,2l-.1,4c0,1.32-.18,2.64-.27,4-.14,2.65-.53,5.27-.85,7.9a121,121,0,0,1-3.37,15.49c-.67,2.56-1.57,5-2.39,7.52-.42,1.24-.94,2.45-1.4,3.67s-.93,2.44-1.49,3.62l-1.59,3.56c-.55,1.17-1.16,2.31-1.74,3.46-1.12,2.32-2.47,4.51-3.71,6.74a126.57,126.57,0,0,1-8.53,12.42c-1.48,2-3.11,3.82-4.67,5.68-.76.94-1.63,1.79-2.43,2.68s-1.61,1.78-2.47,2.61c-1.71,1.65-3.33,3.36-5.09,4.87l-2.59,2.31L233.93,235a127.76,127.76,0,0,1-21.24,14,130.49,130.49,0,0,1-19.87,8.35c-1.5.57-3,1-4.44,1.42l-2.12.65c-.7.21-1.39.35-2.06.55l-3.88,1-3.58.81c-2.26.57-4.3.89-6.07,1.26-.89.17-1.71.35-2.48.48l-2.08.33c-1.24.19-2.19.37-2.84.49l-1,.17,1,0c.65,0,1.62.07,2.88.08l2.11.05c.77,0,1.62-.07,2.54-.1,1.83-.07,4-.17,6.31-.47a98.4,98.4,0,0,0,16.79-3.27l.12,0,.24.37a36.08,36.08,0,0,0,4,5.11,20,20,0,0,0,5.91,4.45,8.77,8.77,0,0,0,6.82.28,32.69,32.69,0,0,1,3.66-1.24c1.3-.36,2.67-.63,4.05-.9s2.76-.54,4.14-.75,2.75-.37,4-.59,2.5-.36,3.61-.5l2.94-.35c1.65-.23,2.68-.34,2.68-.34s-1.49-.7-3.8-1.71l-4-1.79c-1.49-.66-3.11-1.36-4.76-2.05l-2.5-1c-.85-.35-1.7-.69-2.54-1-1.68-.65-3.33-1.22-4.89-1.65a24.5,24.5,0,0,0-4.38-.89,8.15,8.15,0,0,0-3.06.27l3-1.3,5.4-2.6,5.48-3c1.81-1.13,3.68-2.22,5.51-3.43l1-.66.07.06a33.22,33.22,0,0,0,5.13,3.55,18.58,18.58,0,0,0,6.72,2.34,8.69,8.69,0,0,0,6.51-1.73c1-.73,2-1.51,3.13-2.21s2.34-1.38,3.58-2,2.45-1.31,3.69-1.91,2.5-1.15,3.63-1.72c2.29-1.11,4.39-2,5.92-2.71l2.4-1.11s-1.56-.2-4-.46-5.77-.68-9.22-1c-1.7-.13-3.51-.31-5.25-.41s-3.44-.14-5-.07a23,23,0,0,0-4.37.47,9.37,9.37,0,0,0-2.22.8,124.71,124.71,0,0,0,15.78-15.95l.17.07a31.43,31.43,0,0,0,5.69,1.8,18,18,0,0,0,6.86.19,8.77,8.77,0,0,0,5.64-3.54c.72-1,1.5-2,2.36-3s1.81-2,2.81-3,1.94-1.95,2.94-2.88,2-1.82,2.93-2.68c1.83-1.73,3.53-3.23,4.77-4.3.63-.53,1.08-1,1.43-1.28l.52-.46-3.8.73c-2.33.44-5.48,1.06-8.74,1.81-1.61.38-3.35.74-5,1.17a48.34,48.34,0,0,0-4.66,1.43,21.42,21.42,0,0,0-4,1.73,9.15,9.15,0,0,0-2.67,2.32v0q2.5-3.79,4.84-7.79c1.23-2.31,2.56-4.58,3.66-7,.57-1.2,1.18-2.38,1.71-3.6l1-2.3.44,0a29.08,29.08,0,0,0,5.71,0,17,17,0,0,0,6.34-1.86,8.8,8.8,0,0,0,4.27-5c.38-1.14.9-2.31,1.4-3.52s1.14-2.42,1.79-3.62,1.31-2.4,2-3.59,1.32-2.32,2-3.39,1.2-2.11,1.75-3l1.45-2.43,1-1.62c.24-.38.35-.59.35-.59l-3.29,1.78ZM292.21,138c-.14.32-.27.81-.5,1.34s-.43,1.19-.72,1.83-.56,1.36-.8,2.08-.58,1.4-.81,2.07-.53,1.29-.7,1.84-.43,1-.54,1.33l-.24.51s0-.2-.09-.56a7.57,7.57,0,0,1-.08-1.47,11.49,11.49,0,0,1,.22-2.06c.17-.73.39-1.51.64-2.28s.7-1.46,1.07-2.12a12.7,12.7,0,0,1,1.22-1.67,9.71,9.71,0,0,1,1.05-1l.45-.35Zm-6.62,3.69a13,13,0,0,1,.46-1.54A17.25,17.25,0,0,1,287,138c.41-.71.88-1.47,1.37-2.2s1.14-1.36,1.7-2a18.18,18.18,0,0,1,1.71-1.51,11.6,11.6,0,0,1,1.33-.9l.55-.29-.31.53c-.23.31-.49.81-.88,1.33s-.77,1.17-1.26,1.8-1,1.32-1.45,2-1,1.34-1.51,2-1,1.21-1.34,1.74-.78.92-1,1.22l-.42.46S285.52,142.05,285.59,141.66Zm-.32-42,.38-.45s0,.21-.07.58-.11.89-.25,1.49-.21,1.31-.39,2-.34,1.51-.47,2.3-.38,1.55-.52,2.29-.36,1.42-.46,2-.31,1.1-.39,1.46-.17.56-.17.56l-.16-.57a9.4,9.4,0,0,1-.25-1.51,15,15,0,0,1,0-2.16c.08-.78.18-1.62.32-2.45s.46-1.62.72-2.37a13.7,13.7,0,0,1,.92-2A11,11,0,0,1,285.27,99.67Zm-3.62,1.75c.09-.68.12-1.49.3-2.32l.53-2.61c.25-.88.51-1.75.75-2.56s.58-1.55.81-2.2.53-1.15.7-1.52l.31-.56s0,.23,0,.64,0,1-.09,1.67-.13,1.49-.3,2.32-.34,1.73-.52,2.62-.51,1.74-.75,2.56-.58,1.55-.81,2.19-.54,1.15-.7,1.52l-.31.56s0-.23,0-.64S281.56,102.1,281.65,101.42ZM219.89,28.51a14.79,14.79,0,0,0-1.62-1.89,22.45,22.45,0,0,0-2.64-2.24,29.74,29.74,0,0,0-3.34-2.21L208.83,20a26.67,26.67,0,0,1-2.9-2.2,14.06,14.06,0,0,1-1.8-1.87c-.38-.5-.58-.79-.58-.79s.29.21.81.54,1.26.79,2.13,1.33,2,1.07,3.11,1.72l3.59,2a31.18,31.18,0,0,1,3.38,2.51A14.88,14.88,0,0,1,219,26a9.91,9.91,0,0,1,1.17,2.35,7.2,7.2,0,0,1,.19.7c.05.16.07.24.07.24S220.26,29,219.89,28.51Zm28.44,21.37a5.12,5.12,0,0,1-.34.87,6,6,0,0,0,0-.91,8.52,8.52,0,0,0-.44-2.25,11.76,11.76,0,0,0-1.42-2.84,19,19,0,0,0-2.34-2.86L241.24,39a16.11,16.11,0,0,1-1.92-2.9,9.15,9.15,0,0,1-.83-2.32,8.36,8.36,0,0,1-.13-.92s.14.3.44.8a16,16,0,0,0,1.33,1.92A32.64,32.64,0,0,0,242.35,38l2.72,2.75A20.44,20.44,0,0,1,247.43,44a9.69,9.69,0,0,1,1.08,3.4A6.38,6.38,0,0,1,248.33,49.88Zm17.41,21c0,.63-.07,1.18-.07,1.55s-.06.6-.06.6-.09-.2-.27-.54a13.83,13.83,0,0,1-.56-1.47,16.82,16.82,0,0,1-.51-2.16c-.11-.8-.19-1.65-.26-2.52s.06-1.72.12-2.53a18,18,0,0,1,.4-2.17,12.8,12.8,0,0,1,.47-1.51l.24-.55s0,.22.09.6.13.91.16,1.54.13,1.37.13,2.14.05,1.61.11,2.44,0,1.65,0,2.43S265.72,70.21,265.74,70.84Zm3,5.59c-.22-.81-.42-1.67-.58-2.55s-.12-1.77-.13-2.6a14.57,14.57,0,0,1,.25-2.27,12,12,0,0,1,.41-1.56l.22-.57.11.6c0,.38.16.93.22,1.56s.22,1.38.28,2.17.19,1.61.34,2.44.19,1.67.33,2.44.19,1.53.32,2.16.13,1.19.2,1.56.06.62.06.62l-.37-.5a11.13,11.13,0,0,1-.82-1.39A14.71,14.71,0,0,1,268.78,76.43ZM221.69,264.65a11.22,11.22,0,0,1,2.95.32,8.91,8.91,0,0,1,1.06.35,9.67,9.67,0,0,0-1.1,0,16.48,16.48,0,0,0-2.81.31,28.31,28.31,0,0,0-3.83,1.07c-1.4.44-2.88,1-4.4,1.53a26.24,26.24,0,0,1-4.71,1,12,12,0,0,1-4.25-.34,8.1,8.1,0,0,1-2.7-1.27,5.17,5.17,0,0,1-.63-.54l-.22-.2.26.13c.17.09.43.19.75.32a10.84,10.84,0,0,0,2.72.61,15,15,0,0,0,3.88-.19,26.11,26.11,0,0,0,4.38-1.16c1.51-.44,3-.95,4.5-1.34A19.35,19.35,0,0,1,221.69,264.65Zm-14.31.11,1.67-.4,1.7-.17a12.53,12.53,0,0,1,1.51,0,9.92,9.92,0,0,1,1.09.13l.42.1-.37.23a9.82,9.82,0,0,1-1,.49c-.42.14-.89.38-1.42.51l-1.66.4-1.7.18a15,15,0,0,1-1.51,0,7.35,7.35,0,0,1-1.09-.14l-.43-.1.37-.23a9.82,9.82,0,0,1,1-.49A13.53,13.53,0,0,1,207.38,264.76ZM246.56,244c1.3-.73,2.6-1.54,3.89-2.23a16.15,16.15,0,0,1,3.78-1.4,8.13,8.13,0,0,1,3.9,0,8.87,8.87,0,0,0-1,.14,12.25,12.25,0,0,0-2.57.77,22.51,22.51,0,0,0-3.34,1.78c-1.19.72-2.43,1.58-3.75,2.41a20.81,20.81,0,0,1-4.24,1.89,9.81,9.81,0,0,1-4.12.24,6.53,6.53,0,0,1-2.68-1.06,7.25,7.25,0,0,1-.61-.51l-.19-.2.24.13a7.38,7.38,0,0,0,.72.28,7.49,7.49,0,0,0,2.6.39,10.67,10.67,0,0,0,3.59-.69A19.17,19.17,0,0,0,246.56,244Zm-7.42-1.41a11.64,11.64,0,0,0,1.89-.18c.59-.13,1.19-.15,1.68-.29s.94-.17,1.23-.26l.5-.1-.33.39a6,6,0,0,1-1,.86,7.6,7.6,0,0,1-1.69.84,13.82,13.82,0,0,1-2.13.46,15.34,15.34,0,0,1-2.18-.15,7.9,7.9,0,0,1-1.8-.61,5.74,5.74,0,0,1-1.13-.71l-.38-.34.51,0c.3,0,.76,0,1.26.09s1.09,0,1.7,0A11.11,11.11,0,0,0,239.14,242.55Zm26.68-30.26a15.3,15.3,0,0,1,1.42-1.22,23,23,0,0,1,2.19-1.47c.85-.46,1.76-.93,2.69-1.37s1.94-.71,2.86-1a25.33,25.33,0,0,1,2.57-.56,14.85,14.85,0,0,1,1.87-.19h.71l-.63.33c-.41.18-1,.5-1.67.79s-1.48.71-2.35,1-1.78.75-2.68,1.17-1.85.74-2.7,1.13-1.69.66-2.38,1-1.31.49-1.72.66l-.68.23Zm-3.6,8.32a8.14,8.14,0,0,0,2.2-.5,11.41,11.41,0,0,0,2.72-1.5,17.39,17.39,0,0,0,2.68-2.45c.91-.88,1.79-1.83,2.67-2.7a16.8,16.8,0,0,1,2.67-2.13,9.51,9.51,0,0,1,2.19-1.05,8,8,0,0,1,.89-.21,8.54,8.54,0,0,0-.74.51,16.54,16.54,0,0,0-1.75,1.51,32,32,0,0,0-2.18,2.39c-.8.89-1.62,1.9-2.52,2.88a18.73,18.73,0,0,1-3.09,2.49,8.9,8.9,0,0,1-3.31,1.2,6.27,6.27,0,0,1-2.46-.11,6.38,6.38,0,0,1-.86-.31A5.5,5.5,0,0,0,262.22,220.61Zm26.31-44c-.24.28-.55.73-1,1.2s-.84,1.06-1.35,1.63-1,1.2-1.52,1.85-1.06,1.24-1.52,1.85-1,1.15-1.33,1.65-.76.88-1,1.18l-.4.45s0-.22.1-.6a10.14,10.14,0,0,1,.44-1.5,13.12,13.12,0,0,1,.94-2c.42-.69.91-1.41,1.42-2.11s1.19-1.26,1.78-1.81a13.89,13.89,0,0,1,1.79-1.31,10.15,10.15,0,0,1,1.39-.73l.56-.22Zm3.88-6.6c-.38.23-.87.61-1.49,1s-1.3.92-2.06,1.4-1.52,1.07-2.26,1.67-1.54,1.15-2.22,1.74-1.37,1.09-1.89,1.6-1.05.87-1.36,1.17l-.54.44.27-.64a10.54,10.54,0,0,1,.9-1.61,14.78,14.78,0,0,1,1.6-2.05,28.81,28.81,0,0,1,2.2-2,29.28,29.28,0,0,1,2.54-1.58,16.13,16.13,0,0,1,2.4-1,12.61,12.61,0,0,1,1.79-.44l.69-.09Z"/><path d="M277.2,158.1s.25-1.11.52-2.82a25.4,25.4,0,0,0,.34-3c.07-1.11.11-2.3.1-3.52,0-.61,0-1.22-.05-1.84s-.14-1.22-.23-1.81a20.55,20.55,0,0,0-.79-3.37,8.69,8.69,0,0,0-1.38-2.68,4.81,4.81,0,0,0-2-1.58,20.28,20.28,0,0,1-4.81-2.95c-.8-.62-1.57-1.28-2.31-2l-2.16-2c-1.37-1.28-2.47-2.47-3.34-3.32s-1.33-1.39-1.33-1.39.09.34.24.94.39,1.45.63,2.5.61,2.27.92,3.61.74,2.79,1.1,4.27c.18.74.38,1.49.59,2.24s.44,1.49.63,2.22a37.89,37.89,0,0,0,1.41,4.18c.28.64.5,1.25.78,1.81a11.5,11.5,0,0,0,.86,1.56,5.59,5.59,0,0,0,2.07,2,23.23,23.23,0,0,1,6.42,4.59A12.54,12.54,0,0,1,277.2,158.1Zm-5.57-12.7a4.52,4.52,0,0,1-.9-.14,5.57,5.57,0,0,1-1.18-.47c-.38-.24-.78-.52-1.17-.82s-.65-.74-.93-1.1a5.91,5.91,0,0,1-.56-1.13,4,4,0,0,1-.22-.88c0-.23,0-.36,0-.36l.3.18c.17.13.46.27.72.49s.62.42.9.71.63.56,1,.82a12.55,12.55,0,0,0,.9.89c.31.26.53.61.78.84s.41.52.56.67l.2.29Zm3.14-1.3a7.68,7.68,0,0,0-1.25-1.23,17.42,17.42,0,0,0-2-1.35c-.76-.47-1.62-.92-2.51-1.36a27.66,27.66,0,0,1-2.53-1.67,9.16,9.16,0,0,1-1.85-2,5.33,5.33,0,0,1-.77-1.76,2.72,2.72,0,0,1-.08-.53,1.23,1.23,0,0,1,0-.18,4.93,4.93,0,0,0,.4.57,7.87,7.87,0,0,0,1.2,1.26,15.41,15.41,0,0,0,2,1.4,26.47,26.47,0,0,0,2.5,1.38c.86.52,1.73,1.06,2.52,1.64a9.58,9.58,0,0,1,1.9,1.93,5.44,5.44,0,0,1,.84,1.72,6.62,6.62,0,0,1,.14.7A5.6,5.6,0,0,0,274.77,144.1Z"/><path d="M277,120.54c-.13-.86-.3-1.86-.52-3a30,30,0,0,0-.87-3.41,26.6,26.6,0,0,0-1.26-3.44,21.09,21.09,0,0,0-1.65-3,9.62,9.62,0,0,0-2-2.2,4.56,4.56,0,0,0-2.26-1,18.78,18.78,0,0,1-5.19-1.57c-.89-.39-1.76-.83-2.63-1.28s-1.74-.9-2.53-1.34-1.52-.89-2.19-1.29-1.29-.75-1.79-1.05c-1-.61-1.6-1-1.6-1s.68,1.23,1.8,3.1c.52,1,1.16,2.06,1.87,3.25s1.41,2.52,2.21,3.84c.37.67.76,1.34,1.15,2l1.22,2a40.74,40.74,0,0,0,2.42,3.66,17,17,0,0,0,2.42,2.82A5.69,5.69,0,0,0,268,119a22.48,22.48,0,0,1,7.06,2.68,12.2,12.2,0,0,1,2.23,1.68s0-.28-.06-.78S277.19,121.4,277,120.54ZM270.43,110a9.22,9.22,0,0,0-1.39-.76,18.09,18.09,0,0,0-2.07-.74c-.76-.26-1.62-.48-2.49-.7a25.87,25.87,0,0,1-2.54-1,8.25,8.25,0,0,1-2-1.42,5,5,0,0,1-1-1.42,5.88,5.88,0,0,1-.22-.61,4.32,4.32,0,0,0,.49.4,7.59,7.59,0,0,0,1.32.85,15.87,15.87,0,0,0,2,.83,24.47,24.47,0,0,0,2.45.74c.85.3,1.72.61,2.53,1a8.91,8.91,0,0,1,2.06,1.32,5.1,5.1,0,0,1,1.1,1.34,5,5,0,0,1,.28.59S270.76,110.16,270.43,110Z"/><path d="M266.57,87.4c-.36-.79-.78-1.73-1.31-2.7s-1.15-2-1.8-3a29.93,29.93,0,0,0-2.18-3c-.38-.46-.77-.91-1.16-1.33s-.83-.79-1.24-1.13a10.44,10.44,0,0,0-2.46-1.61,4.42,4.42,0,0,0-2.38-.37,16.13,16.13,0,0,1-5.16-.24,44.91,44.91,0,0,1-5.51-1.25c-1.75-.44-3.27-.91-4.36-1.27l-1.79-.57.72.69c.46.43,1.08,1.08,1.87,1.85l1.29,1.23,1.42,1.43c.5.49,1,1,1.56,1.52s1.06,1.07,1.62,1.61,1.14,1.07,1.68,1.63,1.11,1.09,1.68,1.61L250.73,84c.55.49,1.09,1,1.63,1.39s1.08.81,1.57,1.17a12.13,12.13,0,0,0,1.47.92,5.09,5.09,0,0,0,2.61.73,21.09,21.09,0,0,1,7.16.78,10.76,10.76,0,0,1,2.52,1l-.27-.74C267.22,88.85,266.94,88.19,266.57,87.4Zm-7.83-6a7.71,7.71,0,0,0-1.38-.79,12.32,12.32,0,0,0-2.06-.72,15.29,15.29,0,0,0-2.48-.53l-2.6-.57A12.75,12.75,0,0,1,248,78a6.92,6.92,0,0,1-1.46-.91c-.32-.28-.48-.44-.48-.44l.62.14c.39.11,1,.17,1.6.28s1.43.14,2.26.26l2.65.35a17.48,17.48,0,0,1,2.66.81,7.89,7.89,0,0,1,2.1,1.33A4.88,4.88,0,0,1,259,81.19a4.69,4.69,0,0,1,.26.6A5.09,5.09,0,0,0,258.74,81.41Z"/><path d="M245.11,56.31a31.51,31.51,0,0,0-2.56-2.42,36.32,36.32,0,0,0-2.89-2.26,24.42,24.42,0,0,0-3-1.73,9.75,9.75,0,0,0-2.78-.9,4.2,4.2,0,0,0-2.29.2,11.86,11.86,0,0,1-2.24.65,21.32,21.32,0,0,1-2.64.35c-.91.07-1.84.1-2.76.1s-1.86,0-2.74,0-1.7-.05-2.45-.1-1.44-.05-2-.08c-1.14-.06-1.84-.13-1.84-.13l.88.48,1,.55c.39.22.85.44,1.33.72,1,.55,2.1,1.18,3.35,1.85l1.91,1.09,2,1.11c.67.39,1.36.78,2.05,1.15s1.4.73,2.06,1.11c1.34.75,2.71,1.39,3.95,2A18,18,0,0,0,237,61.28a4.86,4.86,0,0,0,2.6.09,19.29,19.29,0,0,1,6.81-1,11.92,11.92,0,0,1,2.61.37s-.69-.91-1.81-2.25C246.6,57.85,245.89,57.11,245.11,56.31Zm-8.77-3.86a12.26,12.26,0,0,0-1.61-.06,14.08,14.08,0,0,0-2.2.23,15,15,0,0,0-2.47.59c-.86.2-1.75.45-2.63.62a8.36,8.36,0,0,1-2.47.09,5.15,5.15,0,0,1-1.69-.51,5,5,0,0,1-.55-.35,5.4,5.4,0,0,0,.63,0,8.46,8.46,0,0,0,1.59-.14,16,16,0,0,0,2.14-.57c.79-.23,1.63-.54,2.53-.82a15,15,0,0,1,2.78-.42,8.5,8.5,0,0,1,2.47.29,6,6,0,0,1,1.59.71,6.41,6.41,0,0,1,.53.38S236.75,52.48,236.34,52.45Z"/><path d="M192.76,37.28l2,.49c.69.17,1.42.31,2.16.5l2.24.57c.77.19,1.55.34,2.31.55s1.53.38,2.28.54l2.23.48c.72.16,1.42.3,2.1.4s1.33.18,1.92.26a14.82,14.82,0,0,0,1.7.1,4.82,4.82,0,0,0,2.48-.55,18.56,18.56,0,0,1,6.05-2.48,9.81,9.81,0,0,1,2.55-.28l-.63-.47c-.41-.29-1-.68-1.75-1.15s-1.6-1-2.57-1.57-2.05-1.08-3.15-1.6a31,31,0,0,0-3.4-1.37,19.09,19.09,0,0,0-3.32-.89,11.68,11.68,0,0,0-2.88-.17,4,4,0,0,0-2.1.73,14.39,14.39,0,0,1-4.29,2.05,47,47,0,0,1-5.18,1.4c-1.68.39-3.2.68-4.31.9l-1.79.32,3.6.82C191.53,37,192.13,37.12,192.76,37.28Zm3.83-.6a14.37,14.37,0,0,0,1.76-.3c.72-.13,1.52-.43,2.4-.67s1.83-.56,2.79-.87a27.08,27.08,0,0,1,3-.57,9.91,9.91,0,0,1,2.71.11,6.16,6.16,0,0,1,1.81.65c.4.24.6.39.6.39s-.26,0-.7-.07a9.38,9.38,0,0,0-1.77,0,15.2,15.2,0,0,0-2.42.4,24,24,0,0,0-2.75.74c-1,.23-2,.48-2.91.67a12.74,12.74,0,0,1-2.67.19,7.3,7.3,0,0,1-1.87-.34,6.82,6.82,0,0,1-.67-.26S196.15,36.74,196.59,36.68Z"/><polygon points="195.54 98.39 198.78 98.12 163.71 95.64 195.71 80.95 161.9 90.61 186.95 65.86 158.48 86.51 173.55 54.68 153.86 83.82 157.14 48.76 148.6 82.87 139.69 48.8 143.34 83.78 123.31 54.81 138.7 86.43 109.98 66.06 135.25 90.51 101.29 81.2 133.4 95.53 98.31 98.39 195.54 98.39"/><path d="M174.15,127.11c0-11.94-11.68-15.89-22.45-15.89-12.08,0-27.58,5.08-27.58,15.14,0,4.79,3.32,8.45,7.25,8.08,1.71-4.14,7-7.52,13.59-7.52,3.12,0,6.54.47,6.54,5,0,3.1-1.21,4.89-4,6.86L128.35,152.1c-6,4.23-8.86,7.62-8.86,13.07,0,4,1.51,8.46,3.83,10.05.7-.94,1.6-1.5,4.32-1.5,5.94,0,14.1,2.54,25,2.54,15.3,0,20.43-5.64,20.43-13.82,0-3-.7-5.64-3.32-9.11-2.41,2.63-5.94,3.38-11,3.38a100.29,100.29,0,0,1-18-1.6c10.87-5.73,15.5-7.7,20.23-10.34C172.64,138.29,174.15,132.84,174.15,127.11Zm-27.6,31.58c.63.09,1.56.12,2.63.24s2.33.14,3.65.28,2.74.15,4.15.13,2.82,0,4.15,0,2.59,0,3.66-.18,2-.09,2.64-.16l1,0-.9.5a16.34,16.34,0,0,1-2.5,1,22.54,22.54,0,0,1-3.71.93,43.85,43.85,0,0,1-4.39.35c-1.5-.09-3-.25-4.38-.47a23.91,23.91,0,0,1-3.69-1,18.11,18.11,0,0,1-2.47-1.11l-.88-.52Zm-13.63-.19c-.19.25-.39.69-.68,1.1s-.53,1-.87,1.45a110.7,110.7,0,0,0-1.73,3.29c-.21.56-.56,1.06-.71,1.54s-.42.89-.52,1.19l-.23.48s-.08-.18-.24-.48a5,5,0,0,1-.35-1.36,6.67,6.67,0,0,1,0-2,13.61,13.61,0,0,1,.71-2.16,13,13,0,0,1,1.38-1.82,6.45,6.45,0,0,1,1.6-1.16,5.14,5.14,0,0,1,1.32-.48l.54-.08Zm13.74-15a15.5,15.5,0,0,1-2.85,3.66,30.52,30.52,0,0,1-5.22,3.94c-2,1.22-4.2,2.41-6.2,3.77a20.11,20.11,0,0,0-5.26,4.47,12.78,12.78,0,0,0-2.53,5.32,9.28,9.28,0,0,0,.09,4.27,7.07,7.07,0,0,0,.62,1.58l-.3-.34a8,8,0,0,1-.75-1.06,8.62,8.62,0,0,1-1-4.61,12.54,12.54,0,0,1,2.19-6.4,22.33,22.33,0,0,1,5.62-5.25c2.19-1.36,4.45-2.47,6.48-3.57a47.28,47.28,0,0,0,5.39-3.16,20.82,20.82,0,0,0,3.34-2.89,13.54,13.54,0,0,0,1.1-1.32A12.73,12.73,0,0,1,146.66,143.52Zm-15.78-21.85c-1,.6-1.5,1-1.5,1s.41-.51,1.2-1.35a22.46,22.46,0,0,1,3.68-3.07,26.65,26.65,0,0,1,6.12-3,25.32,25.32,0,0,1,15.59-.38,26,26,0,0,1,6.27,2.73,22.72,22.72,0,0,1,3.82,2.89c.83.8,1.26,1.29,1.26,1.29s-.55-.36-1.54-.91a36.52,36.52,0,0,0-4.16-2.06,35.48,35.48,0,0,0-6.15-1.91,32.24,32.24,0,0,0-14.49.35,35.81,35.81,0,0,0-6,2.21A36.83,36.83,0,0,0,130.88,121.67Zm27.27-.65-2.3-.11c-.93-.11-2,0-3.18-.17s-2.37-.12-3.6-.1-2.44-.1-3.6-.06-2.25,0-3.18,0-1.75,0-2.3,0l-.9,0,.79-.43a15.31,15.31,0,0,1,2.19-.88,20.34,20.34,0,0,1,3.24-.77c1.21-.14,2.51-.23,3.82-.26s2.6.24,3.8.44a20,20,0,0,1,3.21.91,14.42,14.42,0,0,1,2.14,1l.77.46Z"/><polygon points="220.9 159.76 200.4 159.76 200.4 124.25 220.9 124.25 213 142.01 220.9 159.76"/><polygon points="81.91 159.76 102.41 159.76 102.41 124.25 81.91 124.25 89.81 142.01 81.91 159.76"/><path d="M148.55,7.39l1.53,3.1.76,1.54,1.7.25,3.43.5-2.48,2.42-1.23,1.2.29,1.69.58,3.41-3.06-1.61-1.52-.8-1.52.8L144,21.5l.58-3.41.3-1.69-1.24-1.2-2.48-2.42,3.43-.5,1.7-.25.76-1.54,1.54-3.1Zm0-7.39-4.47,9.05-10,1.45,7.22,7-1.7,9.94,8.93-4.69,8.93,4.69-1.71-9.94,7.22-7L153,9.05l-4.46-9Z"/></g></g></svg>