<svg xmlns="http://www.w3.org/2000/svg" fill="#4e76cd" viewBox="0 0 300 272.12"><title>Fichier 8</title><g id="Calque_2" data-name="Calque 2"><g id="Calque_1-2" data-name="Calque 1"><polygon points="222.3 135.1 201.75 135.1 201.75 99.5 222.3 99.5 214.38 117.3 222.3 135.1"/><polygon points="82.95 135.1 103.5 135.1 103.5 99.5 82.95 99.5 90.87 117.3 82.95 135.1"/><path d="M148.56,113.49l-.4-1.13c18.28-2.41,28-9.49,28-19.22,0-13.52-13.94-19.46-27.75-19.46-11.91,0-20,4.42-23.83,10.61a13.74,13.74,0,0,0-2,7c0,6.7,5.41,12,13.13,12,6.23,0,10.83-4.17,10.83-10.49,0-5.05-4.06-9.48-10.29-9.48-5.14,0-8.93,3.54-8.93,7.46A6.68,6.68,0,0,0,128,93.9c.14.38.82,1.14.82,1.77s-.54,1-1.22,1c-1.35,0-2.57-2.53-2.57-5.56C125,84.29,131.37,78,139.76,78c8.67,0,15.17,7.46,15.17,15.8,0,14.16-18.69,21.62-23.56,23.64l1.08,2.15c2.71-1.14,5.82-2.78,8.67-2.78,11.37,0,13.13,12.13,13.13,19.72,0,9.73-5,19.72-18.68,19.72-5.69,0-13.81-4.93-13.81-12.77,0-1.77.81-2.15,1.49-2.15s1.08.51,1.08,1.27a5.07,5.07,0,0,0,.14,1.51c.81,4.3,4.87,6.07,8.66,6.07a9.47,9.47,0,0,0,9.48-9.35c0-5.19-3.66-10.24-11-10.24-7.71,0-12.32,5.43-12.32,12.76,0,9.86,10.7,17.58,26.13,17.58,25.59,0,35.74-12.9,35.74-27.43C181.19,119.31,165.89,109.7,148.56,113.49ZM129.37,88.74a7.41,7.41,0,0,1,1.16-2.1,7.22,7.22,0,0,1,2-1.37,5.17,5.17,0,0,1,2-.4,4,4,0,0,1,1.4.26c.32.14.48.23.48.23s-.18.08-.47.24-.67.38-1.09.59a12.35,12.35,0,0,0-1.3.91,5.09,5.09,0,0,0-1.21,1.15,5,5,0,0,0-1,1.32,11.54,11.54,0,0,0-.77,1.39c-.17.45-.41.85-.48,1.15s-.19.49-.19.49a4.59,4.59,0,0,1-.28-.46,4,4,0,0,1-.39-1.36A5.29,5.29,0,0,1,129.37,88.74Zm23.35,17.85a23.48,23.48,0,0,0,2.23-3.44,21,21,0,0,0,2-5.24,15.55,15.55,0,0,0,.28-6.24,16.43,16.43,0,0,0-1.88-6A22.86,22.86,0,0,0,152.15,81a29.35,29.35,0,0,0-2.92-2.88c-.76-.66-1.23-1-1.23-1s.55.19,1.5.6A17.3,17.3,0,0,1,153.15,80a18.66,18.66,0,0,1,4.12,4.59,19,19,0,0,1,2.5,6.75,18.12,18.12,0,0,1-.68,7.17,17.6,17.6,0,0,1-2.92,5.46,16.29,16.29,0,0,1-3.09,3c-.85.59-1.35.88-1.35.88S152.12,107.39,152.72,106.59Zm-27,29.71a5.77,5.77,0,0,1,.83-1.44,7.28,7.28,0,0,1,1.77-1.58,7.19,7.19,0,0,1,5.34-1.05,7.3,7.3,0,0,1,2.23.8,5.62,5.62,0,0,1,1.31,1l.41.49-.62-.07c-.36-.08-.92-.06-1.51-.13a18.52,18.52,0,0,0-2,0,7.94,7.94,0,0,0-2.15.28,8.15,8.15,0,0,0-2.09.55,17.06,17.06,0,0,0-1.84.76c-.52.28-1,.48-1.34.69l-.55.3Zm34,1.15a26.24,26.24,0,0,1-2,7.42,23.1,23.1,0,0,1-3.56,5.58,19.52,19.52,0,0,1-3.42,3.13c-.91.64-1.46.95-1.46.95s.44-.46,1.12-1.32a32.65,32.65,0,0,0,2.59-3.62,31.31,31.31,0,0,0,2.65-5.56,27.4,27.4,0,0,0,1.18-13.75,30.35,30.35,0,0,0-1.65-5.93,31.35,31.35,0,0,0-1.94-4c-.52-1-.87-1.49-.87-1.49s.48.41,1.28,1.19a20.57,20.57,0,0,1,2.83,3.67,23.8,23.8,0,0,1,2.55,6.11A26,26,0,0,1,159.7,137.45Z"/><path d="M202.06,256.53a18.71,18.71,0,0,1-5.33-1.21,15.87,15.87,0,0,1-4.5-2.67,17.43,17.43,0,0,1-4.63-5.81c-.35-.66-.51-1.06-.51-1.06s.07.42.26,1.15a12.79,12.79,0,0,0,1.18,2.91,14.73,14.73,0,0,0,2.8,3.58,17.34,17.34,0,0,0,4.65,3,18.87,18.87,0,0,0,5.76,1.17,24.86,24.86,0,0,0,5.47-.4,15.25,15.25,0,0,0,3.82-1.15c.88-.4,1.36-.65,1.36-.65s-.51.18-1.42.43a15.73,15.73,0,0,1-1.62.41c-.64.1-1.35.19-2.13.28A27.71,27.71,0,0,1,202.06,256.53Z"/><path d="M191.92,248.74l-.57-.35.37.52a12,12,0,0,0,1.14,1.27,15.27,15.27,0,0,0,1.88,1.59,21.51,21.51,0,0,0,2.45,1.42c.91.38,1.85.72,2.76,1a19.82,19.82,0,0,0,2.61.53,17.32,17.32,0,0,0,1.95.17h.75l-.66-.23c-.42-.13-1-.37-1.71-.6s-1.49-.57-2.35-.87-1.72-.69-2.57-1.11a27,27,0,0,1-2.47-1.2c-.74-.41-1.51-.8-2.1-1.21S192.26,249,191.92,248.74Z"/><path d="M182.54,230.53c.23.72.39,1.11.39,1.11s-.08-.42-.17-1.16a24.08,24.08,0,0,1,.13-7.21,21.3,21.3,0,0,1,1.25-4.44,18.52,18.52,0,0,1,2-4.06,17.54,17.54,0,0,1,2.35-2.9c.39-.37.76-.7,1.09-1s.61-.57.86-.76c.48-.42.77-.64.77-.64s-.33.14-.89.45a25.61,25.61,0,0,0-2.24,1.41,13.71,13.71,0,0,0-2.69,2.77,21.89,21.89,0,0,0-2.25,4.19,20.63,20.63,0,0,0-1.21,4.74,19.78,19.78,0,0,0,0,4.41A16.54,16.54,0,0,0,182.54,230.53Z"/><path d="M187.42,215.89a17.35,17.35,0,0,0-1,1.94c-.31.75-.61,1.57-.9,2.42s-.43,1.76-.61,2.56a19.12,19.12,0,0,0-.32,2.24,14.39,14.39,0,0,0-.06,1.62c0,.4,0,.63,0,.63l.19-.58c.11-.37.28-.89.47-1.51s.43-1.31.62-2.12.45-1.63.72-2.44.47-1.64.73-2.39.44-1.46.66-2,.36-1.1.47-1.45l.17-.55-.35.43A10.45,10.45,0,0,0,187.42,215.89Z"/><path d="M237.18,232.72a16.11,16.11,0,0,1-5-1,16.82,16.82,0,0,1-3.8-1.93,15.87,15.87,0,0,1-2.3-1.89c-.53-.5-.8-.81-.8-.81s.19.36.59,1a12.48,12.48,0,0,0,2,2.29,13.71,13.71,0,0,0,3.71,2.37A16.91,16.91,0,0,0,236.8,234a17.73,17.73,0,0,0,5.75-.8,24,24,0,0,0,5-2.16,15.53,15.53,0,0,0,3.22-2.29c.7-.65,1.07-1.05,1.07-1.05s-.43.34-1.19.86a18.22,18.22,0,0,1-3.3,1.86,28.44,28.44,0,0,1-4.81,1.7A18.76,18.76,0,0,1,237.18,232.72Z"/><path d="M232,229.24a16.2,16.2,0,0,0,2.25.85,18.44,18.44,0,0,0,2.74.51c1,.05,1.94.06,2.88,0a20.66,20.66,0,0,0,2.6-.36,17.56,17.56,0,0,0,1.86-.49l.7-.24h-.68c-.44,0-1.05,0-1.78,0s-1.56,0-2.45,0-1.83-.07-2.74-.17a26.54,26.54,0,0,1-2.67-.3c-.83-.14-1.68-.27-2.35-.44s-1.28-.26-1.67-.37l-.64-.13.51.35A11.18,11.18,0,0,0,232,229.24Z"/><path d="M216.54,214.44a25,25,0,0,1-1.12-2.74,23.22,23.22,0,0,1-.93-4,20.57,20.57,0,0,1,1.91-12.4c.53-.94,1-1.7,1.34-2.26s.54-.86.54-.86-.27.25-.71.72-1.08,1.14-1.71,2.06a14.1,14.1,0,0,0-1.72,3.48,23.43,23.43,0,0,0-.9,4.6,20,20,0,0,0,.29,4.78,18.12,18.12,0,0,0,1.3,4.08,14.47,14.47,0,0,0,1.52,2.62c.43.59.71.9.71.9S216.85,215.09,216.54,214.44Z"/><path d="M217.24,206.6c0-.8-.06-1.65-.05-2.49s0-1.68,0-2.46,0-1.5,0-2.11,0-1.14,0-1.5,0-.57,0-.57l-.2.52a12.79,12.79,0,0,0-.42,1.43,19.32,19.32,0,0,0-.35,2.13c-.07.79-.11,1.66-.13,2.53s.12,1.74.17,2.55a18.57,18.57,0,0,0,.37,2.18,14,14,0,0,0,.44,1.52l.21.56s0-.21,0-.6,0-.9,0-1.54S217.31,207.41,217.24,206.6Z"/><path d="M255.35,197.24s.29.27.84.71a11.83,11.83,0,0,0,2.53,1.47,13.45,13.45,0,0,0,4.15,1,16.6,16.6,0,0,0,5.25-.57,17.47,17.47,0,0,0,5.09-2.63,25.31,25.31,0,0,0,4-3.64,16.37,16.37,0,0,0,2.29-3.19c.45-.84.68-1.33.68-1.33s-.3.45-.84,1.19a18.38,18.38,0,0,1-2.51,2.81,27.77,27.77,0,0,1-3.94,3.16,19.17,19.17,0,0,1-4.76,2.35,16.24,16.24,0,0,1-5,.72,16.9,16.9,0,0,1-4.11-.55,15.91,15.91,0,0,1-2.7-1C255.7,197.44,255.35,197.24,255.35,197.24Z"/><path d="M262.25,197a14.63,14.63,0,0,0,2.34,0,18.46,18.46,0,0,0,2.69-.41c.91-.28,1.82-.6,2.67-.94a19.6,19.6,0,0,0,2.3-1.19,17.62,17.62,0,0,0,1.58-1.06l.58-.46-.63.22c-.4.17-1,.34-1.64.6s-1.46.48-2.29.77-1.71.53-2.58.74a24.84,24.84,0,0,1-2.57.6c-.81.14-1.64.3-2.31.36s-1.26.18-1.66.21l-.64.08.58.17A11,11,0,0,0,262.25,197Z"/><path d="M243.5,188.34a19.52,19.52,0,0,1-1.85-2.18,20.94,20.94,0,0,1-2-3.39,17.28,17.28,0,0,1-1.44-4.15,17.58,17.58,0,0,1-.67-4.37,17.89,17.89,0,0,1,.25-3.73c.21-1.05.44-1.93.58-2.56s.25-1,.25-1-.18.32-.45.91-.67,1.43-1,2.51a14.47,14.47,0,0,0-.59,3.83,24,24,0,0,0,.52,4.61,18.61,18.61,0,0,0,1.66,4.38,17.71,17.71,0,0,0,2.41,3.37,13.83,13.83,0,0,0,2.2,1.93c.57.4.92.6.92.6S244,188.84,243.5,188.34Z"/><path d="M239.41,176.41c.17.77.39,1.59.63,2.42l.91,2.32a18.65,18.65,0,0,0,1,1.91,14.37,14.37,0,0,0,.85,1.27l.37.46-.17-.56-.46-1.44c-.23-.58-.37-1.26-.67-2s-.54-1.53-.78-2.32-.54-1.55-.75-2.28-.45-1.41-.6-2l-.42-1.41-.18-.53s0,.2,0,.56a11,11,0,0,0,0,1.47A17.29,17.29,0,0,0,239.41,176.41Z"/><path d="M296.52,132.69c-.46,1-.76,1.62-.76,1.62-.11.23-2.88,5.82-8.65,7-3.3.7-6.76,1.4-10,3.71a14.43,14.43,0,0,0-2.88,2.82,125.81,125.81,0,0,0,3-25.74,17.5,17.5,0,0,0,4.67.79,14.21,14.21,0,0,0,5-.73,12.56,12.56,0,0,0,5.27-3.45,18.46,18.46,0,0,0,3.17-5,22.7,22.7,0,0,0,1.15-3.23,36.71,36.71,0,0,0,.7-3.69,37.67,37.67,0,0,0,.26-8.67c-.11-1.58-.28-3.22-.51-4.93s-.67-3.46-1.1-5.27h0l-.06-.27s-.19-.75-.46-1.87-.65-2.62-1.13-4.08c-.91-3-1.83-5.89-1.83-5.89s-.08,2.86-.17,5.72c-.06,1.42-.09,2.82-.22,3.88s-.18,1.77-.18,1.77a14.37,14.37,0,0,1-.95,3.64,13,13,0,0,1-1.68,3,11,11,0,0,1-3,2.66c-2.82,1.7-5.86,3.46-7.9,6.62a18.83,18.83,0,0,0-1.75,3.54,126.29,126.29,0,0,0-2.33-13.9c-.89-3.95-2-7.75-3.16-11.39a16.94,16.94,0,0,0,4.65-.71,12.08,12.08,0,0,0,7.92-7.08,18.18,18.18,0,0,0,1.33-5.76,32.14,32.14,0,0,0-.57-7.07,44,44,0,0,0-2.58-8.23A38.75,38.75,0,0,0,279.66,48c-.8-1.51-1.69-3.06-2.64-4.64h0l-.14-.23-3.44-5.06c-.86-1.26-1.73-2.52-2.45-3.41l-1.16-1.51.58,1.67.58,1.7c.19.64.38,1.32.58,2,.75,2.69,1.49,5.39,1.49,5.39.15.19,1.38,6.21-2.11,10.44-2,2.42-4.18,5-5.08,8.65a15.86,15.86,0,0,0-.4,4.38,125.17,125.17,0,0,0-10.95-18.74q-1.41-2-2.79-3.8a14.77,14.77,0,0,0,4.39-2.16,11.7,11.7,0,0,0,5-9.05,17.69,17.69,0,0,0-.75-5.71,24.37,24.37,0,0,0-2.82-6.43,39.44,39.44,0,0,0-5.06-6.88c-1-1.16-2.17-2.34-3.37-3.53s-2.6-2.3-4-3.47h0l-.21-.17L243.4,6.27l-1.51-1.21-1.81-1.31L235.14.23l3.35,4.49c.81,1.13,1.65,2.21,2.2,3.1l.95,1.46a15.13,15.13,0,0,1,1.51,3.34,12.71,12.71,0,0,1,.58,3.24,10.11,10.11,0,0,1-.6,3.73c-1.06,2.87-2.22,5.91-1.78,9.51a17.17,17.17,0,0,0,1.9,6.16,65.8,65.8,0,0,0-8.09-6.7c-1-.73-1.86-1.24-2.42-1.58l-.85-.51s.81,1.1,2.39,3.05l6.7,8.4,2.57,3.31c-3.53-3.38-6.76-4.66-9.47-4.88-3.54-.19-6.35,1.28-9,2.67a11.25,11.25,0,0,1-3.28,1.18,12.83,12.83,0,0,1-2.86.31,10.45,10.45,0,0,1-2.86-.37l-1.25-.41c-.74-.26-1.81-.49-2.82-.77l-2.78-.72-.9-.24-.25-.06-.07,0h0l0,0,.21.17.76.61,2.29,1.85,1.23,1,1,.93,1,.9.14.13c.91.85,1.87,1.58,2.73,2.35S219.18,47.39,220,48a55.37,55.37,0,0,0,4.91,3.39,32.11,32.11,0,0,0,4.72,2.18,16.87,16.87,0,0,0,4.71.88,14.91,14.91,0,0,0,13-6.52l.53-.87c.93,1.31,1.87,2.67,2.82,4.11A121.24,121.24,0,0,1,260.83,70c.26.61.51,1.23.76,1.85l-.39-.5q-.58-.69-1.17-1.26a13.55,13.55,0,0,0-1.27-1,11.59,11.59,0,0,0-2.5-1.35c-3.31-1.3-6.53-.75-9.61-.16A13,13,0,0,1,237.54,66L234,63.63c-.85-.59-1.76-1.12-2.45-1.51l-1.13-.65.75,1.09.77,1.12.8,1.34,2.18,3.62.09.17c.57,1.1,1.15,2.13,1.76,3.11s1.24,1.87,1.78,2.78a38.83,38.83,0,0,0,3.6,4.68A20.3,20.3,0,0,0,246,82.87a17.07,17.07,0,0,0,4.2,2.3,16,16,0,0,0,10.42.16,15.08,15.08,0,0,0,4.69-2.39l.16-.12c1.09,3.58,2.06,7.29,2.85,11.15a122.27,122.27,0,0,1,2.05,14.69,11.39,11.39,0,0,0-3.17-4.13c-2.89-2.27-6.28-2.76-9.43-3.18a14.83,14.83,0,0,1-6.23-2.42A10.2,10.2,0,0,1,249.38,97l-.79-1.06c-.44-.64-1.18-1.44-1.85-2.24L244,90.54l1,4.07c.12.51.25,1,.37,1.49s.16.93.23,1.32l.23,1.28,0,.19c.21,1.2.52,2.34.74,3.45s.46,2.17.75,3.18a50.84,50.84,0,0,0,2,5.54,22.37,22.37,0,0,0,1.26,2.38,24.93,24.93,0,0,0,1.35,2.13,17.17,17.17,0,0,0,13.56,7,17.63,17.63,0,0,0,5.24-.69A119.9,119.9,0,0,1,267.48,147a12.76,12.76,0,0,0-1.72-4.21c-1.95-3-5.24-4.63-8.26-6a14.3,14.3,0,0,1-5.39-4.29,9.58,9.58,0,0,1-1.46-2.52s-.16-.5-.43-1.25-.73-1.72-1.16-2.71c-.82-1.91-1.65-3.82-1.65-3.82l-.32,4.14a25.89,25.89,0,0,1-.27,2.85l-.22,1.27,0,.18a47.34,47.34,0,0,0-.61,6.71,25.43,25.43,0,0,0,.09,5.81c.12.91.34,1.8.51,2.64a16,16,0,0,0,.63,2.43,17,17,0,0,0,2.27,4.42,18.24,18.24,0,0,0,4.35,4.3,19.56,19.56,0,0,0,9.63,3.46,120.05,120.05,0,0,1-9.06,19.28c-.59,1-1.19,2-1.8,3a11.54,11.54,0,0,0-1.37-6.6,17.74,17.74,0,0,0-1.54-2.24A38.13,38.13,0,0,0,246,170a15.16,15.16,0,0,1-3.91-5.86,9.93,9.93,0,0,1-.62-2.86l-.73-8.37-1.68,3.74-1.12,2.58a6.63,6.63,0,0,1-.42.82c-.11.2-.18.31-.18.31l-.09.16a35.8,35.8,0,0,0-2.7,6.09,25.17,25.17,0,0,0-1.72,5.5,19.15,19.15,0,0,0-.31,2.68,18,18,0,0,0-.13,2.53,17.3,17.3,0,0,0,.83,5,19.47,19.47,0,0,0,2.91,5.59,21.13,21.13,0,0,0,8.15,6.53,118,118,0,0,1-8.6,9.64c-1.76,1.83-3.65,3.51-5.49,5.22l-3.05,2.59A12.32,12.32,0,0,0,228,208a12.56,12.56,0,0,0-.22-2.75,18.32,18.32,0,0,0-.81-2.67,40.1,40.1,0,0,0-2.39-4.93,15.78,15.78,0,0,1-2-7,9.79,9.79,0,0,1,.26-2.95l1.85-8.21-2.78,3L220,184.57a5.6,5.6,0,0,1-.65.65l-.26.24-.14.12a33.22,33.22,0,0,0-4.46,4.88,24.3,24.3,0,0,0-3.31,4.68,37.57,37.57,0,0,0-2,4.84,17.74,17.74,0,0,0-.69,5.07,20.31,20.31,0,0,0,1.11,6.38,22.44,22.44,0,0,0,5.78,9c-1,.66-2,1.31-3.08,1.92a115.8,115.8,0,0,1-18.6,9.12,12.21,12.21,0,0,0,1.93-3.38,13.87,13.87,0,0,0,.68-5.63,42.65,42.65,0,0,0-.78-5.6,16.71,16.71,0,0,1,.2-7.41,10.52,10.52,0,0,1,1.13-2.77l4.23-7.28-3.54,1.91-2.41,1.33a7.83,7.83,0,0,1-1.13.54l-.16.07a31.36,31.36,0,0,0-5.7,3.17,24.31,24.31,0,0,0-4.55,3.4,19.94,19.94,0,0,0-1.8,2c-.54.7-1.08,1.31-1.55,2a18,18,0,0,0-2.21,4.68,23.91,23.91,0,0,0,1.71,17.36l-2.16.53-3.17.75c-4.17,1-8.28,2-12.17,3-4.26,1.13-8.33,2.28-12.16,3.5-3.84-1.22-7.9-2.37-12.16-3.5-3.89-1-8-2-12.18-3l-3.16-.75-2.29-.57A23.75,23.75,0,0,0,122,218.58a18,18,0,0,0-2.21-4.68c-.46-.72-1-1.33-1.55-2a19.94,19.94,0,0,0-1.8-2,23.91,23.91,0,0,0-4.54-3.4,31.7,31.7,0,0,0-5.7-3.17h0l-.16-.07-.3-.13a5.11,5.11,0,0,1-.79-.39l-2.34-1.29-3.43-1.85,4,7.15a10.69,10.69,0,0,1,1.14,2.78,16.71,16.71,0,0,1,.2,7.41,42.65,42.65,0,0,0-.78,5.6,13.87,13.87,0,0,0,.69,5.63,11.93,11.93,0,0,0,1.86,3.3,115.87,115.87,0,0,1-18.39-9c-1.07-.62-2.12-1.29-3.17-2a21.65,21.65,0,0,0,3.28-4,22,22,0,0,0,2.45-5,20.31,20.31,0,0,0,1.1-6.38,17.74,17.74,0,0,0-.69-5.07A18,18,0,0,0,90,197.6a20,20,0,0,0-1.11-2.46,24.3,24.3,0,0,0-3.31-4.68,33.22,33.22,0,0,0-4.46-4.88h0l-.12-.11-.26-.23a6.14,6.14,0,0,1-.63-.63l-1.82-2-2.7-2.88,1.68,8a10,10,0,0,1,.26,3,15.78,15.78,0,0,1-2,7,41.6,41.6,0,0,0-2.39,4.93,18.32,18.32,0,0,0-.81,2.67,12,12,0,0,0-.21,2.75,11.74,11.74,0,0,0,.76,3.68c-1-.8-1.89-1.62-2.85-2.42-1.84-1.71-3.73-3.4-5.49-5.23a117.18,117.18,0,0,1-8.64-9.68,20.78,20.78,0,0,0,4.27-2.63,20.39,20.39,0,0,0,3.77-3.86,19.09,19.09,0,0,0,2.91-5.59,17.67,17.67,0,0,0,.84-5,19.68,19.68,0,0,0-.13-2.53,20.81,20.81,0,0,0-.32-2.68,25.17,25.17,0,0,0-1.72-5.5,35.8,35.8,0,0,0-2.7-6.09h0l-.08-.15-.17-.3a6.13,6.13,0,0,1-.41-.79L61,156.76c-.81-1.81-1.63-3.62-1.63-3.62l-.83,8.12a10,10,0,0,1-.62,2.87A15.16,15.16,0,0,1,54,170a37,37,0,0,0-3.67,3.82,15.86,15.86,0,0,0-1.54,2.24,11.48,11.48,0,0,0-1,2.5,12.05,12.05,0,0,0-.38,3.84c-.55-.91-1.11-1.81-1.64-2.72a118.85,118.85,0,0,1-9.06-19.29,19.6,19.6,0,0,0,9.48-3.45,18.24,18.24,0,0,0,4.35-4.3,16.68,16.68,0,0,0,2.27-4.42,16,16,0,0,0,.63-2.43c.17-.84.4-1.73.51-2.64a24.87,24.87,0,0,0,.09-5.81,47.34,47.34,0,0,0-.61-6.71h0l0-.18-.21-1.23a24.1,24.1,0,0,1-.27-2.76l-.32-4s-.82,1.85-1.65,3.7c-.42,1-.85,1.9-1.17,2.61l-.42,1.2a10,10,0,0,1-1.46,2.54,14.47,14.47,0,0,1-5.39,4.29c-3,1.42-6.32,3-8.26,6a12.54,12.54,0,0,0-1.65,3.88,120.3,120.3,0,0,1-3.19-24.78,18,18,0,0,0,5.08.64,17.11,17.11,0,0,0,13.56-7,25,25,0,0,0,1.36-2.13,22.37,22.37,0,0,0,1.26-2.38,53.1,53.1,0,0,0,1.94-5.54q.43-1.51.75-3.18c.22-1.11.53-2.25.74-3.45h0l0-.18.23-1.24a25.87,25.87,0,0,1,.57-2.73l1-3.93-2.65,3c-.67.77-1.39,1.54-1.83,2.15s-.78,1-.78,1a9.69,9.69,0,0,1-2.18,2,14,14,0,0,1-2.64,1.43,13.48,13.48,0,0,1-3.59,1c-3.16.42-6.54.91-9.43,3.18a11.1,11.1,0,0,0-3,3.74,122,122,0,0,1,2-14.29c.78-3.82,1.74-7.51,2.82-11h0a15.06,15.06,0,0,0,4.7,2.39,16,16,0,0,0,10.41-.16,17.07,17.07,0,0,0,4.2-2.3,20.65,20.65,0,0,0,3.87-3.49,39.85,39.85,0,0,0,3.59-4.68c.54-.91,1.18-1.81,1.79-2.78s1.19-2,1.76-3.11h0l.08-.16,2.12-3.51a26.13,26.13,0,0,1,1.5-2.39l.72-1.06-1.1.62-1.14.64-1.24.8L62.49,66a13,13,0,0,1-9.13,1.63c-3.07-.59-6.3-1.14-9.61.16a11.59,11.59,0,0,0-2.5,1.35,13.45,13.45,0,0,0-1.26,1,16,16,0,0,0-1.18,1.26.18.18,0,0,1-.05.07c.19-.47.38-1,.58-1.41A119.94,119.94,0,0,1,49.41,51.22q1.38-2.09,2.73-4l.45.74a14.64,14.64,0,0,0,3.52,3.65,14.29,14.29,0,0,0,9.53,2.87,16.87,16.87,0,0,0,4.71-.88,30.76,30.76,0,0,0,4.72-2.19A53.12,53.12,0,0,0,80,48c.85-.65,1.71-1.36,2.57-2.14s1.82-1.5,2.74-2.35h0l.14-.12.95-.88,1-.89,1.19-1,3.22-2.61-3.91,1c-1,.26-2,.47-2.73.72l-1.23.38a10.54,10.54,0,0,1-2.86.37,12.91,12.91,0,0,1-2.87-.31A11.35,11.35,0,0,1,74.89,39c-2.6-1.39-5.42-2.86-9-2.67-2.6.21-5.69,1.4-9.07,4.5.79-1,1.56-2,2.29-3,2.82-3.63,5.14-6.45,6.71-8.39s2.41-3,2.41-3l-.84.52c-.56.35-1.38.86-2.41,1.59a71.87,71.87,0,0,0-8.41,7l0,0a17.56,17.56,0,0,0,2.1-6.55c.44-3.6-.72-6.64-1.78-9.51a10.32,10.32,0,0,1-.6-3.73,12.71,12.71,0,0,1,.58-3.24,14.43,14.43,0,0,1,1.51-3.33l1-1.49c.58-.92,1.46-2,2.31-3.18L65.18,0,60.09,3.64,58.22,5,56.65,6.23,55.13,7.46l-.22.17c-1.41,1.17-2.79,2.28-4,3.47s-2.34,2.37-3.38,3.53a40,40,0,0,0-5.06,6.88,24.7,24.7,0,0,0-2.82,6.43,17.39,17.39,0,0,0-.74,5.71,11.69,11.69,0,0,0,5,9.05,14.47,14.47,0,0,0,4.5,2.19c-.92,1.19-1.85,2.45-2.77,3.76a125.55,125.55,0,0,0-11.08,19A16.58,16.58,0,0,0,34.16,63c-.9-3.64-3.11-6.23-5.08-8.65C25.59,50.14,26.81,44.12,27,44l1.6-5.57c.39-1.41.88-2.78,1.25-3.8s.62-1.72.62-1.72l-1.2,1.56L28,36l-1.31,1.91-3.55,5.22-.15.24Q21.57,45.76,20.35,48a38.75,38.75,0,0,0-2.12,4.44,44.79,44.79,0,0,0-2.58,8.23,32.14,32.14,0,0,0-.57,7.07,18.18,18.18,0,0,0,1.33,5.76,12.1,12.1,0,0,0,7.92,7.08,16.7,16.7,0,0,0,4.77.71C27.9,85,26.83,88.76,26,92.71a125.75,125.75,0,0,0-2.37,14.15,18.32,18.32,0,0,0-1.84-3.79c-2-3.16-5.07-4.92-7.9-6.62a11.16,11.16,0,0,1-3-2.66,12.71,12.71,0,0,1-1.67-3,14.25,14.25,0,0,1-1-3.64s-.06-.72-.16-1.82-.13-2.55-.18-4L7.74,75.4s-.94,3-1.89,6.08c-.23.76-.46,1.52-.67,2.23s-.35,1.4-.49,2l-.48,1.93-.06.28c-.42,1.81-.85,3.56-1.1,5.27s-.4,3.35-.51,4.93a37.64,37.64,0,0,0,.27,8.67,36.78,36.78,0,0,0,.69,3.69,22.7,22.7,0,0,0,1.15,3.23,18.48,18.48,0,0,0,3.18,5,12.47,12.47,0,0,0,5.26,3.45,14.21,14.21,0,0,0,5,.73,17.32,17.32,0,0,0,4.8-.83,126.4,126.4,0,0,0,3,26A14.25,14.25,0,0,0,22.88,145c-3.22-2.31-6.68-3-10-3.71-5.77-1.2-8.54-6.79-8.64-7,0,0-.32-.66-.77-1.68s-.91-2.39-1.44-3.76l-2-5.59.12,6.38c.07,1.59,0,3.2.18,4.39l.2,2,0,.28a72.43,72.43,0,0,0,1.7,10.26,54.7,54.7,0,0,0,3.13,8.18,26.39,26.39,0,0,0,1.86,3.29,29.58,29.58,0,0,0,2.21,2.7,18.76,18.76,0,0,0,4.78,3.76,12.86,12.86,0,0,0,6.18,1.58,15.51,15.51,0,0,0,5.18-1,18.63,18.63,0,0,0,4.56-2.47,126.3,126.3,0,0,0,9.4,20.62c.59,1.06,1.21,2.1,1.84,3.13a15.17,15.17,0,0,0-4-1.86,16.48,16.48,0,0,0-2.87-.55,19.27,19.27,0,0,0-2.73-.13,48.59,48.59,0,0,0-5.33.52c-6.06.82-10.61-3.56-10.78-3.74,0,0-1.94-2.19-3.89-4.48l-3.88-4.64s1.12,3,2.25,6l1.57,4.15c.21.57.44,1,.58,1.34l.24.5.12.26a84.24,84.24,0,0,0,5,9.22,49.78,49.78,0,0,0,5.69,6.74,37.71,37.71,0,0,0,2.86,2.52,24.71,24.71,0,0,0,3,1.83A18.88,18.88,0,0,0,35,206.07a14.17,14.17,0,0,0,11.26-3.31,20,20,0,0,0,3.72-4,123.82,123.82,0,0,0,9.18,10.45c1.86,1.95,3.85,3.76,5.8,5.58,1.16,1,2.31,2,3.47,3a15.45,15.45,0,0,0-4.68-.47,17.62,17.62,0,0,0-2.95.46,19,19,0,0,0-2.69.81,54.69,54.69,0,0,0-5,2.32c-5.63,2.87-11.43.22-11.64.1l-5.19-3L31.05,215l4.09,5L38,223.4a12.72,12.72,0,0,0,1,1.1l.38.4.2.21a84.13,84.13,0,0,0,7.72,7.16,48.91,48.91,0,0,0,7.62,4.56,32,32,0,0,0,3.55,1.45,24.72,24.72,0,0,0,3.48.75,19.08,19.08,0,0,0,6.29-.11,14.12,14.12,0,0,0,6.12-2.82,17.22,17.22,0,0,0,3.73-4.23,21.56,21.56,0,0,0,2.4-5.21c1.16.76,2.32,1.51,3.52,2.2a122.6,122.6,0,0,0,20.6,10,15.75,15.75,0,0,0-5.2,1.19,21.21,21.21,0,0,0-5,3.15c-1.47,1.24-2.8,2.63-4.1,4a14.38,14.38,0,0,1-11.18,4.06l-5.94-1.11-6-1.24,5.52,3.48,3.82,2.37a13.78,13.78,0,0,0,1.28.74l.5.26.25.13a83.52,83.52,0,0,0,9.7,4.34A46.91,46.91,0,0,0,96.94,262a32.66,32.66,0,0,0,3.88.2,19.58,19.58,0,0,0,3.57-.44,18.84,18.84,0,0,0,6-2.26,15.75,15.75,0,0,0,7.18-10.19,22.6,22.6,0,0,0,.64-6.22l2.7.67,3.17.72c4.21.95,8.19,1.87,12,2.84l2.33.58a92.32,92.32,0,0,0-13,6.61c-4.11,2.59-7.14,4.78-9.43,6-.45.27-.85.5-1.23.7a2.43,2.43,0,0,0-1.6-.95c-1.18.07-1.07,2.76.24,6s3.32,5.84,4.5,5.78c.65,0,.9-.91.77-2.23a28,28,0,0,1,2.39-2.75,45.45,45.45,0,0,1,8.23-6.43,75.65,75.65,0,0,1,14.35-7.24c2-.8,4.17-1.54,6.44-2.26,2.26.72,4.42,1.46,6.44,2.26a76,76,0,0,1,14.35,7.24,45.32,45.32,0,0,1,8.22,6.43,30.25,30.25,0,0,1,2.29,2.61c-.16,1.4.08,2.33.76,2.37,1.18.06,3.19-2.52,4.5-5.78a14,14,0,0,0,1-3.89l0,0h0c.1-1.25-.14-2.07-.78-2.1a2.33,2.33,0,0,0-1.56.91l-1.16-.66c-2.28-1.24-5.32-3.43-9.42-6a92.32,92.32,0,0,0-13-6.61l2.33-.58c3.83-1,7.8-1.89,12-2.84l3.17-.72,2.55-.63a23.25,23.25,0,0,0,.64,6.18,15.75,15.75,0,0,0,7.18,10.19,18.84,18.84,0,0,0,6,2.26,19.58,19.58,0,0,0,3.58.44,34.86,34.86,0,0,0,3.87-.2,46.91,46.91,0,0,0,8.77-1.85,82.78,82.78,0,0,0,9.7-4.34h0l.25-.13.48-.26a12.6,12.6,0,0,0,1.24-.71l3.7-2.3,5.35-3.37-5.86,1.13-5.76,1c-.25.05-6.69.65-11.2-4.06-1.3-1.34-2.63-2.73-4.1-4a21,21,0,0,0-5-3.15,15.72,15.72,0,0,0-5.06-1.18,123.52,123.52,0,0,0,20.61-10c1.15-.67,2.28-1.38,3.4-2.12a21.17,21.17,0,0,0,2.37,5.13,17.22,17.22,0,0,0,3.73,4.23,14.23,14.23,0,0,0,6.12,2.82,19.08,19.08,0,0,0,6.29.11,24.72,24.72,0,0,0,3.48-.75,32.94,32.94,0,0,0,3.56-1.45,49.85,49.85,0,0,0,7.62-4.56,85.4,85.4,0,0,0,7.71-7.16h0l.19-.2.37-.39c.24-.25.58-.6.95-1.06l2.75-3.33,4-4.87-5.11,3-5,2.81c-.23.13-6,2.78-11.66-.09a52.34,52.34,0,0,0-5-2.32,19,19,0,0,0-2.69-.81,17.62,17.62,0,0,0-2.95-.46,15.68,15.68,0,0,0-4.48.42c1.14-1,2.28-1.95,3.42-2.93,2-1.82,3.94-3.63,5.8-5.58a124.93,124.93,0,0,0,9.1-10.35,20.1,20.1,0,0,0,3.65,3.86A14.17,14.17,0,0,0,265,206.07a19,19,0,0,0,5.87-1.95,25.4,25.4,0,0,0,3-1.83,35.87,35.87,0,0,0,2.86-2.52,50.54,50.54,0,0,0,5.7-6.74,86,86,0,0,0,5-9.22h0l.12-.25.22-.48c.14-.32.37-.75.57-1.3.41-1.1,1-2.56,1.52-4l2.18-5.86s-1.9,2.23-3.81,4.45l-3.8,4.29c-.19.19-4.74,4.57-10.8,3.75a48.59,48.59,0,0,0-5.33-.52,19.34,19.34,0,0,0-2.73.13,16.2,16.2,0,0,0-2.86.55,14.8,14.8,0,0,0-3.79,1.72c.6-1,1.19-2,1.76-3A126.15,126.15,0,0,0,270,162.73a18.51,18.51,0,0,0,4.46,2.39,15.44,15.44,0,0,0,5.17,1,13,13,0,0,0,6.18-1.58,18.59,18.59,0,0,0,4.78-3.76,28,28,0,0,0,2.21-2.7,26.39,26.39,0,0,0,1.86-3.29,53.61,53.61,0,0,0,3.14-8.18,72.48,72.48,0,0,0,1.69-10.26h0l0-.27s.08-.78.19-1.93.12-2.71.18-4.25l.12-6.18s-1,2.69-2.05,5.38ZM279.78,105c1.87-2.76,4.48-4.29,7.38-6a12.46,12.46,0,0,0,3.58-3.14,13.87,13.87,0,0,0,2.07-3.62,17,17,0,0,0,1.05-4.21l.06.26a47.74,47.74,0,0,1,1.27,6.94c.23,2.15.35,4.13.38,5.95a35.48,35.48,0,0,1-.41,5,32.12,32.12,0,0,1-.88,4.08,17.14,17.14,0,0,1-1.37,3.23,15.24,15.24,0,0,1-1.64,2.46,11.39,11.39,0,0,1-3.69,3,12.66,12.66,0,0,1-7.12,1.14,14.54,14.54,0,0,1-3.27-.71c0-.38,0-.75-.05-1.12C277,111.67,277.87,107.76,279.78,105ZM22.83,119.43a14.73,14.73,0,0,1-3.28.71A12.67,12.67,0,0,1,12.43,119a11.39,11.39,0,0,1-3.69-3,15.24,15.24,0,0,1-1.64-2.46,17.14,17.14,0,0,1-1.36-3.23,30.41,30.41,0,0,1-.89-4.08,35.48,35.48,0,0,1-.41-5c0-1.82.15-3.8.38-5.95a47.74,47.74,0,0,1,1.27-6.94l.06-.26a17.53,17.53,0,0,0,1,4.21,14.17,14.17,0,0,0,2.07,3.62A12.51,12.51,0,0,0,12.86,99c2.9,1.66,5.5,3.19,7.38,6s2.74,6.69,2.64,13.33C22.86,118.68,22.84,119.05,22.83,119.43Zm83.8,97.81a20.17,20.17,0,0,0-.37-8.84,11.56,11.56,0,0,0-1.32-3.12l.16.07a31.63,31.63,0,0,1,4.08,2.12c.61.37,1.18.75,1.72,1.14s1.09.68,1.59,1a18.75,18.75,0,0,1,4.69,4.56c.57.85,1.11,1.53,1.54,2.33a15.61,15.61,0,0,1,1.06,2.38,17.45,17.45,0,0,1,.92,4.84,21.32,21.32,0,0,1-1.32,8.24,18.31,18.31,0,0,1-1.63,3.45l-1-.28c-6.09-1.61-8.87-4.66-10-7.72S106,221,106.63,217.24ZM77.4,198.67C80.85,192,79.33,187,79.33,187l.13.12a37.15,37.15,0,0,1,3.24,3.36c.47.55.89,1.1,1.29,1.64s.84,1,1.2,1.5a19.44,19.44,0,0,1,3.09,5.8,20.17,20.17,0,0,1,.78,2.66,16.2,16.2,0,0,1,.29,2.55,16.42,16.42,0,0,1-.6,4.77A19.89,19.89,0,0,1,85,216.55a17.75,17.75,0,0,1-2.58,2.63l-.87-.6a29.73,29.73,0,0,1-3.3-2.66c-.46-.44-.87-.87-1.25-1.3a13.71,13.71,0,0,1-.93-1.36,11,11,0,0,1-1.66-5.12C74.29,204.86,75.69,201.91,77.4,198.67ZM50,179.46c.83-3.12,3-5.41,5.54-7.87,5.15-5.07,5.23-10.33,5.23-10.33l.09.16a37.18,37.18,0,0,1,2,4.24c.27.67.51,1.33.71,2s.49,1.22.69,1.81a20,20,0,0,1,1.18,6.48,20.56,20.56,0,0,1,0,2.74,15,15,0,0,1-.48,2.49,15.46,15.46,0,0,1-1.95,4.25,18.56,18.56,0,0,1-5.6,5.42,15.85,15.85,0,0,1-3.18,1.59l-.64-.84A30.31,30.31,0,0,1,51.23,188c-.3-.55-.56-1.09-.79-1.61a15.51,15.51,0,0,1-.46-1.59A10.9,10.9,0,0,1,50,179.46Zm-15.63-30A11.16,11.16,0,0,1,36,144.39c1.69-2.67,4.46-4.14,7.42-5.62a17.32,17.32,0,0,0,6.35-5.22,11.91,11.91,0,0,0,1.64-2.88l0,.18a40.2,40.2,0,0,1,.5,4.72c0,1.47.16,2.8.17,4.05a20.85,20.85,0,0,1-.9,6.54,14.47,14.47,0,0,1-5.1,8.13,17.14,17.14,0,0,1-6.78,3.25,15.35,15.35,0,0,1-3.4.45c-.12-.35-.22-.68-.33-1a31,31,0,0,1-1-4.12A12,12,0,0,1,34.33,149.44Zm-.5-42.89c2.34-2,5.47-2.53,8.64-3a16,16,0,0,0,4.26-1.26,18.7,18.7,0,0,0,3-1.77,12.35,12.35,0,0,0,2.46-2.24l0,.18c-.32,1.69-.74,3.23-1,4.67A28.79,28.79,0,0,1,50,107.07a30.44,30.44,0,0,1-1.25,3.3,19.19,19.19,0,0,1-1.51,2.7,22.21,22.21,0,0,1-1.61,2.19A15.07,15.07,0,0,1,43.86,117,14,14,0,0,1,40,119.21a15.72,15.72,0,0,1-7.17.92,13.52,13.52,0,0,1-3.25-.67c0-.36,0-.71,0-1.06C29.66,112.08,31.53,108.55,33.83,106.55Zm6.09-33.4a12.76,12.76,0,0,1,2-2A10,10,0,0,1,44,70c2.85-1.15,5.76-.75,8.81-.24a15.82,15.82,0,0,0,7.7-.65,12,12,0,0,0,2.92-1.43l-.09.16A45.81,45.81,0,0,1,60.91,72c-.86,1.23-1.52,2.42-2.31,3.43s-1.58,1.9-2.29,2.72a19,19,0,0,1-2.19,2.14,17.22,17.22,0,0,1-2.24,1.57,18.94,18.94,0,0,1-2.15,1.09,12.79,12.79,0,0,1-4.18.95,14.57,14.57,0,0,1-6.81-1.32A13.65,13.65,0,0,1,36,80.92l.34-1A20.74,20.74,0,0,1,39.92,73.15ZM60.61,40.29a11.51,11.51,0,0,1,4.85-1.76,9.64,9.64,0,0,1,4.23.56,27.85,27.85,0,0,1,4,1.81,13.88,13.88,0,0,0,4,1.34,18.49,18.49,0,0,0,3.35.23A12.41,12.41,0,0,0,84.24,42l-.13.13c-1.32,1.17-2.59,2.18-3.71,3.18a33.93,33.93,0,0,1-3.35,2.51,23.88,23.88,0,0,1-5.77,3.29,14.58,14.58,0,0,1-4.9,1.27,12.92,12.92,0,0,1-10-3.62,12.67,12.67,0,0,1-2-2.37c.21-.29.4-.59.63-.85A24.72,24.72,0,0,1,60.61,40.29ZM46.68,41.36a11.18,11.18,0,0,1-4.56-4.92A10.26,10.26,0,0,1,41.25,32a18.09,18.09,0,0,1,1.24-6.13A36.61,36.61,0,0,1,47,18.09c1.12-1.4,2.42-2.86,3.9-4.4A49.15,49.15,0,0,1,56.1,9l.2-.16a17.22,17.22,0,0,0-1.78,3.82,13.52,13.52,0,0,0-.67,3.94,11.34,11.34,0,0,0,.73,4.42A35.93,35.93,0,0,1,56,25.29a13.75,13.75,0,0,1,.38,4.49A14,14,0,0,1,54.72,35a36.74,36.74,0,0,1-4.54,6.72c-.24.28-.46.58-.69.88A12.38,12.38,0,0,1,46.68,41.36Zm-20,37.12a11.76,11.76,0,0,1-6.13-3.28,11.43,11.43,0,0,1-2.44-4,12.88,12.88,0,0,1-.7-2.83,20.92,20.92,0,0,1-.14-3.44,31.58,31.58,0,0,1,.45-4.14A34.09,34.09,0,0,1,19,56a41.67,41.67,0,0,1,2.24-5.5q1.44-2.88,3.39-6.12l.14-.23a17.39,17.39,0,0,0-.34,4.3,15.25,15.25,0,0,0,.66,4,11.23,11.23,0,0,0,2.23,4c2.1,2.45,4.09,4.73,4.82,7.88a13.15,13.15,0,0,1,.32,2.54,15.72,15.72,0,0,1-.13,3,45.19,45.19,0,0,1-2.09,7.85q-.19.51-.39,1A13.44,13.44,0,0,1,26.65,78.48ZM26.21,162a13.56,13.56,0,0,1-7.38,1.28c-2.93-.39-6.23-2-9.48-6.08a35.56,35.56,0,0,1-4.13-8.26,30,30,0,0,1-1.62-5.79c-.4-2.14-.74-4.47-1-7l0-.27s3.26,7,10.12,8.28c3.42.63,6.64,1.2,9.35,3.22a13.23,13.23,0,0,1,3.64,4.29c.49,1,1.13,2,1.67,3.27a37.19,37.19,0,0,1,1.56,4.22c.1.36.2.71.31,1.08A16,16,0,0,1,26.21,162ZM46,199.52a14.48,14.48,0,0,1-6.8,3.75,12.35,12.35,0,0,1-5,0,15.31,15.31,0,0,1-2.94-.9A17.58,17.58,0,0,1,28,200.7a35.39,35.39,0,0,1-6.71-6.46c-.58-.72-1.2-1.47-1.77-2.3s-1.08-1.75-1.63-2.7c-1.09-1.9-2.2-4-3.29-6.33l-.12-.25s5.5,5.55,12.65,4.44c3.45-.5,6.86-1.09,10.14-.09a13.32,13.32,0,0,1,5,2.83c.41.36.82.77,1.25,1.2s.91.87,1.38,1.36a37.27,37.27,0,0,1,2.85,3.49c.21.3.42.61.65.92A17.42,17.42,0,0,1,46,199.52Zm30.76,29.33a15.49,15.49,0,0,1-5.41,6,12.7,12.7,0,0,1-4.88,1.72,15.69,15.69,0,0,1-3.12.14,18.16,18.16,0,0,1-3.61-.54,35,35,0,0,1-8.51-3.94c-.78-.5-1.62-1-2.43-1.62s-1.6-1.31-2.43-2c-1.65-1.46-3.38-3.11-5.17-5l-.19-.2s7.08,3.46,13.68-.05c3.19-1.67,6.32-3.4,9.81-3.56a13.07,13.07,0,0,1,5.66,1c.51.21,1,.46,1.58.73s1.15.52,1.75.84a32.39,32.39,0,0,1,3.82,2.39l.91.67A18.13,18.13,0,0,1,76.72,228.85Zm38.63,18a16.53,16.53,0,0,1-3.29,7.66,13.33,13.33,0,0,1-4.12,3.35,16.76,16.76,0,0,1-3,1.2,15.82,15.82,0,0,1-3.63.68,34.56,34.56,0,0,1-9.42-.93,27.46,27.46,0,0,1-2.85-.76c-1-.34-2-.73-3-1.15-2-.85-4.24-1.86-6.55-3.06l-.24-.13a17.18,17.18,0,0,0,4.61-.23A15.23,15.23,0,0,0,92.47,249c2.54-2.7,5-5.45,8.3-6.8s7.37-1.27,13.81.49l1.07.33A18.65,18.65,0,0,1,115.35,246.82Zm3.91-7.31c-1.85-.5-4.61-1.11-8-2.12l-5.61-2-3.18-1.11c-1.09-.42-2.18-1-3.32-1.46-2.27-1-4.74-2-7.24-3.33l-7.71-4.33c-2.6-1.63-5.22-3.5-8-5.35-1.42-.88-2.65-2.05-4-3.09l-4.07-3.29-1-.83-1-.93-2-1.86-4-3.8c-1.32-1.31-2.5-2.77-3.77-4.18s-2.54-2.84-3.77-4.33-2.32-3.11-3.49-4.68A59,59,0,0,1,45.71,188l-3.16-5.09c-.52-.87-1.1-1.7-1.57-2.59l-1.38-2.7c-.93-1.8-1.85-3.62-2.78-5.43s-1.59-3.77-2.4-5.66l-1.17-2.85a27,27,0,0,1-1.09-2.88l-1.85-5.9L29.4,152c-.27-1-.45-2-.68-3-.44-2-.87-4-1.31-6l-.33-1.5c-.09-.51-.13-1-.21-1.53l-.39-3.05-.78-6.08c-.13-2-.17-4-.27-6s-.21-3.94-.19-6,.09-4,.18-5.92.31-3.89.45-5.82A121.14,121.14,0,0,1,45.65,52.08c1.39-2.08,2.78-4,4-5.71s2.55-3.27,3.68-4.66l3.13-3.62c.92-1.05,1.76-1.88,2.41-2.58l2-2.13-2,2.18c-.63.72-1.45,1.58-2.34,2.65l-3,3.69c-1.1,1.41-2.26,3-3.55,4.74s-2.54,3.69-3.87,5.8a143.8,143.8,0,0,0-8,14.65,125.94,125.94,0,0,0-10.79,40.1c-.14,1.9-.27,3.81-.41,5.75s-.1,3.88-.15,5.84c.08,3.86.31,7.92.52,11.91.26,2,.53,4,.79,5.95l.4,3c.07.5.12,1,.22,1.49l.33,1.48c.43,2,.88,4,1.32,5.94.23,1,.41,2,.68,3l.91,2.91,1.8,5.82a28.64,28.64,0,0,0,1.06,2.85L36,165.89c.79,1.87,1.46,3.78,2.33,5.59l2.72,5.37,1.35,2.68c.46.88,1,1.7,1.53,2.55,1,1.69,2.08,3.37,3.1,5a57.72,57.72,0,0,0,3.35,4.79l3.41,4.64c2.48,2.9,4.92,5.74,7.39,8.46l3.88,3.81L67,210.7l.94.93,1,.84,4,3.31c1.33,1.05,2.54,2.23,3.93,3.12,2.71,1.87,5.27,3.77,7.83,5.43l7.58,4.42c2.44,1.34,4.87,2.4,7.1,3.5,1.12.53,2.19,1.1,3.26,1.54l3.14,1.2,5.53,2.11c3.4,1.1,6.13,1.78,8,2.34l2.83.8Zm47.55,12.63c.52.21,1.28.47,2.14.89s1.87.89,2.9,1.5,2.1,1.29,3.17,2,2,1.55,2.95,2.3,1.71,1.56,2.39,2.22,1.19,1.29,1.56,1.71l.56.68-.74-.48c-.44-.33-1.12-.75-1.88-1.31s-1.69-1.16-2.63-1.87-2-1.41-3-2.11-2-1.46-3-2.12l-2.65-1.83-1.87-1.33-.71-.52ZM169.27,240c-1.39.34-3.37.91-5.74,1.58s-5.1,1.58-8,2.51-6,2.11-9,3.34-6.07,2.49-8.85,3.79-5.39,2.53-7.56,3.7-4,2.08-5.26,2.79l-2,1.09,1.85-1.31c1.19-.81,2.89-2,5-3.26s4.64-2.71,7.42-4.1,5.8-2.73,8.85-4,6.22-2.27,9.18-3.2,5.79-1.58,8.21-2.11,4.46-.86,5.88-1.1l2.25-.32ZM267.56,66.9a12.43,12.43,0,0,1,.31-2.54c.74-3.15,2.72-5.43,4.82-7.88a10.94,10.94,0,0,0,2.23-4,15.71,15.71,0,0,0,.67-4,18,18,0,0,0-.34-4.3l.13.23q2,3.24,3.39,6.12A41.67,41.67,0,0,1,281,56a34.21,34.21,0,0,1,1.32,4.79,31.46,31.46,0,0,1,.44,4.14,21,21,0,0,1-.13,3.44,12.88,12.88,0,0,1-.71,2.83,11.29,11.29,0,0,1-2.44,4,11.76,11.76,0,0,1-6.13,3.28,13.44,13.44,0,0,1-3.2.33l-.39-1a45.19,45.19,0,0,1-2.09-7.85A15.67,15.67,0,0,1,267.56,66.9ZM244,25.29a35.93,35.93,0,0,1,1.44-4.24,11.34,11.34,0,0,0,.73-4.42,13.19,13.19,0,0,0-.67-3.94,17.22,17.22,0,0,0-1.78-3.82l.21.16a50,50,0,0,1,5.15,4.66c1.48,1.54,2.78,3,3.91,4.4a37,37,0,0,1,4.54,7.79A18.38,18.38,0,0,1,258.77,32a10.41,10.41,0,0,1-.88,4.43,11.12,11.12,0,0,1-4.56,4.92,12.38,12.38,0,0,1-2.81,1.25c-.23-.3-.45-.6-.69-.88A36.61,36.61,0,0,1,245.3,35a13.6,13.6,0,0,1-1.68-5.23A13.76,13.76,0,0,1,244,25.29Zm-.38,23.49a12.92,12.92,0,0,1-10,3.62,14.59,14.59,0,0,1-4.89-1.27A23.93,23.93,0,0,1,223,47.84a33.85,33.85,0,0,1-3.34-2.51c-1.12-1-2.4-2-3.71-3.18l-.14-.13a12.41,12.41,0,0,0,3.25.45,18.49,18.49,0,0,0,3.35-.23,13.88,13.88,0,0,0,3.95-1.34,27.85,27.85,0,0,1,4-1.81,9.68,9.68,0,0,1,4.24-.56,11.47,11.47,0,0,1,4.84,1.76A24.72,24.72,0,0,1,245,45.56c.23.26.43.56.64.85A12.52,12.52,0,0,1,243.61,48.78Zm17.67,33.78a14.64,14.64,0,0,1-6.82,1.32,12.79,12.79,0,0,1-4.17-.95,18.24,18.24,0,0,1-2.16-1.09,17.22,17.22,0,0,1-2.24-1.57,19,19,0,0,1-2.19-2.14c-.71-.82-1.54-1.69-2.29-2.72s-1.45-2.2-2.3-3.43a44.45,44.45,0,0,1-2.46-4.16l-.08-.16a11.8,11.8,0,0,0,2.92,1.43,15.76,15.76,0,0,0,7.69.65c3-.51,6-.91,8.82.24a10.51,10.51,0,0,1,2.12,1.19,13.17,13.17,0,0,1,2,2,20.55,20.55,0,0,1,3.59,6.76l.34,1A13.74,13.74,0,0,1,261.28,82.56Zm5.91,37.57a15.75,15.75,0,0,1-7.18-.92,13.85,13.85,0,0,1-3.85-2.22,14.4,14.4,0,0,1-1.77-1.73,22.21,22.21,0,0,1-1.61-2.19,20.24,20.24,0,0,1-1.51-2.7,32.68,32.68,0,0,1-1.25-3.3,31.91,31.91,0,0,1-1.16-3.94c-.28-1.44-.7-3-1-4.67l0-.18a12.26,12.26,0,0,0,2.47,2.24,18.15,18.15,0,0,0,3,1.77,15.94,15.94,0,0,0,4.27,1.26c3.17.47,6.29,1,8.63,3s4.17,5.53,4.23,11.85c0,.35,0,.7,0,1.06A13.5,13.5,0,0,1,267.19,120.13Zm-6.46,37.41a17,17,0,0,1-6.77-3.25,14.48,14.48,0,0,1-5.11-8.13,21.45,21.45,0,0,1-.9-6.54c0-1.25.16-2.58.17-4.05a40.32,40.32,0,0,1,.51-4.72l0-.18a11.62,11.62,0,0,0,1.63,2.88,17.41,17.41,0,0,0,6.35,5.22c3,1.48,5.73,2.95,7.42,5.62a11,11,0,0,1,1.62,5.05,12,12,0,0,1-.21,3.42,31,31,0,0,1-1,4.12c-.1.33-.21.66-.32,1A15.4,15.4,0,0,1,260.73,157.54Zm-18.05,33.28a18.42,18.42,0,0,1-5.59-5.42,15.48,15.48,0,0,1-2-4.25,14.07,14.07,0,0,1-.47-2.49,23.14,23.14,0,0,1,1.12-9.22c.2-.59.46-1.17.69-1.81s.44-1.3.71-2a37.33,37.33,0,0,1,2-4.24l.08-.16s.08,5.26,5.23,10.33c2.54,2.46,4.72,4.75,5.55,7.87a11,11,0,0,1,0,5.33,15.51,15.51,0,0,1-.46,1.59c-.22.52-.49,1.06-.79,1.61a30.31,30.31,0,0,1-2.28,3.58l-.64.84A15.85,15.85,0,0,1,242.68,190.82ZM215,216.55a19.89,19.89,0,0,1-3.73-7.16,16.09,16.09,0,0,1-.59-4.77,14.14,14.14,0,0,1,.29-2.55,18.67,18.67,0,0,1,.77-2.66,19.67,19.67,0,0,1,3.09-5.8c.37-.5.79-1,1.2-1.5s.83-1.09,1.29-1.64a37.15,37.15,0,0,1,3.24-3.36l.13-.12s-1.52,5,1.93,11.68c1.71,3.24,3.12,6.19,3,9.47a10.87,10.87,0,0,1-1.66,5.12,12.19,12.19,0,0,1-.93,1.36c-.37.43-.79.86-1.25,1.3a30.51,30.51,0,0,1-3.29,2.66q-.44.28-.87.6A17.48,17.48,0,0,1,215,216.55Zm-35.67,7.21a17,17,0,0,1,.91-4.84,15.61,15.61,0,0,1,1.06-2.38c.43-.8,1-1.48,1.54-2.33a18.75,18.75,0,0,1,4.69-4.56c.5-.36,1-.65,1.59-1s1.11-.77,1.72-1.14a31.63,31.63,0,0,1,4.08-2.12l.17-.07a11.19,11.19,0,0,0-1.32,3.12,20,20,0,0,0-.38,8.84c.65,3.73,1.09,7.08-.06,10.21s-3.95,6.11-10,7.72l-1,.28a18.31,18.31,0,0,1-1.63-3.45A21.33,21.33,0,0,1,179.32,223.76Zm19.93,18.4c3.29,1.35,5.75,4.1,8.3,6.8a15.18,15.18,0,0,0,8.54,4.49,17.26,17.26,0,0,0,4.62.23l-.25.13c-2.31,1.2-4.5,2.21-6.55,3.06-1,.42-2,.81-3,1.15a28,28,0,0,1-2.84.76,34.63,34.63,0,0,1-9.43.93A16,16,0,0,1,195,259a16.34,16.34,0,0,1-2.95-1.2,13.22,13.22,0,0,1-4.12-3.35,16.46,16.46,0,0,1-3.3-7.66,19.56,19.56,0,0,1-.3-3.84l1.07-.33C191.87,240.89,195.92,240.76,199.25,242.16Zm36.31-22.4c3.48.16,6.61,1.89,9.81,3.56,6.59,3.51,13.68.05,13.68.05l-.19.2c-1.8,1.86-3.52,3.51-5.18,5-.83.72-1.64,1.4-2.43,2s-1.64,1.12-2.43,1.62a34.79,34.79,0,0,1-8.51,3.94,18.05,18.05,0,0,1-3.61.54,16.52,16.52,0,0,1-3.12-.14,12.59,12.59,0,0,1-4.87-1.72,15.44,15.44,0,0,1-5.42-6,18.13,18.13,0,0,1-1.46-3.43l.91-.67a33.29,33.29,0,0,1,3.83-2.39c.6-.32,1.18-.6,1.75-.84s1.06-.52,1.58-.73A13,13,0,0,1,235.56,219.76ZM262.75,187c3.28-1,6.7-.41,10.15.09,7.14,1.11,12.64-4.44,12.64-4.44l-.12.25q-1.64,3.48-3.29,6.33c-.54.95-1.09,1.85-1.63,2.7s-1.19,1.58-1.77,2.3A35.39,35.39,0,0,1,272,200.7a17.84,17.84,0,0,1-3.18,1.68,15.75,15.75,0,0,1-2.94.9,12.35,12.35,0,0,1-5,0,14.51,14.51,0,0,1-6.81-3.75,17,17,0,0,1-2.37-2.71l.64-.92a35.75,35.75,0,0,1,2.86-3.49c.46-.49.92-.94,1.38-1.36s.83-.84,1.25-1.2A13.21,13.21,0,0,1,262.75,187Zm7-32.09-1.85,5.9a29.37,29.37,0,0,1-1.09,2.88l-1.17,2.85c-.81,1.89-1.5,3.82-2.4,5.66l-2.78,5.43-1.38,2.7c-.47.89-1.05,1.72-1.57,2.59-1.06,1.7-2.12,3.4-3.16,5.09a56.8,56.8,0,0,1-3.42,4.83l-3.48,4.68c-1.23,1.49-2.53,2.9-3.77,4.33s-2.45,2.87-3.77,4.18-2.68,2.54-4,3.8l-2,1.86-1,.93-1,.83-4.07,3.29c-1.36,1-2.59,2.21-4,3.09-2.76,1.85-5.38,3.72-8,5.35l-7.7,4.33c-2.5,1.28-5,2.28-7.24,3.33-1.15.5-2.23,1-3.32,1.46l-3.19,1.11-5.6,2c-3.44,1-6.19,1.62-8,2.12l-2.85.73,2.83-.8c1.84-.56,4.57-1.24,8-2.34l5.53-2.11,3.14-1.2c1.07-.44,2.14-1,3.26-1.54,2.23-1.1,4.66-2.16,7.1-3.5l7.58-4.42c2.56-1.66,5.12-3.56,7.83-5.43,1.39-.89,2.6-2.07,3.93-3.12l4-3.31,1-.84,1-.93,1.91-1.88,3.88-3.81c2.47-2.72,4.91-5.56,7.39-8.46l3.41-4.64a55.32,55.32,0,0,0,3.34-4.79c1-1.67,2.07-3.35,3.1-5,.51-.85,1.08-1.67,1.54-2.55l1.35-2.68,2.71-5.37c.88-1.81,1.55-3.72,2.34-5.59l1.13-2.81a28.71,28.71,0,0,0,1.07-2.85l1.79-5.82.92-2.91c.26-1,.45-2,.68-3L271,142.6l.33-1.48c.1-.49.14-1,.22-1.49l.39-3q.41-3,.8-5.95c.21-4,.44-8,.52-11.91-.05-2-.07-3.91-.15-5.84s-.28-3.85-.41-5.75a126.29,126.29,0,0,0-10.8-40.1,143.85,143.85,0,0,0-8-14.65c-1.33-2.11-2.66-4-3.87-5.8s-2.45-3.33-3.55-4.74l-3-3.69c-.89-1.07-1.71-1.93-2.34-2.65l-2-2.18,2,2.13c.65.7,1.5,1.53,2.41,2.58s2,2.26,3.14,3.62,2.34,3,3.68,4.66,2.65,3.63,4,5.71a125.87,125.87,0,0,1,8.34,14.58A124.49,124.49,0,0,1,274.21,107q.23,2.89.45,5.82c.1,2,.12,3.93.19,5.92s-.14,4-.2,6-.14,4-.27,6-.51,4-.77,6.08l-.4,3.05c-.07.51-.11,1-.21,1.53l-.32,1.5q-.66,3-1.31,6c-.23,1-.42,2-.68,3Zm27.64-18.81c-.27,2.54-.61,4.87-1,7a30,30,0,0,1-1.62,5.79,35.17,35.17,0,0,1-4.13,8.26c-3.25,4.08-6.55,5.69-9.48,6.08A13.58,13.58,0,0,1,273.8,162a16,16,0,0,1-3-1.77c.11-.37.21-.72.31-1.08a37.19,37.19,0,0,1,1.56-4.22c.54-1.24,1.18-2.3,1.67-3.27a13.23,13.23,0,0,1,3.64-4.29c2.71-2,5.93-2.59,9.35-3.22,6.86-1.29,10.12-8.28,10.12-8.28Z"/><path d="M292.68,148.42a29.4,29.4,0,0,1-2.62,4.26,17.43,17.43,0,0,1-3.66,3.76,16,16,0,0,1-4.34,2.3,15.72,15.72,0,0,1-3.93.84,15,15,0,0,1-2.78-.05,10,10,0,0,1-1.05-.14s.35.16,1,.39a10.72,10.72,0,0,0,2.76.55,12.3,12.3,0,0,0,4.1-.44,16,16,0,0,0,4.64-2.26,16.38,16.38,0,0,0,3.89-4.12,25.79,25.79,0,0,0,2.5-4.72,24.06,24.06,0,0,0,1.18-3.74c.14-.93.19-1.47.19-1.47s-.12.52-.39,1.4A28,28,0,0,1,292.68,148.42Z"/><path d="M280.56,156.92a15,15,0,0,0,2.15-.72,19.57,19.57,0,0,0,2.38-1.27,26.52,26.52,0,0,0,2.15-1.76A19.34,19.34,0,0,0,289,151.3a15.78,15.78,0,0,0,1.12-1.51l.39-.62-.51.41c-.31.29-.79.64-1.32,1.1s-1.18.93-1.85,1.47a22.25,22.25,0,0,1-2.13,1.54,20.49,20.49,0,0,1-2.17,1.41c-.75.39-1.43.82-2,1.09s-1.1.58-1.45.74l-.56.29.58,0A11.09,11.09,0,0,0,280.56,156.92Z"/><path d="M258.38,153.49a20.63,20.63,0,0,1-2.89-2.52,16.59,16.59,0,0,1-2.57-3.44,20.58,20.58,0,0,1-1.92-3.92,18.08,18.08,0,0,1-.91-3.62,19.13,19.13,0,0,1-.19-2.62c-.07-.65-.08-1-.08-1s-.07.36-.13,1a13.64,13.64,0,0,0-.2,2.69,14.9,14.9,0,0,0,.65,3.84,25.67,25.67,0,0,0,1.84,4.19,17.5,17.5,0,0,0,2.84,3.57,16,16,0,0,0,3.24,2.39,12.79,12.79,0,0,0,2.59,1.09c.65.19,1,.26,1,.26s-.35-.15-.95-.47A18.54,18.54,0,0,1,258.38,153.49Z"/><path d="M252.49,143.13a16.81,16.81,0,0,0,.91,1.9c.4.67.85,1.38,1.32,2.08s1,1.3,1.5,1.89a15.67,15.67,0,0,0,1.48,1.47,12.2,12.2,0,0,0,1.16.92l.48.31-.33-.47c-.21-.29-.5-.71-.86-1.2s-.74-1.08-1.18-1.66-1-1.26-1.42-1.93-1-1.29-1.38-1.92-.85-1.17-1.16-1.68-.62-.91-.82-1.19l-.32-.45.13.54A12.81,12.81,0,0,0,252.49,143.13Z"/><path d="M283.83,117.24a11.61,11.61,0,0,0,3.59-1.71,15.63,15.63,0,0,0,3.52-3.59,18.78,18.78,0,0,0,2.26-5.11,24.18,24.18,0,0,0,.87-5.23,26.36,26.36,0,0,0-.22-3.87c-.13-.93-.23-1.46-.23-1.46s0,.53,0,1.45a33.3,33.3,0,0,1-.16,3.69,24.7,24.7,0,0,1-1.1,4.84,19.79,19.79,0,0,1-2.2,4.69,15.15,15.15,0,0,1-3.21,3.54,14.91,14.91,0,0,1-3.32,2,13.92,13.92,0,0,1-2.54.84c-.63.15-1,.2-1,.2s.37,0,1,0A9.79,9.79,0,0,0,283.83,117.24Z"/><path d="M285,113.23a13.07,13.07,0,0,0,1.74-1.36,20.54,20.54,0,0,0,1.73-1.94c.52-.76,1-1.55,1.45-2.34a20.41,20.41,0,0,0,1-2.31,18,18,0,0,0,.57-1.77l.17-.71-.34.55c-.2.37-.53.85-.88,1.45s-.8,1.25-1.25,2a24.91,24.91,0,0,1-1.5,2.13c-.5.72-1,1.4-1.55,2s-1,1.22-1.48,1.67-.82.89-1.1,1.16l-.41.45.51-.22A9.79,9.79,0,0,0,285,113.23Z"/><path d="M263.79,117a19.09,19.09,0,0,1-3.43-1.48,17,17,0,0,1-3.43-2.47,17.6,17.6,0,0,1-2.93-3.14,25.37,25.37,0,0,1-1.92-3.18,20.36,20.36,0,0,1-1.11-2.44c-.24-.61-.34-1-.34-1s0,.37.15,1a14.05,14.05,0,0,0,.79,2.63,17.46,17.46,0,0,0,1.72,3.48,21.11,21.11,0,0,0,3,3.43,17.2,17.2,0,0,0,3.71,2.51,15.55,15.55,0,0,0,3.69,1.24,12.44,12.44,0,0,0,2.7.21c.65,0,1-.09,1-.09s-.37,0-1-.14A16.88,16.88,0,0,1,263.79,117Z"/><path d="M255.22,109a18.22,18.22,0,0,0,1.39,1.54c.56.52,1.18,1,1.81,1.57s1.38.92,2,1.32a15.82,15.82,0,0,0,1.8.94,12.83,12.83,0,0,0,1.35.51l.53.14-.44-.35-1.16-.87c-.49-.33-1-.79-1.64-1.2s-1.25-.9-1.87-1.39-1.26-.94-1.82-1.4-1.12-.86-1.56-1.25l-1.09-.89-.43-.32.29.47A9.82,9.82,0,0,0,255.22,109Z"/><path d="M275.54,74.69A11.4,11.4,0,0,0,278.29,72a13.74,13.74,0,0,0,2-4.45,22,22,0,0,0,.46-5.53,20.83,20.83,0,0,0-1-5.16,26.39,26.39,0,0,0-1.39-3.6,11.46,11.46,0,0,0-.68-1.3,10.17,10.17,0,0,1,.5,1.35,33.77,33.77,0,0,1,1,3.55,26.24,26.24,0,0,1,.64,4.85,20.08,20.08,0,0,1-.57,5.13,14.19,14.19,0,0,1-1.69,4.29,14.47,14.47,0,0,1-2.39,3,13.73,13.73,0,0,1-2.07,1.58,9.41,9.41,0,0,1-.84.5s.34-.08.94-.27A9.41,9.41,0,0,0,275.54,74.69Z"/><path d="M275.36,70.52a13.92,13.92,0,0,0,1.1-1.8,23.85,23.85,0,0,0,1-2.37c.24-.88.45-1.78.6-2.66a15.22,15.22,0,0,0,.21-2.5,16.23,16.23,0,0,0-.11-1.82c-.06-.45-.09-.71-.09-.71s0,.22-.12.62-.18.94-.29,1.61-.29,1.4-.49,2.23a25.65,25.65,0,0,1-.71,2.48c-.23.84-.51,1.65-.79,2.39s-.53,1.46-.79,2-.43,1.09-.59,1.41L274,72l.4-.36A8.56,8.56,0,0,0,275.36,70.52Z"/><path d="M257.24,80.64a17.44,17.44,0,0,1-3.56-.37,16.91,16.91,0,0,1-4-1.26,16.25,16.25,0,0,1-3.61-2.12,24.55,24.55,0,0,1-2.87-2.41,20.06,20.06,0,0,1-1.75-2l-.63-.81s.19.33.48.93a14.4,14.4,0,0,0,1.51,2.3,22.65,22.65,0,0,0,2.78,2.75A17.47,17.47,0,0,0,249.35,80a19.71,19.71,0,0,0,4.24,1.23,14.24,14.24,0,0,0,3.73,0,11.4,11.4,0,0,0,2.53-.63c.58-.23.9-.39.9-.39s-.35.08-1,.17A17.09,17.09,0,0,1,257.24,80.64Z"/><path d="M246.86,75.63c.54.3,1.08.71,1.75,1s1.38.65,2.12,1,1.51.47,2.23.66a15.64,15.64,0,0,0,2,.32,10.82,10.82,0,0,0,1.42.05l.53,0-.53-.19L255,78c-.56-.16-1.2-.43-1.89-.63s-1.41-.48-2.13-.77-1.42-.51-2.08-.78-1.29-.48-1.83-.71l-1.33-.48-.51-.18.43.36C245.94,75,246.34,75.32,246.86,75.63Z"/><path d="M251.56,19.39a28.45,28.45,0,0,1,2.12,4.39,18,18,0,0,1,1.22,4.89,14.73,14.73,0,0,1-.2,4.56,13.73,13.73,0,0,1-1.19,3.45,12,12,0,0,1-1.35,2.07c-.37.47-.61.72-.61.72a8.19,8.19,0,0,0,.78-.53,8.42,8.42,0,0,0,1.75-1.78,10.45,10.45,0,0,0,1.59-3.35,15.1,15.1,0,0,0,.39-4.77,17.87,17.87,0,0,0-1.42-5.26,27.18,27.18,0,0,0-2.54-4.56,26.1,26.1,0,0,0-2.52-2.88c-.66-.65-1.06-1-1.06-1s.35.4.91,1.1A35.19,35.19,0,0,1,251.56,19.39Z"/><path d="M251.89,28.41a18.47,18.47,0,0,1,.08,2.44c0,.78,0,1.54-.09,2.15s0,1.16-.09,1.52,0,.58,0,.58.09-.16.24-.46a7.63,7.63,0,0,0,.51-1.3,12.88,12.88,0,0,0,.45-2,20.4,20.4,0,0,0,.12-2.51c-.08-.88-.21-1.78-.37-2.63a18.77,18.77,0,0,0-.65-2.37,17.1,17.1,0,0,0-.66-1.7l-.31-.64s0,.22.09.62.14,1,.23,1.61.17,1.42.29,2.23S251.87,27.58,251.89,28.41Z"/><path d="M239.26,48.18a16.51,16.51,0,0,1-3.43.73,14.9,14.9,0,0,1-4.05-.06,19.2,19.2,0,0,1-4.1-.9,23.21,23.21,0,0,1-3.4-1.49,21.85,21.85,0,0,1-2.35-1.34c-.56-.35-.86-.58-.86-.58s.26.28.76.73a15.38,15.38,0,0,0,2.23,1.67,16.26,16.26,0,0,0,3.44,1.84,23.81,23.81,0,0,0,4.3,1.11,16.14,16.14,0,0,0,4.29-.06,13.51,13.51,0,0,0,3.47-1.08,10.2,10.2,0,0,0,2.12-1.34c.45-.39.69-.64.69-.64s-.29.18-.83.45A16.12,16.12,0,0,1,239.26,48.18Z"/><path d="M228,46.53a18.42,18.42,0,0,0,2,.45c.73.11,1.52.19,2.32.25s1.53,0,2.25,0a13.59,13.59,0,0,0,1.91-.26,9.14,9.14,0,0,0,1.3-.35l.48-.18-.54,0-1.39,0c-.57,0-1.24-.07-1.93-.07s-1.47,0-2.23-.08-1.51,0-2.22-.1S228.57,46,228,46l-1.36-.1-.52,0,.5.22A13.05,13.05,0,0,0,228,46.53Z"/><path d="M110.42,210.89c.34.28.7.61,1.09,1a17.55,17.55,0,0,1,2.36,2.9,18.5,18.5,0,0,1,2,4.06,20.15,20.15,0,0,1,1.25,4.44,24.26,24.26,0,0,1,.34,4.17,22.49,22.49,0,0,1-.21,3c-.09.74-.17,1.16-.17,1.16s.16-.39.39-1.11a15.75,15.75,0,0,0,.63-3.07,19.78,19.78,0,0,0,0-4.41,20.13,20.13,0,0,0-1.21-4.74,21.35,21.35,0,0,0-2.25-4.19,13.71,13.71,0,0,0-2.69-2.77,25.61,25.61,0,0,0-2.24-1.41c-.56-.31-.89-.45-.89-.45s.29.22.77.64C109.82,210.32,110.09,210.6,110.42,210.89Z"/><path d="M115.09,222.81c-.18-.8-.38-1.71-.61-2.56s-.59-1.67-.9-2.42a17.35,17.35,0,0,0-1-1.94,10.45,10.45,0,0,0-.83-1.24l-.35-.43.17.55c.11.35.28.86.47,1.45s.4,1.3.67,2,.5,1.56.73,2.39.5,1.64.71,2.44.46,1.51.62,2.12.36,1.14.47,1.51l.2.58s0-.23,0-.63a14,14,0,0,0,0-1.62A21.72,21.72,0,0,0,115.09,222.81Z"/><path d="M110.81,249.47a18.12,18.12,0,0,1-3,3.19,16.17,16.17,0,0,1-4.49,2.66A18.78,18.78,0,0,1,98,256.53a27.71,27.71,0,0,1-5.16,0c-.77-.09-1.49-.18-2.13-.28a16.43,16.43,0,0,1-1.62-.41c-.9-.25-1.42-.43-1.42-.43s.49.25,1.37.65a15,15,0,0,0,3.81,1.15,24.86,24.86,0,0,0,5.47.4,18.87,18.87,0,0,0,5.76-1.17,17.34,17.34,0,0,0,4.65-3,14.49,14.49,0,0,0,2.8-3.58,12.79,12.79,0,0,0,1.18-2.91c.19-.73.26-1.15.26-1.15s-.16.4-.5,1.06A18.35,18.35,0,0,1,110.81,249.47Z"/><path d="M97.45,254.72a19.82,19.82,0,0,0,2.61-.53c.91-.28,1.85-.62,2.76-1a21.51,21.51,0,0,0,2.45-1.42,15.42,15.42,0,0,0,1.89-1.59,11.67,11.67,0,0,0,1.13-1.27l.38-.52-.58.35c-.34.24-.88.54-1.48.93s-1.36.8-2.1,1.21a27,27,0,0,1-2.47,1.2,27.29,27.29,0,0,1-2.57,1.11c-.86.3-1.63.65-2.35.87s-1.28.47-1.71.6l-.66.23h.76A17.18,17.18,0,0,0,97.45,254.72Z"/><path d="M83.61,195.33a18.6,18.6,0,0,1,2,7.91,18.2,18.2,0,0,1-.14,4.49,22.32,22.32,0,0,1-.93,4,23.14,23.14,0,0,1-1.12,2.74c-.31.65-.51,1-.51,1s.27-.31.7-.9a14.41,14.41,0,0,0,1.53-2.62,18.64,18.64,0,0,0,1.3-4.08,19.5,19.5,0,0,0,.28-4.78,23.43,23.43,0,0,0-.9-4.6A14.1,14.1,0,0,0,84.15,195a23.46,23.46,0,0,0-1.71-2.06c-.44-.47-.71-.72-.71-.72s.22.3.55.86S83.09,194.39,83.61,195.33Z"/><path d="M83.75,206.63c0-.81.11-1.68.17-2.55s-.06-1.74-.12-2.53a19.15,19.15,0,0,0-.36-2.13A11,11,0,0,0,83,198c-.12-.33-.2-.52-.2-.52s0,.21,0,.57,0,.89,0,1.5,0,1.34,0,2.11,0,1.62,0,2.46,0,1.69,0,2.49,0,1.51,0,2.15,0,1.17,0,1.54,0,.6,0,.6.08-.2.21-.56a14,14,0,0,0,.44-1.52A18.57,18.57,0,0,0,83.75,206.63Z"/><path d="M74,227.9a16.59,16.59,0,0,1-6.11,3.82,16.11,16.11,0,0,1-5,1,18.8,18.8,0,0,1-5.34-.63,28.44,28.44,0,0,1-4.81-1.7,18.22,18.22,0,0,1-3.3-1.86c-.76-.52-1.19-.86-1.19-.86s.38.4,1.08,1.05A15.42,15.42,0,0,0,52.48,231a23.88,23.88,0,0,0,5,2.16,17.67,17.67,0,0,0,5.74.8,17,17,0,0,0,5.27-1.25,13.8,13.8,0,0,0,3.7-2.37,12.48,12.48,0,0,0,2-2.29c.4-.61.6-1,.6-1S74.49,227.4,74,227.9Z"/><path d="M57.57,230.26a20.15,20.15,0,0,0,2.6.36c.93,0,1.91,0,2.88,0a18.68,18.68,0,0,0,2.74-.51,16.54,16.54,0,0,0,2.24-.85,10.75,10.75,0,0,0,1.45-.8l.5-.35-.64.13c-.39.11-1,.21-1.67.37s-1.52.3-2.34.44-1.75.24-2.68.3-1.84.16-2.73.17-1.72.07-2.46,0-1.34,0-1.78,0H55l.71.24A16.33,16.33,0,0,0,57.57,230.26Z"/><path d="M58.85,186.58a17.71,17.71,0,0,0,2.41-3.37,18.61,18.61,0,0,0,1.66-4.38,22.54,22.54,0,0,0,.52-4.61,14.47,14.47,0,0,0-.59-3.83,25.68,25.68,0,0,0-1-2.51c-.27-.59-.45-.91-.45-.91s.11.35.25,1,.37,1.51.58,2.56a18.85,18.85,0,0,1-.41,8.1,18.2,18.2,0,0,1-1.44,4.15,21.69,21.69,0,0,1-2,3.39,19.52,19.52,0,0,1-1.85,2.18c-.48.5-.78.77-.78.77s.35-.2.93-.6A14.29,14.29,0,0,0,58.85,186.58Z"/><path d="M58.08,183.06a16.84,16.84,0,0,0,1-1.91l.91-2.32c.24-.83.46-1.65.63-2.42a17.29,17.29,0,0,0,.29-2.11,11.27,11.27,0,0,0,0-1.47c0-.36,0-.56,0-.56l-.17.53c-.11.34-.25.83-.43,1.41s-.4,1.25-.6,2-.47,1.51-.75,2.28-.5,1.58-.78,2.32-.44,1.41-.67,2L57,184.23l-.17.56.37-.46A12.44,12.44,0,0,0,58.08,183.06Z"/><path d="M41,198.73a16.83,16.83,0,0,1-4.11.55,16.24,16.24,0,0,1-5-.72,19.17,19.17,0,0,1-4.76-2.35,28.35,28.35,0,0,1-3.94-3.16,17.71,17.71,0,0,1-2.5-2.81c-.55-.74-.84-1.19-.84-1.19s.22.49.67,1.33a16.07,16.07,0,0,0,2.3,3.19,24.78,24.78,0,0,0,4,3.64,17.59,17.59,0,0,0,5.09,2.63,16.6,16.6,0,0,0,5.25.57,13.38,13.38,0,0,0,4.15-1A11.58,11.58,0,0,0,43.82,198c.55-.44.84-.71.84-.71s-.34.2-1,.49A15.91,15.91,0,0,1,41,198.73Z"/><path d="M27.76,194.53a20.42,20.42,0,0,0,2.3,1.19c.85.34,1.76.66,2.67.94a18.38,18.38,0,0,0,2.7.41,14.53,14.53,0,0,0,2.33,0,10.49,10.49,0,0,0,1.58-.26l.58-.17-.64-.08c-.39,0-1-.14-1.66-.21s-1.5-.22-2.31-.36a24.68,24.68,0,0,1-2.56-.6c-.88-.21-1.76-.46-2.59-.74s-1.61-.5-2.28-.77-1.25-.43-1.65-.6L25.6,193l.58.46C26.56,193.73,27.09,194.15,27.76,194.53Z"/><path d="M42,154.05a16.22,16.22,0,0,0,3.23-2.39A17.89,17.89,0,0,0,48,148.09a27.51,27.51,0,0,0,1.84-4.19,15.29,15.29,0,0,0,.64-3.84,13.64,13.64,0,0,0-.2-2.69c-.06-.66-.12-1-.12-1s0,.37-.08,1a20.88,20.88,0,0,1-.19,2.62,18.87,18.87,0,0,1-.92,3.62,20.53,20.53,0,0,1-1.91,3.92A17,17,0,0,1,44.53,151a20.67,20.67,0,0,1-2.9,2.52,18.54,18.54,0,0,1-2.35,1.44c-.59.32-1,.47-1,.47s.38-.07,1-.26A13.07,13.07,0,0,0,42,154.05Z"/><path d="M42.31,150.47A15.67,15.67,0,0,0,43.79,149c.5-.59,1-1.22,1.5-1.89s.93-1.41,1.32-2.08a19,19,0,0,0,.92-1.9c.24-.56.37-1.06.48-1.39l.14-.54-.33.45L47,142.84c-.31.51-.75,1-1.16,1.68s-.89,1.28-1.38,1.92-1,1.33-1.41,1.93-.82,1.18-1.19,1.66l-.86,1.2-.32.47.47-.31A11,11,0,0,0,42.31,150.47Z"/><path d="M21.88,159.58a16.12,16.12,0,0,1-8.26-3.14A17.2,17.2,0,0,1,10,152.68,29.84,29.84,0,0,1,5.85,145c-.27-.88-.39-1.4-.39-1.4s0,.54.2,1.47a22.82,22.82,0,0,0,1.17,3.74,25.79,25.79,0,0,0,2.5,4.72,16.56,16.56,0,0,0,3.89,4.12,16,16,0,0,0,4.64,2.26,12.3,12.3,0,0,0,4.1.44,10.72,10.72,0,0,0,2.76-.55c.64-.23,1-.39,1-.39a10,10,0,0,1-1.05.14A15,15,0,0,1,21.88,159.58Z"/><path d="M11,151.3a19.34,19.34,0,0,0,1.73,1.87c.67.61,1.41,1.21,2.15,1.76a19.57,19.57,0,0,0,2.38,1.27,15.14,15.14,0,0,0,2.16.72,11,11,0,0,0,1.52.27l.58,0-.55-.29c-.36-.16-.86-.45-1.46-.74s-1.29-.7-2-1.09a18.29,18.29,0,0,1-2.18-1.41,23.58,23.58,0,0,1-2.13-1.54c-.67-.54-1.32-1-1.85-1.47s-1-.81-1.32-1.1l-.51-.41s.15.22.39.62A17.72,17.72,0,0,0,11,151.3Z"/><path d="M36.35,117.67A15.86,15.86,0,0,0,40,116.43a17.14,17.14,0,0,0,3.7-2.51,21.11,21.11,0,0,0,3-3.43A16.94,16.94,0,0,0,48.44,107a13.33,13.33,0,0,0,.79-2.63c.12-.65.16-1,.16-1s-.11.35-.35,1a18.88,18.88,0,0,1-1.11,2.44A25.37,25.37,0,0,1,46,109.94a16.9,16.9,0,0,1-2.93,3.14,17,17,0,0,1-3.43,2.47A18.79,18.79,0,0,1,36.22,117a16.88,16.88,0,0,1-2.59.62c-.63.11-1,.14-1,.14s.37,0,1,.09A12.57,12.57,0,0,0,36.35,117.67Z"/><path d="M37.79,114.37a15.1,15.1,0,0,0,1.81-.94c.61-.4,1.33-.85,2-1.32s1.25-1,1.81-1.57A18.22,18.22,0,0,0,44.79,109a11.46,11.46,0,0,0,.85-1.18l.28-.47-.43.32-1.09.89c-.44.39-1,.77-1.55,1.25s-1.19.94-1.83,1.4-1.26,1-1.87,1.39-1.15.87-1.63,1.2l-1.16.87-.44.35.52-.14A12,12,0,0,0,37.79,114.37Z"/><path d="M16.35,116.51a14.65,14.65,0,0,1-3.31-2,15.18,15.18,0,0,1-3.22-3.54,19.38,19.38,0,0,1-2.19-4.69,24.76,24.76,0,0,1-1.11-4.84,33.3,33.3,0,0,1-.16-3.69c0-.92,0-1.45,0-1.45s-.11.53-.24,1.46a26.36,26.36,0,0,0-.22,3.87,24.18,24.18,0,0,0,.87,5.23,19.09,19.09,0,0,0,2.26,5.11,15.63,15.63,0,0,0,3.52,3.59,11.55,11.55,0,0,0,3.6,1.71,9.68,9.68,0,0,0,2.68.36c.66,0,1,0,1,0s-.37,0-1-.2A13.73,13.73,0,0,1,16.35,116.51Z"/><path d="M9,105.28a20.41,20.41,0,0,0,1,2.31c.44.79.93,1.58,1.45,2.34a20.54,20.54,0,0,0,1.73,1.94A13.07,13.07,0,0,0,15,113.23a9.79,9.79,0,0,0,1.31.74l.51.22-.41-.45c-.28-.27-.64-.7-1.1-1.16s-1-1.08-1.47-1.67-1.05-1.29-1.56-2-1-1.41-1.5-2.13-.91-1.36-1.25-2-.68-1.08-.88-1.45l-.34-.55.17.71A18,18,0,0,0,9,105.28Z"/><path d="M42.69,81.28a14.24,14.24,0,0,0,3.73,0A19.39,19.39,0,0,0,50.66,80a17.47,17.47,0,0,0,3.77-2.37,22.65,22.65,0,0,0,2.78-2.75,13.73,13.73,0,0,0,1.51-2.3c.3-.6.48-.93.48-.93l-.63.81a18.84,18.84,0,0,1-1.75,2A23.75,23.75,0,0,1,54,76.89,16.25,16.25,0,0,1,50.34,79a16.91,16.91,0,0,1-4,1.26,17.44,17.44,0,0,1-3.56.37,16.82,16.82,0,0,1-2.54-.21c-.62-.09-1-.17-1-.17s.32.16.91.39A11.14,11.14,0,0,0,42.69,81.28Z"/><path d="M45.06,78.6a15.64,15.64,0,0,0,2-.32c.72-.19,1.48-.41,2.23-.66s1.46-.62,2.12-1,1.22-.74,1.75-1a13.61,13.61,0,0,0,1.21-.84l.43-.36-.51.18L53,75.09c-.54.23-1.2.42-1.84.71s-1.36.54-2.08.78-1.44.55-2.12.77-1.34.47-1.9.63l-1.38.46-.53.19.54,0A10.68,10.68,0,0,0,45.06,78.6Z"/><path d="M24.85,74a14.16,14.16,0,0,1-2.4-3,14.45,14.45,0,0,1-1.69-4.29,19.65,19.65,0,0,1-.56-5.13,25.44,25.44,0,0,1,.63-4.85,36.41,36.41,0,0,1,1-3.55,10.17,10.17,0,0,1,.5-1.35,11.46,11.46,0,0,0-.68,1.3,26.39,26.39,0,0,0-1.39,3.6,21.3,21.3,0,0,0-1,5.16,22,22,0,0,0,.46,5.53,13.74,13.74,0,0,0,2,4.45,11.58,11.58,0,0,0,2.75,2.73,9.41,9.41,0,0,0,2.34,1.16c.6.19,1,.27,1,.27s-.32-.16-.85-.5A13.24,13.24,0,0,1,24.85,74Z"/><path d="M22,58.66s0,.26-.09.71-.12,1.09-.11,1.82a15.22,15.22,0,0,0,.21,2.5c.16.88.36,1.78.6,2.66s.63,1.65,1,2.37a12.87,12.87,0,0,0,1.11,1.8,8.56,8.56,0,0,0,.93,1.09L26,72l-.22-.55c-.16-.32-.34-.84-.59-1.41s-.49-1.29-.78-2-.56-1.55-.8-2.39a25.65,25.65,0,0,1-.71-2.48c-.2-.83-.39-1.56-.49-2.23s-.24-1.21-.29-1.61Z"/><path d="M58.34,47.41a10.36,10.36,0,0,0,2.11,1.34,13.64,13.64,0,0,0,3.47,1.08,16.14,16.14,0,0,0,4.29.06,23.81,23.81,0,0,0,4.3-1.11A16.26,16.26,0,0,0,76,46.94a16.16,16.16,0,0,0,2.24-1.67c.49-.45.76-.73.76-.73s-.31.23-.86.58a22.16,22.16,0,0,1-2.36,1.34A22.75,22.75,0,0,1,72.33,48a19.2,19.2,0,0,1-4.1.9,14.83,14.83,0,0,1-4,.06,16.47,16.47,0,0,1-3.44-.73,16.12,16.12,0,0,1-2.28-1c-.53-.27-.83-.45-.83-.45S57.88,47,58.34,47.41Z"/><path d="M63.55,46.94a13.59,13.59,0,0,0,1.91.26c.72,0,1.46,0,2.26,0S69.3,47.09,70,47a18.63,18.63,0,0,0,2-.45,12.75,12.75,0,0,0,1.36-.47l.51-.22-.52,0L72,46c-.56.07-1.21.07-1.92.13s-1.46.1-2.22.1-1.54.06-2.23.08-1.36.08-1.92.07l-1.4,0-.54,0,.48.18A9.53,9.53,0,0,0,63.55,46.94Z"/><path d="M46.5,36.68a13.36,13.36,0,0,1-1.18-3.45,14.72,14.72,0,0,1-.21-4.56,18,18,0,0,1,1.22-4.89,30.41,30.41,0,0,1,2.12-4.39,35,35,0,0,1,2.14-2.95c.55-.7.9-1.1.9-1.1s-.4.35-1.06,1a27.2,27.2,0,0,0-2.52,2.88,27.89,27.89,0,0,0-2.53,4.56A17.87,17.87,0,0,0,44,29a14.82,14.82,0,0,0,.38,4.77,10.45,10.45,0,0,0,1.59,3.35,8.42,8.42,0,0,0,1.75,1.78c.49.36.78.53.78.53a9.35,9.35,0,0,1-.6-.72A11.36,11.36,0,0,1,46.5,36.68Z"/><path d="M48,23.8a20.63,20.63,0,0,0-.65,2.37c-.16.85-.28,1.75-.36,2.63a18.61,18.61,0,0,0,.12,2.51,13,13,0,0,0,.44,2,7.63,7.63,0,0,0,.51,1.3c.15.3.24.46.24.46s0-.21,0-.58,0-.9-.09-1.52,0-1.37-.09-2.15a18.47,18.47,0,0,1,.08-2.44c0-.83.09-1.68.2-2.49s.16-1.56.28-2.23.18-1.22.23-1.61.09-.62.09-.62l-.31.64C48.44,22.51,48.17,23.11,48,23.8Z"/><path d="M176.68,181.08l15.75,4.14-15.75,4.13,5.24-3.68H176l-.9.9v-.84l-1.59,1.59h-1.27l-1.59-1.59v.79l-.85-.85H159.7a1.8,1.8,0,0,0,1,1.56,1.79,1.79,0,0,1-.57.09,2.09,2.09,0,0,1-2.05-1.65h-.76a2.5,2.5,0,0,1-4.91,0h-.76a2.1,2.1,0,0,1-2,1.65,1.9,1.9,0,0,1-.58-.09,1.85,1.85,0,0,0,.95-1.56h-9.19l-.9.9v-.84l-1.59,1.59H137l-1.59-1.59v.79l-.85-.85h-1.48l-.57.57-.49-.49a27.91,27.91,0,0,1-4.91.59,30.11,30.11,0,0,1-5.31-.67h-.19l-.58.57-.48-.48-2.2,1.87-3.09.65,2.52-2.61h-.66l-2.63,2.67h-2.89l2.67-2.67h-.72l-2.67,2.67h-1.93V187l1.28-1.35h-.94v-.9h.94l-1.28-1.36V182.1h1.93l2.67,2.67h.72l-2.67-2.67h2.89l2.63,2.67h.66l-2.52-2.61,3.09.65,2.2,1.87.48-.49.58.58h.57a28.14,28.14,0,0,1,4.93-.6,28.18,28.18,0,0,1,4.84.58l.56-.56.57.58h1.48l.85-.85v.79l1.59-1.59h1.27l1.59,1.59v-.84l.9.9h9.2a1.81,1.81,0,0,0-1-1.57,2.25,2.25,0,0,1,.58-.08,2.1,2.1,0,0,1,2,1.65h.76a2.5,2.5,0,0,1,4.91,0H158a2.09,2.09,0,0,1,2.05-1.65,2.12,2.12,0,0,1,.57.08,1.88,1.88,0,0,0-1,1.57h10.09l.85-.85v.79l1.59-1.59h1.27l1.59,1.59v-.84l.9.9h5.93Z"/></g></g></svg>