<svg width="72.7" height="71.8" viewBox="0 0 72.7 71.8" xmlns="http://www.w3.org/2000/svg"><g id="svgGroup" stroke-linecap="round" fill-rule="evenodd" font-size="9pt" stroke="#000" stroke-width="0.25mm" fill="#000" style="stroke:#000;stroke-width:0.25mm;fill:#000"><path d="M 63.4 71.8 Q 60.4 71.8 58 69.95 A 16.531 16.531 0 0 1 54.747 66.652 A 15.245 15.245 0 0 1 54.1 65.7 Q 50.3 59.7 47.25 52.9 Q 44.2 46.1 41.3 39.6 Q 39.511 41.658 36.722 44.835 A 2995.005 2995.005 0 0 1 36.05 45.6 Q 32.8 49.3 28.85 53.35 Q 24.9 57.4 20.7 61 Q 16.5 64.6 12.55 66.9 A 21.149 21.149 0 0 1 9.923 68.21 Q 7.5 69.2 5.4 69.2 A 6.983 6.983 0 0 1 3.789 69.025 A 4.54 4.54 0 0 1 1.4 67.65 A 5.309 5.309 0 0 1 0.137 65.07 A 7.54 7.54 0 0 1 0 63.6 Q 0 59.4 2.5 55.85 Q 5 52.3 8.7 49.65 Q 12.4 47 15.9 45.6 Q 16 45.6 16.1 45.55 A 0.482 0.482 0 0 1 16.213 45.51 A 0.408 0.408 0 0 1 16.3 45.5 Q 16.52 45.5 16.794 45.608 A 2.536 2.536 0 0 1 17 45.7 A 0.692 0.692 0 0 1 17.294 45.964 Q 17.37 46.092 17.392 46.261 A 1.1 1.1 0 0 1 17.4 46.4 Q 17.4 46.558 17.151 46.716 A 1.721 1.721 0 0 1 17 46.8 Q 15.7 47.5 14.4 48.15 Q 13.1 48.8 11.8 49.6 Q 10.2 50.6 8.35 52.3 Q 6.5 54 5.2 56.05 A 8.817 8.817 0 0 0 4.267 57.983 A 6.977 6.977 0 0 0 3.9 60.2 A 4.368 4.368 0 0 0 4.008 61.202 Q 4.236 62.172 4.95 62.75 A 3.754 3.754 0 0 0 6.676 63.521 A 5.19 5.19 0 0 0 7.6 63.6 Q 9.58 63.6 12.045 62.524 A 21.759 21.759 0 0 0 13.9 61.6 A 42.745 42.745 0 0 0 17.796 59.136 A 57.344 57.344 0 0 0 21.35 56.4 Q 25.2 53.2 28.85 49.65 A 226.188 226.188 0 0 0 33.178 45.33 A 185.041 185.041 0 0 0 35.55 42.85 Q 38.278 39.943 40.007 37.956 A 83.823 83.823 0 0 0 40.4 37.5 A 271.035 271.035 0 0 0 39.334 35.074 Q 38.369 32.906 37.15 30.25 A 203.534 203.534 0 0 0 34 23.706 A 233.049 233.049 0 0 0 32.85 21.45 Q 30.5 16.9 28.05 13 A 38.344 38.344 0 0 0 26.258 10.379 Q 24.719 8.329 23.2 7 Q 22.2 6.1 21 5.5 Q 19.8 4.9 18.4 4.9 A 5.753 5.753 0 0 0 16.849 5.098 A 4.134 4.134 0 0 0 14.7 6.5 A 8.916 8.916 0 0 0 13.086 9.594 A 10.681 10.681 0 0 0 12.9 10.3 A 20.982 20.982 0 0 0 12.51 12.553 A 16.196 16.196 0 0 0 12.4 14.4 Q 12.4 18.3 13.4 22.05 Q 14.4 25.8 15.7 29.4 L 15.9 30.2 Q 16 30.6 16 31 Q 16 31.867 15.444 31.899 A 0.758 0.758 0 0 1 15.4 31.9 A 0.604 0.604 0 0 1 14.945 31.702 A 0.819 0.819 0 0 1 14.9 31.65 A 5.849 5.849 0 0 0 14.65 31.357 A 4.855 4.855 0 0 0 14.5 31.2 A 39.003 39.003 0 0 1 12.675 26.727 A 49.377 49.377 0 0 1 11.65 23.3 A 35.876 35.876 0 0 1 10.676 18.086 A 29.641 29.641 0 0 1 10.5 14.9 A 20.353 20.353 0 0 1 11.176 9.766 A 23.296 23.296 0 0 1 11.45 8.8 A 12.348 12.348 0 0 1 13.881 4.317 A 11.992 11.992 0 0 1 14.6 3.55 A 7.445 7.445 0 0 1 18.932 1.489 A 10.226 10.226 0 0 1 20.3 1.4 Q 23.5 1.4 26.05 3.35 Q 28.6 5.3 30.2 7.9 Q 33.8 13.5 37.3 20.5 Q 40.8 27.5 43.8 33.6 Q 48.6 28.1 53.2 22.45 Q 57.8 16.8 62.4 11.1 Q 64.5 8.5 66.6 5.85 Q 68.7 3.2 70.9 0.7 Q 71.053 0.547 71.265 0.365 A 10.781 10.781 0 0 1 71.4 0.25 A 1.287 1.287 0 0 1 71.611 0.105 Q 71.75 0.03 71.89 0.009 A 0.727 0.727 0 0 1 72 0 A 1.008 1.008 0 0 1 72.277 0.035 Q 72.588 0.124 72.67 0.441 A 1.031 1.031 0 0 1 72.7 0.7 Q 72.7 1 72.55 1.25 Q 72.4 1.5 72.2 1.7 Q 70.3 4.2 68.3 6.6 L 64.3 11.4 Q 59.5 17.5 54.65 23.55 Q 49.8 29.6 44.8 35.5 Q 47.1 40.3 49.55 45.15 Q 52 50 54.5 54.7 Q 55.9 57.2 57.45 60 A 33.861 33.861 0 0 0 60.315 64.369 A 30.659 30.659 0 0 0 60.9 65.1 A 8.439 8.439 0 0 0 61.875 66.12 A 11.624 11.624 0 0 0 63 67 Q 64.3 67.9 65.7 67.9 Q 67.063 67.9 67.265 66.811 A 2.259 2.259 0 0 0 67.3 66.4 Q 67.3 64.9 66.35 63.65 A 10.706 10.706 0 0 1 65.98 63.134 Q 65.453 62.348 65.405 61.889 A 0.853 0.853 0 0 1 65.4 61.8 Q 65.4 61.2 66.1 61.2 A 1.045 1.045 0 0 1 66.88 61.554 Q 67.032 61.714 67.161 61.946 A 3.265 3.265 0 0 1 67.35 62.35 A 13.09 13.09 0 0 1 67.894 64.107 A 15.407 15.407 0 0 1 68.05 64.85 Q 68.239 65.868 68.285 66.459 A 4.418 4.418 0 0 1 68.3 66.8 A 6.59 6.59 0 0 1 68.132 68.331 A 4.493 4.493 0 0 1 67 70.45 A 4.274 4.274 0 0 1 64.802 71.655 A 6.391 6.391 0 0 1 63.4 71.8 Z" vector-effect="non-scaling-stroke"/></g></svg>